G04 Layer: TopPasteMaskLayer*
G04 EasyEDA v5.9.42, Tue, 02 Apr 2019 20:51:07 GMT*
G04 166f39b61798459ea13d042530858995*
G04 Gerber Generator version 0.2*
G04 Scale: 100 percent, Rotated: No, Reflected: No *
G04 Dimensions in millimeters *
G04 leading zeros omitted , absolute positions ,3 integer and 3 decimal *
%FSLAX33Y33*%
%MOMM*%
G90*
G71D02*

%ADD13C,0.699999*%
%ADD15R,1.600200X1.800860*%
%ADD16R,1.499997X2.999994*%
%ADD17R,1.219200X0.909320*%
%ADD18R,1.600200X1.999996*%
%ADD19R,1.800860X1.600200*%
%ADD20R,1.160018X1.450010*%

%LPD*%
G54D13*
G01X50165Y46184D02*
G01X48665Y46184D01*
G01X50165Y47454D02*
G01X48665Y47454D01*
G01X50165Y48724D02*
G01X48665Y48724D01*
G01X50165Y49994D02*
G01X48665Y49994D01*
G01X44120Y46184D02*
G01X42620Y46184D01*
G01X44120Y47454D02*
G01X42620Y47454D01*
G01X44120Y48724D02*
G01X42620Y48724D01*
G01X44120Y49994D02*
G01X42620Y49994D01*
G54D15*
G01X46609Y8002D03*
G01X49403Y8002D03*
G01X38354Y8002D03*
G01X41148Y8002D03*
G54D16*
G01X45410Y16572D03*
G01X43409Y8573D03*
G01X38409Y16572D03*
G01X45410Y25716D03*
G01X43409Y17717D03*
G01X38409Y25716D03*
G54D17*
G01X49657Y31089D03*
G01X49657Y27838D03*
G01X47371Y31089D03*
G01X47371Y27838D03*
G54D18*
G01X46151Y33781D03*
G01X49352Y33781D03*
G01X46151Y36702D03*
G01X49352Y36702D03*
G54D15*
G01X43307Y26415D03*
G01X40513Y26415D03*
G01X40513Y29463D03*
G01X43307Y29463D03*
G54D19*
G01X43561Y40512D03*
G01X43561Y43306D03*
G01X49149Y40512D03*
G01X49149Y43306D03*
G54D18*
G01X39548Y33781D03*
G01X42747Y33781D03*
G01X39548Y36702D03*
G01X42747Y36702D03*
G54D20*
G01X36195Y34924D03*
G01X34163Y34924D03*
G01X36195Y37337D03*
G01X34163Y37337D03*
M00*
M02*
