G04 Layer: BottomSolderMaskLayer*
G04 EasyEDA v5.9.42, Tue, 02 Apr 2019 20:51:07 GMT*
G04 166f39b61798459ea13d042530858995*
G04 Gerber Generator version 0.2*
G04 Scale: 100 percent, Rotated: No, Reflected: No *
G04 Dimensions in millimeters *
G04 leading zeros omitted , absolute positions ,3 integer and 3 decimal *
%FSLAX33Y33*%
%MOMM*%
G90*
G71D02*

%ADD46C,2.203196*%
%ADD48R,1.903197X1.903197*%
%ADD49C,1.903197*%
%ADD51C,3.251200*%
%ADD52C,3.253207*%
%ADD54C,2.997200*%
%ADD55R,1.422400X1.112520*%
%ADD56R,1.803400X2.203196*%
%ADD57R,2.004060X1.803400*%
%ADD59R,2.203196X4.003192*%
%ADD60R,2.203196X1.703197*%
%ADD61R,0.903199X1.453210*%
%ADD62R,1.112520X1.422400*%
%ADD63R,1.253211X1.053211*%
%ADD64R,1.603197X1.453210*%
%ADD65R,1.653210X1.363218*%
%ADD66R,2.203196X1.803400*%

%LPD*%
G54D46*
G01X34098Y45592D02*
G01X34298Y45592D01*
G01X39107Y45592D02*
G01X39307Y45592D01*
G54D59*
G01X13333Y15874D03*
G54D60*
G01X7034Y15873D03*
G01X7034Y18173D03*
G01X7034Y13573D03*
G54D56*
G01X20015Y17651D03*
G01X16814Y17651D03*
G01X20015Y14603D03*
G01X16814Y14603D03*
G01X25857Y17651D03*
G01X22656Y17651D03*
G01X25857Y14606D03*
G01X22656Y14606D03*
G54D55*
G01X49659Y30962D03*
G01X49659Y27711D03*
G01X46736Y30962D03*
G01X46736Y27711D03*
G54D60*
G01X12654Y31112D03*
G01X12654Y28572D03*
G01X3354Y28572D03*
G01X3354Y31112D03*
G01X28779Y31114D03*
G01X28779Y28574D03*
G01X19480Y28574D03*
G01X19480Y31114D03*
G54D57*
G01X45972Y9524D03*
G01X45972Y6730D03*
G01X49023Y9522D03*
G01X49023Y6728D03*
G54D61*
G01X39497Y9250D03*
G01X38547Y6751D03*
G01X40446Y6751D03*
G01X42928Y9248D03*
G01X41978Y6748D03*
G01X43878Y6748D03*
G01X16002Y30967D03*
G01X15052Y28468D03*
G01X16951Y28468D03*
G01X32258Y30967D03*
G01X31308Y28468D03*
G01X33207Y28468D03*
G54D62*
G01X6375Y34416D03*
G01X9626Y34416D03*
G01X22504Y34289D03*
G01X25755Y34289D03*
G54D57*
G01X17016Y8889D03*
G01X17016Y11683D03*
G01X20191Y8889D03*
G01X20191Y11683D03*
G54D56*
G01X40944Y17271D03*
G01X44145Y17271D03*
G54D63*
G01X3975Y11174D03*
G01X3975Y7875D03*
G54D64*
G01X2374Y11749D03*
G01X2374Y7299D03*
G54D65*
G01X9271Y22605D03*
G01X9271Y24637D03*
G01X25400Y22605D03*
G01X25400Y24637D03*
G01X6858Y24637D03*
G01X6858Y22605D03*
G01X22987Y24637D03*
G01X22987Y22605D03*
G54D66*
G01X39879Y29664D03*
G01X39879Y26464D03*
G01X42799Y26466D03*
G01X42799Y29667D03*
G54D48*
G01X38862Y1650D03*
G54D49*
G01X38862Y4190D03*
G01X41402Y1650D03*
G01X41402Y4190D03*
G01X43942Y1650D03*
G01X43942Y4190D03*
G01X46482Y1650D03*
G01X46482Y4190D03*
G54D51*
G01X2952Y2713D03*
G01X2952Y18113D03*
G01X32353Y7915D03*
G54D52*
G01X32353Y12914D03*
G54D54*
G01X18003Y23506D03*
G01X24003Y37707D03*
G01X30002Y35708D03*
G01X18003Y35708D03*
G01X30002Y23506D03*
G01X2001Y23506D03*
G01X8001Y37707D03*
G01X14000Y35708D03*
G01X2001Y35708D03*
G01X14000Y23506D03*
G54D46*
G01X18415Y45973D03*
G01X23495Y45973D03*
G01X28575Y45973D03*
G01X2794Y45973D03*
G01X7874Y45973D03*
G01X12954Y45973D03*
M00*
M02*
