G04 Layer: TopSilkLayer*
G04 EasyEDA v5.9.42, Tue, 02 Apr 2019 20:51:07 GMT*
G04 166f39b61798459ea13d042530858995*
G04 Gerber Generator version 0.2*
G04 Scale: 100 percent, Rotated: No, Reflected: No *
G04 Dimensions in millimeters *
G04 leading zeros omitted , absolute positions ,3 integer and 3 decimal *
%FSLAX33Y33*%
%MOMM*%
G90*
G71D02*

%ADD10C,0.254000*%
%ADD12C,0.151994*%
%ADD35C,0.159995*%
%ADD36C,0.299999*%
%ADD37C,0.199898*%
%ADD39C,0.127000*%
%ADD41C,0.152400*%

%LPD*%

%LPD*%
G36*
G01X35302Y33573D02*
G01X35238Y33573D01*
G01X35174Y33570D01*
G01X35110Y33565D01*
G01X35045Y33557D01*
G01X34980Y33548D01*
G01X34914Y33536D01*
G01X34849Y33521D01*
G01X34783Y33504D01*
G01X34716Y33484D01*
G01X34649Y33463D01*
G01X34582Y33438D01*
G01X34514Y33412D01*
G01X34459Y33389D01*
G01X34405Y33364D01*
G01X34352Y33337D01*
G01X34300Y33308D01*
G01X34248Y33277D01*
G01X34198Y33245D01*
G01X34147Y33211D01*
G01X34098Y33175D01*
G01X34050Y33138D01*
G01X34003Y33100D01*
G01X33957Y33060D01*
G01X33912Y33018D01*
G01X33868Y32976D01*
G01X33826Y32932D01*
G01X33784Y32886D01*
G01X33744Y32840D01*
G01X33706Y32792D01*
G01X33669Y32744D01*
G01X33633Y32695D01*
G01X33599Y32644D01*
G01X33566Y32593D01*
G01X33506Y32489D01*
G01X33479Y32435D01*
G01X33453Y32381D01*
G01X33430Y32326D01*
G01X33408Y32271D01*
G01X33388Y32215D01*
G01X33363Y32135D01*
G01X33341Y32053D01*
G01X33320Y31970D01*
G01X33302Y31887D01*
G01X33287Y31805D01*
G01X33276Y31725D01*
G01X33267Y31649D01*
G01X33261Y31578D01*
G01X33259Y31514D01*
G01X33261Y31456D01*
G01X33266Y31406D01*
G01X33276Y31367D01*
G01X33286Y31330D01*
G01X33298Y31277D01*
G01X33312Y31214D01*
G01X33325Y31149D01*
G01X33336Y31090D01*
G01X33351Y31032D01*
G01X33367Y30973D01*
G01X33385Y30916D01*
G01X33406Y30858D01*
G01X33428Y30802D01*
G01X33452Y30746D01*
G01X33478Y30691D01*
G01X33507Y30636D01*
G01X33536Y30583D01*
G01X33568Y30529D01*
G01X33601Y30477D01*
G01X33636Y30426D01*
G01X33673Y30376D01*
G01X33711Y30327D01*
G01X33751Y30279D01*
G01X33792Y30232D01*
G01X33834Y30187D01*
G01X33878Y30142D01*
G01X33924Y30099D01*
G01X33970Y30057D01*
G01X34018Y30017D01*
G01X34067Y29979D01*
G01X34117Y29941D01*
G01X34169Y29905D01*
G01X34221Y29871D01*
G01X34275Y29839D01*
G01X34330Y29808D01*
G01X34385Y29779D01*
G01X34441Y29752D01*
G01X34499Y29727D01*
G01X34557Y29704D01*
G01X34627Y29678D01*
G01X34696Y29655D01*
G01X34762Y29635D01*
G01X34826Y29618D01*
G01X34890Y29604D01*
G01X34954Y29593D01*
G01X35018Y29584D01*
G01X35083Y29578D01*
G01X35150Y29575D01*
G01X35219Y29573D01*
G01X35292Y29574D01*
G01X35367Y29577D01*
G01X35427Y29581D01*
G01X35484Y29586D01*
G01X35540Y29592D01*
G01X35595Y29600D01*
G01X35648Y29609D01*
G01X35701Y29620D01*
G01X35753Y29632D01*
G01X35804Y29645D01*
G01X35855Y29660D01*
G01X35905Y29677D01*
G01X35956Y29695D01*
G01X36007Y29715D01*
G01X36059Y29737D01*
G01X36111Y29761D01*
G01X36164Y29787D01*
G01X36218Y29815D01*
G01X36283Y29850D01*
G01X36341Y29885D01*
G01X36395Y29921D01*
G01X36448Y29960D01*
G01X36503Y30005D01*
G01X36562Y30059D01*
G01X36628Y30123D01*
G01X36705Y30198D01*
G01X36757Y30253D01*
G01X36807Y30305D01*
G01X36852Y30354D01*
G01X36891Y30398D01*
G01X36923Y30436D01*
G01X36948Y30466D01*
G01X36964Y30489D01*
G01X36969Y30501D01*
G01X36973Y30520D01*
G01X36986Y30543D01*
G01X37004Y30570D01*
G01X37027Y30596D01*
G01X37050Y30625D01*
G01X37071Y30660D01*
G01X37089Y30697D01*
G01X37099Y30730D01*
G01X37106Y30764D01*
G01X37126Y30838D01*
G01X37136Y30868D01*
G01X37146Y30894D01*
G01X37155Y30919D01*
G01X37162Y30941D01*
G01X37167Y30955D01*
G01X37172Y30974D01*
G01X37182Y31006D01*
G01X37194Y31047D01*
G01X37208Y31093D01*
G01X37220Y31139D01*
G01X37230Y31193D01*
G01X37239Y31254D01*
G01X37247Y31320D01*
G01X37252Y31389D01*
G01X37256Y31460D01*
G01X37259Y31533D01*
G01X37259Y31605D01*
G01X37258Y31674D01*
G01X37255Y31740D01*
G01X37249Y31801D01*
G01X37242Y31855D01*
G01X37231Y31913D01*
G01X37219Y31972D01*
G01X37205Y32032D01*
G01X37190Y32092D01*
G01X37173Y32152D01*
G01X37156Y32210D01*
G01X37137Y32266D01*
G01X37119Y32318D01*
G01X37099Y32368D01*
G01X37080Y32414D01*
G01X37061Y32455D01*
G01X37041Y32490D01*
G01X37029Y32513D01*
G01X37010Y32547D01*
G01X36989Y32589D01*
G01X36966Y32632D01*
G01X36942Y32672D01*
G01X36908Y32720D01*
G01X36866Y32774D01*
G01X36817Y32831D01*
G01X36763Y32891D01*
G01X36706Y32952D01*
G01X36647Y33012D01*
G01X36587Y33070D01*
G01X36528Y33124D01*
G01X36472Y33172D01*
G01X36420Y33213D01*
G01X36374Y33245D01*
G01X36306Y33288D01*
G01X36241Y33326D01*
G01X36178Y33361D01*
G01X36116Y33392D01*
G01X36055Y33419D01*
G01X35992Y33444D01*
G01X35929Y33466D01*
G01X35862Y33487D01*
G01X35793Y33505D01*
G01X35720Y33521D01*
G01X35641Y33537D01*
G01X35556Y33551D01*
G01X35493Y33560D01*
G01X35430Y33567D01*
G01X35366Y33571D01*
G01X35302Y33573D01*
G37*

%LPC*%
G36*
G01X35136Y32805D02*
G01X35105Y32813D01*
G01X35074Y32812D01*
G01X35040Y32801D01*
G01X35003Y32780D01*
G01X34963Y32748D01*
G01X34917Y32703D01*
G01X34865Y32647D01*
G01X34805Y32577D01*
G01X34629Y32365D01*
G01X34493Y32365D01*
G01X34420Y32363D01*
G01X34368Y32352D01*
G01X34327Y32330D01*
G01X34285Y32292D01*
G01X34239Y32235D01*
G01X34217Y32174D01*
G01X34217Y32105D01*
G01X34239Y32021D01*
G01X34251Y31974D01*
G01X34243Y31932D01*
G01X34209Y31877D01*
G01X34141Y31791D01*
G01X34113Y31757D01*
G01X34087Y31726D01*
G01X34066Y31697D01*
G01X34048Y31670D01*
G01X34033Y31645D01*
G01X34024Y31619D01*
G01X34018Y31594D01*
G01X34018Y31568D01*
G01X34022Y31540D01*
G01X34032Y31509D01*
G01X34048Y31475D01*
G01X34070Y31437D01*
G01X34097Y31396D01*
G01X34131Y31349D01*
G01X34172Y31295D01*
G01X34220Y31235D01*
G01X34275Y31168D01*
G01X34338Y31093D01*
G01X34409Y31009D01*
G01X34488Y30915D01*
G01X34552Y30840D01*
G01X34615Y30766D01*
G01X34675Y30696D01*
G01X34731Y30630D01*
G01X34784Y30568D01*
G01X34833Y30511D01*
G01X34877Y30461D01*
G01X34915Y30418D01*
G01X34946Y30382D01*
G01X34972Y30354D01*
G01X34989Y30335D01*
G01X34999Y30326D01*
G01X35036Y30304D01*
G01X35074Y30297D01*
G01X35112Y30303D01*
G01X35146Y30320D01*
G01X35177Y30348D01*
G01X35200Y30385D01*
G01X35216Y30430D01*
G01X35222Y30481D01*
G01X35222Y30568D01*
G01X35486Y30569D01*
G01X35632Y30570D01*
G01X35756Y30570D01*
G01X35860Y30572D01*
G01X35947Y30574D01*
G01X36018Y30577D01*
G01X36075Y30581D01*
G01X36120Y30586D01*
G01X36155Y30593D01*
G01X36182Y30601D01*
G01X36203Y30611D01*
G01X36221Y30624D01*
G01X36236Y30637D01*
G01X36246Y30648D01*
G01X36254Y30658D01*
G01X36262Y30670D01*
G01X36269Y30684D01*
G01X36274Y30702D01*
G01X36279Y30726D01*
G01X36283Y30756D01*
G01X36286Y30795D01*
G01X36288Y30842D01*
G01X36291Y30900D01*
G01X36293Y30970D01*
G01X36294Y31053D01*
G01X36296Y31150D01*
G01X36297Y31264D01*
G01X36298Y31394D01*
G01X36299Y31543D01*
G01X36306Y32392D01*
G01X36234Y32466D01*
G01X36160Y32540D01*
G01X35222Y32540D01*
G01X35222Y32601D01*
G01X35215Y32667D01*
G01X35195Y32729D01*
G01X35168Y32779D01*
G01X35136Y32805D01*
G37*

%LPD*%
G36*
G01X35090Y32695D02*
G01X35074Y32702D01*
G01X35046Y32685D01*
G01X34997Y32638D01*
G01X34932Y32568D01*
G01X34858Y32483D01*
G01X34677Y32266D01*
G01X34536Y32266D01*
G01X34478Y32263D01*
G01X34428Y32256D01*
G01X34388Y32247D01*
G01X34365Y32236D01*
G01X34340Y32184D01*
G01X34336Y32118D01*
G01X34351Y32056D01*
G01X34386Y32016D01*
G01X34410Y31996D01*
G01X34405Y31964D01*
G01X34363Y31904D01*
G01X34275Y31798D01*
G01X34213Y31721D01*
G01X34161Y31651D01*
G01X34127Y31596D01*
G01X34114Y31564D01*
G01X34120Y31541D01*
G01X34134Y31509D01*
G01X34156Y31473D01*
G01X34182Y31437D01*
G01X34216Y31396D01*
G01X34252Y31351D01*
G01X34293Y31303D01*
G01X34334Y31253D01*
G01X34378Y31200D01*
G01X34424Y31146D01*
G01X34470Y31091D01*
G01X34517Y31035D01*
G01X34564Y30980D01*
G01X34610Y30924D01*
G01X34656Y30871D01*
G01X34700Y30819D01*
G01X34743Y30768D01*
G01X34784Y30721D01*
G01X34822Y30677D01*
G01X34857Y30636D01*
G01X34889Y30600D01*
G01X34916Y30569D01*
G01X34940Y30543D01*
G01X34958Y30523D01*
G01X35005Y30474D01*
G01X35043Y30440D01*
G01X35072Y30422D01*
G01X35094Y30419D01*
G01X35108Y30432D01*
G01X35117Y30461D01*
G01X35120Y30506D01*
G01X35119Y30568D01*
G01X35112Y30681D01*
G01X35641Y30693D01*
G01X36169Y30705D01*
G01X36176Y31560D01*
G01X36176Y31676D01*
G01X36177Y31787D01*
G01X36178Y31893D01*
G01X36178Y32351D01*
G01X36177Y32388D01*
G01X36176Y32411D01*
G01X36176Y32420D01*
G01X36164Y32421D01*
G01X36132Y32423D01*
G01X36082Y32425D01*
G01X36016Y32428D01*
G01X35937Y32430D01*
G01X35847Y32433D01*
G01X35748Y32436D01*
G01X35642Y32439D01*
G01X35116Y32452D01*
G01X35112Y32577D01*
G01X35108Y32634D01*
G01X35101Y32672D01*
G01X35090Y32695D01*
G37*

%LPC*%
G36*
G01X34919Y32129D02*
G01X34903Y32133D01*
G01X34886Y32130D01*
G01X34869Y32119D01*
G01X34844Y32092D01*
G01X34817Y32052D01*
G01X34789Y32003D01*
G01X34762Y31947D01*
G01X34737Y31887D01*
G01X34714Y31824D01*
G01X34695Y31763D01*
G01X34683Y31706D01*
G01X34673Y31646D01*
G01X34664Y31593D01*
G01X34659Y31553D01*
G01X34658Y31531D01*
G01X34669Y31459D01*
G01X34687Y31383D01*
G01X34710Y31307D01*
G01X34738Y31233D01*
G01X34769Y31163D01*
G01X34802Y31101D01*
G01X34837Y31049D01*
G01X34871Y31011D01*
G01X34898Y30988D01*
G01X34916Y30980D01*
G01X34932Y30985D01*
G01X34949Y31003D01*
G01X34962Y31025D01*
G01X34962Y31049D01*
G01X34947Y31081D01*
G01X34917Y31124D01*
G01X34884Y31171D01*
G01X34856Y31222D01*
G01X34833Y31275D01*
G01X34814Y31330D01*
G01X34799Y31388D01*
G01X34788Y31446D01*
G01X34781Y31506D01*
G01X34779Y31566D01*
G01X34781Y31625D01*
G01X34787Y31685D01*
G01X34798Y31743D01*
G01X34812Y31800D01*
G01X34831Y31855D01*
G01X34854Y31908D01*
G01X34882Y31958D01*
G01X34914Y32005D01*
G01X34944Y32048D01*
G01X34958Y32077D01*
G01X34955Y32097D01*
G01X34938Y32116D01*
G01X34919Y32129D01*
G37*
G36*
G01X35095Y31958D02*
G01X35065Y31966D01*
G01X35026Y31936D01*
G01X34982Y31873D01*
G01X34938Y31781D01*
G01X34920Y31728D01*
G01X34909Y31671D01*
G01X34903Y31610D01*
G01X34903Y31547D01*
G01X34909Y31484D01*
G01X34921Y31421D01*
G01X34938Y31359D01*
G01X34961Y31301D01*
G01X35006Y31212D01*
G01X35043Y31164D01*
G01X35077Y31150D01*
G01X35112Y31169D01*
G01X35131Y31187D01*
G01X35136Y31202D01*
G01X35129Y31220D01*
G01X35109Y31244D01*
G01X35070Y31298D01*
G01X35041Y31360D01*
G01X35020Y31429D01*
G01X35009Y31503D01*
G01X35007Y31579D01*
G01X35015Y31656D01*
G01X35033Y31731D01*
G01X35061Y31802D01*
G01X35088Y31862D01*
G01X35102Y31905D01*
G01X35104Y31937D01*
G01X35095Y31958D01*
G37*
G36*
G01X35272Y31795D02*
G01X35251Y31807D01*
G01X35220Y31790D01*
G01X35186Y31744D01*
G01X35170Y31705D01*
G01X35159Y31660D01*
G01X35153Y31613D01*
G01X35150Y31563D01*
G01X35153Y31513D01*
G01X35160Y31465D01*
G01X35171Y31422D01*
G01X35187Y31384D01*
G01X35220Y31341D01*
G01X35252Y31326D01*
G01X35272Y31339D01*
G01X35273Y31382D01*
G01X35269Y31411D01*
G01X35266Y31456D01*
G01X35264Y31510D01*
G01X35263Y31567D01*
G01X35264Y31623D01*
G01X35266Y31677D01*
G01X35269Y31722D01*
G01X35273Y31751D01*
G01X35272Y31795D01*
G37*
G36*
G01X35534Y31649D02*
G01X35484Y31667D01*
G01X35433Y31657D01*
G01X35395Y31618D01*
G01X35376Y31576D01*
G01X35372Y31543D01*
G01X35384Y31515D01*
G01X35414Y31483D01*
G01X35453Y31453D01*
G01X35486Y31445D01*
G01X35517Y31457D01*
G01X35554Y31492D01*
G01X35575Y31520D01*
G01X35585Y31544D01*
G01X35583Y31571D01*
G01X35571Y31604D01*
G01X35534Y31649D01*
G37*

%LPD*%
G54D35*
G01X35178Y25780D02*
G01X35178Y254D01*
G01X50164Y254D01*
G01X50164Y25780D01*
G01X35178Y25780D01*
G54D10*
G01X41909Y31114D02*
G01X41909Y26288D01*
G01X43180Y31876D02*
G01X45212Y31876D01*
G01X45212Y31368D01*
G01X45212Y29590D02*
G01X45212Y28701D01*
G01X48513Y31876D02*
G01X48513Y27050D01*
G01X49402Y27050D01*
G01X47625Y27050D02*
G01X48514Y27050D01*
G01X47625Y31876D02*
G01X48514Y31876D01*
G01X48514Y31876D02*
G01X49403Y31876D01*
G54D12*
G01X35813Y21335D02*
G01X35813Y20192D01*
G01X35813Y13906D02*
G01X35813Y12763D01*
G54D10*
G01X37337Y5461D02*
G01X48005Y5461D01*
G01X48005Y381D01*
G01X37337Y381D01*
G01X37337Y5461D01*
G01X47243Y9270D02*
G01X45465Y9270D01*
G01X45465Y6730D01*
G01X47243Y6730D01*
G01X48767Y6730D02*
G01X50545Y6730D01*
G01X50545Y9270D01*
G01X48767Y9270D01*
G01X38988Y9270D02*
G01X37210Y9270D01*
G01X37210Y6730D01*
G01X38988Y6730D01*
G01X40512Y6730D02*
G01X42290Y6730D01*
G01X42290Y9270D01*
G01X40512Y9270D01*
G01X34658Y313D02*
G01X278Y313D01*
G01X34658Y20513D02*
G01X34658Y313D01*
G01X278Y20513D02*
G01X278Y313D01*
G01X34658Y20513D02*
G01X278Y20513D01*
G01X47509Y15572D02*
G01X47509Y9572D01*
G01X47509Y9572D02*
G01X38510Y9572D01*
G01X36510Y9572D02*
G01X36510Y15572D01*
G01X36510Y15572D02*
G01X47509Y15572D01*
G01X47509Y15072D02*
G01X50509Y15072D01*
G01X50509Y15072D02*
G01X50509Y10072D01*
G01X47509Y10072D02*
G01X50509Y10072D01*
G01X38510Y9573D02*
G01X38510Y10271D01*
G01X37309Y10271D01*
G01X37309Y9573D01*
G01X36509Y9573D01*
G01X47509Y24716D02*
G01X47509Y18716D01*
G01X47509Y18716D02*
G01X38510Y18716D01*
G01X36510Y18716D02*
G01X36510Y24716D01*
G01X36510Y24716D02*
G01X47509Y24716D01*
G01X47509Y24216D02*
G01X50509Y24216D01*
G01X50509Y24216D02*
G01X50509Y19216D01*
G01X47509Y19216D02*
G01X50509Y19216D01*
G01X38510Y18717D02*
G01X38510Y19415D01*
G01X37309Y19415D01*
G01X37309Y18717D01*
G01X36509Y18717D01*
G54D36*
G01X18102Y23438D02*
G01X23690Y23438D01*
G01X31932Y21027D02*
G01X16304Y21017D01*
G01X16304Y39847D01*
G01X31913Y39827D01*
G01X25529Y33090D02*
G01X25529Y31250D01*
G01X22866Y31250D01*
G01X22866Y34806D01*
G01X25529Y34806D01*
G01X25529Y32898D01*
G01X30101Y32898D01*
G01X30101Y35638D01*
G01X18102Y35638D02*
G01X18102Y33090D01*
G01X22866Y33090D01*
G01X24102Y37638D02*
G01X27730Y37638D01*
G01X27730Y29002D01*
G01X24730Y29002D01*
G01X24706Y28978D01*
G01X24706Y24962D01*
G01X24706Y24454D01*
G01X24682Y24417D02*
G01X26292Y22766D01*
G54D10*
G01X31963Y39827D02*
G01X31963Y39837D01*
G01X31963Y20997D01*
G01X31963Y20997D01*
G01X30103Y23507D02*
G01X26023Y23507D01*
G54D36*
G01X2100Y23438D02*
G01X7688Y23438D01*
G01X15930Y21027D02*
G01X302Y21017D01*
G01X302Y39847D01*
G01X15911Y39827D01*
G01X9528Y33090D02*
G01X9528Y31250D01*
G01X6864Y31250D01*
G01X6864Y34806D01*
G01X9528Y34806D01*
G01X9528Y32898D01*
G01X14100Y32898D01*
G01X14100Y35638D01*
G01X2100Y35638D02*
G01X2100Y33090D01*
G01X6864Y33090D01*
G01X8100Y37638D02*
G01X11728Y37638D01*
G01X11728Y29002D01*
G01X8728Y29002D01*
G01X8704Y28978D01*
G01X8704Y24962D01*
G01X8704Y24454D01*
G01X8680Y24417D02*
G01X10290Y22766D01*
G54D10*
G01X15961Y39827D02*
G01X15961Y39837D01*
G01X15961Y20997D01*
G01X15961Y20997D01*
G01X14101Y23507D02*
G01X10021Y23507D01*
G01X15848Y50496D02*
G01X31088Y50496D01*
G01X15848Y50496D02*
G01X15848Y40336D01*
G01X15848Y40336D02*
G01X31088Y40336D01*
G01X15831Y49505D02*
G01X31071Y49505D01*
G01X31088Y50506D02*
G01X31088Y40346D01*
G01X28673Y49505D02*
G01X29662Y50494D01*
G01X29692Y50494D01*
G01X27144Y49534D02*
G01X26215Y50464D01*
G01X26215Y50494D01*
G01X24274Y50441D02*
G01X23345Y49512D01*
G01X23315Y49512D01*
G01X21630Y49527D02*
G01X20700Y50456D01*
G01X20700Y50486D01*
G01X18955Y50441D02*
G01X18026Y49512D01*
G01X17996Y49512D01*
G01X15860Y40731D02*
G01X31100Y40731D01*
G01X227Y50496D02*
G01X15467Y50496D01*
G01X227Y50496D02*
G01X227Y40336D01*
G01X227Y40336D02*
G01X15467Y40336D01*
G01X210Y49505D02*
G01X15450Y49505D01*
G01X15467Y50506D02*
G01X15467Y40346D01*
G01X13052Y49505D02*
G01X14041Y50494D01*
G01X14071Y50494D01*
G01X11523Y49534D02*
G01X10594Y50464D01*
G01X10594Y50494D01*
G01X8654Y50441D02*
G01X7724Y49512D01*
G01X7694Y49512D01*
G01X6009Y49527D02*
G01X5079Y50456D01*
G01X5079Y50486D01*
G01X3334Y50441D02*
G01X2405Y49512D01*
G01X2375Y49512D01*
G01X239Y40731D02*
G01X15479Y40731D01*
G01X31468Y50593D02*
G01X41968Y50593D01*
G01X31468Y50593D02*
G01X31468Y40292D01*
G01X31468Y40292D02*
G01X41968Y40292D01*
G01X41968Y50593D02*
G01X41968Y40292D01*
G01X31468Y47933D02*
G01X41968Y47933D01*
G01X31468Y40853D02*
G01X41968Y40853D01*
G01X31468Y41482D02*
G01X41968Y41482D01*
G01X38375Y50522D02*
G01X38375Y49982D01*
G01X39904Y49982D01*
G01X39904Y50522D01*
G01X33556Y50551D02*
G01X33556Y50011D01*
G01X35086Y50011D01*
G01X35086Y50551D01*
G01X49656Y29286D02*
G01X49250Y29870D01*
G01X49250Y29870D02*
G01X50063Y29870D01*
G01X50063Y29870D02*
G01X49656Y29286D01*
G01X48869Y28117D02*
G01X48869Y30810D01*
G01X50444Y30810D02*
G01X50444Y28117D01*
G01X47370Y29286D02*
G01X46964Y29870D01*
G01X46964Y29870D02*
G01X47777Y29870D01*
G01X47777Y29870D02*
G01X47370Y29286D01*
G01X46583Y28117D02*
G01X46583Y30810D01*
G01X48158Y30810D02*
G01X48158Y28117D01*
G01X46989Y35051D02*
G01X45141Y35051D01*
G01X45141Y32511D01*
G01X46989Y32511D01*
G01X48513Y32511D02*
G01X50371Y32511D01*
G01X50371Y35051D01*
G01X48513Y35051D01*
G01X46989Y37972D02*
G01X45141Y37972D01*
G01X45141Y35432D01*
G01X46989Y35432D01*
G01X48513Y35432D02*
G01X50371Y35432D01*
G01X50371Y37972D01*
G01X48513Y37972D01*
G01X42671Y25145D02*
G01X44449Y25145D01*
G01X44449Y27685D01*
G01X42671Y27685D01*
G01X41147Y27685D02*
G01X39369Y27685D01*
G01X39369Y25145D01*
G01X41147Y25145D01*
G01X41147Y30733D02*
G01X39369Y30733D01*
G01X39369Y28193D01*
G01X41147Y28193D01*
G01X42671Y28193D02*
G01X44449Y28193D01*
G01X44449Y30733D01*
G01X42671Y30733D01*
G01X42290Y41147D02*
G01X42290Y39369D01*
G01X44830Y39369D01*
G01X44830Y41147D01*
G01X44830Y42671D02*
G01X44830Y44449D01*
G01X42290Y44449D01*
G01X42290Y42671D01*
G01X47878Y41147D02*
G01X47878Y39369D01*
G01X50418Y39369D01*
G01X50418Y41147D01*
G01X50418Y42671D02*
G01X50418Y44449D01*
G01X47878Y44449D01*
G01X47878Y42671D01*
G01X40385Y35051D02*
G01X38537Y35051D01*
G01X38537Y32511D01*
G01X40385Y32511D01*
G01X41909Y32511D02*
G01X43767Y32511D01*
G01X43767Y35051D01*
G01X41909Y35051D01*
G01X40385Y37972D02*
G01X38537Y37972D01*
G01X38537Y35432D01*
G01X40385Y35432D01*
G01X41909Y35432D02*
G01X43767Y35432D01*
G01X43767Y37972D01*
G01X41909Y37972D01*
G01X47993Y45676D02*
G01X47993Y50502D01*
G01X44843Y50502D01*
G01X44843Y45676D01*
G01X44843Y45676D02*
G01X45783Y45676D01*
G01X47053Y45676D02*
G01X47993Y45676D01*
G54D37*
G01X34624Y35959D02*
G01X33304Y35959D01*
G01X33304Y33889D01*
G01X34624Y33889D01*
G01X35756Y35959D02*
G01X37076Y35959D01*
G01X37076Y33889D01*
G01X35756Y33889D01*
G01X34624Y38372D02*
G01X33304Y38372D01*
G01X33304Y36302D01*
G01X34624Y36302D01*
G01X35756Y38372D02*
G01X37076Y38372D01*
G01X37076Y36302D01*
G01X35756Y36302D01*

%LPD*%
G36*
G01X49276Y1094D02*
G01X49237Y1094D01*
G01X49237Y838D01*
G01X49281Y838D01*
G01X49291Y942D01*
G01X49850Y759D01*
G01X49288Y566D01*
G01X49281Y672D01*
G01X49237Y672D01*
G01X49237Y373D01*
G01X49276Y373D01*
G01X49286Y457D01*
G01X49989Y716D01*
G01X49989Y764D01*
G01X49288Y998D01*
G01X49276Y1094D01*
G37*

%LPD*%
G36*
G01X49944Y1706D02*
G01X49781Y1709D01*
G01X49781Y1648D01*
G01X49921Y1620D01*
G01X49933Y1587D01*
G01X49942Y1555D01*
G01X49947Y1524D01*
G01X49949Y1493D01*
G01X49943Y1436D01*
G01X49927Y1383D01*
G01X49900Y1336D01*
G01X49862Y1297D01*
G01X49814Y1265D01*
G01X49756Y1241D01*
G01X49687Y1226D01*
G01X49608Y1221D01*
G01X49530Y1227D01*
G01X49461Y1242D01*
G01X49404Y1268D01*
G01X49355Y1301D01*
G01X49317Y1342D01*
G01X49290Y1388D01*
G01X49273Y1440D01*
G01X49268Y1495D01*
G01X49269Y1524D01*
G01X49274Y1553D01*
G01X49283Y1581D01*
G01X49296Y1610D01*
G01X49438Y1638D01*
G01X49438Y1699D01*
G01X49276Y1696D01*
G01X49249Y1641D01*
G01X49231Y1587D01*
G01X49222Y1535D01*
G01X49220Y1485D01*
G01X49223Y1432D01*
G01X49232Y1382D01*
G01X49249Y1334D01*
G01X49270Y1290D01*
G01X49297Y1250D01*
G01X49329Y1214D01*
G01X49366Y1183D01*
G01X49407Y1157D01*
G01X49452Y1135D01*
G01X49501Y1120D01*
G01X49553Y1110D01*
G01X49608Y1107D01*
G01X49664Y1110D01*
G01X49717Y1119D01*
G01X49766Y1134D01*
G01X49811Y1155D01*
G01X49853Y1180D01*
G01X49889Y1211D01*
G01X49921Y1247D01*
G01X49947Y1287D01*
G01X49968Y1331D01*
G01X49984Y1379D01*
G01X49993Y1430D01*
G01X49997Y1485D01*
G01X49994Y1544D01*
G01X49984Y1600D01*
G01X49968Y1654D01*
G01X49944Y1706D01*
G37*

%LPD*%
G36*
G01X49944Y2410D02*
G01X49781Y2412D01*
G01X49781Y2351D01*
G01X49921Y2323D01*
G01X49933Y2291D01*
G01X49942Y2259D01*
G01X49947Y2227D01*
G01X49949Y2196D01*
G01X49943Y2139D01*
G01X49927Y2087D01*
G01X49900Y2040D01*
G01X49862Y2001D01*
G01X49814Y1968D01*
G01X49756Y1945D01*
G01X49687Y1930D01*
G01X49608Y1925D01*
G01X49530Y1930D01*
G01X49461Y1946D01*
G01X49404Y1971D01*
G01X49355Y2005D01*
G01X49317Y2045D01*
G01X49290Y2092D01*
G01X49273Y2144D01*
G01X49268Y2199D01*
G01X49269Y2227D01*
G01X49274Y2256D01*
G01X49283Y2285D01*
G01X49296Y2313D01*
G01X49438Y2341D01*
G01X49438Y2402D01*
G01X49276Y2400D01*
G01X49249Y2345D01*
G01X49231Y2290D01*
G01X49222Y2237D01*
G01X49220Y2186D01*
G01X49223Y2134D01*
G01X49232Y2084D01*
G01X49249Y2036D01*
G01X49270Y1993D01*
G01X49297Y1953D01*
G01X49329Y1918D01*
G01X49366Y1886D01*
G01X49407Y1860D01*
G01X49452Y1839D01*
G01X49501Y1823D01*
G01X49553Y1814D01*
G01X49608Y1810D01*
G01X49664Y1813D01*
G01X49717Y1823D01*
G01X49766Y1838D01*
G01X49811Y1858D01*
G01X49853Y1884D01*
G01X49889Y1915D01*
G01X49921Y1950D01*
G01X49947Y1990D01*
G01X49968Y2033D01*
G01X49984Y2081D01*
G01X49993Y2132D01*
G01X49997Y2186D01*
G01X49994Y2246D01*
G01X49984Y2303D01*
G01X49968Y2358D01*
G01X49944Y2410D01*
G37*

%LPD*%
G36*
G01X50261Y2887D02*
G01X49149Y2887D01*
G01X49149Y2829D01*
G01X50261Y2829D01*
G01X50261Y2887D01*
G37*

%LPD*%
G36*
G01X49982Y3969D02*
G01X49944Y3969D01*
G01X49936Y3883D01*
G01X49761Y3830D01*
G01X49704Y3808D01*
G01X49664Y3780D01*
G01X49637Y3744D01*
G01X49621Y3698D01*
G01X49594Y3781D01*
G01X49551Y3840D01*
G01X49495Y3876D01*
G01X49433Y3888D01*
G01X49389Y3884D01*
G01X49350Y3870D01*
G01X49316Y3848D01*
G01X49288Y3818D01*
G01X49266Y3779D01*
G01X49250Y3733D01*
G01X49240Y3679D01*
G01X49237Y3619D01*
G01X49237Y3309D01*
G01X49276Y3309D01*
G01X49286Y3411D01*
G01X49434Y3413D01*
G01X49785Y3413D01*
G01X49931Y3411D01*
G01X49944Y3309D01*
G01X49982Y3309D01*
G01X49982Y3621D01*
G01X49944Y3621D01*
G01X49931Y3517D01*
G01X49785Y3515D01*
G01X49634Y3515D01*
G01X49634Y3573D01*
G01X49638Y3634D01*
G01X49655Y3676D01*
G01X49689Y3705D01*
G01X49745Y3726D01*
G01X49921Y3771D01*
G01X49954Y3785D01*
G01X49976Y3806D01*
G01X49988Y3838D01*
G01X49992Y3883D01*
G01X49991Y3908D01*
G01X49989Y3931D01*
G01X49986Y3951D01*
G01X49982Y3969D01*
G37*

%LPC*%
G36*
G01X49495Y3773D02*
G01X49430Y3784D01*
G01X49367Y3774D01*
G01X49320Y3743D01*
G01X49291Y3690D01*
G01X49281Y3614D01*
G01X49281Y3517D01*
G01X49429Y3515D01*
G01X49590Y3515D01*
G01X49590Y3606D01*
G01X49578Y3684D01*
G01X49546Y3740D01*
G01X49495Y3773D01*
G37*

%LPD*%
G36*
G01X49982Y4698D02*
G01X49944Y4698D01*
G01X49931Y4604D01*
G01X49575Y4394D01*
G01X49288Y4576D01*
G01X49276Y4678D01*
G01X49237Y4678D01*
G01X49237Y4424D01*
G01X49276Y4424D01*
G01X49291Y4523D01*
G01X49537Y4371D01*
G01X49286Y4223D01*
G01X49276Y4328D01*
G01X49237Y4328D01*
G01X49237Y4015D01*
G01X49276Y4015D01*
G01X49286Y4112D01*
G01X49621Y4310D01*
G01X49928Y4112D01*
G01X49944Y4008D01*
G01X49982Y4008D01*
G01X49982Y4259D01*
G01X49944Y4259D01*
G01X49928Y4168D01*
G01X49659Y4333D01*
G01X49931Y4493D01*
G01X49944Y4389D01*
G01X49982Y4389D01*
G01X49982Y4698D01*
G37*

%LPD*%

%LPD*%
G36*
G01X49093Y1224D02*
G01X49055Y1224D01*
G01X49047Y1137D01*
G01X48872Y1084D01*
G01X48815Y1062D01*
G01X48775Y1034D01*
G01X48748Y998D01*
G01X48732Y952D01*
G01X48705Y1035D01*
G01X48662Y1095D01*
G01X48606Y1131D01*
G01X48544Y1142D01*
G01X48500Y1138D01*
G01X48461Y1124D01*
G01X48427Y1102D01*
G01X48399Y1072D01*
G01X48377Y1033D01*
G01X48361Y987D01*
G01X48351Y934D01*
G01X48348Y873D01*
G01X48348Y563D01*
G01X48387Y563D01*
G01X48397Y665D01*
G01X48471Y666D01*
G01X48619Y667D01*
G01X48896Y667D01*
G01X49042Y665D01*
G01X49055Y563D01*
G01X49093Y563D01*
G01X49093Y876D01*
G01X49055Y876D01*
G01X49042Y772D01*
G01X48969Y770D01*
G01X48896Y770D01*
G01X48821Y769D01*
G01X48745Y769D01*
G01X48745Y827D01*
G01X48749Y888D01*
G01X48766Y931D01*
G01X48800Y960D01*
G01X48856Y980D01*
G01X49032Y1026D01*
G01X49065Y1039D01*
G01X49087Y1061D01*
G01X49099Y1093D01*
G01X49103Y1137D01*
G01X49102Y1163D01*
G01X49100Y1185D01*
G01X49097Y1205D01*
G01X49093Y1224D01*
G37*

%LPC*%
G36*
G01X48606Y1027D02*
G01X48541Y1038D01*
G01X48478Y1028D01*
G01X48431Y997D01*
G01X48402Y944D01*
G01X48392Y868D01*
G01X48392Y772D01*
G01X48466Y770D01*
G01X48541Y770D01*
G01X48619Y769D01*
G01X48701Y769D01*
G01X48701Y860D01*
G01X48690Y939D01*
G01X48657Y994D01*
G01X48606Y1027D01*
G37*

%LPD*%
G36*
G01X48944Y1760D02*
G01X48897Y1765D01*
G01X48826Y1754D01*
G01X48768Y1718D01*
G01X48717Y1655D01*
G01X48671Y1561D01*
G01X48656Y1516D01*
G01X48629Y1463D01*
G01X48596Y1424D01*
G01X48557Y1400D01*
G01X48508Y1391D01*
G01X48453Y1403D01*
G01X48412Y1436D01*
G01X48387Y1485D01*
G01X48379Y1546D01*
G01X48380Y1570D01*
G01X48384Y1592D01*
G01X48392Y1614D01*
G01X48402Y1635D01*
G01X48534Y1666D01*
G01X48534Y1722D01*
G01X48389Y1729D01*
G01X48365Y1691D01*
G01X48346Y1648D01*
G01X48335Y1600D01*
G01X48331Y1546D01*
G01X48334Y1495D01*
G01X48344Y1449D01*
G01X48361Y1407D01*
G01X48384Y1370D01*
G01X48413Y1341D01*
G01X48448Y1319D01*
G01X48489Y1305D01*
G01X48534Y1300D01*
G01X48610Y1314D01*
G01X48670Y1352D01*
G01X48719Y1413D01*
G01X48757Y1490D01*
G01X48775Y1534D01*
G01X48804Y1597D01*
G01X48835Y1641D01*
G01X48873Y1666D01*
G01X48920Y1673D01*
G01X48980Y1661D01*
G01X49024Y1624D01*
G01X49050Y1568D01*
G01X49060Y1495D01*
G01X49058Y1462D01*
G01X49053Y1432D01*
G01X49044Y1405D01*
G01X49032Y1379D01*
G01X48895Y1351D01*
G01X48895Y1292D01*
G01X49049Y1285D01*
G01X49072Y1328D01*
G01X49091Y1381D01*
G01X49103Y1440D01*
G01X49108Y1503D01*
G01X49104Y1558D01*
G01X49093Y1608D01*
G01X49076Y1653D01*
G01X49052Y1691D01*
G01X49022Y1722D01*
G01X48985Y1745D01*
G01X48944Y1760D01*
G37*

%LPD*%
G36*
G01X48547Y2392D02*
G01X48547Y2448D01*
G01X48348Y2440D01*
G01X48348Y1828D01*
G01X48547Y1821D01*
G01X48547Y1876D01*
G01X48397Y1907D01*
G01X48397Y2082D01*
G01X49042Y2082D01*
G01X49055Y1965D01*
G01X49093Y1965D01*
G01X49093Y2301D01*
G01X49055Y2301D01*
G01X49042Y2186D01*
G01X48896Y2184D01*
G01X48544Y2184D01*
G01X48470Y2185D01*
G01X48397Y2186D01*
G01X48397Y2362D01*
G01X48547Y2392D01*
G37*

%LPD*%
G36*
G01X49372Y2898D02*
G01X48260Y2898D01*
G01X48260Y2839D01*
G01X49372Y2839D01*
G01X49372Y2898D01*
G37*

%LPD*%
G36*
G01X48778Y4010D02*
G01X48737Y4010D01*
G01X48737Y3720D01*
G01X48778Y3720D01*
G01X48785Y3840D01*
G01X49037Y3840D01*
G01X49046Y3810D01*
G01X49054Y3779D01*
G01X49058Y3748D01*
G01X49060Y3715D01*
G01X49054Y3655D01*
G01X49036Y3601D01*
G01X49008Y3553D01*
G01X48969Y3513D01*
G01X48920Y3481D01*
G01X48862Y3458D01*
G01X48795Y3444D01*
G01X48719Y3439D01*
G01X48643Y3444D01*
G01X48575Y3459D01*
G01X48517Y3483D01*
G01X48468Y3516D01*
G01X48430Y3556D01*
G01X48402Y3603D01*
G01X48384Y3655D01*
G01X48379Y3713D01*
G01X48381Y3746D01*
G01X48387Y3778D01*
G01X48397Y3809D01*
G01X48412Y3840D01*
G01X48549Y3865D01*
G01X48549Y3926D01*
G01X48387Y3924D01*
G01X48362Y3876D01*
G01X48344Y3825D01*
G01X48334Y3767D01*
G01X48331Y3703D01*
G01X48334Y3648D01*
G01X48344Y3597D01*
G01X48360Y3549D01*
G01X48381Y3505D01*
G01X48408Y3464D01*
G01X48440Y3428D01*
G01X48477Y3397D01*
G01X48518Y3371D01*
G01X48563Y3350D01*
G01X48612Y3334D01*
G01X48664Y3325D01*
G01X48719Y3322D01*
G01X48775Y3325D01*
G01X48827Y3334D01*
G01X48876Y3349D01*
G01X48921Y3369D01*
G01X48963Y3395D01*
G01X48999Y3426D01*
G01X49031Y3461D01*
G01X49058Y3501D01*
G01X49079Y3545D01*
G01X49095Y3592D01*
G01X49104Y3643D01*
G01X49108Y3698D01*
G01X49103Y3763D01*
G01X49091Y3824D01*
G01X49071Y3883D01*
G01X49044Y3941D01*
G01X48939Y3941D01*
G01X48886Y3942D01*
G01X48834Y3942D01*
G01X48783Y3944D01*
G01X48778Y4010D01*
G37*

%LPD*%
G36*
G01X48614Y4644D02*
G01X48569Y4648D01*
G01X48522Y4643D01*
G01X48479Y4630D01*
G01X48441Y4608D01*
G01X48409Y4577D01*
G01X48383Y4538D01*
G01X48364Y4490D01*
G01X48352Y4434D01*
G01X48348Y4368D01*
G01X48348Y4068D01*
G01X48387Y4068D01*
G01X48397Y4173D01*
G01X48471Y4174D01*
G01X48619Y4175D01*
G01X48896Y4175D01*
G01X49042Y4173D01*
G01X49055Y4068D01*
G01X49093Y4068D01*
G01X49093Y4383D01*
G01X49055Y4383D01*
G01X49042Y4277D01*
G01X48795Y4277D01*
G01X48795Y4335D01*
G01X48790Y4413D01*
G01X48777Y4478D01*
G01X48756Y4532D01*
G01X48728Y4575D01*
G01X48694Y4608D01*
G01X48656Y4630D01*
G01X48614Y4644D01*
G37*

%LPC*%
G36*
G01X48643Y4530D02*
G01X48569Y4541D01*
G01X48493Y4530D01*
G01X48437Y4495D01*
G01X48403Y4435D01*
G01X48392Y4348D01*
G01X48392Y4277D01*
G01X48750Y4277D01*
G01X48750Y4348D01*
G01X48737Y4436D01*
G01X48699Y4496D01*
G01X48643Y4530D01*
G37*

%LPD*%
G36*
G01X48387Y5026D02*
G01X48348Y5026D01*
G01X48348Y4714D01*
G01X48387Y4714D01*
G01X48397Y4818D01*
G01X48471Y4819D01*
G01X48619Y4820D01*
G01X48896Y4820D01*
G01X49042Y4818D01*
G01X49055Y4714D01*
G01X49093Y4714D01*
G01X49093Y5026D01*
G01X49055Y5026D01*
G01X49042Y4922D01*
G01X48397Y4922D01*
G01X48387Y5026D01*
G37*

%LPD*%
G36*
G01X48779Y5780D02*
G01X48719Y5783D01*
G01X48659Y5780D01*
G01X48603Y5770D01*
G01X48552Y5755D01*
G01X48506Y5734D01*
G01X48466Y5708D01*
G01X48431Y5679D01*
G01X48400Y5646D01*
G01X48375Y5610D01*
G01X48356Y5571D01*
G01X48342Y5530D01*
G01X48333Y5488D01*
G01X48331Y5445D01*
G01X48334Y5401D01*
G01X48342Y5359D01*
G01X48357Y5318D01*
G01X48377Y5279D01*
G01X48403Y5242D01*
G01X48433Y5209D01*
G01X48469Y5179D01*
G01X48510Y5154D01*
G01X48556Y5133D01*
G01X48605Y5118D01*
G01X48660Y5108D01*
G01X48719Y5105D01*
G01X48780Y5108D01*
G01X48836Y5118D01*
G01X48887Y5133D01*
G01X48933Y5154D01*
G01X48973Y5179D01*
G01X49009Y5209D01*
G01X49039Y5242D01*
G01X49064Y5279D01*
G01X49083Y5318D01*
G01X49097Y5359D01*
G01X49105Y5401D01*
G01X49108Y5445D01*
G01X49105Y5489D01*
G01X49096Y5531D01*
G01X49081Y5572D01*
G01X49062Y5611D01*
G01X49036Y5647D01*
G01X49006Y5680D01*
G01X48970Y5709D01*
G01X48930Y5734D01*
G01X48884Y5755D01*
G01X48834Y5770D01*
G01X48779Y5780D01*
G37*

%LPC*%
G36*
G01X48784Y5666D02*
G01X48719Y5669D01*
G01X48654Y5666D01*
G01X48592Y5655D01*
G01X48534Y5639D01*
G01X48483Y5615D01*
G01X48440Y5584D01*
G01X48407Y5546D01*
G01X48386Y5500D01*
G01X48379Y5445D01*
G01X48386Y5391D01*
G01X48407Y5345D01*
G01X48440Y5305D01*
G01X48483Y5274D01*
G01X48534Y5250D01*
G01X48592Y5233D01*
G01X48654Y5223D01*
G01X48719Y5219D01*
G01X48784Y5223D01*
G01X48847Y5233D01*
G01X48905Y5250D01*
G01X48956Y5274D01*
G01X49000Y5305D01*
G01X49033Y5345D01*
G01X49055Y5391D01*
G01X49062Y5445D01*
G01X49055Y5500D01*
G01X49033Y5546D01*
G01X49000Y5584D01*
G01X48956Y5615D01*
G01X48905Y5639D01*
G01X48847Y5655D01*
G01X48784Y5666D01*
G37*

%LPD*%
G36*
G01X48813Y6344D02*
G01X48714Y6349D01*
G01X48618Y6344D01*
G01X48538Y6330D01*
G01X48472Y6306D01*
G01X48420Y6276D01*
G01X48380Y6241D01*
G01X48353Y6202D01*
G01X48338Y6159D01*
G01X48333Y6116D01*
G01X48338Y6072D01*
G01X48353Y6029D01*
G01X48380Y5989D01*
G01X48420Y5954D01*
G01X48472Y5925D01*
G01X48538Y5902D01*
G01X48618Y5887D01*
G01X48714Y5882D01*
G01X48813Y5887D01*
G01X48897Y5902D01*
G01X48965Y5925D01*
G01X49018Y5954D01*
G01X49059Y5989D01*
G01X49087Y6029D01*
G01X49103Y6072D01*
G01X49108Y6116D01*
G01X49103Y6159D01*
G01X49087Y6202D01*
G01X49059Y6241D01*
G01X49018Y6276D01*
G01X48965Y6306D01*
G01X48897Y6330D01*
G01X48813Y6344D01*
G37*

%LPC*%
G36*
G01X48809Y6245D02*
G01X48714Y6248D01*
G01X48623Y6245D01*
G01X48549Y6237D01*
G01X48490Y6224D01*
G01X48445Y6208D01*
G01X48413Y6188D01*
G01X48392Y6166D01*
G01X48380Y6141D01*
G01X48376Y6116D01*
G01X48380Y6090D01*
G01X48392Y6065D01*
G01X48413Y6042D01*
G01X48445Y6022D01*
G01X48490Y6005D01*
G01X48549Y5992D01*
G01X48623Y5984D01*
G01X48714Y5981D01*
G01X48809Y5984D01*
G01X48885Y5992D01*
G01X48947Y6005D01*
G01X48993Y6022D01*
G01X49027Y6042D01*
G01X49049Y6065D01*
G01X49061Y6090D01*
G01X49065Y6116D01*
G01X49061Y6141D01*
G01X49049Y6166D01*
G01X49027Y6188D01*
G01X48993Y6208D01*
G01X48947Y6224D01*
G01X48885Y6237D01*
G01X48809Y6245D01*
G37*

%LPD*%

%LPD*%
G36*
G01X37028Y1099D02*
G01X36830Y1104D01*
G01X36830Y1048D01*
G01X36979Y1020D01*
G01X36979Y733D01*
G01X36905Y732D01*
G01X36830Y731D01*
G01X36672Y731D01*
G01X36672Y901D01*
G01X36779Y916D01*
G01X36779Y962D01*
G01X36517Y962D01*
G01X36517Y916D01*
G01X36626Y899D01*
G01X36626Y731D01*
G01X36478Y731D01*
G01X36404Y732D01*
G01X36332Y733D01*
G01X36332Y998D01*
G01X36479Y1028D01*
G01X36479Y1081D01*
G01X36283Y1076D01*
G01X36283Y525D01*
G01X36322Y525D01*
G01X36334Y629D01*
G01X36407Y631D01*
G01X36481Y632D01*
G01X36832Y632D01*
G01X36905Y631D01*
G01X36979Y629D01*
G01X36990Y525D01*
G01X37028Y525D01*
G01X37028Y1099D01*
G37*

%LPD*%
G36*
G01X36322Y1920D02*
G01X36283Y1920D01*
G01X36283Y1655D01*
G01X36322Y1655D01*
G01X36337Y1775D01*
G01X36852Y1777D01*
G01X36283Y1366D01*
G01X36283Y1193D01*
G01X36322Y1193D01*
G01X36332Y1272D01*
G01X36347Y1285D01*
G01X36977Y1282D01*
G01X36990Y1188D01*
G01X37028Y1188D01*
G01X37028Y1452D01*
G01X36990Y1452D01*
G01X36974Y1333D01*
G01X36413Y1330D01*
G01X37035Y1785D01*
G01X37035Y1826D01*
G01X36337Y1826D01*
G01X36322Y1920D01*
G37*

%LPD*%
G36*
G01X37307Y2392D02*
G01X36195Y2392D01*
G01X36195Y2334D01*
G01X37307Y2334D01*
G01X37307Y2392D01*
G37*

%LPD*%
G36*
G01X36713Y3505D02*
G01X36675Y3505D01*
G01X36675Y3215D01*
G01X36713Y3215D01*
G01X36720Y3332D01*
G01X36773Y3333D01*
G01X36825Y3334D01*
G01X36974Y3334D01*
G01X36984Y3304D01*
G01X36990Y3273D01*
G01X36994Y3242D01*
G01X36995Y3210D01*
G01X36989Y3149D01*
G01X36971Y3095D01*
G01X36943Y3047D01*
G01X36905Y3007D01*
G01X36856Y2974D01*
G01X36799Y2950D01*
G01X36731Y2936D01*
G01X36657Y2931D01*
G01X36580Y2936D01*
G01X36511Y2951D01*
G01X36453Y2976D01*
G01X36404Y3009D01*
G01X36366Y3049D01*
G01X36339Y3097D01*
G01X36322Y3150D01*
G01X36316Y3207D01*
G01X36318Y3241D01*
G01X36324Y3272D01*
G01X36334Y3303D01*
G01X36347Y3332D01*
G01X36487Y3360D01*
G01X36487Y3421D01*
G01X36322Y3418D01*
G01X36297Y3371D01*
G01X36279Y3319D01*
G01X36269Y3261D01*
G01X36266Y3195D01*
G01X36269Y3140D01*
G01X36279Y3089D01*
G01X36295Y3041D01*
G01X36316Y2997D01*
G01X36344Y2957D01*
G01X36376Y2922D01*
G01X36413Y2891D01*
G01X36455Y2865D01*
G01X36500Y2844D01*
G01X36549Y2829D01*
G01X36601Y2819D01*
G01X36657Y2816D01*
G01X36712Y2819D01*
G01X36764Y2828D01*
G01X36813Y2844D01*
G01X36858Y2864D01*
G01X36899Y2890D01*
G01X36936Y2920D01*
G01X36968Y2956D01*
G01X36995Y2996D01*
G01X37016Y3039D01*
G01X37032Y3087D01*
G01X37042Y3138D01*
G01X37045Y3192D01*
G01X37041Y3258D01*
G01X37028Y3319D01*
G01X37007Y3377D01*
G01X36979Y3433D01*
G01X36931Y3433D01*
G01X36876Y3434D01*
G01X36822Y3435D01*
G01X36770Y3436D01*
G01X36718Y3436D01*
G01X36713Y3505D01*
G37*

%LPD*%
G36*
G01X36550Y4136D02*
G01X36504Y4140D01*
G01X36457Y4136D01*
G01X36414Y4122D01*
G01X36376Y4101D01*
G01X36344Y4071D01*
G01X36318Y4031D01*
G01X36299Y3983D01*
G01X36287Y3926D01*
G01X36283Y3860D01*
G01X36283Y3563D01*
G01X36322Y3563D01*
G01X36334Y3665D01*
G01X36407Y3666D01*
G01X36481Y3667D01*
G01X36832Y3667D01*
G01X36905Y3666D01*
G01X36979Y3665D01*
G01X36990Y3563D01*
G01X37028Y3563D01*
G01X37028Y3878D01*
G01X36990Y3878D01*
G01X36977Y3771D01*
G01X36853Y3769D01*
G01X36730Y3769D01*
G01X36730Y3827D01*
G01X36726Y3905D01*
G01X36713Y3971D01*
G01X36692Y4025D01*
G01X36664Y4068D01*
G01X36630Y4100D01*
G01X36592Y4123D01*
G01X36550Y4136D01*
G37*

%LPC*%
G36*
G01X36578Y4025D02*
G01X36504Y4035D01*
G01X36429Y4024D01*
G01X36373Y3989D01*
G01X36339Y3928D01*
G01X36327Y3842D01*
G01X36327Y3771D01*
G01X36401Y3770D01*
G01X36476Y3769D01*
G01X36687Y3769D01*
G01X36687Y3840D01*
G01X36674Y3929D01*
G01X36636Y3990D01*
G01X36578Y4025D01*
G37*

%LPD*%
G36*
G01X36322Y4521D02*
G01X36283Y4521D01*
G01X36283Y4208D01*
G01X36322Y4208D01*
G01X36334Y4310D01*
G01X36407Y4311D01*
G01X36481Y4312D01*
G01X36832Y4312D01*
G01X36905Y4311D01*
G01X36979Y4310D01*
G01X36990Y4208D01*
G01X37028Y4208D01*
G01X37028Y4521D01*
G01X36990Y4521D01*
G01X36977Y4416D01*
G01X36904Y4415D01*
G01X36757Y4414D01*
G01X36481Y4414D01*
G01X36407Y4415D01*
G01X36334Y4416D01*
G01X36322Y4521D01*
G37*

%LPD*%
G36*
G01X36716Y5274D02*
G01X36657Y5278D01*
G01X36596Y5274D01*
G01X36540Y5265D01*
G01X36490Y5249D01*
G01X36443Y5228D01*
G01X36403Y5203D01*
G01X36367Y5173D01*
G01X36336Y5140D01*
G01X36311Y5104D01*
G01X36291Y5065D01*
G01X36277Y5025D01*
G01X36268Y4983D01*
G01X36266Y4940D01*
G01X36269Y4896D01*
G01X36277Y4854D01*
G01X36293Y4813D01*
G01X36313Y4774D01*
G01X36339Y4737D01*
G01X36370Y4704D01*
G01X36406Y4674D01*
G01X36447Y4649D01*
G01X36493Y4628D01*
G01X36543Y4613D01*
G01X36598Y4603D01*
G01X36657Y4599D01*
G01X36717Y4603D01*
G01X36773Y4612D01*
G01X36823Y4628D01*
G01X36869Y4648D01*
G01X36910Y4674D01*
G01X36945Y4703D01*
G01X36975Y4736D01*
G01X37000Y4773D01*
G01X37020Y4812D01*
G01X37034Y4853D01*
G01X37042Y4896D01*
G01X37045Y4940D01*
G01X37042Y4983D01*
G01X37033Y5025D01*
G01X37019Y5065D01*
G01X36999Y5104D01*
G01X36973Y5140D01*
G01X36942Y5173D01*
G01X36907Y5203D01*
G01X36866Y5228D01*
G01X36820Y5249D01*
G01X36770Y5265D01*
G01X36716Y5274D01*
G37*

%LPC*%
G36*
G01X36722Y5158D02*
G01X36657Y5161D01*
G01X36592Y5158D01*
G01X36530Y5147D01*
G01X36472Y5131D01*
G01X36421Y5107D01*
G01X36378Y5077D01*
G01X36345Y5039D01*
G01X36324Y4993D01*
G01X36316Y4940D01*
G01X36324Y4885D01*
G01X36345Y4838D01*
G01X36378Y4799D01*
G01X36421Y4767D01*
G01X36472Y4744D01*
G01X36530Y4727D01*
G01X36592Y4717D01*
G01X36657Y4714D01*
G01X36722Y4717D01*
G01X36784Y4727D01*
G01X36841Y4744D01*
G01X36892Y4767D01*
G01X36936Y4799D01*
G01X36969Y4838D01*
G01X36990Y4885D01*
G01X36997Y4940D01*
G01X36990Y4993D01*
G01X36969Y5039D01*
G01X36936Y5077D01*
G01X36892Y5107D01*
G01X36841Y5131D01*
G01X36784Y5147D01*
G01X36722Y5158D01*
G37*

%LPD*%
G36*
G01X37028Y5841D02*
G01X36941Y5841D01*
G01X36941Y5455D01*
G01X36903Y5494D01*
G01X36866Y5530D01*
G01X36833Y5561D01*
G01X36807Y5587D01*
G01X36746Y5644D01*
G01X36694Y5692D01*
G01X36648Y5731D01*
G01X36608Y5761D01*
G01X36571Y5784D01*
G01X36536Y5799D01*
G01X36501Y5808D01*
G01X36466Y5811D01*
G01X36386Y5799D01*
G01X36324Y5761D01*
G01X36282Y5696D01*
G01X36268Y5603D01*
G01X36278Y5524D01*
G01X36310Y5456D01*
G01X36362Y5405D01*
G01X36436Y5379D01*
G01X36451Y5390D01*
G01X36462Y5402D01*
G01X36469Y5416D01*
G01X36471Y5432D01*
G01X36468Y5453D01*
G01X36456Y5470D01*
G01X36434Y5483D01*
G01X36400Y5493D01*
G01X36319Y5516D01*
G01X36315Y5533D01*
G01X36313Y5549D01*
G01X36312Y5564D01*
G01X36311Y5577D01*
G01X36323Y5634D01*
G01X36355Y5676D01*
G01X36405Y5703D01*
G01X36471Y5712D01*
G01X36538Y5702D01*
G01X36606Y5673D01*
G01X36682Y5624D01*
G01X36769Y5554D01*
G01X36812Y5515D01*
G01X36859Y5473D01*
G01X36908Y5429D01*
G01X36959Y5384D01*
G01X37028Y5384D01*
G01X37028Y5841D01*
G37*

%LPD*%

%LPD*%
G36*
G01X35593Y1183D02*
G01X35593Y1236D01*
G01X35397Y1229D01*
G01X35397Y619D01*
G01X35593Y609D01*
G01X35593Y665D01*
G01X35445Y695D01*
G01X35445Y871D01*
G01X35518Y872D01*
G01X35592Y873D01*
G01X35944Y873D01*
G01X36090Y871D01*
G01X36101Y756D01*
G01X36141Y756D01*
G01X36141Y1092D01*
G01X36101Y1092D01*
G01X36090Y977D01*
G01X35942Y975D01*
G01X35592Y975D01*
G01X35518Y976D01*
G01X35445Y977D01*
G01X35445Y1150D01*
G01X35593Y1183D01*
G37*

%LPD*%
G36*
G01X36141Y1965D02*
G01X36101Y1965D01*
G01X36090Y1871D01*
G01X35735Y1661D01*
G01X35448Y1843D01*
G01X35435Y1945D01*
G01X35397Y1945D01*
G01X35397Y1691D01*
G01X35435Y1691D01*
G01X35448Y1790D01*
G01X35694Y1638D01*
G01X35445Y1490D01*
G01X35435Y1595D01*
G01X35397Y1595D01*
G01X35397Y1282D01*
G01X35435Y1282D01*
G01X35445Y1379D01*
G01X35780Y1577D01*
G01X36085Y1379D01*
G01X36101Y1274D01*
G01X36141Y1274D01*
G01X36141Y1526D01*
G01X36103Y1526D01*
G01X36088Y1434D01*
G01X35819Y1600D01*
G01X36090Y1760D01*
G01X36101Y1655D01*
G01X36141Y1655D01*
G01X36141Y1965D01*
G37*

%LPD*%
G36*
G01X36418Y2407D02*
G01X35306Y2407D01*
G01X35306Y2349D01*
G01X36418Y2349D01*
G01X36418Y2407D01*
G37*

%LPD*%
G36*
G01X35824Y3520D02*
G01X35786Y3520D01*
G01X35786Y3230D01*
G01X35824Y3230D01*
G01X35834Y3347D01*
G01X35886Y3349D01*
G01X35938Y3350D01*
G01X36085Y3350D01*
G01X36095Y3319D01*
G01X36103Y3289D01*
G01X36107Y3257D01*
G01X36108Y3225D01*
G01X36102Y3164D01*
G01X36085Y3110D01*
G01X36057Y3062D01*
G01X36018Y3022D01*
G01X35969Y2989D01*
G01X35911Y2966D01*
G01X35843Y2951D01*
G01X35768Y2946D01*
G01X35691Y2951D01*
G01X35624Y2967D01*
G01X35565Y2992D01*
G01X35516Y3025D01*
G01X35478Y3065D01*
G01X35450Y3112D01*
G01X35433Y3165D01*
G01X35427Y3223D01*
G01X35429Y3256D01*
G01X35435Y3288D01*
G01X35446Y3318D01*
G01X35460Y3347D01*
G01X35598Y3375D01*
G01X35598Y3436D01*
G01X35433Y3433D01*
G01X35409Y3386D01*
G01X35392Y3334D01*
G01X35382Y3276D01*
G01X35379Y3210D01*
G01X35382Y3156D01*
G01X35392Y3104D01*
G01X35408Y3057D01*
G01X35429Y3012D01*
G01X35456Y2973D01*
G01X35488Y2937D01*
G01X35525Y2906D01*
G01X35567Y2880D01*
G01X35612Y2859D01*
G01X35661Y2844D01*
G01X35712Y2835D01*
G01X35768Y2831D01*
G01X35823Y2835D01*
G01X35875Y2844D01*
G01X35924Y2859D01*
G01X35969Y2879D01*
G01X36010Y2905D01*
G01X36047Y2936D01*
G01X36079Y2971D01*
G01X36106Y3011D01*
G01X36127Y3055D01*
G01X36143Y3102D01*
G01X36153Y3153D01*
G01X36156Y3207D01*
G01X36152Y3273D01*
G01X36140Y3334D01*
G01X36120Y3392D01*
G01X36093Y3449D01*
G01X35988Y3449D01*
G01X35935Y3450D01*
G01X35883Y3451D01*
G01X35831Y3451D01*
G01X35824Y3520D01*
G37*

%LPD*%
G36*
G01X35435Y4310D02*
G01X35397Y4310D01*
G01X35397Y4046D01*
G01X35435Y4046D01*
G01X35448Y4165D01*
G01X35966Y4168D01*
G01X35397Y3756D01*
G01X35397Y3583D01*
G01X35435Y3583D01*
G01X35445Y3665D01*
G01X35458Y3675D01*
G01X36088Y3672D01*
G01X36101Y3578D01*
G01X36141Y3578D01*
G01X36141Y3842D01*
G01X36101Y3842D01*
G01X36085Y3723D01*
G01X35524Y3720D01*
G01X36146Y4175D01*
G01X36146Y4216D01*
G01X35448Y4216D01*
G01X35435Y4310D01*
G37*

%LPD*%
G36*
G01X35825Y5076D02*
G01X35768Y5079D01*
G01X35710Y5076D01*
G01X35658Y5068D01*
G01X35609Y5053D01*
G01X35566Y5034D01*
G01X35526Y5009D01*
G01X35493Y4980D01*
G01X35464Y4946D01*
G01X35440Y4908D01*
G01X35421Y4866D01*
G01X35408Y4820D01*
G01X35399Y4771D01*
G01X35397Y4719D01*
G01X35397Y4394D01*
G01X35435Y4394D01*
G01X35445Y4498D01*
G01X35519Y4499D01*
G01X35594Y4500D01*
G01X35941Y4500D01*
G01X36017Y4499D01*
G01X36090Y4498D01*
G01X36101Y4394D01*
G01X36141Y4394D01*
G01X36141Y4698D01*
G01X36138Y4752D01*
G01X36130Y4804D01*
G01X36116Y4851D01*
G01X36097Y4896D01*
G01X36073Y4936D01*
G01X36044Y4972D01*
G01X36010Y5003D01*
G01X35970Y5030D01*
G01X35927Y5051D01*
G01X35878Y5067D01*
G01X35825Y5076D01*
G37*

%LPC*%
G36*
G01X35841Y4961D02*
G01X35768Y4965D01*
G01X35693Y4961D01*
G01X35627Y4947D01*
G01X35570Y4926D01*
G01X35524Y4896D01*
G01X35487Y4858D01*
G01X35461Y4813D01*
G01X35445Y4760D01*
G01X35440Y4701D01*
G01X35440Y4604D01*
G01X35514Y4603D01*
G01X35589Y4602D01*
G01X35942Y4602D01*
G01X36019Y4603D01*
G01X36095Y4604D01*
G01X36095Y4691D01*
G01X36090Y4754D01*
G01X36073Y4809D01*
G01X36046Y4856D01*
G01X36009Y4894D01*
G01X35962Y4925D01*
G01X35905Y4947D01*
G01X35841Y4961D01*
G37*

%LPD*%
G54D39*
G01X32257Y21135D02*
G01X32476Y21135D01*
G01X32367Y21300D02*
G01X33131Y21300D01*
G01X32367Y21300D02*
G01X32367Y21775D01*
G01X32730Y21300D02*
G01X32730Y21592D01*
G01X33131Y21300D02*
G01X33131Y21775D01*
G01X32476Y22524D02*
G01X32405Y22450D01*
G01X32367Y22341D01*
G01X32367Y22196D01*
G01X32405Y22087D01*
G01X32476Y22014D01*
G01X32549Y22014D01*
G01X32621Y22049D01*
G01X32659Y22087D01*
G01X32694Y22158D01*
G01X32768Y22377D01*
G01X32803Y22450D01*
G01X32839Y22486D01*
G01X32913Y22524D01*
G01X33022Y22524D01*
G01X33096Y22450D01*
G01X33131Y22341D01*
G01X33131Y22196D01*
G01X33096Y22087D01*
G01X33022Y22014D01*
G01X32367Y22763D02*
G01X33131Y22763D01*
G01X32367Y22763D02*
G01X32367Y23091D01*
G01X32405Y23200D01*
G01X32440Y23235D01*
G01X32511Y23271D01*
G01X32621Y23271D01*
G01X32694Y23235D01*
G01X32730Y23200D01*
G01X32768Y23091D01*
G01X32768Y22763D01*
G01X32367Y23695D02*
G01X32405Y23586D01*
G01X32476Y23548D01*
G01X32549Y23548D01*
G01X32621Y23586D01*
G01X32659Y23657D01*
G01X32694Y23802D01*
G01X32730Y23911D01*
G01X32803Y23985D01*
G01X32877Y24020D01*
G01X32986Y24020D01*
G01X33057Y23985D01*
G01X33096Y23949D01*
G01X33131Y23840D01*
G01X33131Y23695D01*
G01X33096Y23586D01*
G01X33057Y23548D01*
G01X32986Y23512D01*
G01X32877Y23512D01*
G01X32803Y23548D01*
G01X32730Y23621D01*
G01X32694Y23731D01*
G01X32659Y23875D01*
G01X32621Y23949D01*
G01X32549Y23985D01*
G01X32476Y23985D01*
G01X32405Y23949D01*
G01X32367Y23840D01*
G01X32367Y23695D01*
G01X32549Y24297D02*
G01X32511Y24297D01*
G01X32440Y24333D01*
G01X32405Y24371D01*
G01X32367Y24442D01*
G01X32367Y24589D01*
G01X32405Y24660D01*
G01X32440Y24698D01*
G01X32511Y24734D01*
G01X32585Y24734D01*
G01X32659Y24698D01*
G01X32768Y24625D01*
G01X33131Y24262D01*
G01X33131Y24770D01*
G01X32476Y25448D02*
G01X32405Y25410D01*
G01X32367Y25300D01*
G01X32367Y25229D01*
G01X32405Y25120D01*
G01X32511Y25046D01*
G01X32694Y25011D01*
G01X32877Y25011D01*
G01X33022Y25046D01*
G01X33096Y25120D01*
G01X33131Y25229D01*
G01X33131Y25265D01*
G01X33096Y25374D01*
G01X33022Y25448D01*
G01X32913Y25483D01*
G01X32877Y25483D01*
G01X32768Y25448D01*
G01X32694Y25374D01*
G01X32659Y25265D01*
G01X32659Y25229D01*
G01X32694Y25120D01*
G01X32768Y25046D01*
G01X32877Y25011D01*
G01X32476Y26159D02*
G01X32405Y26123D01*
G01X32367Y26014D01*
G01X32367Y25940D01*
G01X32405Y25831D01*
G01X32511Y25760D01*
G01X32694Y25722D01*
G01X32877Y25722D01*
G01X33022Y25760D01*
G01X33096Y25831D01*
G01X33131Y25940D01*
G01X33131Y25979D01*
G01X33096Y26088D01*
G01X33022Y26159D01*
G01X32913Y26194D01*
G01X32877Y26194D01*
G01X32768Y26159D01*
G01X32694Y26088D01*
G01X32659Y25979D01*
G01X32659Y25940D01*
G01X32694Y25831D01*
G01X32768Y25760D01*
G01X32877Y25722D01*
G01X32803Y26436D02*
G01X32803Y27091D01*
G01X32367Y27548D02*
G01X32405Y27439D01*
G01X32511Y27365D01*
G01X32694Y27330D01*
G01X32803Y27330D01*
G01X32986Y27365D01*
G01X33096Y27439D01*
G01X33131Y27548D01*
G01X33131Y27622D01*
G01X33096Y27731D01*
G01X32986Y27802D01*
G01X32803Y27840D01*
G01X32694Y27840D01*
G01X32511Y27802D01*
G01X32405Y27731D01*
G01X32367Y27622D01*
G01X32367Y27548D01*
G01X32511Y28079D02*
G01X32476Y28153D01*
G01X32367Y28262D01*
G01X33131Y28262D01*
G01X32257Y28574D02*
G01X32476Y28574D01*
G01X33456Y21302D02*
G01X33418Y21302D01*
G01X33347Y21341D01*
G01X33312Y21376D01*
G01X33273Y21450D01*
G01X33273Y21595D01*
G01X33312Y21666D01*
G01X33347Y21704D01*
G01X33418Y21739D01*
G01X33492Y21739D01*
G01X33566Y21704D01*
G01X33675Y21630D01*
G01X34038Y21267D01*
G01X34038Y21775D01*
G01X33273Y22575D02*
G01X34038Y22575D01*
G01X33273Y22575D02*
G01X33273Y22903D01*
G01X33312Y23012D01*
G01X33347Y23050D01*
G01X33418Y23086D01*
G01X33492Y23086D01*
G01X33566Y23050D01*
G01X33601Y23012D01*
G01X33637Y22903D01*
G01X33637Y22575D01*
G01X33637Y22832D02*
G01X34038Y23086D01*
G01X33746Y23324D02*
G01X33746Y23761D01*
G01X33675Y23761D01*
G01X33601Y23726D01*
G01X33566Y23687D01*
G01X33527Y23616D01*
G01X33527Y23507D01*
G01X33566Y23433D01*
G01X33637Y23362D01*
G01X33746Y23324D01*
G01X33820Y23324D01*
G01X33929Y23362D01*
G01X34002Y23433D01*
G01X34038Y23507D01*
G01X34038Y23616D01*
G01X34002Y23687D01*
G01X33929Y23761D01*
G01X33273Y24002D02*
G01X34038Y24002D01*
G01X33527Y24678D02*
G01X34038Y24678D01*
G01X33637Y24678D02*
G01X33566Y24604D01*
G01X33527Y24533D01*
G01X33527Y24424D01*
G01X33566Y24350D01*
G01X33637Y24277D01*
G01X33746Y24241D01*
G01X33820Y24241D01*
G01X33929Y24277D01*
G01X34002Y24350D01*
G01X34038Y24424D01*
G01X34038Y24533D01*
G01X34002Y24604D01*
G01X33929Y24678D01*
G01X33527Y24955D02*
G01X34038Y25173D01*
G01X33527Y25389D02*
G01X34038Y25173D01*
G01X34183Y25100D01*
G01X34256Y25026D01*
G01X34292Y24955D01*
G01X34292Y24917D01*
G01X33273Y26189D02*
G01X34038Y26189D01*
G01X33273Y26189D02*
G01X34038Y26481D01*
G01X33273Y26774D02*
G01X34038Y26481D01*
G01X33273Y26774D02*
G01X34038Y26774D01*
G01X33527Y27195D02*
G01X33566Y27122D01*
G01X33637Y27048D01*
G01X33746Y27012D01*
G01X33820Y27012D01*
G01X33929Y27048D01*
G01X34002Y27122D01*
G01X34038Y27195D01*
G01X34038Y27304D01*
G01X34002Y27376D01*
G01X33929Y27449D01*
G01X33820Y27485D01*
G01X33746Y27485D01*
G01X33637Y27449D01*
G01X33566Y27376D01*
G01X33527Y27304D01*
G01X33527Y27195D01*
G01X33273Y28160D02*
G01X34038Y28160D01*
G01X33637Y28160D02*
G01X33566Y28089D01*
G01X33527Y28016D01*
G01X33527Y27906D01*
G01X33566Y27835D01*
G01X33637Y27762D01*
G01X33746Y27726D01*
G01X33820Y27726D01*
G01X33929Y27762D01*
G01X34002Y27835D01*
G01X34038Y27906D01*
G01X34038Y28016D01*
G01X34002Y28089D01*
G01X33929Y28160D01*
G01X33527Y28402D02*
G01X33893Y28402D01*
G01X34002Y28437D01*
G01X34038Y28511D01*
G01X34038Y28620D01*
G01X34002Y28691D01*
G01X33893Y28801D01*
G01X33527Y28801D02*
G01X34038Y28801D01*
G01X33273Y29042D02*
G01X34038Y29042D01*
G01X33746Y29281D02*
G01X33746Y29717D01*
G01X33675Y29717D01*
G01X33601Y29682D01*
G01X33566Y29644D01*
G01X33527Y29573D01*
G01X33527Y29463D01*
G01X33566Y29390D01*
G01X33637Y29319D01*
G01X33746Y29281D01*
G01X33820Y29281D01*
G01X33929Y29319D01*
G01X34002Y29390D01*
G01X34038Y29463D01*
G01X34038Y29573D01*
G01X34002Y29644D01*
G01X33929Y29717D01*
G01X34162Y21203D02*
G01X34927Y21203D01*
G01X34416Y21442D02*
G01X34927Y21442D01*
G01X34564Y21442D02*
G01X34454Y21551D01*
G01X34416Y21625D01*
G01X34416Y21734D01*
G01X34454Y21808D01*
G01X34564Y21843D01*
G01X34927Y21843D01*
G01X34162Y22191D02*
G01X34782Y22191D01*
G01X34891Y22230D01*
G01X34927Y22301D01*
G01X34927Y22374D01*
G01X34416Y22082D02*
G01X34416Y22339D01*
G01X34635Y22613D02*
G01X34635Y23050D01*
G01X34564Y23050D01*
G01X34490Y23014D01*
G01X34454Y22979D01*
G01X34416Y22905D01*
G01X34416Y22796D01*
G01X34454Y22722D01*
G01X34526Y22651D01*
G01X34635Y22613D01*
G01X34708Y22613D01*
G01X34818Y22651D01*
G01X34891Y22722D01*
G01X34927Y22796D01*
G01X34927Y22905D01*
G01X34891Y22979D01*
G01X34818Y23050D01*
G01X34416Y23728D02*
G01X34998Y23728D01*
G01X35107Y23690D01*
G01X35145Y23654D01*
G01X35181Y23581D01*
G01X35181Y23472D01*
G01X35145Y23400D01*
G01X34526Y23728D02*
G01X34454Y23654D01*
G01X34416Y23581D01*
G01X34416Y23472D01*
G01X34454Y23400D01*
G01X34526Y23327D01*
G01X34635Y23291D01*
G01X34708Y23291D01*
G01X34818Y23327D01*
G01X34891Y23400D01*
G01X34927Y23472D01*
G01X34927Y23581D01*
G01X34891Y23654D01*
G01X34818Y23728D01*
G01X34416Y23967D02*
G01X34927Y23967D01*
G01X34635Y23967D02*
G01X34526Y24002D01*
G01X34454Y24076D01*
G01X34416Y24150D01*
G01X34416Y24259D01*
G01X34416Y24935D02*
G01X34927Y24935D01*
G01X34526Y24935D02*
G01X34454Y24861D01*
G01X34416Y24790D01*
G01X34416Y24681D01*
G01X34454Y24607D01*
G01X34526Y24533D01*
G01X34635Y24498D01*
G01X34708Y24498D01*
G01X34818Y24533D01*
G01X34891Y24607D01*
G01X34927Y24681D01*
G01X34927Y24790D01*
G01X34891Y24861D01*
G01X34818Y24935D01*
G01X34162Y25283D02*
G01X34782Y25283D01*
G01X34891Y25321D01*
G01X34927Y25392D01*
G01X34927Y25465D01*
G01X34416Y25173D02*
G01X34416Y25430D01*
G01X34635Y25704D02*
G01X34635Y26141D01*
G01X34564Y26141D01*
G01X34490Y26106D01*
G01X34454Y26070D01*
G01X34416Y25996D01*
G01X34416Y25887D01*
G01X34454Y25813D01*
G01X34526Y25742D01*
G01X34635Y25704D01*
G01X34708Y25704D01*
G01X34818Y25742D01*
G01X34891Y25813D01*
G01X34927Y25887D01*
G01X34927Y25996D01*
G01X34891Y26070D01*
G01X34818Y26141D01*
G01X34162Y26817D02*
G01X34927Y26817D01*
G01X34526Y26817D02*
G01X34454Y26746D01*
G01X34416Y26672D01*
G01X34416Y26563D01*
G01X34454Y26492D01*
G01X34526Y26418D01*
G01X34635Y26382D01*
G01X34708Y26382D01*
G01X34818Y26418D01*
G01X34891Y26492D01*
G01X34927Y26563D01*
G01X34927Y26672D01*
G01X34891Y26746D01*
G01X34818Y26817D01*
G01X34416Y27617D02*
G01X34927Y27835D01*
G01X34416Y28054D02*
G01X34927Y27835D01*
G01X34307Y28295D02*
G01X34272Y28366D01*
G01X34162Y28475D01*
G01X34927Y28475D01*
G01X34744Y28752D02*
G01X34782Y28717D01*
G01X34818Y28752D01*
G01X34782Y28788D01*
G01X34744Y28752D01*
G01X34307Y29029D02*
G01X34272Y29103D01*
G01X34162Y29209D01*
G01X34927Y29209D01*

%LPD*%
G36*
G01X36037Y14752D02*
G01X35994Y14757D01*
G01X35922Y14745D01*
G01X35868Y14712D01*
G01X35827Y14662D01*
G01X35796Y14602D01*
G01X35750Y14495D01*
G01X35730Y14452D01*
G01X35704Y14412D01*
G01X35669Y14382D01*
G01X35620Y14371D01*
G01X35573Y14381D01*
G01X35537Y14411D01*
G01X35514Y14457D01*
G01X35506Y14515D01*
G01X35511Y14566D01*
G01X35525Y14612D01*
G01X35548Y14652D01*
G01X35577Y14688D01*
G01X35524Y14731D01*
G01X35487Y14689D01*
G01X35458Y14638D01*
G01X35439Y14580D01*
G01X35433Y14515D01*
G01X35447Y14424D01*
G01X35487Y14352D01*
G01X35548Y14304D01*
G01X35626Y14287D01*
G01X35697Y14301D01*
G01X35751Y14336D01*
G01X35789Y14384D01*
G01X35816Y14437D01*
G01X35864Y14546D01*
G01X35887Y14596D01*
G01X35914Y14636D01*
G01X35950Y14663D01*
G01X36001Y14673D01*
G01X36053Y14661D01*
G01X36093Y14629D01*
G01X36119Y14576D01*
G01X36128Y14508D01*
G01X36122Y14449D01*
G01X36104Y14394D01*
G01X36074Y14344D01*
G01X36034Y14300D01*
G01X36093Y14249D01*
G01X36138Y14301D01*
G01X36172Y14362D01*
G01X36195Y14431D01*
G01X36202Y14508D01*
G01X36198Y14562D01*
G01X36186Y14611D01*
G01X36167Y14654D01*
G01X36142Y14690D01*
G01X36111Y14718D01*
G01X36076Y14740D01*
G01X36037Y14752D01*
G37*

%LPD*%
G36*
G01X36141Y15363D02*
G01X36095Y15410D01*
G01X36042Y15361D01*
G01X36079Y15324D01*
G01X36106Y15282D01*
G01X36123Y15237D01*
G01X36128Y15186D01*
G01X36123Y15134D01*
G01X36107Y15086D01*
G01X36080Y15046D01*
G01X36044Y15011D01*
G01X35998Y14984D01*
G01X35945Y14964D01*
G01X35884Y14951D01*
G01X35816Y14947D01*
G01X35748Y14952D01*
G01X35687Y14965D01*
G01X35634Y14985D01*
G01X35589Y15014D01*
G01X35554Y15049D01*
G01X35527Y15090D01*
G01X35512Y15137D01*
G01X35506Y15189D01*
G01X35511Y15235D01*
G01X35525Y15276D01*
G01X35548Y15313D01*
G01X35577Y15344D01*
G01X35524Y15389D01*
G01X35489Y15353D01*
G01X35460Y15307D01*
G01X35440Y15252D01*
G01X35433Y15189D01*
G01X35439Y15121D01*
G01X35459Y15058D01*
G01X35491Y15002D01*
G01X35536Y14954D01*
G01X35592Y14915D01*
G01X35658Y14886D01*
G01X35733Y14868D01*
G01X35819Y14861D01*
G01X35903Y14867D01*
G01X35979Y14885D01*
G01X36045Y14914D01*
G01X36100Y14952D01*
G01X36144Y15000D01*
G01X36176Y15054D01*
G01X36196Y15115D01*
G01X36202Y15181D01*
G01X36195Y15249D01*
G01X36175Y15310D01*
G01X36141Y15363D01*
G37*

%LPD*%
G36*
G01X35516Y15999D02*
G01X35445Y15999D01*
G01X35445Y15458D01*
G01X35516Y15458D01*
G01X35516Y15684D01*
G01X36189Y15684D01*
G01X36189Y15770D01*
G01X35516Y15770D01*
G01X35516Y15999D01*
G37*

%LPD*%
G36*
G01X35938Y16250D02*
G01X35874Y16250D01*
G01X35874Y15994D01*
G01X35938Y15994D01*
G01X35938Y16250D01*
G37*

%LPD*%
G36*
G01X35905Y16797D02*
G01X35814Y16801D01*
G01X35724Y16797D01*
G01X35646Y16785D01*
G01X35580Y16766D01*
G01X35527Y16740D01*
G01X35485Y16707D01*
G01X35456Y16667D01*
G01X35438Y16623D01*
G01X35433Y16573D01*
G01X35438Y16523D01*
G01X35456Y16478D01*
G01X35485Y16439D01*
G01X35527Y16406D01*
G01X35580Y16380D01*
G01X35646Y16361D01*
G01X35724Y16348D01*
G01X35814Y16344D01*
G01X35905Y16348D01*
G01X35985Y16361D01*
G01X36051Y16380D01*
G01X36106Y16406D01*
G01X36148Y16439D01*
G01X36178Y16478D01*
G01X36196Y16523D01*
G01X36202Y16573D01*
G01X36196Y16623D01*
G01X36178Y16667D01*
G01X36148Y16707D01*
G01X36106Y16740D01*
G01X36051Y16766D01*
G01X35985Y16785D01*
G01X35905Y16797D01*
G37*

%LPC*%
G36*
G01X35892Y16718D02*
G01X35814Y16720D01*
G01X35738Y16718D01*
G01X35673Y16710D01*
G01X35619Y16697D01*
G01X35575Y16680D01*
G01X35541Y16659D01*
G01X35517Y16633D01*
G01X35503Y16605D01*
G01X35499Y16573D01*
G01X35503Y16542D01*
G01X35517Y16513D01*
G01X35541Y16489D01*
G01X35575Y16467D01*
G01X35619Y16449D01*
G01X35673Y16437D01*
G01X35738Y16429D01*
G01X35814Y16426D01*
G01X35892Y16429D01*
G01X35958Y16437D01*
G01X36014Y16449D01*
G01X36058Y16467D01*
G01X36093Y16489D01*
G01X36117Y16513D01*
G01X36132Y16542D01*
G01X36136Y16573D01*
G01X36132Y16605D01*
G01X36117Y16633D01*
G01X36093Y16659D01*
G01X36058Y16680D01*
G01X36014Y16697D01*
G01X35958Y16710D01*
G01X35892Y16718D01*
G37*

%LPD*%
G36*
G01X36189Y17343D02*
G01X36121Y17343D01*
G01X36121Y17193D01*
G01X35445Y17193D01*
G01X35445Y17129D01*
G01X35461Y17099D01*
G01X35475Y17064D01*
G01X35487Y17024D01*
G01X35496Y16979D01*
G01X35549Y16979D01*
G01X35549Y17109D01*
G01X36121Y17109D01*
G01X36121Y16944D01*
G01X36189Y16944D01*
G01X36189Y17343D01*
G37*

%LPD*%
G36*
G01X36038Y17904D02*
G01X35991Y17909D01*
G01X35922Y17897D01*
G01X35865Y17863D01*
G01X35825Y17812D01*
G01X35801Y17751D01*
G01X35798Y17751D01*
G01X35770Y17805D01*
G01X35731Y17847D01*
G01X35679Y17874D01*
G01X35615Y17884D01*
G01X35538Y17868D01*
G01X35480Y17824D01*
G01X35445Y17757D01*
G01X35433Y17673D01*
G01X35439Y17613D01*
G01X35457Y17559D01*
G01X35485Y17511D01*
G01X35519Y17467D01*
G01X35575Y17513D01*
G01X35545Y17547D01*
G01X35520Y17585D01*
G01X35504Y17626D01*
G01X35499Y17670D01*
G01X35508Y17725D01*
G01X35533Y17766D01*
G01X35572Y17791D01*
G01X35623Y17800D01*
G01X35681Y17789D01*
G01X35728Y17753D01*
G01X35759Y17689D01*
G01X35770Y17591D01*
G01X35834Y17591D01*
G01X35845Y17701D01*
G01X35877Y17774D01*
G01X35926Y17815D01*
G01X35989Y17828D01*
G01X36049Y17816D01*
G01X36094Y17783D01*
G01X36123Y17733D01*
G01X36134Y17670D01*
G01X36126Y17611D01*
G01X36108Y17561D01*
G01X36080Y17519D01*
G01X36047Y17482D01*
G01X36101Y17442D01*
G01X36139Y17481D01*
G01X36171Y17533D01*
G01X36193Y17597D01*
G01X36202Y17675D01*
G01X36199Y17724D01*
G01X36188Y17768D01*
G01X36170Y17807D01*
G01X36146Y17842D01*
G01X36116Y17870D01*
G01X36080Y17891D01*
G01X36038Y17904D01*
G37*

%LPD*%
G36*
G01X35938Y18272D02*
G01X35874Y18272D01*
G01X35874Y18016D01*
G01X35938Y18016D01*
G01X35938Y18272D01*
G37*

%LPD*%
G36*
G01X35905Y18819D02*
G01X35814Y18823D01*
G01X35724Y18819D01*
G01X35646Y18807D01*
G01X35580Y18788D01*
G01X35527Y18761D01*
G01X35485Y18728D01*
G01X35456Y18689D01*
G01X35438Y18645D01*
G01X35433Y18595D01*
G01X35438Y18545D01*
G01X35456Y18500D01*
G01X35485Y18461D01*
G01X35527Y18428D01*
G01X35580Y18402D01*
G01X35646Y18382D01*
G01X35724Y18370D01*
G01X35814Y18366D01*
G01X35905Y18370D01*
G01X35985Y18382D01*
G01X36051Y18402D01*
G01X36106Y18428D01*
G01X36148Y18461D01*
G01X36178Y18500D01*
G01X36196Y18545D01*
G01X36202Y18595D01*
G01X36196Y18645D01*
G01X36178Y18689D01*
G01X36148Y18728D01*
G01X36106Y18761D01*
G01X36051Y18788D01*
G01X35985Y18807D01*
G01X35905Y18819D01*
G37*

%LPC*%
G36*
G01X35892Y18740D02*
G01X35814Y18742D01*
G01X35738Y18740D01*
G01X35673Y18731D01*
G01X35619Y18719D01*
G01X35575Y18702D01*
G01X35541Y18681D01*
G01X35517Y18655D01*
G01X35503Y18627D01*
G01X35499Y18595D01*
G01X35503Y18564D01*
G01X35517Y18535D01*
G01X35541Y18510D01*
G01X35575Y18489D01*
G01X35619Y18471D01*
G01X35673Y18459D01*
G01X35738Y18450D01*
G01X35814Y18447D01*
G01X35892Y18450D01*
G01X35958Y18459D01*
G01X36014Y18471D01*
G01X36058Y18489D01*
G01X36093Y18510D01*
G01X36117Y18535D01*
G01X36132Y18564D01*
G01X36136Y18595D01*
G01X36132Y18627D01*
G01X36117Y18655D01*
G01X36093Y18681D01*
G01X36058Y18702D01*
G01X36014Y18719D01*
G01X35958Y18731D01*
G01X35892Y18740D01*
G37*

%LPD*%
G36*
G01X35905Y19376D02*
G01X35814Y19380D01*
G01X35724Y19376D01*
G01X35646Y19364D01*
G01X35580Y19345D01*
G01X35527Y19319D01*
G01X35485Y19287D01*
G01X35456Y19248D01*
G01X35438Y19203D01*
G01X35433Y19154D01*
G01X35438Y19104D01*
G01X35456Y19059D01*
G01X35485Y19020D01*
G01X35527Y18987D01*
G01X35580Y18960D01*
G01X35646Y18941D01*
G01X35724Y18929D01*
G01X35814Y18925D01*
G01X35905Y18929D01*
G01X35985Y18941D01*
G01X36051Y18960D01*
G01X36106Y18987D01*
G01X36148Y19020D01*
G01X36178Y19059D01*
G01X36196Y19104D01*
G01X36202Y19154D01*
G01X36196Y19203D01*
G01X36178Y19248D01*
G01X36148Y19287D01*
G01X36106Y19319D01*
G01X36051Y19345D01*
G01X35985Y19364D01*
G01X35905Y19376D01*
G37*

%LPC*%
G36*
G01X35892Y19298D02*
G01X35814Y19301D01*
G01X35738Y19298D01*
G01X35673Y19290D01*
G01X35619Y19277D01*
G01X35575Y19260D01*
G01X35541Y19238D01*
G01X35517Y19213D01*
G01X35503Y19185D01*
G01X35499Y19154D01*
G01X35503Y19122D01*
G01X35517Y19093D01*
G01X35541Y19068D01*
G01X35575Y19046D01*
G01X35619Y19030D01*
G01X35673Y19017D01*
G01X35738Y19009D01*
G01X35814Y19006D01*
G01X35892Y19009D01*
G01X35958Y19017D01*
G01X36014Y19030D01*
G01X36058Y19046D01*
G01X36093Y19068D01*
G01X36117Y19093D01*
G01X36132Y19122D01*
G01X36136Y19154D01*
G01X36132Y19185D01*
G01X36117Y19213D01*
G01X36093Y19238D01*
G01X36058Y19260D01*
G01X36014Y19277D01*
G01X35958Y19290D01*
G01X35892Y19298D01*
G37*

%LPD*%
G36*
G01X35905Y19934D02*
G01X35814Y19938D01*
G01X35724Y19934D01*
G01X35646Y19923D01*
G01X35580Y19903D01*
G01X35527Y19877D01*
G01X35485Y19844D01*
G01X35456Y19806D01*
G01X35438Y19762D01*
G01X35433Y19712D01*
G01X35438Y19662D01*
G01X35456Y19617D01*
G01X35485Y19578D01*
G01X35527Y19545D01*
G01X35580Y19519D01*
G01X35646Y19499D01*
G01X35724Y19488D01*
G01X35814Y19484D01*
G01X35905Y19488D01*
G01X35985Y19499D01*
G01X36051Y19519D01*
G01X36106Y19545D01*
G01X36148Y19578D01*
G01X36178Y19617D01*
G01X36196Y19662D01*
G01X36202Y19712D01*
G01X36196Y19762D01*
G01X36178Y19806D01*
G01X36148Y19844D01*
G01X36106Y19877D01*
G01X36051Y19903D01*
G01X35985Y19923D01*
G01X35905Y19934D01*
G37*

%LPC*%
G36*
G01X35892Y19855D02*
G01X35814Y19857D01*
G01X35738Y19855D01*
G01X35673Y19846D01*
G01X35619Y19834D01*
G01X35575Y19817D01*
G01X35541Y19796D01*
G01X35517Y19771D01*
G01X35503Y19743D01*
G01X35499Y19712D01*
G01X35503Y19680D01*
G01X35517Y19651D01*
G01X35541Y19626D01*
G01X35575Y19604D01*
G01X35619Y19586D01*
G01X35673Y19574D01*
G01X35738Y19566D01*
G01X35814Y19562D01*
G01X35892Y19566D01*
G01X35958Y19574D01*
G01X36014Y19586D01*
G01X36058Y19604D01*
G01X36093Y19626D01*
G01X36117Y19651D01*
G01X36132Y19680D01*
G01X36136Y19712D01*
G01X36132Y19743D01*
G01X36117Y19771D01*
G01X36093Y19796D01*
G01X36058Y19817D01*
G01X36014Y19834D01*
G01X35958Y19846D01*
G01X35892Y19855D01*
G37*

%LPD*%

%LPD*%
G36*
G01X36177Y12572D02*
G01X36108Y12572D01*
G01X36108Y12423D01*
G01X35432Y12423D01*
G01X35432Y12359D01*
G01X35449Y12329D01*
G01X35463Y12294D01*
G01X35474Y12254D01*
G01X35483Y12209D01*
G01X35537Y12209D01*
G01X35537Y12339D01*
G01X36108Y12339D01*
G01X36108Y12174D01*
G01X36177Y12174D01*
G01X36177Y12572D01*
G37*

%LPD*%

%LPD*%
G36*
G01X36189Y21970D02*
G01X36118Y21970D01*
G01X36118Y21757D01*
G01X36119Y21728D01*
G01X36121Y21666D01*
G01X36123Y21635D01*
G01X36060Y21701D01*
G01X35999Y21759D01*
G01X35938Y21810D01*
G01X35879Y21854D01*
G01X35821Y21888D01*
G01X35764Y21914D01*
G01X35707Y21930D01*
G01X35651Y21935D01*
G01X35604Y21931D01*
G01X35561Y21920D01*
G01X35524Y21902D01*
G01X35492Y21878D01*
G01X35467Y21847D01*
G01X35448Y21811D01*
G01X35436Y21769D01*
G01X35432Y21722D01*
G01X35440Y21658D01*
G01X35462Y21602D01*
G01X35497Y21552D01*
G01X35542Y21506D01*
G01X35587Y21554D01*
G01X35553Y21588D01*
G01X35525Y21626D01*
G01X35506Y21668D01*
G01X35498Y21714D01*
G01X35510Y21775D01*
G01X35543Y21819D01*
G01X35592Y21845D01*
G01X35653Y21854D01*
G01X35703Y21849D01*
G01X35755Y21834D01*
G01X35810Y21808D01*
G01X35867Y21772D01*
G01X35929Y21724D01*
G01X35994Y21665D01*
G01X36064Y21594D01*
G01X36138Y21511D01*
G01X36189Y21511D01*
G01X36189Y21970D01*
G37*

%LPD*%
G01X32435Y39865D02*
G01X32435Y39138D01*
G01X32435Y38879D02*
G01X32384Y38826D01*
G01X32435Y38775D01*
G01X32488Y38826D01*
G01X32435Y38879D01*
G01X32882Y39865D02*
G01X32882Y39138D01*
G01X32882Y38879D02*
G01X32831Y38826D01*
G01X32882Y38775D01*
G01X32936Y38826D01*
G01X32882Y38879D01*
G01X33329Y39865D02*
G01X33329Y39138D01*
G01X33329Y38879D02*
G01X33278Y38826D01*
G01X33329Y38775D01*
G01X33383Y38826D01*
G01X33329Y38879D01*
G01X33776Y39606D02*
G01X33776Y39659D01*
G01X33830Y39763D01*
G01X33880Y39814D01*
G01X33985Y39865D01*
G01X34193Y39865D01*
G01X34297Y39814D01*
G01X34348Y39763D01*
G01X34401Y39659D01*
G01X34401Y39555D01*
G01X34348Y39451D01*
G01X34244Y39293D01*
G01X33725Y38775D01*
G01X34452Y38775D01*
G01X34848Y39606D02*
G01X34848Y39659D01*
G01X34899Y39763D01*
G01X34950Y39814D01*
G01X35054Y39865D01*
G01X35262Y39865D01*
G01X35366Y39814D01*
G01X35420Y39763D01*
G01X35470Y39659D01*
G01X35470Y39555D01*
G01X35420Y39451D01*
G01X35315Y39293D01*
G01X34795Y38775D01*
G01X35521Y38775D01*
G01X36177Y39865D02*
G01X36022Y39814D01*
G01X35917Y39659D01*
G01X35864Y39397D01*
G01X35864Y39242D01*
G01X35917Y38983D01*
G01X36022Y38826D01*
G01X36177Y38775D01*
G01X36281Y38775D01*
G01X36436Y38826D01*
G01X36540Y38983D01*
G01X36593Y39242D01*
G01X36593Y39397D01*
G01X36540Y39659D01*
G01X36436Y39814D01*
G01X36281Y39865D01*
G01X36177Y39865D01*
G01X36936Y39865D02*
G01X37350Y38775D01*
G01X37767Y39865D02*
G01X37350Y38775D01*
G01X38163Y39865D02*
G01X38163Y39138D01*
G01X38163Y38879D02*
G01X38109Y38826D01*
G01X38163Y38775D01*
G01X38214Y38826D01*
G01X38163Y38879D01*
G01X38607Y39865D02*
G01X38607Y39138D01*
G01X38607Y38879D02*
G01X38557Y38826D01*
G01X38607Y38775D01*
G01X38661Y38826D01*
G01X38607Y38879D01*
G01X39054Y39865D02*
G01X39054Y39138D01*
G01X39054Y38879D02*
G01X39004Y38826D01*
G01X39054Y38775D01*
G01X39108Y38826D01*
G01X39054Y38879D01*

%LPD*%
G36*
G01X47635Y6430D02*
G01X47604Y6476D01*
G01X47574Y6430D01*
G01X47540Y6382D01*
G01X47505Y6335D01*
G01X47467Y6287D01*
G01X47428Y6240D01*
G01X47387Y6193D01*
G01X47344Y6147D01*
G01X47300Y6103D01*
G01X47255Y6060D01*
G01X47210Y6020D01*
G01X47163Y5981D01*
G01X47116Y5946D01*
G01X47172Y5874D01*
G01X47226Y5916D01*
G01X47279Y5960D01*
G01X47331Y6007D01*
G01X47381Y6057D01*
G01X47430Y6107D01*
G01X47476Y6158D01*
G01X47519Y6209D01*
G01X47558Y6258D01*
G01X47558Y4594D01*
G01X47650Y4594D01*
G01X47650Y6258D01*
G01X47689Y6209D01*
G01X47732Y6158D01*
G01X47777Y6108D01*
G01X47826Y6058D01*
G01X47876Y6009D01*
G01X47928Y5961D01*
G01X47982Y5916D01*
G01X48036Y5874D01*
G01X48092Y5946D01*
G01X48045Y5981D01*
G01X47998Y6020D01*
G01X47953Y6060D01*
G01X47908Y6103D01*
G01X47864Y6147D01*
G01X47821Y6193D01*
G01X47780Y6240D01*
G01X47741Y6287D01*
G01X47703Y6335D01*
G01X47668Y6382D01*
G01X47635Y6430D01*
G37*

%LPD*%

%LPD*%
G36*
G01X37749Y6371D02*
G01X37719Y6418D01*
G01X37688Y6371D01*
G01X37655Y6324D01*
G01X37619Y6276D01*
G01X37582Y6228D01*
G01X37542Y6181D01*
G01X37501Y6134D01*
G01X37459Y6089D01*
G01X37415Y6045D01*
G01X37370Y6002D01*
G01X37324Y5961D01*
G01X37278Y5923D01*
G01X37231Y5887D01*
G01X37287Y5816D01*
G01X37340Y5857D01*
G01X37393Y5902D01*
G01X37445Y5949D01*
G01X37496Y5998D01*
G01X37545Y6049D01*
G01X37591Y6100D01*
G01X37634Y6150D01*
G01X37673Y6200D01*
G01X37673Y4536D01*
G01X37764Y4536D01*
G01X37764Y6200D01*
G01X37803Y6150D01*
G01X37846Y6100D01*
G01X37892Y6049D01*
G01X37940Y5999D01*
G01X37991Y5950D01*
G01X38043Y5903D01*
G01X38096Y5858D01*
G01X38150Y5816D01*
G01X38206Y5887D01*
G01X38159Y5923D01*
G01X38113Y5961D01*
G01X38067Y6002D01*
G01X38022Y6045D01*
G01X37978Y6089D01*
G01X37936Y6134D01*
G01X37895Y6181D01*
G01X37855Y6228D01*
G01X37818Y6276D01*
G01X37782Y6324D01*
G01X37749Y6371D01*
G37*

%LPD*%

%LPD*%
G36*
G01X41943Y32252D02*
G01X41894Y32257D01*
G01X41843Y32252D01*
G01X41798Y32234D01*
G01X41759Y32205D01*
G01X41727Y32163D01*
G01X41700Y32110D01*
G01X41681Y32044D01*
G01X41670Y31966D01*
G01X41666Y31876D01*
G01X41670Y31784D01*
G01X41681Y31705D01*
G01X41700Y31639D01*
G01X41727Y31584D01*
G01X41759Y31542D01*
G01X41798Y31512D01*
G01X41843Y31494D01*
G01X41894Y31488D01*
G01X41943Y31494D01*
G01X41987Y31512D01*
G01X42026Y31542D01*
G01X42058Y31584D01*
G01X42085Y31639D01*
G01X42104Y31705D01*
G01X42116Y31784D01*
G01X42120Y31876D01*
G01X42116Y31966D01*
G01X42104Y32044D01*
G01X42085Y32110D01*
G01X42058Y32163D01*
G01X42026Y32205D01*
G01X41987Y32234D01*
G01X41943Y32252D01*
G37*

%LPC*%
G36*
G01X41925Y32187D02*
G01X41894Y32191D01*
G01X41862Y32187D01*
G01X41833Y32173D01*
G01X41808Y32149D01*
G01X41786Y32115D01*
G01X41768Y32071D01*
G01X41755Y32017D01*
G01X41747Y31952D01*
G01X41744Y31876D01*
G01X41747Y31798D01*
G01X41755Y31732D01*
G01X41768Y31676D01*
G01X41786Y31632D01*
G01X41808Y31597D01*
G01X41833Y31573D01*
G01X41862Y31558D01*
G01X41894Y31554D01*
G01X41925Y31558D01*
G01X41953Y31573D01*
G01X41978Y31597D01*
G01X41999Y31632D01*
G01X42016Y31676D01*
G01X42028Y31732D01*
G01X42036Y31798D01*
G01X42039Y31876D01*
G01X42036Y31952D01*
G01X42028Y32017D01*
G01X42016Y32071D01*
G01X41999Y32115D01*
G01X41978Y32149D01*
G01X41953Y32173D01*
G01X41925Y32187D01*
G37*

%LPD*%
G36*
G01X42359Y32245D02*
G01X42275Y32245D01*
G01X42275Y31500D01*
G01X42359Y31500D01*
G01X42359Y31739D01*
G01X42494Y31897D01*
G01X42720Y31500D01*
G01X42814Y31500D01*
G01X42547Y31963D01*
G01X42781Y32245D01*
G01X42684Y32245D01*
G01X42362Y31861D01*
G01X42359Y31861D01*
G01X42359Y32245D01*
G37*

%LPD*%
G36*
G01X41396Y32245D02*
G01X41333Y32245D01*
G01X41302Y32228D01*
G01X41267Y32215D01*
G01X41228Y32203D01*
G01X41183Y32194D01*
G01X41183Y32141D01*
G01X41313Y32141D01*
G01X41313Y31569D01*
G01X41148Y31569D01*
G01X41148Y31500D01*
G01X41546Y31500D01*
G01X41546Y31569D01*
G01X41396Y31569D01*
G01X41396Y32245D01*
G37*

%LPD*%

%LPD*%
G36*
G01X45587Y27810D02*
G01X45587Y27904D01*
G01X45257Y27713D01*
G01X45231Y27784D01*
G01X45188Y27839D01*
G01X45127Y27874D01*
G01X45049Y27886D01*
G01X44996Y27881D01*
G01X44952Y27867D01*
G01X44917Y27844D01*
G01X44889Y27814D01*
G01X44868Y27776D01*
G01X44854Y27732D01*
G01X44846Y27682D01*
G01X44843Y27627D01*
G01X44843Y27401D01*
G01X45587Y27401D01*
G01X45587Y27485D01*
G01X45267Y27485D01*
G01X45267Y27624D01*
G01X45587Y27810D01*
G37*

%LPC*%
G36*
G01X45114Y27788D02*
G01X45049Y27800D01*
G01X44984Y27788D01*
G01X44942Y27752D01*
G01X44919Y27694D01*
G01X44912Y27614D01*
G01X44912Y27485D01*
G01X45196Y27485D01*
G01X45196Y27614D01*
G01X45188Y27694D01*
G01X45161Y27752D01*
G01X45114Y27788D01*
G37*

%LPD*%
G36*
G01X45412Y28443D02*
G01X45361Y28447D01*
G01X45306Y28444D01*
G01X45259Y28433D01*
G01X45219Y28416D01*
G01X45186Y28392D01*
G01X45161Y28363D01*
G01X45142Y28328D01*
G01X45131Y28287D01*
G01X45128Y28242D01*
G01X45134Y28196D01*
G01X45151Y28151D01*
G01X45179Y28108D01*
G01X45217Y28069D01*
G01X45135Y28075D01*
G01X45067Y28087D01*
G01X45012Y28107D01*
G01X44969Y28131D01*
G01X44937Y28160D01*
G01X44915Y28193D01*
G01X44903Y28229D01*
G01X44899Y28267D01*
G01X44903Y28301D01*
G01X44915Y28333D01*
G01X44933Y28362D01*
G01X44958Y28386D01*
G01X44904Y28435D01*
G01X44874Y28401D01*
G01X44851Y28362D01*
G01X44836Y28316D01*
G01X44831Y28265D01*
G01X44836Y28212D01*
G01X44852Y28162D01*
G01X44880Y28116D01*
G01X44922Y28076D01*
G01X44977Y28041D01*
G01X45047Y28015D01*
G01X45132Y27999D01*
G01X45234Y27993D01*
G01X45319Y27997D01*
G01X45393Y28011D01*
G01X45456Y28032D01*
G01X45508Y28061D01*
G01X45548Y28097D01*
G01X45577Y28139D01*
G01X45594Y28185D01*
G01X45600Y28237D01*
G01X45596Y28278D01*
G01X45583Y28318D01*
G01X45562Y28353D01*
G01X45534Y28385D01*
G01X45499Y28411D01*
G01X45458Y28431D01*
G01X45412Y28443D01*
G37*

%LPC*%
G36*
G01X45431Y28359D02*
G01X45361Y28369D01*
G01X45290Y28360D01*
G01X45236Y28334D01*
G01X45201Y28290D01*
G01X45189Y28229D01*
G01X45194Y28191D01*
G01X45212Y28151D01*
G01X45242Y28111D01*
G01X45288Y28071D01*
G01X45392Y28088D01*
G01X45470Y28122D01*
G01X45518Y28172D01*
G01X45534Y28237D01*
G01X45521Y28289D01*
G01X45486Y28331D01*
G01X45431Y28359D01*
G37*

%LPD*%

%LPD*%
G36*
G01X45575Y30352D02*
G01X45575Y30446D01*
G01X45245Y30256D01*
G01X45219Y30327D01*
G01X45175Y30381D01*
G01X45115Y30416D01*
G01X45036Y30429D01*
G01X44983Y30424D01*
G01X44940Y30410D01*
G01X44904Y30387D01*
G01X44876Y30356D01*
G01X44855Y30319D01*
G01X44841Y30275D01*
G01X44833Y30226D01*
G01X44831Y30172D01*
G01X44831Y29943D01*
G01X45575Y29943D01*
G01X45575Y30027D01*
G01X45255Y30027D01*
G01X45255Y30167D01*
G01X45575Y30352D01*
G37*

%LPC*%
G36*
G01X45102Y30333D02*
G01X45036Y30345D01*
G01X44972Y30333D01*
G01X44930Y30297D01*
G01X44906Y30238D01*
G01X44899Y30157D01*
G01X44899Y30027D01*
G01X45184Y30027D01*
G01X45184Y30157D01*
G01X45175Y30238D01*
G01X45148Y30297D01*
G01X45102Y30333D01*
G37*

%LPD*%
G36*
G01X44881Y30987D02*
G01X44831Y30987D01*
G01X44831Y30525D01*
G01X44902Y30525D01*
G01X44902Y30891D01*
G01X44952Y30856D01*
G01X45002Y30825D01*
G01X45052Y30797D01*
G01X45103Y30774D01*
G01X45154Y30753D01*
G01X45206Y30735D01*
G01X45261Y30720D01*
G01X45318Y30707D01*
G01X45377Y30698D01*
G01X45439Y30690D01*
G01X45505Y30684D01*
G01X45575Y30680D01*
G01X45575Y30766D01*
G01X45505Y30770D01*
G01X45439Y30775D01*
G01X45376Y30781D01*
G01X45316Y30790D01*
G01X45259Y30801D01*
G01X45204Y30815D01*
G01X45150Y30832D01*
G01X45097Y30854D01*
G01X45044Y30880D01*
G01X44991Y30910D01*
G01X44937Y30946D01*
G01X44881Y30987D01*
G37*

%LPD*%

%LPD*%
G36*
G01X49847Y32250D02*
G01X49837Y32257D01*
G01X49664Y32214D01*
G01X49664Y32184D01*
G01X49776Y32194D01*
G01X49776Y31834D01*
G01X49775Y31800D01*
G01X49775Y31767D01*
G01X49773Y31734D01*
G01X49656Y31716D01*
G01X49656Y31691D01*
G01X49964Y31691D01*
G01X49964Y31716D01*
G01X49847Y31734D01*
G01X49845Y31767D01*
G01X49845Y31800D01*
G01X49844Y31834D01*
G01X49844Y32130D01*
G01X49847Y32250D01*
G37*

%LPD*%

%LPD*%
G36*
G01X47264Y32307D02*
G01X47195Y32318D01*
G01X47135Y32310D01*
G01X47084Y32287D01*
G01X47046Y32248D01*
G01X47028Y32194D01*
G01X47035Y32183D01*
G01X47044Y32175D01*
G01X47055Y32170D01*
G01X47068Y32168D01*
G01X47082Y32171D01*
G01X47095Y32179D01*
G01X47105Y32195D01*
G01X47114Y32219D01*
G01X47129Y32280D01*
G01X47142Y32283D01*
G01X47154Y32286D01*
G01X47165Y32287D01*
G01X47175Y32288D01*
G01X47218Y32279D01*
G01X47249Y32255D01*
G01X47270Y32217D01*
G01X47276Y32168D01*
G01X47269Y32117D01*
G01X47247Y32065D01*
G01X47210Y32009D01*
G01X47157Y31945D01*
G01X47129Y31911D01*
G01X47097Y31876D01*
G01X47064Y31839D01*
G01X47030Y31800D01*
G01X47030Y31749D01*
G01X47373Y31749D01*
G01X47373Y31815D01*
G01X47083Y31815D01*
G01X47113Y31844D01*
G01X47140Y31870D01*
G01X47163Y31894D01*
G01X47182Y31914D01*
G01X47261Y32000D01*
G01X47313Y32065D01*
G01X47341Y32119D01*
G01X47350Y32171D01*
G01X47341Y32230D01*
G01X47313Y32277D01*
G01X47264Y32307D01*
G37*

%LPD*%

%LPD*%
G36*
G01X49556Y26774D02*
G01X49471Y26789D01*
G01X49391Y26775D01*
G01X49328Y26736D01*
G01X49286Y26678D01*
G01X49270Y26601D01*
G01X49279Y26546D01*
G01X49301Y26500D01*
G01X49334Y26461D01*
G01X49372Y26431D01*
G01X49372Y26426D01*
G01X49322Y26393D01*
G01X49278Y26346D01*
G01X49247Y26289D01*
G01X49235Y26220D01*
G01X49253Y26141D01*
G01X49301Y26078D01*
G01X49375Y26036D01*
G01X49469Y26022D01*
G01X49563Y26036D01*
G01X49636Y26077D01*
G01X49683Y26138D01*
G01X49700Y26212D01*
G01X49689Y26280D01*
G01X49661Y26334D01*
G01X49620Y26375D01*
G01X49573Y26408D01*
G01X49573Y26413D01*
G01X49607Y26444D01*
G01X49640Y26486D01*
G01X49665Y26536D01*
G01X49674Y26593D01*
G01X49661Y26672D01*
G01X49620Y26734D01*
G01X49556Y26774D01*
G37*

%LPC*%
G36*
G01X49494Y26368D02*
G01X49418Y26400D01*
G01X49374Y26366D01*
G01X49340Y26325D01*
G01X49317Y26278D01*
G01X49309Y26225D01*
G01X49321Y26169D01*
G01X49355Y26123D01*
G01X49406Y26093D01*
G01X49471Y26083D01*
G01X49532Y26093D01*
G01X49579Y26120D01*
G01X49610Y26162D01*
G01X49621Y26215D01*
G01X49604Y26282D01*
G01X49559Y26330D01*
G01X49494Y26368D01*
G37*
G36*
G01X49525Y26715D02*
G01X49469Y26725D01*
G01X49421Y26716D01*
G01X49382Y26691D01*
G01X49356Y26651D01*
G01X49347Y26601D01*
G01X49361Y26541D01*
G01X49400Y26496D01*
G01X49456Y26463D01*
G01X49519Y26436D01*
G01X49554Y26470D01*
G01X49580Y26507D01*
G01X49596Y26547D01*
G01X49601Y26588D01*
G01X49592Y26641D01*
G01X49567Y26685D01*
G01X49525Y26715D01*
G37*

%LPD*%
G36*
G01X49860Y26779D02*
G01X49773Y26779D01*
G01X49933Y26034D01*
G01X50032Y26034D01*
G01X50149Y26497D01*
G01X50158Y26540D01*
G01X50167Y26582D01*
G01X50177Y26624D01*
G01X50185Y26667D01*
G01X50190Y26667D01*
G01X50200Y26624D01*
G01X50218Y26540D01*
G01X50228Y26497D01*
G01X50347Y26034D01*
G01X50446Y26034D01*
G01X50601Y26779D01*
G01X50520Y26779D01*
G01X50439Y26365D01*
G01X50417Y26245D01*
G01X50407Y26184D01*
G01X50396Y26123D01*
G01X50391Y26123D01*
G01X50377Y26184D01*
G01X50364Y26245D01*
G01X50350Y26305D01*
G01X50337Y26365D01*
G01X50231Y26779D01*
G01X50152Y26779D01*
G01X50045Y26365D01*
G01X50019Y26245D01*
G01X50005Y26184D01*
G01X49992Y26123D01*
G01X49987Y26123D01*
G01X49976Y26184D01*
G01X49964Y26245D01*
G01X49953Y26305D01*
G01X49941Y26365D01*
G01X49860Y26779D01*
G37*

%LPD*%
G36*
G01X49055Y26779D02*
G01X48966Y26779D01*
G01X48651Y26296D01*
G01X48651Y26243D01*
G01X48976Y26243D01*
G01X48976Y26034D01*
G01X49055Y26034D01*
G01X49055Y26243D01*
G01X49156Y26243D01*
G01X49156Y26309D01*
G01X49055Y26309D01*
G01X49055Y26779D01*
G37*

%LPC*%
G36*
G01X48981Y26682D02*
G01X48976Y26682D01*
G01X48962Y26655D01*
G01X48947Y26627D01*
G01X48933Y26600D01*
G01X48917Y26573D01*
G01X48737Y26309D01*
G01X48976Y26309D01*
G01X48976Y26580D01*
G01X48977Y26615D01*
G01X48979Y26651D01*
G01X48981Y26682D01*
G37*

%LPD*%
G36*
G01X48412Y26779D02*
G01X48348Y26779D01*
G01X48318Y26762D01*
G01X48283Y26749D01*
G01X48243Y26737D01*
G01X48199Y26728D01*
G01X48199Y26674D01*
G01X48331Y26674D01*
G01X48331Y26103D01*
G01X48163Y26103D01*
G01X48163Y26034D01*
G01X48564Y26034D01*
G01X48564Y26103D01*
G01X48412Y26103D01*
G01X48412Y26779D01*
G37*

%LPD*%
G36*
G01X47939Y26779D02*
G01X47851Y26779D01*
G01X47533Y26296D01*
G01X47533Y26243D01*
G01X47861Y26243D01*
G01X47861Y26034D01*
G01X47939Y26034D01*
G01X47939Y26243D01*
G01X48041Y26243D01*
G01X48041Y26309D01*
G01X47939Y26309D01*
G01X47939Y26779D01*
G37*

%LPC*%
G36*
G01X47866Y26682D02*
G01X47861Y26682D01*
G01X47847Y26655D01*
G01X47832Y26627D01*
G01X47818Y26600D01*
G01X47802Y26573D01*
G01X47622Y26309D01*
G01X47861Y26309D01*
G01X47861Y26580D01*
G01X47862Y26615D01*
G01X47864Y26651D01*
G01X47866Y26682D01*
G37*

%LPD*%
G36*
G01X46974Y26779D02*
G01X46888Y26779D01*
G01X46888Y26034D01*
G01X46969Y26034D01*
G01X46969Y26441D01*
G01X46968Y26499D01*
G01X46962Y26613D01*
G01X46959Y26669D01*
G01X46964Y26669D01*
G01X47045Y26517D01*
G01X47325Y26034D01*
G01X47411Y26034D01*
G01X47411Y26779D01*
G01X47330Y26779D01*
G01X47330Y26375D01*
G01X47331Y26317D01*
G01X47334Y26258D01*
G01X47338Y26200D01*
G01X47343Y26144D01*
G01X47337Y26144D01*
G01X47256Y26296D01*
G01X46974Y26779D01*
G37*

%LPD*%
G36*
G01X46568Y26779D02*
G01X46504Y26779D01*
G01X46474Y26762D01*
G01X46439Y26749D01*
G01X46399Y26737D01*
G01X46355Y26728D01*
G01X46355Y26674D01*
G01X46484Y26674D01*
G01X46484Y26103D01*
G01X46319Y26103D01*
G01X46319Y26034D01*
G01X46718Y26034D01*
G01X46718Y26103D01*
G01X46568Y26103D01*
G01X46568Y26779D01*
G37*

%LPD*%

%LPD*%
G36*
G01X44825Y32819D02*
G01X44825Y32913D01*
G01X44495Y32722D01*
G01X44469Y32793D01*
G01X44426Y32848D01*
G01X44366Y32883D01*
G01X44287Y32895D01*
G01X44234Y32890D01*
G01X44190Y32876D01*
G01X44155Y32853D01*
G01X44127Y32823D01*
G01X44106Y32786D01*
G01X44092Y32742D01*
G01X44084Y32692D01*
G01X44081Y32638D01*
G01X44081Y32410D01*
G01X44825Y32410D01*
G01X44825Y32494D01*
G01X44503Y32494D01*
G01X44503Y32633D01*
G01X44825Y32819D01*
G37*

%LPC*%
G36*
G01X44351Y32799D02*
G01X44287Y32811D01*
G01X44222Y32799D01*
G01X44180Y32763D01*
G01X44157Y32704D01*
G01X44150Y32623D01*
G01X44150Y32494D01*
G01X44434Y32494D01*
G01X44434Y32623D01*
G01X44425Y32704D01*
G01X44398Y32763D01*
G01X44351Y32799D01*
G37*

%LPD*%
G36*
G01X44825Y33433D02*
G01X44757Y33433D01*
G01X44757Y33284D01*
G01X44081Y33284D01*
G01X44081Y33220D01*
G01X44097Y33189D01*
G01X44111Y33154D01*
G01X44123Y33114D01*
G01X44132Y33068D01*
G01X44185Y33068D01*
G01X44185Y33200D01*
G01X44757Y33200D01*
G01X44757Y33032D01*
G01X44825Y33032D01*
G01X44825Y33433D01*
G37*

%LPD*%
G36*
G01X44541Y34003D02*
G01X44450Y34007D01*
G01X44360Y34003D01*
G01X44282Y33992D01*
G01X44216Y33972D01*
G01X44162Y33946D01*
G01X44121Y33913D01*
G01X44092Y33875D01*
G01X44074Y33831D01*
G01X44069Y33781D01*
G01X44074Y33731D01*
G01X44092Y33685D01*
G01X44121Y33646D01*
G01X44162Y33613D01*
G01X44216Y33586D01*
G01X44282Y33567D01*
G01X44360Y33554D01*
G01X44450Y33550D01*
G01X44541Y33554D01*
G01X44621Y33567D01*
G01X44687Y33586D01*
G01X44742Y33613D01*
G01X44784Y33646D01*
G01X44814Y33685D01*
G01X44832Y33731D01*
G01X44838Y33781D01*
G01X44832Y33831D01*
G01X44814Y33875D01*
G01X44784Y33913D01*
G01X44742Y33946D01*
G01X44687Y33972D01*
G01X44621Y33992D01*
G01X44541Y34003D01*
G37*

%LPC*%
G36*
G01X44527Y33924D02*
G01X44450Y33926D01*
G01X44374Y33924D01*
G01X44309Y33916D01*
G01X44255Y33903D01*
G01X44211Y33886D01*
G01X44177Y33865D01*
G01X44153Y33840D01*
G01X44139Y33812D01*
G01X44135Y33781D01*
G01X44139Y33749D01*
G01X44153Y33720D01*
G01X44177Y33695D01*
G01X44211Y33673D01*
G01X44255Y33655D01*
G01X44309Y33643D01*
G01X44374Y33635D01*
G01X44450Y33632D01*
G01X44527Y33635D01*
G01X44593Y33643D01*
G01X44649Y33655D01*
G01X44693Y33673D01*
G01X44728Y33695D01*
G01X44753Y33720D01*
G01X44767Y33749D01*
G01X44772Y33781D01*
G01X44767Y33812D01*
G01X44753Y33840D01*
G01X44728Y33865D01*
G01X44693Y33886D01*
G01X44649Y33903D01*
G01X44593Y33916D01*
G01X44527Y33924D01*
G37*

%LPD*%
G36*
G01X44574Y34363D02*
G01X44510Y34363D01*
G01X44510Y34104D01*
G01X44574Y34104D01*
G01X44574Y34363D01*
G37*

%LPD*%
G36*
G01X44617Y34932D02*
G01X44551Y34932D01*
G01X44551Y34830D01*
G01X44081Y34830D01*
G01X44081Y34742D01*
G01X44564Y34427D01*
G01X44617Y34427D01*
G01X44617Y34752D01*
G01X44825Y34752D01*
G01X44825Y34830D01*
G01X44617Y34830D01*
G01X44617Y34932D01*
G37*

%LPC*%
G36*
G01X44209Y34757D02*
G01X44178Y34759D01*
G01X44178Y34754D01*
G01X44204Y34741D01*
G01X44231Y34726D01*
G01X44258Y34710D01*
G01X44287Y34693D01*
G01X44551Y34515D01*
G01X44551Y34752D01*
G01X44310Y34752D01*
G01X44279Y34753D01*
G01X44245Y34755D01*
G01X44209Y34757D01*
G37*

%LPD*%
G36*
G01X44132Y35476D02*
G01X44081Y35476D01*
G01X44081Y35013D01*
G01X44152Y35013D01*
G01X44152Y35379D01*
G01X44203Y35344D01*
G01X44253Y35313D01*
G01X44303Y35286D01*
G01X44353Y35262D01*
G01X44405Y35241D01*
G01X44457Y35223D01*
G01X44512Y35208D01*
G01X44568Y35196D01*
G01X44628Y35186D01*
G01X44690Y35178D01*
G01X44756Y35172D01*
G01X44825Y35168D01*
G01X44825Y35255D01*
G01X44755Y35258D01*
G01X44689Y35263D01*
G01X44627Y35269D01*
G01X44567Y35278D01*
G01X44510Y35289D01*
G01X44455Y35303D01*
G01X44401Y35321D01*
G01X44348Y35342D01*
G01X44295Y35368D01*
G01X44242Y35398D01*
G01X44187Y35434D01*
G01X44132Y35476D01*
G37*

%LPD*%
G36*
G01X44541Y36025D02*
G01X44450Y36029D01*
G01X44360Y36025D01*
G01X44282Y36014D01*
G01X44216Y35994D01*
G01X44162Y35968D01*
G01X44121Y35935D01*
G01X44092Y35897D01*
G01X44074Y35853D01*
G01X44069Y35803D01*
G01X44074Y35752D01*
G01X44092Y35707D01*
G01X44121Y35668D01*
G01X44162Y35635D01*
G01X44216Y35608D01*
G01X44282Y35588D01*
G01X44360Y35576D01*
G01X44450Y35572D01*
G01X44541Y35576D01*
G01X44621Y35588D01*
G01X44687Y35608D01*
G01X44742Y35635D01*
G01X44784Y35668D01*
G01X44814Y35707D01*
G01X44832Y35752D01*
G01X44838Y35803D01*
G01X44832Y35853D01*
G01X44814Y35897D01*
G01X44784Y35935D01*
G01X44742Y35968D01*
G01X44687Y35994D01*
G01X44621Y36014D01*
G01X44541Y36025D01*
G37*

%LPC*%
G36*
G01X44527Y35945D02*
G01X44450Y35948D01*
G01X44374Y35945D01*
G01X44309Y35937D01*
G01X44255Y35925D01*
G01X44211Y35908D01*
G01X44177Y35887D01*
G01X44153Y35862D01*
G01X44139Y35834D01*
G01X44135Y35803D01*
G01X44139Y35771D01*
G01X44153Y35742D01*
G01X44177Y35717D01*
G01X44211Y35695D01*
G01X44255Y35677D01*
G01X44309Y35665D01*
G01X44374Y35656D01*
G01X44450Y35653D01*
G01X44527Y35656D01*
G01X44593Y35665D01*
G01X44649Y35677D01*
G01X44693Y35695D01*
G01X44728Y35717D01*
G01X44753Y35742D01*
G01X44767Y35771D01*
G01X44772Y35803D01*
G01X44767Y35834D01*
G01X44753Y35862D01*
G01X44728Y35887D01*
G01X44693Y35908D01*
G01X44649Y35925D01*
G01X44593Y35937D01*
G01X44527Y35945D01*
G37*

%LPD*%
G36*
G01X44825Y36629D02*
G01X44825Y36723D01*
G01X44363Y36456D01*
G01X44081Y36690D01*
G01X44081Y36593D01*
G01X44465Y36271D01*
G01X44465Y36268D01*
G01X44081Y36268D01*
G01X44081Y36184D01*
G01X44825Y36184D01*
G01X44825Y36268D01*
G01X44584Y36268D01*
G01X44429Y36400D01*
G01X44825Y36629D01*
G37*

%LPD*%
G36*
G01X44574Y37005D02*
G01X44510Y37005D01*
G01X44510Y36746D01*
G01X44574Y36746D01*
G01X44574Y37005D01*
G37*

%LPD*%
G36*
G01X44825Y37561D02*
G01X44825Y37655D01*
G01X44495Y37464D01*
G01X44469Y37536D01*
G01X44426Y37590D01*
G01X44366Y37625D01*
G01X44287Y37637D01*
G01X44234Y37633D01*
G01X44190Y37618D01*
G01X44155Y37595D01*
G01X44127Y37565D01*
G01X44106Y37528D01*
G01X44092Y37484D01*
G01X44084Y37434D01*
G01X44081Y37381D01*
G01X44081Y37152D01*
G01X44825Y37152D01*
G01X44825Y37236D01*
G01X44503Y37236D01*
G01X44503Y37375D01*
G01X44825Y37561D01*
G37*

%LPC*%
G36*
G01X44351Y37541D02*
G01X44287Y37553D01*
G01X44222Y37541D01*
G01X44180Y37505D01*
G01X44157Y37446D01*
G01X44150Y37365D01*
G01X44150Y37236D01*
G01X44434Y37236D01*
G01X44434Y37365D01*
G01X44425Y37446D01*
G01X44398Y37505D01*
G01X44351Y37541D01*
G37*

%LPD*%
G36*
G01X44825Y38176D02*
G01X44757Y38176D01*
G01X44757Y38026D01*
G01X44081Y38026D01*
G01X44081Y37962D01*
G01X44097Y37932D01*
G01X44111Y37897D01*
G01X44123Y37857D01*
G01X44132Y37812D01*
G01X44185Y37812D01*
G01X44185Y37942D01*
G01X44757Y37942D01*
G01X44757Y37777D01*
G01X44825Y37777D01*
G01X44825Y38176D01*
G37*

%LPD*%
G36*
G01X44825Y38734D02*
G01X44757Y38734D01*
G01X44757Y38582D01*
G01X44081Y38582D01*
G01X44081Y38518D01*
G01X44097Y38488D01*
G01X44111Y38453D01*
G01X44123Y38413D01*
G01X44132Y38369D01*
G01X44185Y38369D01*
G01X44185Y38501D01*
G01X44757Y38501D01*
G01X44757Y38333D01*
G01X44825Y38333D01*
G01X44825Y38734D01*
G37*

%LPD*%

%LPD*%
G36*
G01X38094Y34665D02*
G01X38026Y34665D01*
G01X38026Y34515D01*
G01X37350Y34515D01*
G01X37350Y34452D01*
G01X37366Y34421D01*
G01X37380Y34386D01*
G01X37392Y34347D01*
G01X37401Y34302D01*
G01X37454Y34302D01*
G01X37454Y34432D01*
G01X38026Y34432D01*
G01X38026Y34267D01*
G01X38094Y34267D01*
G01X38094Y34665D01*
G37*

%LPD*%
G36*
G01X37810Y35235D02*
G01X37719Y35239D01*
G01X37629Y35235D01*
G01X37551Y35223D01*
G01X37485Y35204D01*
G01X37431Y35178D01*
G01X37390Y35145D01*
G01X37361Y35106D01*
G01X37343Y35063D01*
G01X37338Y35013D01*
G01X37343Y34962D01*
G01X37361Y34918D01*
G01X37390Y34879D01*
G01X37431Y34846D01*
G01X37485Y34820D01*
G01X37551Y34800D01*
G01X37629Y34789D01*
G01X37719Y34785D01*
G01X37810Y34789D01*
G01X37890Y34800D01*
G01X37956Y34820D01*
G01X38011Y34846D01*
G01X38053Y34879D01*
G01X38083Y34918D01*
G01X38101Y34962D01*
G01X38107Y35013D01*
G01X38101Y35063D01*
G01X38083Y35106D01*
G01X38053Y35145D01*
G01X38011Y35178D01*
G01X37956Y35204D01*
G01X37890Y35223D01*
G01X37810Y35235D01*
G37*

%LPC*%
G36*
G01X37796Y35156D02*
G01X37719Y35158D01*
G01X37643Y35156D01*
G01X37578Y35147D01*
G01X37524Y35135D01*
G01X37480Y35118D01*
G01X37446Y35097D01*
G01X37422Y35072D01*
G01X37408Y35044D01*
G01X37404Y35013D01*
G01X37408Y34981D01*
G01X37422Y34952D01*
G01X37446Y34927D01*
G01X37480Y34905D01*
G01X37524Y34887D01*
G01X37578Y34874D01*
G01X37643Y34866D01*
G01X37719Y34863D01*
G01X37796Y34866D01*
G01X37863Y34874D01*
G01X37919Y34887D01*
G01X37963Y34905D01*
G01X37998Y34927D01*
G01X38022Y34952D01*
G01X38037Y34981D01*
G01X38041Y35013D01*
G01X38037Y35044D01*
G01X38022Y35072D01*
G01X37998Y35097D01*
G01X37963Y35118D01*
G01X37919Y35135D01*
G01X37863Y35147D01*
G01X37796Y35156D01*
G37*

%LPD*%
G36*
G01X38100Y35875D02*
G01X38094Y35887D01*
G01X38033Y35877D01*
G01X38035Y35868D01*
G01X38037Y35860D01*
G01X38038Y35851D01*
G01X38039Y35844D01*
G01X38036Y35828D01*
G01X38028Y35816D01*
G01X38015Y35808D01*
G01X37995Y35806D01*
G01X37888Y35806D01*
G01X37832Y35807D01*
G01X37775Y35807D01*
G01X37661Y35809D01*
G01X37546Y35811D01*
G01X37546Y35727D01*
G01X37924Y35727D01*
G01X37981Y35688D01*
G01X38015Y35650D01*
G01X38031Y35612D01*
G01X38036Y35575D01*
G01X38026Y35527D01*
G01X37997Y35495D01*
G01X37949Y35477D01*
G01X37884Y35470D01*
G01X37546Y35470D01*
G01X37546Y35387D01*
G01X38298Y35387D01*
G01X38298Y35470D01*
G01X38237Y35466D01*
G01X38182Y35464D01*
G01X38122Y35463D01*
G01X38049Y35463D01*
G01X38077Y35484D01*
G01X38094Y35510D01*
G01X38102Y35541D01*
G01X38105Y35575D01*
G01X38098Y35619D01*
G01X38079Y35660D01*
G01X38046Y35698D01*
G01X37998Y35732D01*
G01X37998Y35735D01*
G01X38047Y35742D01*
G01X38081Y35760D01*
G01X38101Y35787D01*
G01X38107Y35826D01*
G01X38106Y35845D01*
G01X38104Y35861D01*
G01X38100Y35875D01*
G37*

%LPD*%
G36*
G01X37421Y36448D02*
G01X37350Y36448D01*
G01X37350Y36024D01*
G01X38094Y36024D01*
G01X38094Y36111D01*
G01X37754Y36111D01*
G01X37754Y36395D01*
G01X37683Y36395D01*
G01X37683Y36111D01*
G01X37421Y36111D01*
G01X37421Y36448D01*
G37*

%LPD*%

%LPD*%
G36*
G01X38046Y33072D02*
G01X38000Y33118D01*
G01X37947Y33070D01*
G01X37984Y33033D01*
G01X38011Y32992D01*
G01X38028Y32947D01*
G01X38033Y32895D01*
G01X38028Y32843D01*
G01X38011Y32797D01*
G01X37985Y32757D01*
G01X37949Y32723D01*
G01X37903Y32695D01*
G01X37850Y32675D01*
G01X37789Y32663D01*
G01X37721Y32659D01*
G01X37653Y32663D01*
G01X37592Y32675D01*
G01X37539Y32696D01*
G01X37494Y32724D01*
G01X37459Y32758D01*
G01X37432Y32799D01*
G01X37417Y32846D01*
G01X37411Y32897D01*
G01X37416Y32944D01*
G01X37430Y32985D01*
G01X37453Y33021D01*
G01X37482Y33052D01*
G01X37429Y33101D01*
G01X37394Y33064D01*
G01X37365Y33017D01*
G01X37345Y32962D01*
G01X37338Y32897D01*
G01X37344Y32829D01*
G01X37364Y32767D01*
G01X37396Y32712D01*
G01X37441Y32664D01*
G01X37497Y32626D01*
G01X37563Y32597D01*
G01X37638Y32578D01*
G01X37724Y32572D01*
G01X37808Y32578D01*
G01X37884Y32596D01*
G01X37950Y32625D01*
G01X38005Y32663D01*
G01X38049Y32710D01*
G01X38081Y32764D01*
G01X38101Y32825D01*
G01X38107Y32892D01*
G01X38100Y32960D01*
G01X38079Y33020D01*
G01X38046Y33072D01*
G37*

%LPD*%
G36*
G01X37943Y33650D02*
G01X37896Y33654D01*
G01X37827Y33642D01*
G01X37770Y33608D01*
G01X37730Y33558D01*
G01X37706Y33497D01*
G01X37703Y33497D01*
G01X37675Y33551D01*
G01X37636Y33592D01*
G01X37584Y33619D01*
G01X37520Y33629D01*
G01X37443Y33613D01*
G01X37385Y33570D01*
G01X37350Y33503D01*
G01X37338Y33418D01*
G01X37344Y33359D01*
G01X37362Y33305D01*
G01X37390Y33257D01*
G01X37424Y33212D01*
G01X37480Y33258D01*
G01X37450Y33292D01*
G01X37425Y33330D01*
G01X37409Y33371D01*
G01X37404Y33416D01*
G01X37413Y33470D01*
G01X37438Y33511D01*
G01X37477Y33537D01*
G01X37528Y33545D01*
G01X37586Y33535D01*
G01X37633Y33499D01*
G01X37664Y33435D01*
G01X37675Y33337D01*
G01X37739Y33337D01*
G01X37750Y33447D01*
G01X37782Y33520D01*
G01X37831Y33560D01*
G01X37894Y33573D01*
G01X37954Y33561D01*
G01X37999Y33529D01*
G01X38028Y33479D01*
G01X38039Y33416D01*
G01X38031Y33356D01*
G01X38013Y33306D01*
G01X37985Y33264D01*
G01X37952Y33228D01*
G01X38006Y33187D01*
G01X38044Y33227D01*
G01X38076Y33278D01*
G01X38098Y33342D01*
G01X38107Y33421D01*
G01X38104Y33468D01*
G01X38093Y33513D01*
G01X38075Y33553D01*
G01X38051Y33587D01*
G01X38021Y33615D01*
G01X37985Y33637D01*
G01X37943Y33650D01*
G37*

%LPD*%

%LPD*%
G36*
G01X38046Y37365D02*
G01X38000Y37411D01*
G01X37947Y37363D01*
G01X37984Y37325D01*
G01X38011Y37285D01*
G01X38028Y37239D01*
G01X38033Y37188D01*
G01X38028Y37136D01*
G01X38011Y37089D01*
G01X37985Y37049D01*
G01X37949Y37015D01*
G01X37903Y36988D01*
G01X37850Y36968D01*
G01X37789Y36955D01*
G01X37721Y36951D01*
G01X37653Y36956D01*
G01X37592Y36968D01*
G01X37539Y36989D01*
G01X37494Y37016D01*
G01X37459Y37051D01*
G01X37432Y37092D01*
G01X37417Y37138D01*
G01X37411Y37190D01*
G01X37416Y37237D01*
G01X37430Y37278D01*
G01X37453Y37314D01*
G01X37482Y37345D01*
G01X37429Y37393D01*
G01X37394Y37356D01*
G01X37365Y37310D01*
G01X37345Y37255D01*
G01X37338Y37190D01*
G01X37344Y37122D01*
G01X37364Y37060D01*
G01X37396Y37005D01*
G01X37441Y36957D01*
G01X37497Y36918D01*
G01X37563Y36889D01*
G01X37638Y36871D01*
G01X37724Y36865D01*
G01X37808Y36871D01*
G01X37884Y36889D01*
G01X37950Y36917D01*
G01X38005Y36955D01*
G01X38049Y37002D01*
G01X38081Y37057D01*
G01X38101Y37118D01*
G01X38107Y37185D01*
G01X38100Y37253D01*
G01X38079Y37313D01*
G01X38046Y37365D01*
G37*

%LPD*%
G36*
G01X37886Y37972D02*
G01X37820Y37972D01*
G01X37820Y37871D01*
G01X37350Y37871D01*
G01X37350Y37784D01*
G01X37833Y37467D01*
G01X37886Y37467D01*
G01X37886Y37795D01*
G01X38094Y37795D01*
G01X38094Y37871D01*
G01X37886Y37871D01*
G01X37886Y37972D01*
G37*

%LPC*%
G36*
G01X37478Y37798D02*
G01X37447Y37800D01*
G01X37447Y37795D01*
G01X37474Y37781D01*
G01X37529Y37751D01*
G01X37556Y37736D01*
G01X37820Y37556D01*
G01X37820Y37795D01*
G01X37548Y37795D01*
G01X37514Y37796D01*
G01X37478Y37798D01*
G37*

%LPD*%

%LPD*%
G36*
G01X32836Y34406D02*
G01X32778Y34411D01*
G01X32721Y34407D01*
G01X32672Y34394D01*
G01X32631Y34373D01*
G01X32598Y34346D01*
G01X32573Y34313D01*
G01X32556Y34275D01*
G01X32546Y34233D01*
G01X32542Y34188D01*
G01X32544Y34155D01*
G01X32550Y34126D01*
G01X32559Y34099D01*
G01X32572Y34073D01*
G01X32346Y34094D01*
G01X32346Y34376D01*
G01X32275Y34376D01*
G01X32275Y34020D01*
G01X32621Y33997D01*
G01X32649Y34043D01*
G01X32630Y34073D01*
G01X32617Y34102D01*
G01X32609Y34133D01*
G01X32605Y34167D01*
G01X32618Y34233D01*
G01X32652Y34284D01*
G01X32708Y34316D01*
G01X32781Y34327D01*
G01X32856Y34315D01*
G01X32914Y34280D01*
G01X32951Y34228D01*
G01X32964Y34165D01*
G01X32957Y34104D01*
G01X32938Y34054D01*
G01X32911Y34013D01*
G01X32880Y33980D01*
G01X32933Y33936D01*
G01X32970Y33979D01*
G01X33002Y34030D01*
G01X33024Y34093D01*
G01X33032Y34173D01*
G01X33028Y34218D01*
G01X33015Y34261D01*
G01X32995Y34302D01*
G01X32966Y34338D01*
G01X32930Y34368D01*
G01X32886Y34391D01*
G01X32836Y34406D01*
G37*

%LPD*%
G36*
G01X33020Y34957D02*
G01X32951Y34957D01*
G01X32951Y34805D01*
G01X32275Y34805D01*
G01X32275Y34742D01*
G01X32292Y34711D01*
G01X32306Y34676D01*
G01X32317Y34636D01*
G01X32326Y34592D01*
G01X32379Y34592D01*
G01X32379Y34724D01*
G01X32951Y34724D01*
G01X32951Y34556D01*
G01X33020Y34556D01*
G01X33020Y34957D01*
G37*

%LPD*%
G36*
G01X32736Y35525D02*
G01X32644Y35529D01*
G01X32554Y35525D01*
G01X32476Y35513D01*
G01X32410Y35494D01*
G01X32357Y35468D01*
G01X32315Y35436D01*
G01X32286Y35397D01*
G01X32269Y35353D01*
G01X32263Y35303D01*
G01X32269Y35253D01*
G01X32286Y35208D01*
G01X32315Y35169D01*
G01X32357Y35136D01*
G01X32410Y35110D01*
G01X32476Y35091D01*
G01X32554Y35078D01*
G01X32644Y35074D01*
G01X32736Y35078D01*
G01X32815Y35091D01*
G01X32882Y35110D01*
G01X32936Y35136D01*
G01X32978Y35169D01*
G01X33008Y35208D01*
G01X33026Y35253D01*
G01X33032Y35303D01*
G01X33026Y35353D01*
G01X33008Y35397D01*
G01X32978Y35436D01*
G01X32936Y35468D01*
G01X32882Y35494D01*
G01X32815Y35513D01*
G01X32736Y35525D01*
G37*

%LPC*%
G36*
G01X32722Y35448D02*
G01X32644Y35450D01*
G01X32568Y35448D01*
G01X32503Y35440D01*
G01X32449Y35427D01*
G01X32405Y35410D01*
G01X32371Y35389D01*
G01X32347Y35363D01*
G01X32333Y35335D01*
G01X32329Y35303D01*
G01X32333Y35271D01*
G01X32347Y35242D01*
G01X32371Y35217D01*
G01X32405Y35196D01*
G01X32449Y35179D01*
G01X32503Y35166D01*
G01X32568Y35158D01*
G01X32644Y35156D01*
G01X32722Y35158D01*
G01X32788Y35166D01*
G01X32844Y35179D01*
G01X32889Y35196D01*
G01X32923Y35217D01*
G01X32947Y35242D01*
G01X32962Y35271D01*
G01X32966Y35303D01*
G01X32962Y35335D01*
G01X32947Y35363D01*
G01X32923Y35389D01*
G01X32889Y35410D01*
G01X32844Y35427D01*
G01X32788Y35440D01*
G01X32722Y35448D01*
G37*

%LPD*%
G36*
G01X33020Y36453D02*
G01X32948Y36453D01*
G01X32948Y36278D01*
G01X32946Y36278D01*
G01X32921Y36308D01*
G01X32893Y36337D01*
G01X32859Y36364D01*
G01X32821Y36388D01*
G01X32778Y36408D01*
G01X32731Y36425D01*
G01X32679Y36435D01*
G01X32623Y36438D01*
G01X32548Y36432D01*
G01X32479Y36413D01*
G01X32418Y36382D01*
G01X32365Y36341D01*
G01X32322Y36291D01*
G01X32290Y36231D01*
G01X32270Y36164D01*
G01X32263Y36090D01*
G01X32270Y36016D01*
G01X32290Y35948D01*
G01X32322Y35889D01*
G01X32365Y35838D01*
G01X32418Y35798D01*
G01X32479Y35767D01*
G01X32548Y35749D01*
G01X32623Y35742D01*
G01X32679Y35746D01*
G01X32731Y35756D01*
G01X32778Y35772D01*
G01X32821Y35793D01*
G01X32859Y35816D01*
G01X32893Y35843D01*
G01X32921Y35871D01*
G01X32946Y35900D01*
G01X32948Y35900D01*
G01X32948Y35727D01*
G01X33020Y35727D01*
G01X33020Y36014D01*
G01X32959Y36014D01*
G01X32932Y35977D01*
G01X32902Y35942D01*
G01X32868Y35910D01*
G01X32830Y35881D01*
G01X32787Y35858D01*
G01X32739Y35839D01*
G01X32687Y35828D01*
G01X32628Y35824D01*
G01X32568Y35829D01*
G01X32512Y35843D01*
G01X32462Y35866D01*
G01X32420Y35897D01*
G01X32385Y35936D01*
G01X32359Y35981D01*
G01X32342Y36033D01*
G01X32336Y36090D01*
G01X32342Y36148D01*
G01X32359Y36199D01*
G01X32385Y36245D01*
G01X32420Y36284D01*
G01X32462Y36315D01*
G01X32512Y36338D01*
G01X32568Y36352D01*
G01X32628Y36357D01*
G01X32687Y36353D01*
G01X32739Y36341D01*
G01X32787Y36323D01*
G01X32830Y36299D01*
G01X32868Y36270D01*
G01X32902Y36237D01*
G01X32932Y36202D01*
G01X32959Y36164D01*
G01X33020Y36164D01*
G01X33020Y36453D01*
G37*

%LPD*%

%LPD*%
G36*
G01X33020Y32389D02*
G01X33020Y32483D01*
G01X32689Y32293D01*
G01X32663Y32364D01*
G01X32620Y32418D01*
G01X32560Y32453D01*
G01X32481Y32466D01*
G01X32428Y32461D01*
G01X32385Y32446D01*
G01X32349Y32424D01*
G01X32321Y32394D01*
G01X32300Y32355D01*
G01X32286Y32311D01*
G01X32278Y32261D01*
G01X32275Y32207D01*
G01X32275Y31981D01*
G01X33020Y31981D01*
G01X33020Y32064D01*
G01X32699Y32064D01*
G01X32699Y32204D01*
G01X33020Y32389D01*
G37*

%LPC*%
G36*
G01X32547Y32367D02*
G01X32481Y32379D01*
G01X32417Y32367D01*
G01X32374Y32332D01*
G01X32351Y32273D01*
G01X32344Y32194D01*
G01X32344Y32064D01*
G01X32628Y32064D01*
G01X32628Y32194D01*
G01X32620Y32273D01*
G01X32593Y32332D01*
G01X32547Y32367D01*
G37*

%LPD*%
G36*
G01X33020Y33004D02*
G01X32951Y33004D01*
G01X32951Y32852D01*
G01X32275Y32852D01*
G01X32275Y32791D01*
G01X32292Y32759D01*
G01X32305Y32724D01*
G01X32317Y32684D01*
G01X32326Y32638D01*
G01X32379Y32638D01*
G01X32379Y32770D01*
G01X32951Y32770D01*
G01X32951Y32603D01*
G01X33020Y32603D01*
G01X33020Y33004D01*
G37*

%LPD*%
G36*
G01X33020Y33578D02*
G01X32948Y33578D01*
G01X32948Y33365D01*
G01X32949Y33335D01*
G01X32951Y33273D01*
G01X32953Y33243D01*
G01X32890Y33307D01*
G01X32829Y33366D01*
G01X32769Y33417D01*
G01X32710Y33460D01*
G01X32652Y33495D01*
G01X32594Y33521D01*
G01X32537Y33537D01*
G01X32481Y33543D01*
G01X32434Y33539D01*
G01X32391Y33528D01*
G01X32354Y33510D01*
G01X32323Y33485D01*
G01X32297Y33455D01*
G01X32278Y33418D01*
G01X32267Y33377D01*
G01X32263Y33329D01*
G01X32270Y33264D01*
G01X32293Y33208D01*
G01X32327Y33158D01*
G01X32372Y33111D01*
G01X32418Y33162D01*
G01X32383Y33195D01*
G01X32355Y33233D01*
G01X32336Y33274D01*
G01X32329Y33319D01*
G01X32340Y33382D01*
G01X32373Y33426D01*
G01X32422Y33453D01*
G01X32484Y33461D01*
G01X32533Y33456D01*
G01X32585Y33441D01*
G01X32640Y33415D01*
G01X32697Y33378D01*
G01X32759Y33330D01*
G01X32824Y33271D01*
G01X32894Y33199D01*
G01X32969Y33116D01*
G01X33020Y33116D01*
G01X33020Y33578D01*
G37*

%LPD*%
G36*
G01X32768Y33934D02*
G01X32705Y33934D01*
G01X32705Y33675D01*
G01X32768Y33675D01*
G01X32768Y33934D01*
G37*

%LPD*%

%LPD*%
G36*
G01X32725Y36847D02*
G01X32661Y36847D01*
G01X32661Y36591D01*
G01X32725Y36591D01*
G01X32725Y36847D01*
G37*

%LPD*%
G36*
G01X32976Y37403D02*
G01X32976Y37500D01*
G01X32646Y37307D01*
G01X32621Y37378D01*
G01X32578Y37432D01*
G01X32517Y37467D01*
G01X32438Y37480D01*
G01X32386Y37475D01*
G01X32342Y37460D01*
G01X32306Y37438D01*
G01X32278Y37408D01*
G01X32257Y37370D01*
G01X32243Y37326D01*
G01X32235Y37277D01*
G01X32232Y37223D01*
G01X32232Y36994D01*
G01X32976Y36994D01*
G01X32976Y37078D01*
G01X32656Y37078D01*
G01X32656Y37218D01*
G01X32976Y37403D01*
G37*

%LPC*%
G36*
G01X32504Y37384D02*
G01X32438Y37396D01*
G01X32374Y37384D01*
G01X32331Y37348D01*
G01X32308Y37290D01*
G01X32301Y37210D01*
G01X32301Y37078D01*
G01X32585Y37078D01*
G01X32585Y37210D01*
G01X32577Y37290D01*
G01X32550Y37348D01*
G01X32504Y37384D01*
G37*

%LPD*%
G36*
G01X32976Y38018D02*
G01X32908Y38018D01*
G01X32908Y37868D01*
G01X32232Y37868D01*
G01X32232Y37805D01*
G01X32248Y37774D01*
G01X32263Y37739D01*
G01X32274Y37700D01*
G01X32283Y37655D01*
G01X32336Y37655D01*
G01X32336Y37784D01*
G01X32908Y37784D01*
G01X32908Y37619D01*
G01X32976Y37619D01*
G01X32976Y38018D01*
G37*

%LPD*%
G36*
G01X32825Y38582D02*
G01X32778Y38587D01*
G01X32709Y38574D01*
G01X32653Y38540D01*
G01X32612Y38490D01*
G01X32588Y38427D01*
G01X32585Y38427D01*
G01X32557Y38481D01*
G01X32518Y38524D01*
G01X32466Y38552D01*
G01X32402Y38562D01*
G01X32325Y38545D01*
G01X32267Y38501D01*
G01X32232Y38433D01*
G01X32219Y38348D01*
G01X32227Y38288D01*
G01X32245Y38235D01*
G01X32272Y38187D01*
G01X32306Y38145D01*
G01X32362Y38191D01*
G01X32332Y38223D01*
G01X32307Y38260D01*
G01X32292Y38302D01*
G01X32285Y38346D01*
G01X32295Y38400D01*
G01X32320Y38441D01*
G01X32360Y38466D01*
G01X32410Y38475D01*
G01X32468Y38464D01*
G01X32515Y38429D01*
G01X32546Y38365D01*
G01X32557Y38267D01*
G01X32621Y38267D01*
G01X32632Y38377D01*
G01X32664Y38450D01*
G01X32713Y38491D01*
G01X32776Y38503D01*
G01X32836Y38492D01*
G01X32881Y38459D01*
G01X32910Y38410D01*
G01X32920Y38348D01*
G01X32913Y38287D01*
G01X32895Y38237D01*
G01X32867Y38195D01*
G01X32834Y38160D01*
G01X32887Y38117D01*
G01X32926Y38158D01*
G01X32959Y38209D01*
G01X32981Y38274D01*
G01X32989Y38353D01*
G01X32985Y38401D01*
G01X32975Y38444D01*
G01X32958Y38484D01*
G01X32933Y38518D01*
G01X32903Y38547D01*
G01X32867Y38569D01*
G01X32825Y38582D01*
G37*

%LPD*%

%LPD*%
G36*
G01X43604Y6469D02*
G01X43561Y6474D01*
G01X43516Y6469D01*
G01X43474Y6454D01*
G01X43434Y6427D01*
G01X43399Y6387D01*
G01X43369Y6335D01*
G01X43347Y6269D01*
G01X43332Y6189D01*
G01X43327Y6093D01*
G01X43332Y5994D01*
G01X43347Y5910D01*
G01X43369Y5842D01*
G01X43399Y5789D01*
G01X43434Y5748D01*
G01X43474Y5720D01*
G01X43516Y5704D01*
G01X43561Y5699D01*
G01X43604Y5704D01*
G01X43646Y5720D01*
G01X43685Y5748D01*
G01X43720Y5789D01*
G01X43749Y5842D01*
G01X43772Y5910D01*
G01X43787Y5994D01*
G01X43792Y6093D01*
G01X43787Y6189D01*
G01X43772Y6269D01*
G01X43749Y6335D01*
G01X43720Y6387D01*
G01X43685Y6427D01*
G01X43646Y6454D01*
G01X43604Y6469D01*
G37*

%LPC*%
G36*
G01X43586Y6427D02*
G01X43561Y6431D01*
G01X43534Y6427D01*
G01X43509Y6415D01*
G01X43486Y6394D01*
G01X43465Y6362D01*
G01X43448Y6317D01*
G01X43435Y6258D01*
G01X43426Y6184D01*
G01X43423Y6093D01*
G01X43426Y5998D01*
G01X43435Y5921D01*
G01X43448Y5860D01*
G01X43465Y5814D01*
G01X43486Y5780D01*
G01X43509Y5758D01*
G01X43534Y5746D01*
G01X43561Y5742D01*
G01X43586Y5746D01*
G01X43610Y5758D01*
G01X43632Y5780D01*
G01X43652Y5814D01*
G01X43669Y5860D01*
G01X43681Y5921D01*
G01X43690Y5998D01*
G01X43693Y6093D01*
G01X43690Y6184D01*
G01X43681Y6258D01*
G01X43669Y6317D01*
G01X43652Y6362D01*
G01X43632Y6394D01*
G01X43610Y6415D01*
G01X43586Y6427D01*
G37*

%LPD*%
G36*
G01X42854Y6446D02*
G01X42847Y6474D01*
G01X42781Y6462D01*
G01X42720Y6445D01*
G01X42664Y6421D01*
G01X42614Y6392D01*
G01X42568Y6359D01*
G01X42529Y6320D01*
G01X42496Y6277D01*
G01X42468Y6232D01*
G01X42446Y6182D01*
G01X42430Y6130D01*
G01X42421Y6076D01*
G01X42418Y6019D01*
G01X42422Y5948D01*
G01X42434Y5885D01*
G01X42455Y5830D01*
G01X42483Y5784D01*
G01X42518Y5747D01*
G01X42559Y5721D01*
G01X42606Y5705D01*
G01X42659Y5699D01*
G01X42707Y5703D01*
G01X42751Y5716D01*
G01X42790Y5736D01*
G01X42823Y5764D01*
G01X42850Y5800D01*
G01X42871Y5842D01*
G01X42883Y5891D01*
G01X42887Y5946D01*
G01X42873Y6039D01*
G01X42832Y6109D01*
G01X42768Y6153D01*
G01X42684Y6169D01*
G01X42639Y6164D01*
G01X42596Y6150D01*
G01X42556Y6127D01*
G01X42519Y6095D01*
G01X42530Y6161D01*
G01X42550Y6220D01*
G01X42578Y6273D01*
G01X42614Y6320D01*
G01X42660Y6361D01*
G01X42715Y6396D01*
G01X42779Y6424D01*
G01X42854Y6446D01*
G37*

%LPC*%
G36*
G01X42713Y6100D02*
G01X42659Y6111D01*
G01X42622Y6108D01*
G01X42586Y6098D01*
G01X42550Y6081D01*
G01X42517Y6055D01*
G01X42517Y6034D01*
G01X42519Y5966D01*
G01X42526Y5907D01*
G01X42538Y5857D01*
G01X42555Y5816D01*
G01X42575Y5784D01*
G01X42600Y5761D01*
G01X42629Y5747D01*
G01X42661Y5742D01*
G01X42714Y5755D01*
G01X42755Y5790D01*
G01X42781Y5849D01*
G01X42791Y5930D01*
G01X42781Y6011D01*
G01X42754Y6067D01*
G01X42713Y6100D01*
G37*

%LPD*%
G36*
G01X42296Y6446D02*
G01X42291Y6474D01*
G01X42224Y6462D01*
G01X42162Y6445D01*
G01X42107Y6421D01*
G01X42056Y6392D01*
G01X42011Y6359D01*
G01X41972Y6320D01*
G01X41938Y6277D01*
G01X41911Y6232D01*
G01X41889Y6182D01*
G01X41873Y6130D01*
G01X41864Y6076D01*
G01X41861Y6019D01*
G01X41865Y5948D01*
G01X41877Y5885D01*
G01X41898Y5830D01*
G01X41926Y5784D01*
G01X41960Y5747D01*
G01X42001Y5721D01*
G01X42049Y5705D01*
G01X42103Y5699D01*
G01X42150Y5703D01*
G01X42193Y5716D01*
G01X42232Y5736D01*
G01X42265Y5764D01*
G01X42292Y5800D01*
G01X42312Y5842D01*
G01X42324Y5891D01*
G01X42329Y5946D01*
G01X42314Y6039D01*
G01X42273Y6109D01*
G01X42210Y6153D01*
G01X42128Y6169D01*
G01X42083Y6164D01*
G01X42039Y6150D01*
G01X41998Y6127D01*
G01X41960Y6095D01*
G01X41971Y6161D01*
G01X41991Y6220D01*
G01X42019Y6273D01*
G01X42055Y6320D01*
G01X42101Y6361D01*
G01X42156Y6396D01*
G01X42220Y6424D01*
G01X42296Y6446D01*
G37*

%LPC*%
G36*
G01X42156Y6100D02*
G01X42103Y6111D01*
G01X42065Y6108D01*
G01X42028Y6098D01*
G01X41992Y6081D01*
G01X41958Y6055D01*
G01X41958Y6034D01*
G01X41960Y5966D01*
G01X41968Y5907D01*
G01X41980Y5857D01*
G01X41997Y5816D01*
G01X42018Y5784D01*
G01X42043Y5761D01*
G01X42073Y5747D01*
G01X42105Y5742D01*
G01X42157Y5755D01*
G01X42198Y5790D01*
G01X42225Y5849D01*
G01X42235Y5930D01*
G01X42225Y6011D01*
G01X42198Y6067D01*
G01X42156Y6100D01*
G37*

%LPD*%
G36*
G01X41061Y6461D02*
G01X40982Y6474D01*
G01X40901Y6461D01*
G01X40835Y6424D01*
G01X40790Y6366D01*
G01X40774Y6288D01*
G01X40782Y6227D01*
G01X40807Y6172D01*
G01X40849Y6123D01*
G01X40911Y6080D01*
G01X40841Y6040D01*
G01X40791Y5994D01*
G01X40761Y5942D01*
G01X40751Y5882D01*
G01X40768Y5804D01*
G01X40814Y5747D01*
G01X40886Y5711D01*
G01X40980Y5699D01*
G01X41070Y5714D01*
G01X41141Y5755D01*
G01X41189Y5817D01*
G01X41206Y5897D01*
G01X41196Y5965D01*
G01X41165Y6022D01*
G01X41112Y6070D01*
G01X41038Y6113D01*
G01X41103Y6159D01*
G01X41144Y6207D01*
G01X41166Y6255D01*
G01X41173Y6301D01*
G01X41160Y6370D01*
G01X41122Y6425D01*
G01X41061Y6461D01*
G37*

%LPC*%
G36*
G01X41028Y6018D02*
G01X40947Y6062D01*
G01X40899Y6028D01*
G01X40865Y5990D01*
G01X40844Y5946D01*
G01X40838Y5892D01*
G01X40848Y5831D01*
G01X40878Y5784D01*
G01X40923Y5754D01*
G01X40982Y5742D01*
G01X41038Y5752D01*
G01X41080Y5781D01*
G01X41107Y5825D01*
G01X41117Y5882D01*
G01X41108Y5931D01*
G01X41080Y5975D01*
G01X41028Y6018D01*
G37*
G36*
G01X41028Y6420D02*
G01X40980Y6431D01*
G01X40933Y6423D01*
G01X40894Y6398D01*
G01X40868Y6360D01*
G01X40858Y6309D01*
G01X40865Y6263D01*
G01X40888Y6218D01*
G01X40933Y6174D01*
G01X41005Y6131D01*
G01X41047Y6169D01*
G01X41074Y6208D01*
G01X41090Y6252D01*
G01X41094Y6304D01*
G01X41086Y6351D01*
G01X41064Y6392D01*
G01X41028Y6420D01*
G37*

%LPD*%
G36*
G01X39843Y6472D02*
G01X39791Y6476D01*
G01X39739Y6473D01*
G01X39692Y6463D01*
G01X39650Y6446D01*
G01X39613Y6423D01*
G01X39583Y6394D01*
G01X39561Y6359D01*
G01X39547Y6318D01*
G01X39542Y6273D01*
G01X39556Y6198D01*
G01X39595Y6137D01*
G01X39656Y6088D01*
G01X39735Y6050D01*
G01X39776Y6032D01*
G01X39839Y6003D01*
G01X39883Y5972D01*
G01X39907Y5934D01*
G01X39916Y5887D01*
G01X39903Y5827D01*
G01X39867Y5783D01*
G01X39811Y5757D01*
G01X39738Y5747D01*
G01X39704Y5749D01*
G01X39674Y5754D01*
G01X39647Y5763D01*
G01X39621Y5775D01*
G01X39593Y5913D01*
G01X39537Y5913D01*
G01X39530Y5758D01*
G01X39573Y5735D01*
G01X39625Y5716D01*
G01X39683Y5704D01*
G01X39745Y5699D01*
G01X39801Y5703D01*
G01X39852Y5713D01*
G01X39896Y5731D01*
G01X39934Y5755D01*
G01X39965Y5786D01*
G01X39988Y5822D01*
G01X40002Y5863D01*
G01X40007Y5910D01*
G01X39996Y5981D01*
G01X39961Y6040D01*
G01X39899Y6090D01*
G01X39804Y6136D01*
G01X39761Y6151D01*
G01X39706Y6178D01*
G01X39667Y6211D01*
G01X39642Y6250D01*
G01X39634Y6299D01*
G01X39645Y6354D01*
G01X39678Y6395D01*
G01X39727Y6420D01*
G01X39789Y6428D01*
G01X39814Y6427D01*
G01X39837Y6423D01*
G01X39859Y6415D01*
G01X39880Y6405D01*
G01X39908Y6273D01*
G01X39966Y6273D01*
G01X39974Y6418D01*
G01X39934Y6442D01*
G01X39891Y6461D01*
G01X39843Y6472D01*
G37*

%LPD*%
G36*
G01X44178Y6459D02*
G01X44162Y6471D01*
G01X43934Y6410D01*
G01X43934Y6372D01*
G01X44081Y6385D01*
G01X44081Y5860D01*
G01X44079Y5770D01*
G01X43921Y5750D01*
G01X43921Y5714D01*
G01X44333Y5714D01*
G01X44333Y5750D01*
G01X44175Y5770D01*
G01X44175Y5815D01*
G01X44174Y5860D01*
G01X44173Y5904D01*
G01X44173Y6299D01*
G01X44178Y6459D01*
G37*

%LPD*%
G36*
G01X41625Y6460D02*
G01X41531Y6474D01*
G01X41452Y6464D01*
G01X41384Y6432D01*
G01X41333Y6380D01*
G01X41308Y6306D01*
G01X41318Y6293D01*
G01X41330Y6282D01*
G01X41345Y6276D01*
G01X41361Y6273D01*
G01X41381Y6277D01*
G01X41398Y6288D01*
G01X41411Y6310D01*
G01X41422Y6342D01*
G01X41445Y6423D01*
G01X41461Y6427D01*
G01X41477Y6429D01*
G01X41492Y6430D01*
G01X41506Y6431D01*
G01X41562Y6420D01*
G01X41604Y6387D01*
G01X41631Y6338D01*
G01X41640Y6273D01*
G01X41631Y6205D01*
G01X41602Y6136D01*
G01X41552Y6060D01*
G01X41483Y5973D01*
G01X41443Y5930D01*
G01X41402Y5883D01*
G01X41358Y5834D01*
G01X41313Y5783D01*
G01X41313Y5714D01*
G01X41770Y5714D01*
G01X41770Y5801D01*
G01X41384Y5801D01*
G01X41422Y5840D01*
G01X41458Y5877D01*
G01X41516Y5935D01*
G01X41573Y5996D01*
G01X41620Y6049D01*
G01X41659Y6095D01*
G01X41690Y6137D01*
G01X41712Y6174D01*
G01X41728Y6209D01*
G01X41736Y6243D01*
G01X41739Y6278D01*
G01X41727Y6357D01*
G01X41690Y6419D01*
G01X41625Y6460D01*
G37*

%LPD*%
G36*
G01X40393Y6459D02*
G01X40096Y6459D01*
G01X40096Y6421D01*
G01X40198Y6410D01*
G01X40200Y6262D01*
G01X40200Y5910D01*
G01X40199Y5838D01*
G01X40198Y5765D01*
G01X40096Y5752D01*
G01X40096Y5714D01*
G01X40411Y5714D01*
G01X40411Y5752D01*
G01X40304Y5765D01*
G01X40303Y5828D01*
G01X40302Y5890D01*
G01X40302Y6012D01*
G01X40360Y6012D01*
G01X40438Y6016D01*
G01X40504Y6030D01*
G01X40558Y6051D01*
G01X40601Y6079D01*
G01X40633Y6113D01*
G01X40655Y6151D01*
G01X40668Y6193D01*
G01X40673Y6238D01*
G01X40668Y6285D01*
G01X40655Y6328D01*
G01X40633Y6366D01*
G01X40603Y6398D01*
G01X40564Y6424D01*
G01X40516Y6443D01*
G01X40459Y6455D01*
G01X40393Y6459D01*
G37*

%LPC*%
G36*
G01X40375Y6415D02*
G01X40304Y6415D01*
G01X40303Y6341D01*
G01X40302Y6266D01*
G01X40302Y6057D01*
G01X40373Y6057D01*
G01X40462Y6071D01*
G01X40523Y6108D01*
G01X40557Y6164D01*
G01X40568Y6238D01*
G01X40557Y6314D01*
G01X40521Y6370D01*
G01X40461Y6404D01*
G01X40375Y6415D01*
G37*

%LPD*%
G36*
G01X39413Y6459D02*
G01X38862Y6459D01*
G01X38862Y6421D01*
G01X38963Y6410D01*
G01X38965Y6336D01*
G01X38965Y6262D01*
G01X38966Y6187D01*
G01X38966Y5985D01*
G01X38965Y5910D01*
G01X38965Y5838D01*
G01X38963Y5765D01*
G01X38862Y5752D01*
G01X38862Y5714D01*
G01X39433Y5714D01*
G01X39441Y5913D01*
G01X39385Y5913D01*
G01X39354Y5763D01*
G01X39070Y5763D01*
G01X39068Y5837D01*
G01X39067Y5913D01*
G01X39067Y6070D01*
G01X39237Y6070D01*
G01X39253Y5963D01*
G01X39298Y5963D01*
G01X39298Y6225D01*
G01X39253Y6225D01*
G01X39235Y6116D01*
G01X39067Y6116D01*
G01X39067Y6265D01*
G01X39068Y6338D01*
G01X39070Y6410D01*
G01X39334Y6410D01*
G01X39364Y6263D01*
G01X39418Y6263D01*
G01X39413Y6459D01*
G37*

%LPD*%
G36*
G01X43235Y6027D02*
G01X42976Y6027D01*
G01X42976Y5961D01*
G01X43235Y5961D01*
G01X43235Y6027D01*
G37*

%LPD*%

%LPD*%
G36*
G01X45145Y6598D02*
G01X45145Y6669D01*
G01X44899Y6525D01*
G01X44879Y6578D01*
G01X44847Y6619D01*
G01X44801Y6645D01*
G01X44742Y6654D01*
G01X44669Y6640D01*
G01X44621Y6601D01*
G01X44595Y6539D01*
G01X44587Y6461D01*
G01X44587Y6291D01*
G01X45145Y6291D01*
G01X45145Y6354D01*
G01X44904Y6354D01*
G01X44904Y6459D01*
G01X45145Y6598D01*
G37*

%LPC*%
G36*
G01X44791Y6582D02*
G01X44742Y6591D01*
G01X44693Y6582D01*
G01X44661Y6555D01*
G01X44643Y6511D01*
G01X44637Y6451D01*
G01X44637Y6354D01*
G01X44853Y6354D01*
G01X44853Y6451D01*
G01X44847Y6511D01*
G01X44826Y6555D01*
G01X44791Y6582D01*
G37*

%LPD*%
G36*
G01X45055Y7137D02*
G01X44983Y7152D01*
G01X44932Y7144D01*
G01X44892Y7121D01*
G01X44864Y7084D01*
G01X44848Y7038D01*
G01X44846Y7038D01*
G01X44827Y7073D01*
G01X44799Y7100D01*
G01X44764Y7116D01*
G01X44724Y7122D01*
G01X44662Y7107D01*
G01X44619Y7068D01*
G01X44594Y7008D01*
G01X44587Y6931D01*
G01X44587Y6768D01*
G01X45145Y6768D01*
G01X45145Y6941D01*
G01X45135Y7028D01*
G01X45105Y7094D01*
G01X45055Y7137D01*
G37*

%LPC*%
G36*
G01X45031Y7080D02*
G01X44980Y7091D01*
G01X44934Y7080D01*
G01X44902Y7049D01*
G01X44882Y6999D01*
G01X44876Y6931D01*
G01X44876Y6832D01*
G01X45095Y6832D01*
G01X45095Y6931D01*
G01X45088Y6998D01*
G01X45067Y7048D01*
G01X45031Y7080D01*
G37*
G36*
G01X44771Y7050D02*
G01X44731Y7058D01*
G01X44688Y7049D01*
G01X44659Y7024D01*
G01X44643Y6981D01*
G01X44637Y6921D01*
G01X44637Y6832D01*
G01X44825Y6832D01*
G01X44825Y6916D01*
G01X44819Y6981D01*
G01X44801Y7025D01*
G01X44771Y7050D01*
G37*

%LPD*%
G36*
G01X45145Y7571D02*
G01X45145Y7642D01*
G01X44899Y7500D01*
G01X44879Y7553D01*
G01X44847Y7595D01*
G01X44801Y7620D01*
G01X44742Y7630D01*
G01X44669Y7615D01*
G01X44621Y7575D01*
G01X44595Y7514D01*
G01X44587Y7437D01*
G01X44587Y7266D01*
G01X45145Y7266D01*
G01X45145Y7327D01*
G01X44904Y7327D01*
G01X44904Y7434D01*
G01X45145Y7571D01*
G37*

%LPC*%
G36*
G01X44791Y7557D02*
G01X44742Y7566D01*
G01X44693Y7557D01*
G01X44661Y7529D01*
G01X44643Y7486D01*
G01X44637Y7426D01*
G01X44637Y7327D01*
G01X44853Y7327D01*
G01X44853Y7426D01*
G01X44847Y7486D01*
G01X44826Y7529D01*
G01X44791Y7557D01*
G37*

%LPD*%
G36*
G01X44958Y7866D02*
G01X44909Y7866D01*
G01X44909Y7673D01*
G01X44958Y7673D01*
G01X44958Y7866D01*
G37*

%LPD*%
G36*
G01X45145Y8280D02*
G01X45092Y8280D01*
G01X45092Y8098D01*
G01X45094Y8052D01*
G01X45097Y8028D01*
G01X45049Y8078D01*
G01X45003Y8121D01*
G01X44957Y8159D01*
G01X44913Y8191D01*
G01X44869Y8217D01*
G01X44826Y8236D01*
G01X44784Y8248D01*
G01X44742Y8252D01*
G01X44674Y8241D01*
G01X44622Y8209D01*
G01X44588Y8159D01*
G01X44577Y8092D01*
G01X44583Y8044D01*
G01X44599Y8002D01*
G01X44625Y7964D01*
G01X44658Y7929D01*
G01X44693Y7967D01*
G01X44668Y7992D01*
G01X44647Y8021D01*
G01X44632Y8052D01*
G01X44627Y8087D01*
G01X44636Y8133D01*
G01X44661Y8165D01*
G01X44697Y8185D01*
G01X44742Y8191D01*
G01X44779Y8187D01*
G01X44819Y8176D01*
G01X44860Y8157D01*
G01X44904Y8129D01*
G01X44949Y8094D01*
G01X44999Y8050D01*
G01X45051Y7996D01*
G01X45107Y7934D01*
G01X45145Y7934D01*
G01X45145Y8280D01*
G37*

%LPD*%
G36*
G01X45145Y8699D02*
G01X45092Y8699D01*
G01X45092Y8516D01*
G01X45093Y8492D01*
G01X45094Y8469D01*
G01X45097Y8447D01*
G01X45049Y8496D01*
G01X45003Y8539D01*
G01X44957Y8577D01*
G01X44913Y8610D01*
G01X44869Y8636D01*
G01X44826Y8655D01*
G01X44784Y8667D01*
G01X44742Y8671D01*
G01X44674Y8660D01*
G01X44622Y8628D01*
G01X44588Y8578D01*
G01X44577Y8511D01*
G01X44583Y8463D01*
G01X44599Y8421D01*
G01X44625Y8383D01*
G01X44658Y8348D01*
G01X44693Y8386D01*
G01X44668Y8411D01*
G01X44647Y8439D01*
G01X44632Y8470D01*
G01X44627Y8503D01*
G01X44636Y8551D01*
G01X44661Y8585D01*
G01X44697Y8604D01*
G01X44742Y8610D01*
G01X44779Y8606D01*
G01X44819Y8595D01*
G01X44860Y8576D01*
G01X44904Y8549D01*
G01X44949Y8513D01*
G01X44999Y8469D01*
G01X45051Y8415D01*
G01X45107Y8353D01*
G01X45145Y8353D01*
G01X45145Y8699D01*
G37*

%LPD*%
G36*
G01X45145Y9270D02*
G01X45092Y9270D01*
G01X45092Y9156D01*
G01X45090Y9156D01*
G01X45047Y9194D01*
G01X44994Y9226D01*
G01X44928Y9249D01*
G01X44848Y9258D01*
G01X44791Y9254D01*
G01X44740Y9241D01*
G01X44693Y9221D01*
G01X44653Y9194D01*
G01X44621Y9161D01*
G01X44597Y9121D01*
G01X44582Y9075D01*
G01X44577Y9024D01*
G01X44582Y8972D01*
G01X44597Y8925D01*
G01X44621Y8885D01*
G01X44653Y8850D01*
G01X44693Y8823D01*
G01X44740Y8803D01*
G01X44791Y8790D01*
G01X44848Y8785D01*
G01X44928Y8794D01*
G01X44994Y8818D01*
G01X45047Y8852D01*
G01X45090Y8889D01*
G01X45092Y8889D01*
G01X45092Y8775D01*
G01X45145Y8775D01*
G01X45145Y8968D01*
G01X45100Y8968D01*
G01X45057Y8923D01*
G01X45002Y8886D01*
G01X44934Y8861D01*
G01X44851Y8851D01*
G01X44764Y8863D01*
G01X44695Y8897D01*
G01X44649Y8951D01*
G01X44632Y9024D01*
G01X44649Y9096D01*
G01X44695Y9149D01*
G01X44764Y9183D01*
G01X44851Y9194D01*
G01X44934Y9185D01*
G01X45002Y9160D01*
G01X45057Y9123D01*
G01X45100Y9077D01*
G01X45145Y9077D01*
G01X45145Y9270D01*
G37*

%LPD*%

%LPD*%
G36*
G01X36893Y6611D02*
G01X36865Y6611D01*
G01X36857Y6545D01*
G01X36728Y6507D01*
G01X36685Y6490D01*
G01X36655Y6469D01*
G01X36634Y6442D01*
G01X36621Y6408D01*
G01X36602Y6470D01*
G01X36569Y6514D01*
G01X36528Y6541D01*
G01X36482Y6550D01*
G01X36419Y6537D01*
G01X36373Y6497D01*
G01X36344Y6434D01*
G01X36334Y6349D01*
G01X36334Y6116D01*
G01X36362Y6116D01*
G01X36372Y6192D01*
G01X36428Y6193D01*
G01X36483Y6194D01*
G01X36690Y6194D01*
G01X36800Y6193D01*
G01X36855Y6192D01*
G01X36865Y6116D01*
G01X36893Y6116D01*
G01X36893Y6349D01*
G01X36865Y6349D01*
G01X36855Y6273D01*
G01X36801Y6272D01*
G01X36746Y6271D01*
G01X36631Y6271D01*
G01X36631Y6314D01*
G01X36635Y6359D01*
G01X36648Y6391D01*
G01X36673Y6413D01*
G01X36715Y6428D01*
G01X36847Y6464D01*
G01X36873Y6472D01*
G01X36889Y6489D01*
G01X36898Y6513D01*
G01X36901Y6548D01*
G01X36900Y6566D01*
G01X36899Y6582D01*
G01X36897Y6597D01*
G01X36893Y6611D01*
G37*

%LPC*%
G36*
G01X36528Y6463D02*
G01X36479Y6471D01*
G01X36432Y6464D01*
G01X36396Y6441D01*
G01X36375Y6402D01*
G01X36367Y6344D01*
G01X36367Y6273D01*
G01X36479Y6271D01*
G01X36601Y6271D01*
G01X36601Y6339D01*
G01X36592Y6398D01*
G01X36566Y6439D01*
G01X36528Y6463D01*
G37*

%LPD*%
G36*
G01X36796Y7097D02*
G01X36741Y7109D01*
G01X36692Y7100D01*
G01X36651Y7070D01*
G01X36620Y7020D01*
G01X36601Y6946D01*
G01X36581Y7008D01*
G01X36550Y7050D01*
G01X36511Y7073D01*
G01X36469Y7081D01*
G01X36414Y7069D01*
G01X36372Y7034D01*
G01X36344Y6977D01*
G01X36334Y6898D01*
G01X36334Y6659D01*
G01X36362Y6659D01*
G01X36372Y6738D01*
G01X36855Y6738D01*
G01X36865Y6659D01*
G01X36893Y6659D01*
G01X36893Y6888D01*
G01X36880Y6989D01*
G01X36845Y7058D01*
G01X36796Y7097D01*
G37*

%LPC*%
G36*
G01X36524Y6996D02*
G01X36474Y7005D01*
G01X36425Y6997D01*
G01X36392Y6972D01*
G01X36373Y6932D01*
G01X36367Y6875D01*
G01X36367Y6817D01*
G01X36421Y6815D01*
G01X36475Y6815D01*
G01X36530Y6814D01*
G01X36586Y6814D01*
G01X36586Y6860D01*
G01X36579Y6924D01*
G01X36558Y6970D01*
G01X36524Y6996D01*
G37*
G36*
G01X36791Y7017D02*
G01X36741Y7028D01*
G01X36689Y7018D01*
G01X36651Y6989D01*
G01X36629Y6938D01*
G01X36621Y6862D01*
G01X36621Y6814D01*
G01X36684Y6814D01*
G01X36744Y6815D01*
G01X36803Y6815D01*
G01X36860Y6817D01*
G01X36860Y6870D01*
G01X36852Y6939D01*
G01X36829Y6988D01*
G01X36791Y7017D01*
G37*

%LPD*%
G36*
G01X36484Y7574D02*
G01X36484Y7614D01*
G01X36334Y7609D01*
G01X36334Y7152D01*
G01X36484Y7144D01*
G01X36484Y7188D01*
G01X36370Y7210D01*
G01X36370Y7340D01*
G01X36425Y7342D01*
G01X36482Y7342D01*
G01X36537Y7343D01*
G01X36690Y7343D01*
G01X36800Y7342D01*
G01X36855Y7340D01*
G01X36865Y7254D01*
G01X36893Y7254D01*
G01X36893Y7505D01*
G01X36865Y7505D01*
G01X36855Y7419D01*
G01X36370Y7419D01*
G01X36370Y7551D01*
G01X36484Y7574D01*
G37*

%LPD*%
G36*
G01X36708Y7823D02*
G01X36659Y7823D01*
G01X36659Y7630D01*
G01X36708Y7630D01*
G01X36708Y7823D01*
G37*

%LPD*%
G36*
G01X36893Y8239D02*
G01X36827Y8239D01*
G01X36827Y7950D01*
G01X36799Y7979D01*
G01X36772Y8006D01*
G01X36748Y8029D01*
G01X36728Y8049D01*
G01X36642Y8127D01*
G01X36577Y8179D01*
G01X36523Y8208D01*
G01X36471Y8216D01*
G01X36412Y8207D01*
G01X36365Y8179D01*
G01X36335Y8130D01*
G01X36324Y8061D01*
G01X36332Y8001D01*
G01X36355Y7950D01*
G01X36394Y7913D01*
G01X36449Y7894D01*
G01X36459Y7901D01*
G01X36467Y7910D01*
G01X36472Y7922D01*
G01X36474Y7934D01*
G01X36471Y7949D01*
G01X36463Y7961D01*
G01X36447Y7971D01*
G01X36423Y7980D01*
G01X36362Y7995D01*
G01X36359Y8008D01*
G01X36357Y8020D01*
G01X36355Y8031D01*
G01X36355Y8041D01*
G01X36363Y8084D01*
G01X36388Y8116D01*
G01X36425Y8136D01*
G01X36474Y8143D01*
G01X36525Y8136D01*
G01X36577Y8114D01*
G01X36633Y8076D01*
G01X36697Y8023D01*
G01X36731Y7995D01*
G01X36766Y7964D01*
G01X36803Y7930D01*
G01X36842Y7896D01*
G01X36893Y7896D01*
G01X36893Y8239D01*
G37*

%LPD*%
G36*
G01X36893Y8658D02*
G01X36827Y8658D01*
G01X36827Y8369D01*
G01X36728Y8468D01*
G01X36642Y8546D01*
G01X36577Y8598D01*
G01X36523Y8627D01*
G01X36471Y8635D01*
G01X36412Y8626D01*
G01X36365Y8598D01*
G01X36335Y8550D01*
G01X36324Y8480D01*
G01X36332Y8421D01*
G01X36355Y8369D01*
G01X36394Y8332D01*
G01X36449Y8313D01*
G01X36459Y8320D01*
G01X36467Y8330D01*
G01X36472Y8341D01*
G01X36474Y8353D01*
G01X36471Y8368D01*
G01X36463Y8380D01*
G01X36447Y8391D01*
G01X36423Y8399D01*
G01X36362Y8414D01*
G01X36359Y8427D01*
G01X36357Y8439D01*
G01X36355Y8450D01*
G01X36355Y8460D01*
G01X36363Y8502D01*
G01X36388Y8534D01*
G01X36425Y8555D01*
G01X36474Y8562D01*
G01X36525Y8555D01*
G01X36577Y8533D01*
G01X36633Y8495D01*
G01X36697Y8442D01*
G01X36731Y8414D01*
G01X36766Y8383D01*
G01X36803Y8349D01*
G01X36842Y8315D01*
G01X36893Y8315D01*
G01X36893Y8658D01*
G37*

%LPD*%
G36*
G01X36893Y9263D02*
G01X36751Y9270D01*
G01X36751Y9227D01*
G01X36835Y9207D01*
G01X36835Y9088D01*
G01X36783Y9148D01*
G01X36722Y9197D01*
G01X36652Y9230D01*
G01X36576Y9242D01*
G01X36517Y9237D01*
G01X36466Y9223D01*
G01X36423Y9199D01*
G01X36387Y9169D01*
G01X36358Y9133D01*
G01X36338Y9092D01*
G01X36326Y9046D01*
G01X36322Y8999D01*
G01X36326Y8951D01*
G01X36338Y8906D01*
G01X36358Y8865D01*
G01X36387Y8828D01*
G01X36423Y8798D01*
G01X36466Y8775D01*
G01X36517Y8760D01*
G01X36576Y8755D01*
G01X36653Y8767D01*
G01X36723Y8800D01*
G01X36784Y8849D01*
G01X36835Y8910D01*
G01X36835Y8790D01*
G01X36751Y8770D01*
G01X36751Y8727D01*
G01X36893Y8734D01*
G01X36893Y8958D01*
G01X36842Y8958D01*
G01X36788Y8905D01*
G01X36724Y8865D01*
G01X36652Y8840D01*
G01X36576Y8831D01*
G01X36489Y8843D01*
G01X36420Y8876D01*
G01X36374Y8929D01*
G01X36357Y8999D01*
G01X36374Y9068D01*
G01X36420Y9120D01*
G01X36489Y9153D01*
G01X36576Y9164D01*
G01X36652Y9155D01*
G01X36724Y9130D01*
G01X36788Y9090D01*
G01X36842Y9037D01*
G01X36893Y9037D01*
G01X36893Y9263D01*
G37*

%LPD*%
G54D41*
G01X14223Y10794D02*
G01X14223Y9702D01*
G01X14950Y10794D02*
G01X14950Y9702D01*
G01X14223Y10274D02*
G01X14950Y10274D01*
G01X15293Y10794D02*
G01X15293Y9702D01*
G01X15293Y9702D02*
G01X15918Y9702D01*
G01X16261Y10794D02*
G01X16261Y9702D01*
G01X16987Y10794D02*
G01X16261Y10065D01*
G01X16520Y10325D02*
G01X16987Y9702D01*
G01X17330Y10170D02*
G01X18265Y10170D01*
G01X18608Y10794D02*
G01X18608Y9702D01*
G01X18608Y10794D02*
G01X19075Y10794D01*
G01X19232Y10741D01*
G01X19283Y10690D01*
G01X19336Y10586D01*
G01X19336Y10429D01*
G01X19283Y10325D01*
G01X19232Y10274D01*
G01X19075Y10223D01*
G01X18608Y10223D01*
G01X19679Y10794D02*
G01X19679Y9702D01*
G01X19679Y10794D02*
G01X20093Y9702D01*
G01X20510Y10794D02*
G01X20093Y9702D01*
G01X20510Y10794D02*
G01X20510Y9702D01*
G01X21165Y10794D02*
G01X21008Y10741D01*
G01X20904Y10586D01*
G01X20853Y10325D01*
G01X20853Y10170D01*
G01X20904Y9911D01*
G01X21008Y9753D01*
G01X21165Y9702D01*
G01X21269Y9702D01*
G01X21424Y9753D01*
G01X21529Y9911D01*
G01X21579Y10170D01*
G01X21579Y10325D01*
G01X21529Y10586D01*
G01X21424Y10741D01*
G01X21269Y10794D01*
G01X21165Y10794D01*
G01X21922Y10586D02*
G01X22026Y10637D01*
G01X22184Y10794D01*
G01X22184Y9702D01*
G01X29463Y26085D02*
G01X30553Y26085D01*
G01X29463Y26085D02*
G01X29463Y26553D01*
G01X29514Y26708D01*
G01X29565Y26761D01*
G01X29669Y26812D01*
G01X29773Y26812D01*
G01X29877Y26761D01*
G01X29931Y26708D01*
G01X29982Y26553D01*
G01X29982Y26085D01*
G01X29982Y26448D02*
G01X30553Y26812D01*
G01X29463Y27155D02*
G01X30553Y27155D01*
G01X29463Y27155D02*
G01X29463Y27830D01*
G01X29982Y27155D02*
G01X29982Y27571D01*
G01X30553Y27155D02*
G01X30553Y27830D01*
G01X29463Y28173D02*
G01X30553Y28173D01*
G01X30553Y28173D02*
G01X30553Y28798D01*
G01X29463Y29555D02*
G01X30553Y29141D01*
G01X29463Y29555D02*
G01X30553Y29971D01*
G01X30190Y29296D02*
G01X30190Y29817D01*
G01X29463Y30314D02*
G01X29982Y30731D01*
G01X30553Y30731D01*
G01X29463Y31145D02*
G01X29982Y30731D01*
G01X29669Y31488D02*
G01X29618Y31592D01*
G01X29463Y31749D01*
G01X30553Y31749D01*

%LPD*%
G36*
G01X31474Y25161D02*
G01X31427Y25166D01*
G01X31356Y25155D01*
G01X31297Y25121D01*
G01X31246Y25058D01*
G01X31201Y24963D01*
G01X31183Y24919D01*
G01X31158Y24865D01*
G01X31126Y24825D01*
G01X31087Y24801D01*
G01X31038Y24792D01*
G01X30982Y24804D01*
G01X30942Y24837D01*
G01X30917Y24886D01*
G01X30909Y24947D01*
G01X30910Y24973D01*
G01X30913Y24996D01*
G01X30920Y25018D01*
G01X30932Y25039D01*
G01X31064Y25067D01*
G01X31064Y25125D01*
G01X30919Y25133D01*
G01X30895Y25093D01*
G01X30876Y25050D01*
G01X30865Y25002D01*
G01X30861Y24950D01*
G01X30864Y24899D01*
G01X30874Y24851D01*
G01X30890Y24809D01*
G01X30913Y24772D01*
G01X30942Y24742D01*
G01X30977Y24720D01*
G01X31018Y24706D01*
G01X31064Y24701D01*
G01X31139Y24715D01*
G01X31199Y24754D01*
G01X31248Y24815D01*
G01X31287Y24894D01*
G01X31305Y24935D01*
G01X31333Y24998D01*
G01X31365Y25042D01*
G01X31403Y25067D01*
G01X31450Y25074D01*
G01X31510Y25062D01*
G01X31554Y25027D01*
G01X31580Y24970D01*
G01X31589Y24896D01*
G01X31588Y24863D01*
G01X31583Y24833D01*
G01X31574Y24806D01*
G01X31562Y24780D01*
G01X31422Y24752D01*
G01X31422Y24696D01*
G01X31579Y24688D01*
G01X31602Y24731D01*
G01X31621Y24784D01*
G01X31633Y24842D01*
G01X31638Y24904D01*
G01X31634Y24960D01*
G01X31624Y25010D01*
G01X31606Y25055D01*
G01X31582Y25093D01*
G01X31552Y25124D01*
G01X31515Y25146D01*
G01X31474Y25161D01*
G37*

%LPD*%
G36*
G01X31623Y25915D02*
G01X31584Y25915D01*
G01X31574Y25829D01*
G01X31402Y25775D01*
G01X31345Y25754D01*
G01X31303Y25727D01*
G01X31276Y25690D01*
G01X31259Y25643D01*
G01X31234Y25727D01*
G01X31191Y25786D01*
G01X31135Y25822D01*
G01X31071Y25834D01*
G01X31028Y25829D01*
G01X30990Y25815D01*
G01X30957Y25794D01*
G01X30929Y25763D01*
G01X30907Y25725D01*
G01X30891Y25679D01*
G01X30881Y25626D01*
G01X30878Y25567D01*
G01X30878Y25255D01*
G01X30916Y25255D01*
G01X30927Y25359D01*
G01X31572Y25359D01*
G01X31584Y25255D01*
G01X31623Y25255D01*
G01X31623Y25567D01*
G01X31584Y25567D01*
G01X31572Y25463D01*
G01X31499Y25461D01*
G01X31426Y25461D01*
G01X31351Y25460D01*
G01X31275Y25460D01*
G01X31275Y25521D01*
G01X31279Y25580D01*
G01X31296Y25622D01*
G01X31330Y25651D01*
G01X31386Y25671D01*
G01X31562Y25717D01*
G01X31595Y25730D01*
G01X31617Y25752D01*
G01X31629Y25785D01*
G01X31633Y25831D01*
G01X31632Y25855D01*
G01X31631Y25877D01*
G01X31627Y25897D01*
G01X31623Y25915D01*
G37*

%LPC*%
G36*
G01X31135Y25718D02*
G01X31071Y25730D01*
G01X31007Y25719D01*
G01X30960Y25688D01*
G01X30931Y25635D01*
G01X30921Y25559D01*
G01X30921Y25463D01*
G01X30996Y25461D01*
G01X31071Y25461D01*
G01X31149Y25460D01*
G01X31231Y25460D01*
G01X31231Y25552D01*
G01X31219Y25630D01*
G01X31186Y25685D01*
G01X31135Y25718D01*
G37*

%LPD*%
G36*
G01X31307Y26661D02*
G01X31249Y26664D01*
G01X31192Y26661D01*
G01X31139Y26653D01*
G01X31091Y26638D01*
G01X31047Y26619D01*
G01X31008Y26594D01*
G01X30974Y26565D01*
G01X30945Y26531D01*
G01X30921Y26493D01*
G01X30903Y26451D01*
G01X30889Y26405D01*
G01X30881Y26356D01*
G01X30878Y26304D01*
G01X30878Y25979D01*
G01X30916Y25979D01*
G01X30927Y26083D01*
G01X31075Y26085D01*
G01X31423Y26085D01*
G01X31499Y26084D01*
G01X31572Y26083D01*
G01X31584Y25979D01*
G01X31623Y25979D01*
G01X31623Y26283D01*
G01X31619Y26337D01*
G01X31611Y26388D01*
G01X31598Y26436D01*
G01X31579Y26480D01*
G01X31554Y26521D01*
G01X31525Y26557D01*
G01X31491Y26588D01*
G01X31452Y26615D01*
G01X31408Y26636D01*
G01X31360Y26652D01*
G01X31307Y26661D01*
G37*

%LPC*%
G36*
G01X31323Y26545D02*
G01X31249Y26550D01*
G01X31174Y26545D01*
G01X31108Y26532D01*
G01X31052Y26511D01*
G01X31005Y26481D01*
G01X30969Y26443D01*
G01X30943Y26398D01*
G01X30927Y26345D01*
G01X30921Y26286D01*
G01X30921Y26189D01*
G01X30996Y26188D01*
G01X31148Y26187D01*
G01X31425Y26187D01*
G01X31502Y26188D01*
G01X31577Y26189D01*
G01X31577Y26276D01*
G01X31571Y26339D01*
G01X31555Y26394D01*
G01X31528Y26441D01*
G01X31491Y26479D01*
G01X31444Y26510D01*
G01X31388Y26532D01*
G01X31323Y26545D01*
G37*

%LPD*%
G36*
G01X31376Y27022D02*
G01X31310Y27022D01*
G01X31310Y26763D01*
G01X31376Y26763D01*
G01X31376Y27022D01*
G37*

%LPD*%
G36*
G01X31343Y27574D02*
G01X31244Y27579D01*
G01X31148Y27574D01*
G01X31067Y27559D01*
G01X31001Y27537D01*
G01X30949Y27507D01*
G01X30910Y27472D01*
G01X30883Y27433D01*
G01X30868Y27391D01*
G01X30863Y27348D01*
G01X30868Y27303D01*
G01X30883Y27260D01*
G01X30910Y27221D01*
G01X30949Y27185D01*
G01X31001Y27155D01*
G01X31067Y27132D01*
G01X31148Y27116D01*
G01X31244Y27111D01*
G01X31343Y27116D01*
G01X31426Y27132D01*
G01X31494Y27155D01*
G01X31547Y27185D01*
G01X31587Y27221D01*
G01X31614Y27260D01*
G01X31630Y27303D01*
G01X31635Y27348D01*
G01X31630Y27391D01*
G01X31614Y27433D01*
G01X31587Y27472D01*
G01X31547Y27507D01*
G01X31494Y27537D01*
G01X31426Y27559D01*
G01X31343Y27574D01*
G37*

%LPC*%
G36*
G01X31339Y27477D02*
G01X31244Y27480D01*
G01X31153Y27477D01*
G01X31079Y27468D01*
G01X31020Y27456D01*
G01X30975Y27440D01*
G01X30943Y27420D01*
G01X30921Y27397D01*
G01X30910Y27373D01*
G01X30906Y27348D01*
G01X30910Y27321D01*
G01X30921Y27296D01*
G01X30943Y27273D01*
G01X30975Y27253D01*
G01X31020Y27235D01*
G01X31079Y27222D01*
G01X31153Y27213D01*
G01X31244Y27210D01*
G01X31339Y27213D01*
G01X31416Y27222D01*
G01X31477Y27235D01*
G01X31523Y27253D01*
G01X31556Y27273D01*
G01X31579Y27296D01*
G01X31591Y27321D01*
G01X31595Y27348D01*
G01X31591Y27373D01*
G01X31579Y27397D01*
G01X31556Y27420D01*
G01X31523Y27440D01*
G01X31477Y27456D01*
G01X31416Y27468D01*
G01X31339Y27477D01*
G37*

%LPD*%
G36*
G01X31444Y28130D02*
G01X31391Y28135D01*
G01X31339Y28130D01*
G01X31293Y28117D01*
G01X31253Y28096D01*
G01X31219Y28067D01*
G01X31193Y28032D01*
G01X31173Y27990D01*
G01X31162Y27943D01*
G01X31158Y27891D01*
G01X31159Y27862D01*
G01X31162Y27833D01*
G01X31167Y27806D01*
G01X31175Y27779D01*
G01X30965Y27792D01*
G01X30965Y28115D01*
G01X30878Y28115D01*
G01X30878Y27751D01*
G01X31226Y27726D01*
G01X31234Y27757D01*
G01X31227Y27783D01*
G01X31222Y27810D01*
G01X31220Y27837D01*
G01X31219Y27863D01*
G01X31231Y27935D01*
G01X31266Y27990D01*
G01X31324Y28024D01*
G01X31402Y28036D01*
G01X31481Y28025D01*
G01X31542Y27993D01*
G01X31581Y27940D01*
G01X31595Y27868D01*
G01X31594Y27850D01*
G01X31592Y27833D01*
G01X31584Y27797D01*
G01X31516Y27779D01*
G01X31483Y27769D01*
G01X31461Y27757D01*
G01X31450Y27741D01*
G01X31447Y27721D01*
G01X31450Y27703D01*
G01X31456Y27687D01*
G01X31468Y27676D01*
G01X31483Y27668D01*
G01X31549Y27694D01*
G01X31597Y27737D01*
G01X31626Y27797D01*
G01X31635Y27873D01*
G01X31631Y27930D01*
G01X31618Y27981D01*
G01X31597Y28025D01*
G01X31569Y28063D01*
G01X31533Y28094D01*
G01X31491Y28116D01*
G01X31444Y28130D01*
G37*

%LPD*%
G36*
G01X30914Y28917D02*
G01X30878Y28917D01*
G01X30878Y28663D01*
G01X30919Y28663D01*
G01X30929Y28765D01*
G01X31488Y28585D01*
G01X30929Y28389D01*
G01X30919Y28498D01*
G01X30878Y28498D01*
G01X30878Y28196D01*
G01X30916Y28196D01*
G01X30924Y28280D01*
G01X31630Y28541D01*
G01X31630Y28587D01*
G01X30929Y28821D01*
G01X30914Y28917D01*
G37*

%LPD*%
G36*
G01X31307Y29661D02*
G01X31249Y29664D01*
G01X31192Y29661D01*
G01X31139Y29652D01*
G01X31091Y29638D01*
G01X31047Y29618D01*
G01X31008Y29594D01*
G01X30974Y29564D01*
G01X30945Y29531D01*
G01X30921Y29493D01*
G01X30903Y29451D01*
G01X30889Y29405D01*
G01X30881Y29356D01*
G01X30878Y29303D01*
G01X30878Y28978D01*
G01X30916Y28978D01*
G01X30927Y29082D01*
G01X31001Y29084D01*
G01X31075Y29084D01*
G01X31150Y29085D01*
G01X31345Y29085D01*
G01X31423Y29084D01*
G01X31499Y29084D01*
G01X31572Y29082D01*
G01X31584Y28978D01*
G01X31623Y28978D01*
G01X31623Y29283D01*
G01X31619Y29337D01*
G01X31611Y29388D01*
G01X31598Y29436D01*
G01X31579Y29480D01*
G01X31554Y29520D01*
G01X31525Y29556D01*
G01X31491Y29588D01*
G01X31452Y29614D01*
G01X31408Y29636D01*
G01X31360Y29651D01*
G01X31307Y29661D01*
G37*

%LPC*%
G36*
G01X31323Y29543D02*
G01X31249Y29547D01*
G01X31174Y29543D01*
G01X31108Y29530D01*
G01X31052Y29509D01*
G01X31005Y29479D01*
G01X30969Y29442D01*
G01X30943Y29396D01*
G01X30927Y29344D01*
G01X30921Y29283D01*
G01X30921Y29189D01*
G01X30996Y29188D01*
G01X31148Y29187D01*
G01X31425Y29187D01*
G01X31502Y29188D01*
G01X31577Y29189D01*
G01X31577Y29275D01*
G01X31571Y29338D01*
G01X31555Y29393D01*
G01X31528Y29440D01*
G01X31491Y29478D01*
G01X31444Y29508D01*
G01X31388Y29530D01*
G01X31323Y29543D01*
G37*

%LPD*%
G36*
G01X31584Y30383D02*
G01X31422Y30385D01*
G01X31422Y30324D01*
G01X31562Y30297D01*
G01X31574Y30265D01*
G01X31583Y30233D01*
G01X31588Y30201D01*
G01X31589Y30170D01*
G01X31584Y30112D01*
G01X31568Y30060D01*
G01X31541Y30013D01*
G01X31503Y29973D01*
G01X31455Y29941D01*
G01X31396Y29918D01*
G01X31328Y29903D01*
G01X31249Y29898D01*
G01X31171Y29903D01*
G01X31103Y29919D01*
G01X31044Y29944D01*
G01X30996Y29978D01*
G01X30958Y30018D01*
G01X30931Y30065D01*
G01X30914Y30117D01*
G01X30909Y30172D01*
G01X30910Y30201D01*
G01X30915Y30229D01*
G01X30923Y30258D01*
G01X30937Y30286D01*
G01X31079Y30314D01*
G01X31079Y30375D01*
G01X30914Y30373D01*
G01X30888Y30318D01*
G01X30872Y30263D01*
G01X30863Y30211D01*
G01X30861Y30162D01*
G01X30864Y30109D01*
G01X30873Y30058D01*
G01X30889Y30011D01*
G01X30910Y29967D01*
G01X30937Y29927D01*
G01X30969Y29891D01*
G01X31006Y29860D01*
G01X31047Y29833D01*
G01X31092Y29812D01*
G01X31141Y29796D01*
G01X31193Y29786D01*
G01X31249Y29783D01*
G01X31306Y29786D01*
G01X31358Y29796D01*
G01X31407Y29811D01*
G01X31453Y29831D01*
G01X31493Y29857D01*
G01X31530Y29888D01*
G01X31562Y29924D01*
G01X31588Y29963D01*
G01X31609Y30007D01*
G01X31625Y30055D01*
G01X31635Y30107D01*
G01X31638Y30162D01*
G01X31635Y30220D01*
G01X31626Y30276D01*
G01X31609Y30331D01*
G01X31584Y30383D01*
G37*

%LPD*%
G36*
G01X31376Y30736D02*
G01X31310Y30736D01*
G01X31310Y30477D01*
G01X31376Y30477D01*
G01X31376Y30736D01*
G37*

%LPD*%
G36*
G01X31474Y31302D02*
G01X31427Y31307D01*
G01X31356Y31296D01*
G01X31297Y31261D01*
G01X31246Y31198D01*
G01X31201Y31104D01*
G01X31183Y31059D01*
G01X31158Y31006D01*
G01X31126Y30967D01*
G01X31087Y30943D01*
G01X31038Y30934D01*
G01X30982Y30946D01*
G01X30942Y30978D01*
G01X30917Y31028D01*
G01X30909Y31089D01*
G01X30910Y31114D01*
G01X30913Y31137D01*
G01X30920Y31158D01*
G01X30932Y31180D01*
G01X31064Y31208D01*
G01X31064Y31267D01*
G01X30919Y31272D01*
G01X30895Y31234D01*
G01X30876Y31191D01*
G01X30865Y31143D01*
G01X30861Y31089D01*
G01X30864Y31038D01*
G01X30874Y30991D01*
G01X30890Y30950D01*
G01X30913Y30913D01*
G01X30942Y30884D01*
G01X30977Y30861D01*
G01X31018Y30848D01*
G01X31064Y30843D01*
G01X31139Y30856D01*
G01X31199Y30895D01*
G01X31248Y30955D01*
G01X31287Y31033D01*
G01X31305Y31076D01*
G01X31333Y31140D01*
G01X31365Y31183D01*
G01X31403Y31208D01*
G01X31450Y31216D01*
G01X31510Y31203D01*
G01X31554Y31167D01*
G01X31580Y31111D01*
G01X31589Y31038D01*
G01X31588Y31005D01*
G01X31583Y30975D01*
G01X31574Y30948D01*
G01X31562Y30921D01*
G01X31422Y30893D01*
G01X31422Y30835D01*
G01X31579Y30830D01*
G01X31602Y30873D01*
G01X31621Y30925D01*
G01X31633Y30984D01*
G01X31638Y31046D01*
G01X31634Y31102D01*
G01X31624Y31152D01*
G01X31606Y31197D01*
G01X31582Y31235D01*
G01X31552Y31266D01*
G01X31515Y31288D01*
G01X31474Y31302D01*
G37*

%LPD*%
G36*
G01X31623Y31948D02*
G01X31412Y31955D01*
G01X31412Y31897D01*
G01X31574Y31861D01*
G01X31574Y31605D01*
G01X31502Y31603D01*
G01X31430Y31603D01*
G01X31361Y31602D01*
G01X31147Y31602D01*
G01X31074Y31603D01*
G01X31000Y31603D01*
G01X30927Y31605D01*
G01X30916Y31709D01*
G01X30878Y31709D01*
G01X30878Y31394D01*
G01X30916Y31394D01*
G01X30927Y31498D01*
G01X30999Y31499D01*
G01X31073Y31500D01*
G01X31425Y31500D01*
G01X31498Y31499D01*
G01X31572Y31498D01*
G01X31584Y31394D01*
G01X31623Y31394D01*
G01X31623Y31948D01*
G37*

%LPD*%
G36*
G01X31376Y32308D02*
G01X31310Y32308D01*
G01X31310Y32049D01*
G01X31376Y32049D01*
G01X31376Y32308D01*
G37*

%LPD*%
G36*
G01X31584Y33017D02*
G01X31422Y33019D01*
G01X31422Y32958D01*
G01X31562Y32930D01*
G01X31574Y32898D01*
G01X31583Y32866D01*
G01X31588Y32833D01*
G01X31589Y32801D01*
G01X31584Y32744D01*
G01X31568Y32692D01*
G01X31541Y32647D01*
G01X31503Y32607D01*
G01X31455Y32575D01*
G01X31396Y32552D01*
G01X31328Y32537D01*
G01X31249Y32532D01*
G01X31171Y32537D01*
G01X31103Y32553D01*
G01X31044Y32578D01*
G01X30996Y32612D01*
G01X30958Y32652D01*
G01X30931Y32699D01*
G01X30914Y32751D01*
G01X30909Y32806D01*
G01X30910Y32834D01*
G01X30915Y32863D01*
G01X30923Y32892D01*
G01X30937Y32920D01*
G01X31079Y32948D01*
G01X31079Y33009D01*
G01X30914Y33007D01*
G01X30888Y32951D01*
G01X30872Y32896D01*
G01X30863Y32843D01*
G01X30861Y32793D01*
G01X30864Y32741D01*
G01X30873Y32690D01*
G01X30889Y32643D01*
G01X30910Y32599D01*
G01X30937Y32559D01*
G01X30969Y32523D01*
G01X31006Y32492D01*
G01X31047Y32465D01*
G01X31092Y32444D01*
G01X31141Y32428D01*
G01X31193Y32418D01*
G01X31249Y32415D01*
G01X31306Y32418D01*
G01X31358Y32428D01*
G01X31407Y32443D01*
G01X31453Y32463D01*
G01X31493Y32490D01*
G01X31530Y32521D01*
G01X31562Y32556D01*
G01X31588Y32596D01*
G01X31609Y32640D01*
G01X31625Y32688D01*
G01X31635Y32739D01*
G01X31638Y32793D01*
G01X31635Y32852D01*
G01X31626Y32909D01*
G01X31609Y32964D01*
G01X31584Y33017D01*
G37*

%LPD*%
G01X13454Y26139D02*
G01X14544Y26139D01*
G01X13454Y26139D02*
G01X13454Y26606D01*
G01X13505Y26761D01*
G01X13556Y26814D01*
G01X13660Y26865D01*
G01X13764Y26865D01*
G01X13868Y26814D01*
G01X13921Y26761D01*
G01X13972Y26606D01*
G01X13972Y26139D01*
G01X13972Y26502D02*
G01X14544Y26865D01*
G01X13454Y27208D02*
G01X14544Y27208D01*
G01X13454Y27208D02*
G01X13454Y27884D01*
G01X13972Y27208D02*
G01X13972Y27624D01*
G01X14544Y27208D02*
G01X14544Y27884D01*
G01X13454Y28226D02*
G01X14544Y28226D01*
G01X14544Y28226D02*
G01X14544Y28851D01*
G01X13454Y29608D02*
G01X14544Y29194D01*
G01X13454Y29608D02*
G01X14544Y30025D01*
G01X14180Y29349D02*
G01X14180Y29870D01*
G01X13454Y30368D02*
G01X13972Y30784D01*
G01X14544Y30784D01*
G01X13454Y31198D02*
G01X13972Y30784D01*
G01X13713Y31595D02*
G01X13660Y31595D01*
G01X13556Y31645D01*
G01X13505Y31699D01*
G01X13454Y31803D01*
G01X13454Y32009D01*
G01X13505Y32113D01*
G01X13556Y32166D01*
G01X13660Y32217D01*
G01X13764Y32217D01*
G01X13868Y32166D01*
G01X14026Y32062D01*
G01X14544Y31541D01*
G01X14544Y32270D01*

%LPD*%
G36*
G01X15472Y25290D02*
G01X15425Y25295D01*
G01X15354Y25284D01*
G01X15295Y25249D01*
G01X15244Y25186D01*
G01X15199Y25092D01*
G01X15181Y25046D01*
G01X15156Y24994D01*
G01X15124Y24953D01*
G01X15085Y24928D01*
G01X15036Y24919D01*
G01X14979Y24932D01*
G01X14939Y24965D01*
G01X14915Y25015D01*
G01X14907Y25077D01*
G01X14908Y25101D01*
G01X14911Y25123D01*
G01X14918Y25145D01*
G01X14930Y25166D01*
G01X15062Y25194D01*
G01X15062Y25252D01*
G01X14917Y25260D01*
G01X14893Y25222D01*
G01X14874Y25179D01*
G01X14863Y25131D01*
G01X14859Y25077D01*
G01X14862Y25026D01*
G01X14872Y24979D01*
G01X14888Y24937D01*
G01X14911Y24900D01*
G01X14940Y24870D01*
G01X14975Y24847D01*
G01X15016Y24833D01*
G01X15062Y24828D01*
G01X15137Y24842D01*
G01X15197Y24881D01*
G01X15246Y24942D01*
G01X15285Y25021D01*
G01X15300Y25062D01*
G01X15330Y25127D01*
G01X15362Y25171D01*
G01X15401Y25196D01*
G01X15448Y25204D01*
G01X15508Y25191D01*
G01X15552Y25155D01*
G01X15578Y25099D01*
G01X15587Y25026D01*
G01X15586Y24992D01*
G01X15581Y24963D01*
G01X15572Y24936D01*
G01X15560Y24909D01*
G01X15420Y24881D01*
G01X15420Y24823D01*
G01X15577Y24815D01*
G01X15600Y24858D01*
G01X15619Y24911D01*
G01X15631Y24969D01*
G01X15636Y25031D01*
G01X15632Y25087D01*
G01X15622Y25138D01*
G01X15604Y25183D01*
G01X15580Y25221D01*
G01X15550Y25253D01*
G01X15513Y25276D01*
G01X15472Y25290D01*
G37*

%LPD*%
G36*
G01X15621Y26042D02*
G01X15580Y26042D01*
G01X15572Y25956D01*
G01X15397Y25905D01*
G01X15342Y25883D01*
G01X15301Y25855D01*
G01X15274Y25818D01*
G01X15257Y25770D01*
G01X15231Y25854D01*
G01X15188Y25913D01*
G01X15133Y25949D01*
G01X15069Y25961D01*
G01X15026Y25956D01*
G01X14988Y25942D01*
G01X14954Y25921D01*
G01X14926Y25890D01*
G01X14903Y25852D01*
G01X14887Y25806D01*
G01X14877Y25753D01*
G01X14874Y25694D01*
G01X14874Y25382D01*
G01X14914Y25382D01*
G01X14925Y25486D01*
G01X14997Y25487D01*
G01X15071Y25488D01*
G01X15423Y25488D01*
G01X15497Y25487D01*
G01X15570Y25486D01*
G01X15580Y25382D01*
G01X15621Y25382D01*
G01X15621Y25694D01*
G01X15580Y25694D01*
G01X15570Y25590D01*
G01X15273Y25590D01*
G01X15273Y25648D01*
G01X15277Y25708D01*
G01X15294Y25750D01*
G01X15327Y25779D01*
G01X15382Y25798D01*
G01X15560Y25844D01*
G01X15592Y25858D01*
G01X15614Y25880D01*
G01X15627Y25913D01*
G01X15631Y25958D01*
G01X15630Y25983D01*
G01X15628Y26005D01*
G01X15624Y26025D01*
G01X15621Y26042D01*
G37*

%LPC*%
G36*
G01X15133Y25845D02*
G01X15069Y25857D01*
G01X15005Y25846D01*
G01X14958Y25815D01*
G01X14929Y25762D01*
G01X14919Y25686D01*
G01X14919Y25590D01*
G01X15229Y25590D01*
G01X15229Y25679D01*
G01X15217Y25757D01*
G01X15184Y25812D01*
G01X15133Y25845D01*
G37*

%LPD*%
G36*
G01X15305Y26791D02*
G01X15247Y26794D01*
G01X15190Y26791D01*
G01X15136Y26782D01*
G01X15088Y26768D01*
G01X15044Y26748D01*
G01X15005Y26724D01*
G01X14971Y26694D01*
G01X14942Y26660D01*
G01X14917Y26622D01*
G01X14899Y26579D01*
G01X14885Y26533D01*
G01X14876Y26483D01*
G01X14874Y26431D01*
G01X14874Y26108D01*
G01X14914Y26108D01*
G01X14925Y26210D01*
G01X14998Y26211D01*
G01X15147Y26212D01*
G01X15420Y26212D01*
G01X15496Y26211D01*
G01X15570Y26210D01*
G01X15580Y26108D01*
G01X15621Y26108D01*
G01X15621Y26410D01*
G01X15617Y26465D01*
G01X15609Y26516D01*
G01X15596Y26565D01*
G01X15577Y26609D01*
G01X15552Y26650D01*
G01X15523Y26686D01*
G01X15489Y26718D01*
G01X15450Y26744D01*
G01X15406Y26765D01*
G01X15358Y26781D01*
G01X15305Y26791D01*
G37*

%LPC*%
G36*
G01X15320Y26672D02*
G01X15247Y26677D01*
G01X15172Y26672D01*
G01X15106Y26659D01*
G01X15050Y26638D01*
G01X15003Y26608D01*
G01X14967Y26570D01*
G01X14941Y26525D01*
G01X14925Y26472D01*
G01X14919Y26413D01*
G01X14919Y26316D01*
G01X14993Y26315D01*
G01X15068Y26314D01*
G01X15421Y26314D01*
G01X15499Y26315D01*
G01X15575Y26316D01*
G01X15575Y26405D01*
G01X15569Y26467D01*
G01X15552Y26522D01*
G01X15526Y26568D01*
G01X15488Y26607D01*
G01X15441Y26637D01*
G01X15385Y26659D01*
G01X15320Y26672D01*
G37*

%LPD*%
G36*
G01X15372Y27149D02*
G01X15308Y27149D01*
G01X15308Y26890D01*
G01X15372Y26890D01*
G01X15372Y27149D01*
G37*

%LPD*%
G36*
G01X15341Y27701D02*
G01X15242Y27706D01*
G01X15146Y27701D01*
G01X15064Y27686D01*
G01X14998Y27664D01*
G01X14945Y27634D01*
G01X14906Y27599D01*
G01X14879Y27560D01*
G01X14864Y27518D01*
G01X14859Y27475D01*
G01X14864Y27430D01*
G01X14879Y27388D01*
G01X14906Y27348D01*
G01X14945Y27313D01*
G01X14998Y27284D01*
G01X15064Y27261D01*
G01X15146Y27246D01*
G01X15242Y27241D01*
G01X15341Y27246D01*
G01X15424Y27261D01*
G01X15492Y27284D01*
G01X15545Y27313D01*
G01X15585Y27348D01*
G01X15612Y27388D01*
G01X15628Y27430D01*
G01X15633Y27475D01*
G01X15628Y27518D01*
G01X15612Y27560D01*
G01X15585Y27599D01*
G01X15545Y27634D01*
G01X15492Y27664D01*
G01X15424Y27686D01*
G01X15341Y27701D01*
G37*

%LPC*%
G36*
G01X15337Y27604D02*
G01X15242Y27607D01*
G01X15151Y27604D01*
G01X15077Y27595D01*
G01X15018Y27583D01*
G01X14973Y27567D01*
G01X14941Y27547D01*
G01X14919Y27524D01*
G01X14908Y27500D01*
G01X14904Y27475D01*
G01X14908Y27448D01*
G01X14919Y27423D01*
G01X14941Y27400D01*
G01X14973Y27380D01*
G01X15018Y27362D01*
G01X15077Y27349D01*
G01X15151Y27340D01*
G01X15242Y27337D01*
G01X15337Y27340D01*
G01X15413Y27349D01*
G01X15474Y27362D01*
G01X15520Y27380D01*
G01X15553Y27400D01*
G01X15575Y27423D01*
G01X15586Y27448D01*
G01X15590Y27475D01*
G01X15586Y27500D01*
G01X15575Y27524D01*
G01X15553Y27547D01*
G01X15520Y27567D01*
G01X15474Y27583D01*
G01X15413Y27595D01*
G01X15337Y27604D01*
G37*

%LPD*%
G36*
G01X15441Y28257D02*
G01X15389Y28262D01*
G01X15336Y28257D01*
G01X15290Y28244D01*
G01X15250Y28223D01*
G01X15216Y28194D01*
G01X15190Y28159D01*
G01X15171Y28117D01*
G01X15160Y28070D01*
G01X15156Y28018D01*
G01X15157Y27989D01*
G01X15160Y27960D01*
G01X15165Y27933D01*
G01X15173Y27906D01*
G01X14963Y27922D01*
G01X14963Y28242D01*
G01X14874Y28242D01*
G01X14874Y27878D01*
G01X15222Y27856D01*
G01X15229Y27884D01*
G01X15223Y27910D01*
G01X15219Y27937D01*
G01X15217Y27964D01*
G01X15217Y27990D01*
G01X15228Y28063D01*
G01X15263Y28118D01*
G01X15321Y28153D01*
G01X15400Y28165D01*
G01X15479Y28154D01*
G01X15539Y28121D01*
G01X15577Y28068D01*
G01X15590Y27995D01*
G01X15590Y27978D01*
G01X15588Y27961D01*
G01X15580Y27927D01*
G01X15514Y27906D01*
G01X15480Y27897D01*
G01X15458Y27885D01*
G01X15446Y27869D01*
G01X15443Y27848D01*
G01X15445Y27830D01*
G01X15452Y27815D01*
G01X15463Y27804D01*
G01X15478Y27795D01*
G01X15546Y27821D01*
G01X15595Y27865D01*
G01X15624Y27925D01*
G01X15633Y28003D01*
G01X15629Y28059D01*
G01X15615Y28110D01*
G01X15594Y28154D01*
G01X15566Y28191D01*
G01X15530Y28221D01*
G01X15488Y28244D01*
G01X15441Y28257D01*
G37*

%LPD*%
G36*
G01X14912Y29044D02*
G01X14874Y29044D01*
G01X14874Y28790D01*
G01X14917Y28790D01*
G01X14927Y28892D01*
G01X15486Y28712D01*
G01X14927Y28516D01*
G01X14917Y28625D01*
G01X14874Y28625D01*
G01X14874Y28323D01*
G01X14914Y28323D01*
G01X14922Y28409D01*
G01X15626Y28668D01*
G01X15626Y28714D01*
G01X14925Y28948D01*
G01X14912Y29044D01*
G37*

%LPD*%
G36*
G01X15305Y29788D02*
G01X15247Y29791D01*
G01X15190Y29788D01*
G01X15136Y29779D01*
G01X15088Y29765D01*
G01X15044Y29745D01*
G01X15005Y29721D01*
G01X14971Y29691D01*
G01X14942Y29658D01*
G01X14917Y29620D01*
G01X14899Y29578D01*
G01X14885Y29532D01*
G01X14876Y29483D01*
G01X14874Y29430D01*
G01X14874Y29105D01*
G01X14914Y29105D01*
G01X14925Y29209D01*
G01X14998Y29211D01*
G01X15147Y29212D01*
G01X15342Y29212D01*
G01X15420Y29211D01*
G01X15496Y29211D01*
G01X15570Y29209D01*
G01X15580Y29105D01*
G01X15621Y29105D01*
G01X15621Y29410D01*
G01X15617Y29464D01*
G01X15609Y29515D01*
G01X15596Y29563D01*
G01X15577Y29607D01*
G01X15552Y29647D01*
G01X15523Y29683D01*
G01X15489Y29715D01*
G01X15450Y29741D01*
G01X15406Y29763D01*
G01X15358Y29778D01*
G01X15305Y29788D01*
G37*

%LPC*%
G36*
G01X15320Y29672D02*
G01X15247Y29677D01*
G01X15172Y29672D01*
G01X15106Y29659D01*
G01X15050Y29638D01*
G01X15003Y29608D01*
G01X14967Y29570D01*
G01X14941Y29525D01*
G01X14925Y29472D01*
G01X14919Y29413D01*
G01X14919Y29316D01*
G01X14993Y29315D01*
G01X15068Y29314D01*
G01X15421Y29314D01*
G01X15499Y29315D01*
G01X15575Y29316D01*
G01X15575Y29402D01*
G01X15569Y29465D01*
G01X15552Y29520D01*
G01X15526Y29568D01*
G01X15488Y29606D01*
G01X15441Y29637D01*
G01X15385Y29659D01*
G01X15320Y29672D01*
G37*

%LPD*%
G36*
G01X15582Y30512D02*
G01X15417Y30512D01*
G01X15417Y30451D01*
G01X15560Y30426D01*
G01X15572Y30394D01*
G01X15581Y30362D01*
G01X15586Y30329D01*
G01X15587Y30297D01*
G01X15582Y30239D01*
G01X15565Y30187D01*
G01X15538Y30140D01*
G01X15500Y30100D01*
G01X15452Y30068D01*
G01X15393Y30045D01*
G01X15325Y30030D01*
G01X15247Y30025D01*
G01X15169Y30030D01*
G01X15101Y30046D01*
G01X15042Y30071D01*
G01X14994Y30105D01*
G01X14956Y30146D01*
G01X14929Y30193D01*
G01X14912Y30245D01*
G01X14907Y30302D01*
G01X14908Y30330D01*
G01X14913Y30358D01*
G01X14921Y30386D01*
G01X14935Y30416D01*
G01X15077Y30441D01*
G01X15077Y30502D01*
G01X14912Y30502D01*
G01X14885Y30447D01*
G01X14869Y30392D01*
G01X14861Y30339D01*
G01X14859Y30289D01*
G01X14862Y30236D01*
G01X14871Y30185D01*
G01X14887Y30138D01*
G01X14908Y30094D01*
G01X14935Y30054D01*
G01X14967Y30018D01*
G01X15004Y29987D01*
G01X15045Y29960D01*
G01X15090Y29939D01*
G01X15139Y29923D01*
G01X15191Y29914D01*
G01X15247Y29910D01*
G01X15304Y29913D01*
G01X15356Y29923D01*
G01X15405Y29938D01*
G01X15451Y29959D01*
G01X15491Y29985D01*
G01X15528Y30016D01*
G01X15560Y30052D01*
G01X15586Y30091D01*
G01X15607Y30135D01*
G01X15623Y30183D01*
G01X15633Y30235D01*
G01X15636Y30289D01*
G01X15633Y30347D01*
G01X15624Y30404D01*
G01X15607Y30459D01*
G01X15582Y30512D01*
G37*

%LPD*%
G36*
G01X15372Y30863D02*
G01X15308Y30863D01*
G01X15308Y30604D01*
G01X15372Y30604D01*
G01X15372Y30863D01*
G37*

%LPD*%
G36*
G01X15472Y31429D02*
G01X15425Y31434D01*
G01X15354Y31424D01*
G01X15295Y31389D01*
G01X15244Y31326D01*
G01X15199Y31231D01*
G01X15181Y31188D01*
G01X15156Y31134D01*
G01X15124Y31094D01*
G01X15085Y31070D01*
G01X15036Y31061D01*
G01X14979Y31073D01*
G01X14939Y31105D01*
G01X14915Y31155D01*
G01X14907Y31216D01*
G01X14908Y31241D01*
G01X14911Y31265D01*
G01X14918Y31287D01*
G01X14930Y31307D01*
G01X15062Y31335D01*
G01X15062Y31394D01*
G01X14917Y31401D01*
G01X14893Y31362D01*
G01X14874Y31319D01*
G01X14863Y31271D01*
G01X14859Y31219D01*
G01X14862Y31167D01*
G01X14872Y31119D01*
G01X14888Y31077D01*
G01X14911Y31041D01*
G01X14940Y31011D01*
G01X14975Y30988D01*
G01X15016Y30975D01*
G01X15062Y30970D01*
G01X15137Y30983D01*
G01X15197Y31022D01*
G01X15246Y31083D01*
G01X15285Y31163D01*
G01X15300Y31203D01*
G01X15330Y31267D01*
G01X15362Y31310D01*
G01X15401Y31335D01*
G01X15448Y31343D01*
G01X15508Y31331D01*
G01X15552Y31295D01*
G01X15578Y31239D01*
G01X15587Y31165D01*
G01X15586Y31132D01*
G01X15581Y31102D01*
G01X15572Y31075D01*
G01X15560Y31048D01*
G01X15420Y31020D01*
G01X15420Y30965D01*
G01X15577Y30957D01*
G01X15600Y31000D01*
G01X15619Y31052D01*
G01X15631Y31111D01*
G01X15636Y31173D01*
G01X15632Y31229D01*
G01X15622Y31279D01*
G01X15604Y31324D01*
G01X15580Y31362D01*
G01X15550Y31393D01*
G01X15513Y31416D01*
G01X15472Y31429D01*
G37*

%LPD*%
G36*
G01X15621Y32075D02*
G01X15410Y32082D01*
G01X15410Y32024D01*
G01X15572Y31988D01*
G01X15572Y31732D01*
G01X15499Y31730D01*
G01X15427Y31730D01*
G01X15358Y31729D01*
G01X15145Y31729D01*
G01X15071Y31730D01*
G01X14997Y31730D01*
G01X14925Y31732D01*
G01X14914Y31836D01*
G01X14874Y31836D01*
G01X14874Y31523D01*
G01X14914Y31523D01*
G01X14925Y31625D01*
G01X14997Y31626D01*
G01X15071Y31627D01*
G01X15422Y31627D01*
G01X15570Y31625D01*
G01X15580Y31523D01*
G01X15621Y31523D01*
G01X15621Y32075D01*
G37*

%LPD*%
G36*
G01X15372Y32435D02*
G01X15308Y32435D01*
G01X15308Y32176D01*
G01X15372Y32176D01*
G01X15372Y32435D01*
G37*

%LPD*%
G36*
G01X15582Y33144D02*
G01X15417Y33146D01*
G01X15417Y33085D01*
G01X15560Y33057D01*
G01X15572Y33025D01*
G01X15581Y32993D01*
G01X15586Y32961D01*
G01X15587Y32930D01*
G01X15582Y32873D01*
G01X15565Y32821D01*
G01X15538Y32774D01*
G01X15500Y32734D01*
G01X15452Y32702D01*
G01X15393Y32679D01*
G01X15325Y32664D01*
G01X15247Y32659D01*
G01X15169Y32664D01*
G01X15101Y32680D01*
G01X15042Y32705D01*
G01X14994Y32739D01*
G01X14956Y32779D01*
G01X14929Y32826D01*
G01X14912Y32878D01*
G01X14907Y32933D01*
G01X14908Y32961D01*
G01X14913Y32990D01*
G01X14921Y33019D01*
G01X14935Y33047D01*
G01X15077Y33075D01*
G01X15077Y33136D01*
G01X14912Y33134D01*
G01X14885Y33079D01*
G01X14869Y33024D01*
G01X14861Y32971D01*
G01X14859Y32920D01*
G01X14862Y32868D01*
G01X14871Y32818D01*
G01X14887Y32770D01*
G01X14908Y32727D01*
G01X14935Y32687D01*
G01X14967Y32652D01*
G01X15004Y32620D01*
G01X15045Y32594D01*
G01X15090Y32573D01*
G01X15139Y32557D01*
G01X15191Y32548D01*
G01X15247Y32544D01*
G01X15304Y32547D01*
G01X15356Y32557D01*
G01X15405Y32572D01*
G01X15451Y32592D01*
G01X15491Y32618D01*
G01X15528Y32649D01*
G01X15560Y32684D01*
G01X15586Y32724D01*
G01X15607Y32767D01*
G01X15623Y32815D01*
G01X15633Y32866D01*
G01X15636Y32920D01*
G01X15633Y32980D01*
G01X15624Y33037D01*
G01X15607Y33092D01*
G01X15582Y33144D01*
G37*

%LPD*%
G01X22605Y48640D02*
G01X22605Y47548D01*
G01X22605Y48640D02*
G01X23073Y48640D01*
G01X23228Y48587D01*
G01X23281Y48536D01*
G01X23332Y48432D01*
G01X23332Y48277D01*
G01X23281Y48173D01*
G01X23228Y48120D01*
G01X23073Y48069D01*
G01X22605Y48069D01*
G01X23728Y48381D02*
G01X23728Y48432D01*
G01X23779Y48536D01*
G01X23832Y48587D01*
G01X23936Y48640D01*
G01X24142Y48640D01*
G01X24246Y48587D01*
G01X24300Y48536D01*
G01X24350Y48432D01*
G01X24350Y48328D01*
G01X24300Y48224D01*
G01X24196Y48069D01*
G01X23675Y47548D01*
G01X24404Y47548D01*
G01X6984Y48767D02*
G01X6984Y47675D01*
G01X6984Y48767D02*
G01X7452Y48767D01*
G01X7607Y48714D01*
G01X7660Y48663D01*
G01X7711Y48559D01*
G01X7711Y48404D01*
G01X7660Y48300D01*
G01X7607Y48247D01*
G01X7452Y48196D01*
G01X6984Y48196D01*
G01X8158Y48767D02*
G01X8729Y48767D01*
G01X8420Y48351D01*
G01X8574Y48351D01*
G01X8679Y48300D01*
G01X8729Y48247D01*
G01X8783Y48092D01*
G01X8783Y47988D01*
G01X8729Y47833D01*
G01X8625Y47729D01*
G01X8470Y47675D01*
G01X8315Y47675D01*
G01X8158Y47729D01*
G01X8107Y47779D01*
G01X8054Y47884D01*
G01X35687Y49656D02*
G01X35687Y48567D01*
G01X35687Y49656D02*
G01X36154Y49656D01*
G01X36309Y49606D01*
G01X36362Y49552D01*
G01X36413Y49448D01*
G01X36413Y49293D01*
G01X36362Y49189D01*
G01X36309Y49138D01*
G01X36154Y49085D01*
G01X35687Y49085D01*
G01X36756Y49448D02*
G01X36860Y49501D01*
G01X37017Y49656D01*
G01X37017Y48567D01*

%LPD*%
G36*
G01X45841Y40898D02*
G01X45841Y40992D01*
G01X45511Y40802D01*
G01X45485Y40873D01*
G01X45442Y40927D01*
G01X45382Y40962D01*
G01X45303Y40975D01*
G01X45250Y40970D01*
G01X45206Y40956D01*
G01X45171Y40933D01*
G01X45143Y40903D01*
G01X45122Y40864D01*
G01X45108Y40820D01*
G01X45100Y40770D01*
G01X45097Y40716D01*
G01X45097Y40490D01*
G01X45841Y40490D01*
G01X45841Y40573D01*
G01X45521Y40573D01*
G01X45521Y40713D01*
G01X45841Y40898D01*
G37*

%LPC*%
G36*
G01X45368Y40876D02*
G01X45303Y40888D01*
G01X45238Y40876D01*
G01X45196Y40841D01*
G01X45173Y40782D01*
G01X45166Y40703D01*
G01X45166Y40573D01*
G01X45450Y40573D01*
G01X45450Y40703D01*
G01X45442Y40782D01*
G01X45415Y40841D01*
G01X45368Y40876D01*
G37*

%LPD*%
G36*
G01X45738Y41517D02*
G01X45664Y41533D01*
G01X45596Y41523D01*
G01X45542Y41495D01*
G01X45500Y41454D01*
G01X45468Y41406D01*
G01X45463Y41406D01*
G01X45432Y41442D01*
G01X45390Y41475D01*
G01X45340Y41499D01*
G01X45283Y41508D01*
G01X45204Y41494D01*
G01X45142Y41454D01*
G01X45101Y41390D01*
G01X45087Y41305D01*
G01X45101Y41227D01*
G01X45139Y41164D01*
G01X45198Y41122D01*
G01X45275Y41107D01*
G01X45330Y41115D01*
G01X45376Y41136D01*
G01X45415Y41168D01*
G01X45445Y41206D01*
G01X45450Y41206D01*
G01X45483Y41156D01*
G01X45529Y41111D01*
G01X45587Y41080D01*
G01X45656Y41069D01*
G01X45697Y41073D01*
G01X45735Y41086D01*
G01X45769Y41107D01*
G01X45798Y41135D01*
G01X45822Y41170D01*
G01X45839Y41210D01*
G01X45850Y41256D01*
G01X45854Y41305D01*
G01X45839Y41398D01*
G01X45799Y41470D01*
G01X45738Y41517D01*
G37*

%LPC*%
G36*
G01X45714Y41444D02*
G01X45661Y41455D01*
G01X45594Y41438D01*
G01X45545Y41393D01*
G01X45508Y41328D01*
G01X45476Y41252D01*
G01X45510Y41208D01*
G01X45551Y41173D01*
G01X45598Y41150D01*
G01X45651Y41142D01*
G01X45707Y41155D01*
G01X45753Y41190D01*
G01X45782Y41241D01*
G01X45793Y41305D01*
G01X45783Y41366D01*
G01X45756Y41413D01*
G01X45714Y41444D01*
G37*
G36*
G01X45329Y41431D02*
G01X45288Y41437D01*
G01X45234Y41428D01*
G01X45191Y41402D01*
G01X45161Y41361D01*
G01X45151Y41305D01*
G01X45160Y41256D01*
G01X45185Y41218D01*
G01X45224Y41192D01*
G01X45275Y41183D01*
G01X45334Y41198D01*
G01X45379Y41236D01*
G01X45413Y41291D01*
G01X45440Y41356D01*
G01X45406Y41390D01*
G01X45368Y41416D01*
G01X45329Y41431D01*
G37*

%LPD*%
G36*
G01X45590Y41884D02*
G01X45526Y41884D01*
G01X45526Y41627D01*
G01X45590Y41627D01*
G01X45590Y41884D01*
G37*

%LPD*%
G36*
G01X45841Y42420D02*
G01X45773Y42420D01*
G01X45773Y42268D01*
G01X45097Y42268D01*
G01X45097Y42204D01*
G01X45113Y42174D01*
G01X45127Y42139D01*
G01X45139Y42099D01*
G01X45148Y42054D01*
G01X45201Y42054D01*
G01X45201Y42186D01*
G01X45773Y42186D01*
G01X45773Y42019D01*
G01X45841Y42019D01*
G01X45841Y42420D01*
G37*

%LPD*%
G36*
G01X45841Y42991D02*
G01X45770Y42991D01*
G01X45770Y42778D01*
G01X45771Y42750D01*
G01X45773Y42688D01*
G01X45775Y42656D01*
G01X45712Y42722D01*
G01X45651Y42780D01*
G01X45590Y42831D01*
G01X45532Y42875D01*
G01X45473Y42909D01*
G01X45416Y42935D01*
G01X45359Y42951D01*
G01X45303Y42956D01*
G01X45256Y42952D01*
G01X45213Y42941D01*
G01X45175Y42923D01*
G01X45144Y42899D01*
G01X45119Y42868D01*
G01X45100Y42831D01*
G01X45089Y42790D01*
G01X45085Y42743D01*
G01X45092Y42679D01*
G01X45114Y42623D01*
G01X45149Y42573D01*
G01X45194Y42527D01*
G01X45239Y42575D01*
G01X45205Y42609D01*
G01X45177Y42648D01*
G01X45158Y42689D01*
G01X45151Y42735D01*
G01X45162Y42796D01*
G01X45195Y42840D01*
G01X45244Y42866D01*
G01X45305Y42875D01*
G01X45355Y42870D01*
G01X45407Y42855D01*
G01X45461Y42829D01*
G01X45519Y42793D01*
G01X45581Y42745D01*
G01X45646Y42686D01*
G01X45716Y42615D01*
G01X45791Y42532D01*
G01X45841Y42532D01*
G01X45841Y42991D01*
G37*

%LPD*%
G36*
G01X45841Y43593D02*
G01X45841Y43687D01*
G01X45379Y43418D01*
G01X45097Y43652D01*
G01X45097Y43555D01*
G01X45481Y43235D01*
G01X45481Y43233D01*
G01X45097Y43233D01*
G01X45097Y43149D01*
G01X45841Y43149D01*
G01X45841Y43233D01*
G01X45603Y43233D01*
G01X45445Y43365D01*
G01X45841Y43593D01*
G37*

%LPD*%

%LPD*%
G36*
G01X47619Y40898D02*
G01X47619Y40992D01*
G01X47289Y40802D01*
G01X47263Y40873D01*
G01X47220Y40927D01*
G01X47160Y40962D01*
G01X47081Y40975D01*
G01X47028Y40970D01*
G01X46984Y40956D01*
G01X46949Y40933D01*
G01X46921Y40903D01*
G01X46900Y40864D01*
G01X46886Y40820D01*
G01X46878Y40770D01*
G01X46875Y40716D01*
G01X46875Y40490D01*
G01X47619Y40490D01*
G01X47619Y40573D01*
G01X47299Y40573D01*
G01X47299Y40713D01*
G01X47619Y40898D01*
G37*

%LPC*%
G36*
G01X47146Y40876D02*
G01X47081Y40888D01*
G01X47016Y40876D01*
G01X46974Y40841D01*
G01X46951Y40782D01*
G01X46944Y40703D01*
G01X46944Y40573D01*
G01X47228Y40573D01*
G01X47228Y40703D01*
G01X47220Y40782D01*
G01X47193Y40841D01*
G01X47146Y40876D01*
G37*

%LPD*%
G36*
G01X47318Y41518D02*
G01X47213Y41523D01*
G01X47131Y41519D01*
G01X47060Y41505D01*
G01X46999Y41484D01*
G01X46950Y41454D01*
G01X46912Y41419D01*
G01X46884Y41377D01*
G01X46868Y41329D01*
G01X46863Y41277D01*
G01X46867Y41235D01*
G01X46880Y41196D01*
G01X46901Y41161D01*
G01X46929Y41130D01*
G01X46963Y41104D01*
G01X47004Y41085D01*
G01X47050Y41073D01*
G01X47101Y41069D01*
G01X47156Y41072D01*
G01X47203Y41083D01*
G01X47243Y41100D01*
G01X47276Y41124D01*
G01X47302Y41153D01*
G01X47320Y41188D01*
G01X47331Y41228D01*
G01X47335Y41272D01*
G01X47328Y41319D01*
G01X47310Y41365D01*
G01X47280Y41409D01*
G01X47241Y41447D01*
G01X47324Y41441D01*
G01X47393Y41428D01*
G01X47449Y41409D01*
G01X47492Y41385D01*
G01X47525Y41357D01*
G01X47547Y41325D01*
G01X47559Y41291D01*
G01X47564Y41254D01*
G01X47559Y41219D01*
G01X47549Y41185D01*
G01X47531Y41154D01*
G01X47508Y41127D01*
G01X47558Y41081D01*
G01X47588Y41115D01*
G01X47611Y41155D01*
G01X47627Y41202D01*
G01X47632Y41257D01*
G01X47627Y41308D01*
G01X47609Y41357D01*
G01X47580Y41402D01*
G01X47537Y41443D01*
G01X47479Y41476D01*
G01X47407Y41501D01*
G01X47318Y41518D01*
G37*

%LPC*%
G36*
G01X47218Y41405D02*
G01X47172Y41445D01*
G01X47068Y41429D01*
G01X46992Y41396D01*
G01X46944Y41345D01*
G01X46929Y41277D01*
G01X46941Y41226D01*
G01X46977Y41184D01*
G01X47031Y41158D01*
G01X47101Y41147D01*
G01X47172Y41156D01*
G01X47227Y41182D01*
G01X47261Y41225D01*
G01X47274Y41285D01*
G01X47268Y41324D01*
G01X47250Y41365D01*
G01X47218Y41405D01*
G37*

%LPD*%
G36*
G01X47368Y41884D02*
G01X47304Y41884D01*
G01X47304Y41627D01*
G01X47368Y41627D01*
G01X47368Y41884D01*
G37*

%LPD*%
G36*
G01X47619Y42420D02*
G01X47551Y42420D01*
G01X47551Y42268D01*
G01X46875Y42268D01*
G01X46875Y42204D01*
G01X46891Y42174D01*
G01X46905Y42139D01*
G01X46917Y42099D01*
G01X46926Y42054D01*
G01X46979Y42054D01*
G01X46979Y42186D01*
G01X47551Y42186D01*
G01X47551Y42019D01*
G01X47619Y42019D01*
G01X47619Y42420D01*
G37*

%LPD*%
G36*
G01X47619Y42991D02*
G01X47548Y42991D01*
G01X47548Y42778D01*
G01X47549Y42750D01*
G01X47550Y42719D01*
G01X47551Y42687D01*
G01X47553Y42656D01*
G01X47490Y42722D01*
G01X47429Y42780D01*
G01X47368Y42831D01*
G01X47310Y42875D01*
G01X47251Y42909D01*
G01X47194Y42935D01*
G01X47137Y42950D01*
G01X47081Y42956D01*
G01X47034Y42952D01*
G01X46991Y42941D01*
G01X46953Y42923D01*
G01X46922Y42899D01*
G01X46897Y42868D01*
G01X46878Y42831D01*
G01X46867Y42790D01*
G01X46863Y42743D01*
G01X46870Y42679D01*
G01X46892Y42623D01*
G01X46927Y42573D01*
G01X46972Y42527D01*
G01X47017Y42575D01*
G01X46983Y42609D01*
G01X46955Y42648D01*
G01X46936Y42689D01*
G01X46929Y42735D01*
G01X46940Y42796D01*
G01X46973Y42840D01*
G01X47022Y42866D01*
G01X47083Y42875D01*
G01X47133Y42870D01*
G01X47185Y42855D01*
G01X47239Y42829D01*
G01X47297Y42793D01*
G01X47359Y42745D01*
G01X47424Y42686D01*
G01X47494Y42615D01*
G01X47569Y42532D01*
G01X47619Y42532D01*
G01X47619Y42991D01*
G37*

%LPD*%
G36*
G01X47619Y43593D02*
G01X47619Y43687D01*
G01X47157Y43418D01*
G01X46875Y43652D01*
G01X46875Y43555D01*
G01X47259Y43235D01*
G01X47259Y43233D01*
G01X46875Y43233D01*
G01X46875Y43149D01*
G01X47619Y43149D01*
G01X47619Y43233D01*
G01X47381Y43233D01*
G01X47223Y43365D01*
G01X47619Y43593D01*
G37*

%LPD*%
G01X41927Y36136D02*
G01X41874Y36240D01*
G01X41770Y36344D01*
G01X41668Y36395D01*
G01X41460Y36395D01*
G01X41356Y36344D01*
G01X41252Y36240D01*
G01X41198Y36136D01*
G01X41147Y35981D01*
G01X41147Y35722D01*
G01X41198Y35565D01*
G01X41252Y35460D01*
G01X41356Y35356D01*
G01X41460Y35305D01*
G01X41668Y35305D01*
G01X41770Y35356D01*
G01X41874Y35460D01*
G01X41927Y35565D01*
G01X42374Y36395D02*
G01X42946Y36395D01*
G01X42633Y35981D01*
G01X42788Y35981D01*
G01X42892Y35928D01*
G01X42946Y35877D01*
G01X42997Y35722D01*
G01X42997Y35618D01*
G01X42946Y35460D01*
G01X42842Y35356D01*
G01X42684Y35305D01*
G01X42529Y35305D01*
G01X42374Y35356D01*
G01X42321Y35410D01*
G01X42270Y35514D01*
G01X43339Y35773D02*
G01X44274Y35773D01*
G01X44617Y36189D02*
G01X44721Y36240D01*
G01X44879Y36395D01*
G01X44879Y35305D01*
G01X45531Y36395D02*
G01X45377Y36344D01*
G01X45272Y36189D01*
G01X45222Y35928D01*
G01X45222Y35773D01*
G01X45272Y35514D01*
G01X45377Y35356D01*
G01X45531Y35305D01*
G01X45636Y35305D01*
G01X45793Y35356D01*
G01X45897Y35514D01*
G01X45948Y35773D01*
G01X45948Y35928D01*
G01X45897Y36189D01*
G01X45793Y36344D01*
G01X45636Y36395D01*
G01X45531Y36395D01*
G01X46603Y36395D02*
G01X46446Y36344D01*
G01X46342Y36189D01*
G01X46291Y35928D01*
G01X46291Y35773D01*
G01X46342Y35514D01*
G01X46446Y35356D01*
G01X46603Y35305D01*
G01X46707Y35305D01*
G01X46862Y35356D01*
G01X46967Y35514D01*
G01X47017Y35773D01*
G01X47017Y35928D01*
G01X46967Y36189D01*
G01X46862Y36344D01*
G01X46707Y36395D01*
G01X46603Y36395D01*
G01X47360Y36395D02*
G01X47360Y35305D01*
G01X47360Y36395D02*
G01X48036Y36395D01*
G01X47360Y35877D02*
G01X47777Y35877D01*
G01X41927Y39057D02*
G01X41874Y39161D01*
G01X41770Y39265D01*
G01X41668Y39316D01*
G01X41460Y39316D01*
G01X41356Y39265D01*
G01X41252Y39161D01*
G01X41198Y39057D01*
G01X41147Y38902D01*
G01X41147Y38643D01*
G01X41198Y38486D01*
G01X41252Y38381D01*
G01X41356Y38277D01*
G01X41460Y38226D01*
G01X41668Y38226D01*
G01X41770Y38277D01*
G01X41874Y38381D01*
G01X41927Y38486D01*
G01X42788Y39316D02*
G01X42270Y38590D01*
G01X43050Y38590D01*
G01X42788Y39316D02*
G01X42788Y38226D01*
G01X43393Y38694D02*
G01X44328Y38694D01*
G01X44670Y39110D02*
G01X44775Y39161D01*
G01X44929Y39316D01*
G01X44929Y38226D01*
G01X45585Y39316D02*
G01X45427Y39265D01*
G01X45326Y39110D01*
G01X45272Y38849D01*
G01X45272Y38694D01*
G01X45326Y38435D01*
G01X45427Y38277D01*
G01X45585Y38226D01*
G01X45689Y38226D01*
G01X45844Y38277D01*
G01X45948Y38435D01*
G01X45999Y38694D01*
G01X45999Y38849D01*
G01X45948Y39110D01*
G01X45844Y39265D01*
G01X45689Y39316D01*
G01X45585Y39316D01*
G01X46654Y39316D02*
G01X46499Y39265D01*
G01X46395Y39110D01*
G01X46342Y38849D01*
G01X46342Y38694D01*
G01X46395Y38435D01*
G01X46499Y38277D01*
G01X46654Y38226D01*
G01X46758Y38226D01*
G01X46913Y38277D01*
G01X47017Y38435D01*
G01X47071Y38694D01*
G01X47071Y38849D01*
G01X47017Y39110D01*
G01X46913Y39265D01*
G01X46758Y39316D01*
G01X46654Y39316D01*
G01X47414Y39316D02*
G01X47414Y38226D01*
G01X47414Y39316D02*
G01X48089Y39316D01*
G01X47414Y38798D02*
G01X47828Y38798D01*

%LPD*%
G36*
G01X47440Y45459D02*
G01X47376Y45465D01*
G01X47284Y45451D01*
G01X47211Y45411D01*
G01X47164Y45350D01*
G01X47147Y45272D01*
G01X47161Y45201D01*
G01X47196Y45147D01*
G01X47245Y45109D01*
G01X47297Y45082D01*
G01X47406Y45034D01*
G01X47456Y45011D01*
G01X47496Y44984D01*
G01X47523Y44948D01*
G01X47533Y44896D01*
G01X47521Y44845D01*
G01X47488Y44804D01*
G01X47437Y44779D01*
G01X47368Y44769D01*
G01X47310Y44776D01*
G01X47254Y44794D01*
G01X47203Y44824D01*
G01X47160Y44863D01*
G01X47109Y44805D01*
G01X47161Y44760D01*
G01X47222Y44726D01*
G01X47291Y44703D01*
G01X47368Y44696D01*
G01X47422Y44700D01*
G01X47471Y44712D01*
G01X47514Y44731D01*
G01X47549Y44756D01*
G01X47578Y44787D01*
G01X47600Y44822D01*
G01X47612Y44861D01*
G01X47617Y44904D01*
G01X47605Y44976D01*
G01X47572Y45030D01*
G01X47522Y45071D01*
G01X47462Y45102D01*
G01X47355Y45148D01*
G01X47312Y45168D01*
G01X47272Y45194D01*
G01X47242Y45229D01*
G01X47231Y45277D01*
G01X47241Y45325D01*
G01X47271Y45361D01*
G01X47317Y45384D01*
G01X47376Y45392D01*
G01X47426Y45387D01*
G01X47472Y45372D01*
G01X47512Y45350D01*
G01X47548Y45321D01*
G01X47591Y45374D01*
G01X47549Y45411D01*
G01X47498Y45439D01*
G01X47440Y45459D01*
G37*

%LPD*%
G36*
G01X46541Y45448D02*
G01X46456Y45463D01*
G01X46376Y45449D01*
G01X46313Y45411D01*
G01X46271Y45352D01*
G01X46255Y45275D01*
G01X46264Y45220D01*
G01X46286Y45174D01*
G01X46318Y45135D01*
G01X46357Y45105D01*
G01X46357Y45100D01*
G01X46306Y45067D01*
G01X46262Y45020D01*
G01X46230Y44963D01*
G01X46217Y44894D01*
G01X46235Y44815D01*
G01X46285Y44752D01*
G01X46360Y44711D01*
G01X46454Y44696D01*
G01X46548Y44711D01*
G01X46621Y44751D01*
G01X46668Y44812D01*
G01X46685Y44886D01*
G01X46674Y44954D01*
G01X46646Y45008D01*
G01X46605Y45049D01*
G01X46558Y45082D01*
G01X46558Y45087D01*
G01X46592Y45118D01*
G01X46625Y45160D01*
G01X46650Y45210D01*
G01X46659Y45267D01*
G01X46646Y45346D01*
G01X46605Y45408D01*
G01X46541Y45448D01*
G37*

%LPC*%
G36*
G01X46478Y45042D02*
G01X46400Y45074D01*
G01X46358Y45040D01*
G01X46324Y44999D01*
G01X46302Y44952D01*
G01X46294Y44899D01*
G01X46306Y44843D01*
G01X46340Y44797D01*
G01X46391Y44767D01*
G01X46456Y44757D01*
G01X46517Y44767D01*
G01X46563Y44794D01*
G01X46593Y44836D01*
G01X46603Y44889D01*
G01X46587Y44956D01*
G01X46543Y45004D01*
G01X46478Y45042D01*
G37*
G36*
G01X46509Y45389D02*
G01X46454Y45399D01*
G01X46405Y45390D01*
G01X46367Y45365D01*
G01X46341Y45325D01*
G01X46332Y45275D01*
G01X46346Y45215D01*
G01X46384Y45170D01*
G01X46440Y45137D01*
G01X46504Y45110D01*
G01X46539Y45144D01*
G01X46565Y45181D01*
G01X46581Y45221D01*
G01X46586Y45262D01*
G01X46576Y45316D01*
G01X46551Y45359D01*
G01X46509Y45389D01*
G37*

%LPD*%
G36*
G01X46083Y45453D02*
G01X45727Y45453D01*
G01X45704Y45107D01*
G01X45750Y45079D01*
G01X45779Y45098D01*
G01X45808Y45111D01*
G01X45839Y45119D01*
G01X45874Y45122D01*
G01X45940Y45110D01*
G01X45991Y45076D01*
G01X46023Y45021D01*
G01X46034Y44947D01*
G01X46022Y44872D01*
G01X45987Y44814D01*
G01X45935Y44777D01*
G01X45872Y44764D01*
G01X45811Y44771D01*
G01X45761Y44790D01*
G01X45719Y44817D01*
G01X45684Y44848D01*
G01X45643Y44795D01*
G01X45685Y44758D01*
G01X45736Y44726D01*
G01X45799Y44704D01*
G01X45877Y44696D01*
G01X45923Y44700D01*
G01X45967Y44713D01*
G01X46008Y44733D01*
G01X46044Y44762D01*
G01X46075Y44798D01*
G01X46098Y44842D01*
G01X46113Y44892D01*
G01X46118Y44950D01*
G01X46114Y45007D01*
G01X46101Y45056D01*
G01X46080Y45097D01*
G01X46053Y45130D01*
G01X46020Y45155D01*
G01X45982Y45172D01*
G01X45940Y45182D01*
G01X45895Y45186D01*
G01X45862Y45184D01*
G01X45833Y45178D01*
G01X45806Y45169D01*
G01X45780Y45156D01*
G01X45801Y45382D01*
G01X46083Y45382D01*
G01X46083Y45453D01*
G37*

%LPD*%
G36*
G01X45405Y45453D02*
G01X45321Y45465D01*
G01X45260Y45459D01*
G01X45206Y45441D01*
G01X45159Y45413D01*
G01X45115Y45379D01*
G01X45161Y45323D01*
G01X45194Y45353D01*
G01X45232Y45378D01*
G01X45273Y45394D01*
G01X45318Y45399D01*
G01X45372Y45390D01*
G01X45413Y45365D01*
G01X45439Y45325D01*
G01X45448Y45275D01*
G01X45437Y45216D01*
G01X45401Y45170D01*
G01X45336Y45139D01*
G01X45237Y45128D01*
G01X45237Y45064D01*
G01X45347Y45053D01*
G01X45420Y45021D01*
G01X45460Y44972D01*
G01X45473Y44909D01*
G01X45462Y44849D01*
G01X45430Y44803D01*
G01X45381Y44775D01*
G01X45318Y44764D01*
G01X45257Y44771D01*
G01X45207Y44790D01*
G01X45165Y44818D01*
G01X45130Y44851D01*
G01X45087Y44797D01*
G01X45128Y44759D01*
G01X45179Y44727D01*
G01X45244Y44704D01*
G01X45323Y44696D01*
G01X45371Y44699D01*
G01X45414Y44710D01*
G01X45454Y44728D01*
G01X45489Y44752D01*
G01X45517Y44782D01*
G01X45539Y44818D01*
G01X45552Y44860D01*
G01X45557Y44907D01*
G01X45544Y44976D01*
G01X45511Y45032D01*
G01X45460Y45073D01*
G01X45399Y45097D01*
G01X45399Y45100D01*
G01X45453Y45128D01*
G01X45495Y45167D01*
G01X45522Y45219D01*
G01X45532Y45283D01*
G01X45516Y45360D01*
G01X45472Y45418D01*
G01X45405Y45453D01*
G37*

%LPD*%
G36*
G01X43137Y45453D02*
G01X43053Y45465D01*
G01X42992Y45459D01*
G01X42938Y45441D01*
G01X42890Y45413D01*
G01X42847Y45379D01*
G01X42892Y45323D01*
G01X42927Y45353D01*
G01X42965Y45378D01*
G01X43006Y45394D01*
G01X43050Y45399D01*
G01X43103Y45390D01*
G01X43144Y45365D01*
G01X43170Y45325D01*
G01X43180Y45275D01*
G01X43169Y45216D01*
G01X43133Y45170D01*
G01X43069Y45139D01*
G01X42971Y45128D01*
G01X42971Y45064D01*
G01X43080Y45053D01*
G01X43153Y45021D01*
G01X43193Y44972D01*
G01X43205Y44909D01*
G01X43194Y44849D01*
G01X43162Y44803D01*
G01X43112Y44775D01*
G01X43050Y44764D01*
G01X42989Y44771D01*
G01X42939Y44790D01*
G01X42897Y44818D01*
G01X42862Y44851D01*
G01X42819Y44797D01*
G01X42860Y44759D01*
G01X42912Y44727D01*
G01X42977Y44704D01*
G01X43055Y44696D01*
G01X43102Y44699D01*
G01X43146Y44710D01*
G01X43186Y44728D01*
G01X43221Y44752D01*
G01X43249Y44782D01*
G01X43270Y44818D01*
G01X43284Y44860D01*
G01X43289Y44907D01*
G01X43276Y44976D01*
G01X43242Y45032D01*
G01X43192Y45073D01*
G01X43131Y45097D01*
G01X43131Y45100D01*
G01X43185Y45128D01*
G01X43227Y45167D01*
G01X43254Y45219D01*
G01X43263Y45283D01*
G01X43248Y45360D01*
G01X43203Y45418D01*
G01X43137Y45453D01*
G37*

%LPD*%
G36*
G01X42247Y45453D02*
G01X42164Y45453D01*
G01X42164Y45011D01*
G01X42169Y44929D01*
G01X42184Y44862D01*
G01X42208Y44807D01*
G01X42240Y44765D01*
G01X42279Y44733D01*
G01X42323Y44712D01*
G01X42372Y44700D01*
G01X42425Y44696D01*
G01X42479Y44700D01*
G01X42528Y44712D01*
G01X42573Y44733D01*
G01X42613Y44765D01*
G01X42645Y44807D01*
G01X42668Y44862D01*
G01X42684Y44929D01*
G01X42689Y45011D01*
G01X42689Y45453D01*
G01X42608Y45453D01*
G01X42608Y45008D01*
G01X42604Y44945D01*
G01X42594Y44894D01*
G01X42577Y44852D01*
G01X42555Y44820D01*
G01X42528Y44797D01*
G01X42497Y44781D01*
G01X42462Y44772D01*
G01X42425Y44769D01*
G01X42356Y44781D01*
G01X42299Y44820D01*
G01X42261Y44894D01*
G01X42247Y45008D01*
G01X42247Y45453D01*
G37*

%LPD*%
G36*
G01X47993Y45453D02*
G01X47767Y45453D01*
G01X47767Y44708D01*
G01X47851Y44708D01*
G01X47851Y45029D01*
G01X47990Y45029D01*
G01X48176Y44708D01*
G01X48270Y44708D01*
G01X48077Y45039D01*
G01X48149Y45065D01*
G01X48203Y45108D01*
G01X48237Y45168D01*
G01X48249Y45247D01*
G01X48245Y45300D01*
G01X48231Y45343D01*
G01X48208Y45379D01*
G01X48178Y45407D01*
G01X48141Y45428D01*
G01X48097Y45442D01*
G01X48048Y45450D01*
G01X47993Y45453D01*
G37*

%LPC*%
G36*
G01X47980Y45384D02*
G01X47851Y45384D01*
G01X47851Y45100D01*
G01X47980Y45100D01*
G01X48059Y45108D01*
G01X48118Y45135D01*
G01X48153Y45181D01*
G01X48166Y45247D01*
G01X48153Y45311D01*
G01X48118Y45354D01*
G01X48059Y45377D01*
G01X47980Y45384D01*
G37*

%LPD*%
G36*
G01X44447Y45453D02*
G01X44343Y45453D01*
G01X44343Y44708D01*
G01X44419Y44708D01*
G01X44419Y45138D01*
G01X44418Y45189D01*
G01X44416Y45245D01*
G01X44412Y45301D01*
G01X44409Y45354D01*
G01X44414Y45354D01*
G01X44472Y45186D01*
G01X44620Y44785D01*
G01X44678Y44785D01*
G01X44823Y45186D01*
G01X44881Y45354D01*
G01X44886Y45354D01*
G01X44883Y45301D01*
G01X44879Y45245D01*
G01X44877Y45189D01*
G01X44876Y45138D01*
G01X44876Y44708D01*
G01X44952Y44708D01*
G01X44952Y45453D01*
G01X44851Y45453D01*
G01X44704Y45046D01*
G01X44692Y45006D01*
G01X44653Y44886D01*
G01X44648Y44886D01*
G01X44634Y44926D01*
G01X44621Y44966D01*
G01X44594Y45046D01*
G01X44447Y45453D01*
G37*

%LPD*%
G36*
G01X43883Y45453D02*
G01X43799Y45453D01*
G01X43799Y44708D01*
G01X44211Y44708D01*
G01X44211Y44780D01*
G01X43883Y44780D01*
G01X43883Y45453D01*
G37*

%LPD*%
G36*
G01X47035Y45023D02*
G01X46776Y45023D01*
G01X46776Y44960D01*
G01X47035Y44960D01*
G01X47035Y45023D01*
G37*

%LPD*%
G36*
G01X43652Y45023D02*
G01X43393Y45023D01*
G01X43393Y44960D01*
G01X43652Y44960D01*
G01X43652Y45023D01*
G37*

%LPD*%
G54D10*
G75*
G01X45784Y45677D02*
G02X47054Y45677I635J0D01*
G01*
G75*
G01X48768Y45448D02*
G03X48768Y45448I-190J0D01*
G01*
M00*
M02*
