;Layer: Drill PTH
;EasyEDA v5.9.42, Tue, 02 Apr 2019 20:51:07 GMT
;166f39b61798459ea13d042530858995
;Gerber Generator version 0.2
M48
METRIC,LZ,000.000
;Holesize 1 = 0.305 METRIC
T01C0.305
;Holesize 2 = 1.101 METRIC
T02C1.101
;Holesize 3 = 1.200 METRIC
T03C1.200
;Holesize 4 = 1.270 METRIC
T04C1.270
;Holesize 5 = 1.301 METRIC
T05C1.301
;Holesize 6 = 1.524 METRIC
T06C1.524
%
G05
G90
T01
X+044082Y+046197
X+040132Y+033781
X+033843Y+025709
X+025527Y+026034
X+022860Y+026034
X+019939Y+009397
X+017272Y+017017
X+017272Y+014096
X+048387Y+009524
X+040513Y+001015
X+034800Y+000887
X+025146Y+017144
X+005082Y+009396
X+034036Y+004825
X+035308Y+004824
X+023495Y+030860
X+024765Y+030860
X+026797Y+038607
X+044095Y+049981
X+049657Y+029336
X+048659Y+048719
X+046736Y+029971
X+039245Y+005713
X+042037Y+009524
X+036578Y+009904
X+040515Y+010793
X+042039Y+010920
X+038356Y+010793
X+010035Y+021207
X+006860Y+021207
X+025400Y+029209
X+021717Y+022605
X+044069Y+024129
X+042545Y+024129
X+038354Y+009905
X+047879Y+032257
X+048679Y+046193
X+046736Y+037464
X+047119Y+043178
X+044108Y+048732
X+045085Y+040385
X+042164Y+041909
X+044119Y+047446
X+042164Y+033781
X+040259Y+042290
X+042164Y+036702
X+040769Y+032383
X+040386Y+038353
X+039624Y+042925
X+042293Y+030986
X+047754Y+026795
X+039626Y+028065
X+041277Y+028065
X+049659Y+026668
T02
X+038862Y+001650
X+038862Y+004190
X+041402Y+001650
X+041402Y+004190
X+043942Y+001650
X+043942Y+004190
X+046482Y+001650
X+046482Y+004190
T03
X+034170Y+045636G85X+034272Y+045636
X+039184Y+045625G85X+039283Y+045625
T04
X+002952Y+002713
X+002952Y+018113
X+032353Y+007915
X+032353Y+012914
T05
X+018415Y+045973
X+023495Y+045973
X+028575Y+045973
X+002794Y+045973
X+007874Y+045973
X+012954Y+045973
T06
X+018003Y+023506
X+024003Y+037707
X+030002Y+035708
X+018003Y+035708
X+030002Y+023506
X+002001Y+023506
X+008001Y+037707
X+014000Y+035708
X+002001Y+035708
X+014000Y+023506
M30
