G04 Layer: BottomSilkLayer*
G04 EasyEDA v5.9.42, Tue, 02 Apr 2019 20:51:07 GMT*
G04 166f39b61798459ea13d042530858995*
G04 Gerber Generator version 0.2*
G04 Scale: 100 percent, Rotated: No, Reflected: No *
G04 Dimensions in millimeters *
G04 leading zeros omitted , absolute positions ,3 integer and 3 decimal *
%FSLAX33Y33*%
%MOMM*%
G90*
G71D02*

%ADD10C,0.254000*%
%ADD37C,0.199898*%
%ADD38C,0.200000*%
%ADD39C,0.127000*%
%ADD40C,0.203200*%
%ADD41C,0.152400*%
%ADD42C,0.119990*%
%ADD43C,0.399999*%
%ADD44C,0.700001*%
%ADD45C,0.249999*%

%LPD*%

%LPD*%
G36*
G01X34925Y41923D02*
G01X34867Y41925D01*
G01X34802Y41923D01*
G01X34731Y41917D01*
G01X34655Y41908D01*
G01X34576Y41896D01*
G01X34494Y41881D01*
G01X34411Y41864D01*
G01X34328Y41843D01*
G01X34245Y41820D01*
G01X34165Y41796D01*
G01X34110Y41776D01*
G01X34054Y41754D01*
G01X34000Y41731D01*
G01X33946Y41705D01*
G01X33892Y41678D01*
G01X33839Y41648D01*
G01X33788Y41618D01*
G01X33736Y41585D01*
G01X33686Y41551D01*
G01X33637Y41515D01*
G01X33588Y41478D01*
G01X33494Y41400D01*
G01X33449Y41358D01*
G01X33405Y41316D01*
G01X33362Y41272D01*
G01X33321Y41227D01*
G01X33281Y41181D01*
G01X33243Y41134D01*
G01X33205Y41085D01*
G01X33169Y41037D01*
G01X33136Y40986D01*
G01X33103Y40936D01*
G01X33073Y40884D01*
G01X33044Y40831D01*
G01X33017Y40779D01*
G01X32992Y40725D01*
G01X32969Y40670D01*
G01X32942Y40602D01*
G01X32918Y40535D01*
G01X32896Y40468D01*
G01X32877Y40401D01*
G01X32860Y40335D01*
G01X32845Y40270D01*
G01X32833Y40204D01*
G01X32823Y40139D01*
G01X32816Y40074D01*
G01X32811Y40009D01*
G01X32808Y39945D01*
G01X32808Y39881D01*
G01X32809Y39817D01*
G01X32814Y39754D01*
G01X32820Y39691D01*
G01X32830Y39627D01*
G01X32844Y39543D01*
G01X32859Y39464D01*
G01X32876Y39391D01*
G01X32894Y39321D01*
G01X32914Y39255D01*
G01X32936Y39192D01*
G01X32961Y39129D01*
G01X32989Y39068D01*
G01X33020Y39006D01*
G01X33054Y38943D01*
G01X33093Y38878D01*
G01X33135Y38810D01*
G01X33167Y38764D01*
G01X33208Y38712D01*
G01X33256Y38656D01*
G01X33311Y38597D01*
G01X33368Y38537D01*
G01X33428Y38478D01*
G01X33489Y38420D01*
G01X33550Y38367D01*
G01X33607Y38318D01*
G01X33661Y38276D01*
G01X33708Y38242D01*
G01X33748Y38218D01*
G01X33792Y38195D01*
G01X33833Y38174D01*
G01X33868Y38155D01*
G01X33891Y38142D01*
G01X33926Y38123D01*
G01X33967Y38104D01*
G01X34013Y38085D01*
G01X34062Y38065D01*
G01X34115Y38047D01*
G01X34171Y38028D01*
G01X34229Y38011D01*
G01X34288Y37994D01*
G01X34348Y37979D01*
G01X34408Y37965D01*
G01X34468Y37953D01*
G01X34526Y37942D01*
G01X34580Y37934D01*
G01X34641Y37929D01*
G01X34707Y37926D01*
G01X34776Y37925D01*
G01X34848Y37925D01*
G01X34920Y37928D01*
G01X34992Y37932D01*
G01X35061Y37937D01*
G01X35127Y37945D01*
G01X35188Y37954D01*
G01X35242Y37964D01*
G01X35288Y37976D01*
G01X35334Y37990D01*
G01X35375Y38002D01*
G01X35407Y38012D01*
G01X35425Y38017D01*
G01X35461Y38029D01*
G01X35487Y38038D01*
G01X35513Y38048D01*
G01X35543Y38058D01*
G01X35579Y38068D01*
G01X35616Y38078D01*
G01X35650Y38085D01*
G01X35684Y38095D01*
G01X35721Y38112D01*
G01X35756Y38134D01*
G01X35785Y38157D01*
G01X35810Y38180D01*
G01X35837Y38198D01*
G01X35861Y38211D01*
G01X35880Y38215D01*
G01X35892Y38220D01*
G01X35915Y38236D01*
G01X35945Y38260D01*
G01X35983Y38293D01*
G01X36027Y38332D01*
G01X36076Y38377D01*
G01X36127Y38427D01*
G01X36182Y38479D01*
G01X36258Y38556D01*
G01X36322Y38622D01*
G01X36375Y38681D01*
G01X36421Y38736D01*
G01X36460Y38789D01*
G01X36496Y38843D01*
G01X36531Y38901D01*
G01X36566Y38966D01*
G01X36593Y39020D01*
G01X36619Y39073D01*
G01X36643Y39125D01*
G01X36665Y39176D01*
G01X36685Y39228D01*
G01X36704Y39278D01*
G01X36721Y39329D01*
G01X36736Y39380D01*
G01X36749Y39431D01*
G01X36761Y39483D01*
G01X36772Y39536D01*
G01X36780Y39589D01*
G01X36788Y39644D01*
G01X36794Y39700D01*
G01X36800Y39757D01*
G01X36803Y39816D01*
G01X36806Y39892D01*
G01X36807Y39965D01*
G01X36806Y40034D01*
G01X36803Y40101D01*
G01X36796Y40166D01*
G01X36788Y40230D01*
G01X36777Y40293D01*
G01X36762Y40357D01*
G01X36746Y40422D01*
G01X36726Y40488D01*
G01X36703Y40557D01*
G01X36677Y40627D01*
G01X36654Y40685D01*
G01X36628Y40743D01*
G01X36601Y40799D01*
G01X36572Y40854D01*
G01X36542Y40909D01*
G01X36509Y40962D01*
G01X36475Y41015D01*
G01X36439Y41067D01*
G01X36402Y41117D01*
G01X36364Y41166D01*
G01X36323Y41214D01*
G01X36281Y41260D01*
G01X36238Y41306D01*
G01X36194Y41350D01*
G01X36148Y41392D01*
G01X36102Y41433D01*
G01X36054Y41473D01*
G01X36005Y41511D01*
G01X35954Y41548D01*
G01X35903Y41583D01*
G01X35851Y41616D01*
G01X35798Y41648D01*
G01X35690Y41706D01*
G01X35635Y41732D01*
G01X35579Y41756D01*
G01X35522Y41778D01*
G01X35465Y41799D01*
G01X35407Y41817D01*
G01X35349Y41833D01*
G01X35291Y41847D01*
G01X35232Y41859D01*
G01X35166Y41872D01*
G01X35103Y41886D01*
G01X35050Y41898D01*
G01X35014Y41908D01*
G01X34974Y41918D01*
G01X34925Y41923D01*
G37*

%LPC*%
G36*
G01X34813Y41166D02*
G01X34786Y41166D01*
G01X34761Y41160D01*
G01X34736Y41150D01*
G01X34710Y41136D01*
G01X34684Y41118D01*
G01X34655Y41097D01*
G01X34624Y41071D01*
G01X34589Y41043D01*
G01X34503Y40975D01*
G01X34448Y40940D01*
G01X34406Y40933D01*
G01X34360Y40945D01*
G01X34276Y40967D01*
G01X34207Y40967D01*
G01X34146Y40945D01*
G01X34088Y40899D01*
G01X34050Y40857D01*
G01X34028Y40816D01*
G01X34018Y40764D01*
G01X34016Y40691D01*
G01X34016Y40555D01*
G01X33803Y40379D01*
G01X33733Y40319D01*
G01X33677Y40267D01*
G01X33633Y40221D01*
G01X33601Y40180D01*
G01X33580Y40144D01*
G01X33569Y40110D01*
G01X33568Y40079D01*
G01X33575Y40048D01*
G01X33602Y40016D01*
G01X33651Y39989D01*
G01X33714Y39969D01*
G01X33780Y39962D01*
G01X33841Y39962D01*
G01X33841Y39023D01*
G01X33915Y38950D01*
G01X33989Y38878D01*
G01X34838Y38885D01*
G01X34986Y38886D01*
G01X35117Y38887D01*
G01X35230Y38888D01*
G01X35327Y38890D01*
G01X35411Y38891D01*
G01X35480Y38893D01*
G01X35539Y38895D01*
G01X35586Y38898D01*
G01X35624Y38901D01*
G01X35654Y38905D01*
G01X35678Y38910D01*
G01X35697Y38915D01*
G01X35711Y38922D01*
G01X35723Y38929D01*
G01X35733Y38938D01*
G01X35743Y38948D01*
G01X35757Y38963D01*
G01X35769Y38981D01*
G01X35779Y39002D01*
G01X35788Y39029D01*
G01X35794Y39064D01*
G01X35799Y39109D01*
G01X35803Y39166D01*
G01X35806Y39237D01*
G01X35808Y39324D01*
G01X35810Y39428D01*
G01X35811Y39552D01*
G01X35811Y39698D01*
G01X35812Y39962D01*
G01X35900Y39962D01*
G01X35951Y39968D01*
G01X35996Y39984D01*
G01X36032Y40007D01*
G01X36060Y40037D01*
G01X36078Y40072D01*
G01X36083Y40109D01*
G01X36076Y40148D01*
G01X36055Y40185D01*
G01X36046Y40195D01*
G01X36027Y40212D01*
G01X35999Y40238D01*
G01X35963Y40269D01*
G01X35919Y40307D01*
G01X35869Y40351D01*
G01X35812Y40400D01*
G01X35751Y40452D01*
G01X35685Y40509D01*
G01X35614Y40569D01*
G01X35541Y40632D01*
G01X35465Y40696D01*
G01X35372Y40775D01*
G01X35288Y40846D01*
G01X35213Y40909D01*
G01X35145Y40964D01*
G01X35086Y41012D01*
G01X35032Y41053D01*
G01X34985Y41087D01*
G01X34943Y41114D01*
G01X34905Y41136D01*
G01X34872Y41151D01*
G01X34841Y41162D01*
G01X34813Y41166D01*
G37*

%LPD*%
G36*
G01X34840Y41064D02*
G01X34816Y41070D01*
G01X34784Y41057D01*
G01X34730Y41022D01*
G01X34660Y40971D01*
G01X34583Y40909D01*
G01X34476Y40821D01*
G01X34417Y40779D01*
G01X34385Y40774D01*
G01X34365Y40798D01*
G01X34325Y40832D01*
G01X34263Y40848D01*
G01X34197Y40844D01*
G01X34145Y40819D01*
G01X34134Y40796D01*
G01X34124Y40756D01*
G01X34118Y40705D01*
G01X34115Y40648D01*
G01X34115Y40507D01*
G01X33897Y40325D01*
G01X33812Y40252D01*
G01X33743Y40187D01*
G01X33696Y40137D01*
G01X33678Y40110D01*
G01X33685Y40094D01*
G01X33708Y40083D01*
G01X33747Y40076D01*
G01X33803Y40072D01*
G01X33928Y40068D01*
G01X33942Y39542D01*
G01X33945Y39435D01*
G01X33948Y39336D01*
G01X33950Y39246D01*
G01X33953Y39168D01*
G01X33955Y39102D01*
G01X33958Y39052D01*
G01X33959Y39020D01*
G01X33961Y39008D01*
G01X33969Y39008D01*
G01X33993Y39007D01*
G01X34030Y39006D01*
G01X34488Y39006D01*
G01X34594Y39007D01*
G01X34705Y39008D01*
G01X34820Y39008D01*
G01X35675Y39015D01*
G01X35700Y40071D01*
G01X35812Y40065D01*
G01X35874Y40064D01*
G01X35919Y40067D01*
G01X35948Y40075D01*
G01X35961Y40090D01*
G01X35959Y40111D01*
G01X35940Y40141D01*
G01X35906Y40179D01*
G01X35858Y40226D01*
G01X35837Y40244D01*
G01X35811Y40268D01*
G01X35780Y40295D01*
G01X35744Y40326D01*
G01X35704Y40362D01*
G01X35660Y40400D01*
G01X35612Y40440D01*
G01X35562Y40483D01*
G01X35510Y40528D01*
G01X35456Y40573D01*
G01X35346Y40667D01*
G01X35290Y40714D01*
G01X35235Y40760D01*
G01X35181Y40806D01*
G01X35128Y40850D01*
G01X35077Y40891D01*
G01X35029Y40931D01*
G01X34984Y40968D01*
G01X34943Y41002D01*
G01X34907Y41028D01*
G01X34872Y41050D01*
G01X34840Y41064D01*
G37*

%LPC*%
G36*
G01X34866Y39799D02*
G01X34837Y39812D01*
G01X34805Y39808D01*
G01X34762Y39789D01*
G01X34724Y39750D01*
G01X34714Y39700D01*
G01X34732Y39650D01*
G01X34777Y39613D01*
G01X34810Y39601D01*
G01X34837Y39599D01*
G01X34861Y39609D01*
G01X34889Y39630D01*
G01X34923Y39667D01*
G01X34936Y39698D01*
G01X34928Y39731D01*
G01X34898Y39770D01*
G01X34866Y39799D01*
G37*
G36*
G01X34868Y40031D02*
G01X34818Y40033D01*
G01X34768Y40031D01*
G01X34720Y40025D01*
G01X34676Y40014D01*
G01X34636Y39998D01*
G01X34590Y39964D01*
G01X34573Y39933D01*
G01X34586Y39911D01*
G01X34629Y39910D01*
G01X34659Y39914D01*
G01X34703Y39918D01*
G01X34757Y39920D01*
G01X34814Y39921D01*
G01X34871Y39920D01*
G01X34925Y39918D01*
G01X34969Y39914D01*
G01X34999Y39910D01*
G01X35041Y39911D01*
G01X35055Y39932D01*
G01X35040Y39964D01*
G01X34997Y39996D01*
G01X34959Y40013D01*
G01X34915Y40024D01*
G01X34868Y40031D01*
G37*
G36*
G01X34834Y40281D02*
G01X34771Y40281D01*
G01X34710Y40275D01*
G01X34653Y40263D01*
G01X34600Y40246D01*
G01X34508Y40202D01*
G01X34444Y40158D01*
G01X34414Y40119D01*
G01X34423Y40089D01*
G01X34444Y40080D01*
G01X34475Y40082D01*
G01X34519Y40096D01*
G01X34578Y40122D01*
G01X34650Y40151D01*
G01X34725Y40168D01*
G01X34802Y40177D01*
G01X34878Y40175D01*
G01X34951Y40164D01*
G01X35021Y40143D01*
G01X35083Y40114D01*
G01X35136Y40075D01*
G01X35161Y40055D01*
G01X35179Y40048D01*
G01X35194Y40053D01*
G01X35212Y40071D01*
G01X35230Y40107D01*
G01X35217Y40141D01*
G01X35168Y40178D01*
G01X35079Y40223D01*
G01X35022Y40246D01*
G01X34960Y40263D01*
G01X34897Y40275D01*
G01X34834Y40281D01*
G37*
G36*
G01X34922Y40515D02*
G01X34850Y40526D01*
G01X34828Y40525D01*
G01X34787Y40520D01*
G01X34735Y40511D01*
G01X34675Y40501D01*
G01X34618Y40489D01*
G01X34556Y40470D01*
G01X34494Y40447D01*
G01X34434Y40422D01*
G01X34377Y40395D01*
G01X34328Y40367D01*
G01X34288Y40340D01*
G01X34262Y40315D01*
G01X34250Y40298D01*
G01X34247Y40281D01*
G01X34252Y40264D01*
G01X34265Y40246D01*
G01X34283Y40229D01*
G01X34304Y40226D01*
G01X34332Y40240D01*
G01X34375Y40270D01*
G01X34422Y40302D01*
G01X34472Y40330D01*
G01X34525Y40353D01*
G01X34581Y40372D01*
G01X34637Y40386D01*
G01X34696Y40397D01*
G01X34755Y40403D01*
G01X34815Y40405D01*
G01X34875Y40403D01*
G01X34934Y40396D01*
G01X34993Y40385D01*
G01X35050Y40370D01*
G01X35105Y40351D01*
G01X35159Y40327D01*
G01X35209Y40300D01*
G01X35256Y40267D01*
G01X35300Y40237D01*
G01X35331Y40222D01*
G01X35355Y40222D01*
G01X35377Y40235D01*
G01X35395Y40252D01*
G01X35400Y40268D01*
G01X35392Y40286D01*
G01X35370Y40313D01*
G01X35331Y40347D01*
G01X35280Y40382D01*
G01X35218Y40415D01*
G01X35148Y40446D01*
G01X35074Y40474D01*
G01X34998Y40497D01*
G01X34922Y40515D01*
G37*

%LPD*%
G54D10*
G01X18541Y18541D02*
G01X18541Y19684D01*
G01X19939Y19684D01*
G01X22478Y19684D02*
G01X24256Y19684D01*
G01X24256Y18541D01*
G01X24256Y17017D02*
G01X24256Y15112D01*
G01X18541Y17017D02*
G01X18541Y15112D01*
G01X48259Y31749D02*
G01X48259Y26923D01*
G01X49148Y26923D01*
G01X47244Y26923D02*
G01X48260Y26923D01*
G01X24259Y13863D02*
G01X24259Y11958D01*
G01X47244Y31749D02*
G01X48260Y31749D01*
G01X48260Y31749D02*
G01X49276Y31749D01*
G54D42*
G01X8334Y19284D02*
G01X12094Y19284D01*
G01X12094Y18024D01*
G01X6084Y12464D02*
G01X12094Y12464D01*
G01X12094Y13724D01*
G54D10*
G01X19178Y18921D02*
G01X21027Y18921D01*
G01X21027Y16381D01*
G01X19178Y16381D01*
G01X17654Y16381D02*
G01X15796Y16381D01*
G01X15796Y18921D01*
G01X17654Y18921D01*
G01X19178Y15873D02*
G01X21027Y15873D01*
G01X21027Y13333D01*
G01X19178Y13333D01*
G01X17654Y13333D02*
G01X15796Y13333D01*
G01X15796Y15873D01*
G01X17654Y15873D01*
G01X25020Y18921D02*
G01X26869Y18921D01*
G01X26869Y16381D01*
G01X25020Y16381D01*
G01X23496Y16381D02*
G01X21638Y16381D01*
G01X21638Y18921D01*
G01X23496Y18921D01*
G01X25018Y15874D02*
G01X26867Y15874D01*
G01X26867Y13334D01*
G01X25018Y13334D01*
G01X23494Y13334D02*
G01X21636Y13334D01*
G01X21636Y15874D01*
G01X23494Y15874D01*
G01X49659Y29159D02*
G01X50065Y29743D01*
G01X50065Y29743D02*
G01X49253Y29743D01*
G01X49253Y29743D02*
G01X49659Y29159D01*
G01X50446Y27990D02*
G01X50446Y30683D01*
G01X48872Y30683D02*
G01X48872Y27990D01*
G01X46736Y29159D02*
G01X47142Y29743D01*
G01X47142Y29743D02*
G01X46329Y29743D01*
G01X46329Y29743D02*
G01X46736Y29159D01*
G01X47523Y27990D02*
G01X47523Y30683D01*
G01X45948Y30683D02*
G01X45948Y27990D01*
G01X5004Y32041D02*
G01X11003Y32041D01*
G01X11003Y27641D01*
G01X5004Y27641D01*
G01X5004Y32041D01*
G01X21130Y32044D02*
G01X27129Y32044D01*
G01X27129Y27644D01*
G01X21130Y27644D01*
G01X21130Y32044D01*
G01X44703Y8889D02*
G01X44703Y10667D01*
G01X47243Y10667D01*
G01X47243Y8889D01*
G01X47243Y7365D02*
G01X47243Y5587D01*
G01X44703Y5587D01*
G01X44703Y7365D01*
G01X47753Y8888D02*
G01X47753Y10666D01*
G01X50293Y10666D01*
G01X50293Y8888D01*
G01X50293Y7364D02*
G01X50293Y5586D01*
G01X47753Y5586D01*
G01X47753Y7364D01*
G01X38696Y8650D02*
G01X38036Y8650D01*
G01X38696Y8650D01*
G01X38036Y8650D01*
G01X38036Y7835D01*
G01X40956Y7835D02*
G01X40956Y8650D01*
G01X40297Y8650D01*
G54D38*
G01X39796Y7101D02*
G01X39196Y7101D01*
G54D10*
G01X42127Y8649D02*
G01X41467Y8649D01*
G01X42127Y8649D01*
G01X41467Y8649D01*
G01X41467Y7834D01*
G01X44387Y7834D02*
G01X44387Y8649D01*
G01X43728Y8649D01*
G54D38*
G01X43227Y7099D02*
G01X42627Y7099D01*
G54D10*
G01X15201Y30367D02*
G01X14541Y30367D01*
G01X15201Y30367D01*
G01X14541Y30367D01*
G01X14541Y29552D01*
G01X17461Y29552D02*
G01X17461Y30367D01*
G01X16802Y30367D01*
G54D38*
G01X16301Y28818D02*
G01X15702Y28818D01*
G54D10*
G01X31457Y30367D02*
G01X30797Y30367D01*
G01X31457Y30367D01*
G01X30797Y30367D01*
G01X30797Y29552D01*
G01X33717Y29552D02*
G01X33717Y30367D01*
G01X33058Y30367D01*
G54D38*
G01X32557Y28818D02*
G01X31957Y28818D01*
G54D10*
G01X7492Y34416D02*
G01X8508Y34010D01*
G01X8508Y34010D02*
G01X8508Y34823D01*
G01X8508Y34823D02*
G01X7492Y34416D01*
G01X6654Y33604D02*
G01X9347Y33604D01*
G01X9347Y33604D02*
G01X9347Y35229D01*
G01X9347Y35229D02*
G01X6654Y35229D01*
G01X6654Y35229D02*
G01X6654Y33604D01*
G01X23621Y34289D02*
G01X24637Y33883D01*
G01X24637Y33883D02*
G01X24637Y34696D01*
G01X24637Y34696D02*
G01X23621Y34289D01*
G01X22783Y33477D02*
G01X25476Y33477D01*
G01X25476Y33477D02*
G01X25476Y35102D01*
G01X25476Y35102D02*
G01X22783Y35102D01*
G01X22783Y35102D02*
G01X22783Y33477D01*
G01X18287Y9524D02*
G01X18287Y7746D01*
G01X15747Y7746D01*
G01X15747Y9524D01*
G01X15747Y11048D02*
G01X15747Y12826D01*
G01X18287Y12826D01*
G01X18287Y11048D01*
G01X21462Y9524D02*
G01X21462Y7746D01*
G01X18922Y7746D01*
G01X18922Y9524D01*
G01X18922Y11048D02*
G01X18922Y12826D01*
G01X21462Y12826D01*
G01X21462Y11048D01*
G01X41782Y16001D02*
G01X39934Y16001D01*
G01X39934Y18541D01*
G01X41782Y18541D01*
G01X43306Y18541D02*
G01X45164Y18541D01*
G01X45164Y16001D01*
G01X43306Y16001D01*
G01X275Y8508D02*
G01X1475Y8508D01*
G01X275Y10540D02*
G01X275Y8508D01*
G01X1475Y10540D02*
G01X275Y10540D01*
G01X3774Y7274D02*
G01X3774Y11775D01*
G01X3774Y11775D02*
G01X1475Y11775D01*
G01X1475Y7274D02*
G01X3774Y7274D01*
G01X1475Y11774D02*
G01X1475Y7274D01*
G54D37*
G01X8236Y24176D02*
G01X8236Y25496D01*
G01X10306Y25496D01*
G01X10306Y24176D01*
G01X8236Y23044D02*
G01X8236Y21724D01*
G01X10306Y21724D01*
G01X10306Y23044D01*
G01X24365Y24176D02*
G01X24365Y25496D01*
G01X26435Y25496D01*
G01X26435Y24176D01*
G01X24365Y23044D02*
G01X24365Y21724D01*
G01X26435Y21724D01*
G01X26435Y23044D01*
G01X7893Y23066D02*
G01X7893Y21746D01*
G01X5822Y21746D01*
G01X5822Y23066D01*
G01X7893Y24198D02*
G01X7893Y25519D01*
G01X5822Y25519D01*
G01X5822Y24198D01*
G01X24022Y23066D02*
G01X24022Y21746D01*
G01X21951Y21746D01*
G01X21951Y23066D01*
G01X24022Y24198D02*
G01X24022Y25519D01*
G01X21951Y25519D01*
G01X21951Y24198D01*
G54D10*
G01X38609Y28827D02*
G01X38609Y30675D01*
G01X41149Y30675D01*
G01X41149Y28827D01*
G01X41149Y27303D02*
G01X41149Y25445D01*
G01X38609Y25445D01*
G01X38609Y27303D01*
G01X44068Y27304D02*
G01X44068Y25456D01*
G01X41528Y25456D01*
G01X41528Y27304D01*
G01X41528Y28828D02*
G01X41528Y30686D01*
G01X44068Y30686D01*
G01X44068Y28828D01*
G54D39*
G01X35254Y16116D02*
G01X35254Y15389D01*
G01X35254Y15130D02*
G01X35305Y15077D01*
G01X35254Y15026D01*
G01X35201Y15077D01*
G01X35254Y15130D01*
G01X34807Y16116D02*
G01X34807Y15389D01*
G01X34807Y15130D02*
G01X34858Y15077D01*
G01X34807Y15026D01*
G01X34754Y15077D01*
G01X34807Y15130D01*
G01X34360Y16116D02*
G01X34360Y15389D01*
G01X34360Y15130D02*
G01X34411Y15077D01*
G01X34360Y15026D01*
G01X34307Y15077D01*
G01X34360Y15130D01*
G01X33913Y15857D02*
G01X33913Y15910D01*
G01X33860Y16014D01*
G01X33809Y16065D01*
G01X33705Y16116D01*
G01X33497Y16116D01*
G01X33393Y16065D01*
G01X33342Y16014D01*
G01X33289Y15910D01*
G01X33289Y15806D01*
G01X33342Y15702D01*
G01X33446Y15544D01*
G01X33964Y15026D01*
G01X33238Y15026D01*
G01X32841Y15857D02*
G01X32841Y15910D01*
G01X32791Y16014D01*
G01X32740Y16065D01*
G01X32636Y16116D01*
G01X32427Y16116D01*
G01X32323Y16065D01*
G01X32270Y16014D01*
G01X32219Y15910D01*
G01X32219Y15806D01*
G01X32270Y15702D01*
G01X32374Y15544D01*
G01X32895Y15026D01*
G01X32168Y15026D01*
G01X31513Y16116D02*
G01X31668Y16065D01*
G01X31772Y15910D01*
G01X31825Y15649D01*
G01X31825Y15494D01*
G01X31772Y15234D01*
G01X31668Y15077D01*
G01X31513Y15026D01*
G01X31409Y15026D01*
G01X31254Y15077D01*
G01X31150Y15234D01*
G01X31096Y15494D01*
G01X31096Y15649D01*
G01X31150Y15910D01*
G01X31254Y16065D01*
G01X31409Y16116D01*
G01X31513Y16116D01*
G01X30754Y16116D02*
G01X30340Y15026D01*
G01X29923Y16116D02*
G01X30340Y15026D01*
G01X29527Y16116D02*
G01X29527Y15389D01*
G01X29527Y15130D02*
G01X29580Y15077D01*
G01X29527Y15026D01*
G01X29476Y15077D01*
G01X29527Y15130D01*
G01X29082Y16116D02*
G01X29082Y15389D01*
G01X29082Y15130D02*
G01X29133Y15077D01*
G01X29082Y15026D01*
G01X29029Y15077D01*
G01X29082Y15130D01*
G01X28635Y16116D02*
G01X28635Y15389D01*
G01X28635Y15130D02*
G01X28686Y15077D01*
G01X28635Y15026D01*
G01X28582Y15077D01*
G01X28635Y15130D01*
G01X35381Y5829D02*
G01X35381Y5102D01*
G01X35381Y4843D02*
G01X35432Y4790D01*
G01X35381Y4739D01*
G01X35328Y4790D01*
G01X35381Y4843D01*
G01X34934Y5829D02*
G01X34934Y5102D01*
G01X34934Y4843D02*
G01X34985Y4790D01*
G01X34934Y4739D01*
G01X34881Y4790D01*
G01X34934Y4843D01*
G01X34487Y5829D02*
G01X34487Y5102D01*
G01X34487Y4843D02*
G01X34538Y4790D01*
G01X34487Y4739D01*
G01X34434Y4790D01*
G01X34487Y4843D01*
G01X34040Y5570D02*
G01X34040Y5623D01*
G01X33987Y5727D01*
G01X33936Y5778D01*
G01X33832Y5829D01*
G01X33624Y5829D01*
G01X33520Y5778D01*
G01X33469Y5727D01*
G01X33416Y5623D01*
G01X33416Y5519D01*
G01X33469Y5415D01*
G01X33573Y5257D01*
G01X34091Y4739D01*
G01X33365Y4739D01*
G01X32968Y5570D02*
G01X32968Y5623D01*
G01X32918Y5727D01*
G01X32867Y5778D01*
G01X32763Y5829D01*
G01X32554Y5829D01*
G01X32450Y5778D01*
G01X32397Y5727D01*
G01X32346Y5623D01*
G01X32346Y5519D01*
G01X32397Y5415D01*
G01X32501Y5257D01*
G01X33022Y4739D01*
G01X32295Y4739D01*
G01X31640Y5829D02*
G01X31795Y5778D01*
G01X31899Y5623D01*
G01X31952Y5361D01*
G01X31952Y5207D01*
G01X31899Y4947D01*
G01X31795Y4790D01*
G01X31640Y4739D01*
G01X31536Y4739D01*
G01X31381Y4790D01*
G01X31277Y4947D01*
G01X31223Y5207D01*
G01X31223Y5361D01*
G01X31277Y5623D01*
G01X31381Y5778D01*
G01X31536Y5829D01*
G01X31640Y5829D01*
G01X30881Y5829D02*
G01X30467Y4739D01*
G01X30050Y5829D02*
G01X30467Y4739D01*
G01X29654Y5829D02*
G01X29654Y5102D01*
G01X29654Y4843D02*
G01X29707Y4790D01*
G01X29654Y4739D01*
G01X29603Y4790D01*
G01X29654Y4843D01*
G01X29209Y5829D02*
G01X29209Y5102D01*
G01X29209Y4843D02*
G01X29260Y4790D01*
G01X29209Y4739D01*
G01X29156Y4790D01*
G01X29209Y4843D01*
G01X28762Y5829D02*
G01X28762Y5102D01*
G01X28762Y4843D02*
G01X28813Y4790D01*
G01X28762Y4739D01*
G01X28709Y4790D01*
G01X28762Y4843D01*
G54D40*
G01X6939Y11084D02*
G01X7210Y11084D01*
G01X7073Y10876D02*
G01X8028Y10876D01*
G01X7073Y10876D02*
G01X7073Y10284D01*
G01X7528Y10876D02*
G01X7528Y10512D01*
G01X8028Y10876D02*
G01X8028Y10284D01*
G01X7210Y9349D02*
G01X7119Y9438D01*
G01X7073Y9575D01*
G01X7073Y9758D01*
G01X7119Y9893D01*
G01X7210Y9984D01*
G01X7302Y9984D01*
G01X7393Y9938D01*
G01X7437Y9893D01*
G01X7482Y9804D01*
G01X7574Y9529D01*
G01X7619Y9438D01*
G01X7665Y9395D01*
G01X7757Y9349D01*
G01X7891Y9349D01*
G01X7983Y9438D01*
G01X8028Y9575D01*
G01X8028Y9758D01*
G01X7983Y9893D01*
G01X7891Y9984D01*
G01X7073Y9049D02*
G01X8028Y9049D01*
G01X7073Y9049D02*
G01X7073Y8640D01*
G01X7119Y8503D01*
G01X7165Y8457D01*
G01X7256Y8412D01*
G01X7393Y8412D01*
G01X7482Y8457D01*
G01X7528Y8503D01*
G01X7574Y8640D01*
G01X7574Y9049D01*
G01X7073Y7883D02*
G01X7119Y8021D01*
G01X7210Y8066D01*
G01X7302Y8066D01*
G01X7393Y8021D01*
G01X7437Y7929D01*
G01X7482Y7749D01*
G01X7528Y7612D01*
G01X7619Y7520D01*
G01X7711Y7474D01*
G01X7845Y7474D01*
G01X7937Y7520D01*
G01X7983Y7566D01*
G01X8028Y7703D01*
G01X8028Y7883D01*
G01X7983Y8021D01*
G01X7937Y8066D01*
G01X7845Y8112D01*
G01X7711Y8112D01*
G01X7619Y8066D01*
G01X7528Y7975D01*
G01X7482Y7840D01*
G01X7437Y7657D01*
G01X7393Y7566D01*
G01X7302Y7520D01*
G01X7210Y7520D01*
G01X7119Y7566D01*
G01X7073Y7703D01*
G01X7073Y7883D01*
G01X7302Y7129D02*
G01X7256Y7129D01*
G01X7165Y7086D01*
G01X7119Y7040D01*
G01X7073Y6949D01*
G01X7073Y6766D01*
G01X7119Y6674D01*
G01X7165Y6631D01*
G01X7256Y6585D01*
G01X7348Y6585D01*
G01X7437Y6631D01*
G01X7574Y6720D01*
G01X8028Y7175D01*
G01X8028Y6540D01*
G01X7210Y5694D02*
G01X7119Y5740D01*
G01X7073Y5874D01*
G01X7073Y5966D01*
G01X7119Y6103D01*
G01X7256Y6194D01*
G01X7482Y6240D01*
G01X7711Y6240D01*
G01X7891Y6194D01*
G01X7983Y6103D01*
G01X8028Y5966D01*
G01X8028Y5920D01*
G01X7983Y5785D01*
G01X7891Y5694D01*
G01X7757Y5648D01*
G01X7711Y5648D01*
G01X7574Y5694D01*
G01X7482Y5785D01*
G01X7437Y5920D01*
G01X7437Y5966D01*
G01X7482Y6103D01*
G01X7574Y6194D01*
G01X7711Y6240D01*
G01X7210Y4802D02*
G01X7119Y4848D01*
G01X7073Y4985D01*
G01X7073Y5077D01*
G01X7119Y5211D01*
G01X7256Y5303D01*
G01X7482Y5349D01*
G01X7711Y5349D01*
G01X7891Y5303D01*
G01X7983Y5211D01*
G01X8028Y5077D01*
G01X8028Y5031D01*
G01X7983Y4894D01*
G01X7891Y4802D01*
G01X7757Y4757D01*
G01X7711Y4757D01*
G01X7574Y4802D01*
G01X7482Y4894D01*
G01X7437Y5031D01*
G01X7437Y5077D01*
G01X7482Y5211D01*
G01X7574Y5303D01*
G01X7711Y5349D01*
G01X7619Y4457D02*
G01X7619Y3639D01*
G01X7073Y3068D02*
G01X7119Y3202D01*
G01X7256Y3294D01*
G01X7482Y3339D01*
G01X7619Y3339D01*
G01X7845Y3294D01*
G01X7983Y3202D01*
G01X8028Y3068D01*
G01X8028Y2976D01*
G01X7983Y2839D01*
G01X7845Y2748D01*
G01X7619Y2702D01*
G01X7482Y2702D01*
G01X7256Y2748D01*
G01X7119Y2839D01*
G01X7073Y2976D01*
G01X7073Y3068D01*
G01X7256Y2402D02*
G01X7210Y2311D01*
G01X7073Y2176D01*
G01X8028Y2176D01*
G01X6939Y1785D02*
G01X7210Y1785D01*
G01X8818Y11419D02*
G01X8773Y11419D01*
G01X8681Y11373D01*
G01X8635Y11328D01*
G01X8590Y11239D01*
G01X8590Y11056D01*
G01X8635Y10964D01*
G01X8681Y10919D01*
G01X8773Y10873D01*
G01X8864Y10873D01*
G01X8953Y10919D01*
G01X9090Y11010D01*
G01X9545Y11465D01*
G01X9545Y10827D01*
G01X8590Y9829D02*
G01X9545Y9829D01*
G01X8590Y9829D02*
G01X8590Y9420D01*
G01X8635Y9283D01*
G01X8681Y9237D01*
G01X8773Y9192D01*
G01X8864Y9192D01*
G01X8953Y9237D01*
G01X8999Y9283D01*
G01X9044Y9420D01*
G01X9044Y9829D01*
G01X9044Y9509D02*
G01X9545Y9192D01*
G01X9182Y8892D02*
G01X9182Y8346D01*
G01X9090Y8346D01*
G01X8999Y8391D01*
G01X8953Y8437D01*
G01X8910Y8529D01*
G01X8910Y8666D01*
G01X8953Y8755D01*
G01X9044Y8846D01*
G01X9182Y8892D01*
G01X9273Y8892D01*
G01X9408Y8846D01*
G01X9499Y8755D01*
G01X9545Y8666D01*
G01X9545Y8529D01*
G01X9499Y8437D01*
G01X9408Y8346D01*
G01X8590Y8046D02*
G01X9545Y8046D01*
G01X8910Y7200D02*
G01X9545Y7200D01*
G01X9044Y7200D02*
G01X8953Y7292D01*
G01X8910Y7383D01*
G01X8910Y7520D01*
G01X8953Y7609D01*
G01X9044Y7701D01*
G01X9182Y7746D01*
G01X9273Y7746D01*
G01X9408Y7701D01*
G01X9499Y7609D01*
G01X9545Y7520D01*
G01X9545Y7383D01*
G01X9499Y7292D01*
G01X9408Y7200D01*
G01X8910Y6855D02*
G01X9545Y6583D01*
G01X8910Y6311D02*
G01X9545Y6583D01*
G01X9728Y6674D01*
G01X9817Y6766D01*
G01X9862Y6855D01*
G01X9862Y6900D01*
G01X8590Y5310D02*
G01X9545Y5310D01*
G01X8590Y5310D02*
G01X9545Y4947D01*
G01X8590Y4584D02*
G01X9545Y4947D01*
G01X8590Y4584D02*
G01X9545Y4584D01*
G01X8910Y4056D02*
G01X8953Y4147D01*
G01X9044Y4239D01*
G01X9182Y4284D01*
G01X9273Y4284D01*
G01X9408Y4239D01*
G01X9499Y4147D01*
G01X9545Y4056D01*
G01X9545Y3919D01*
G01X9499Y3830D01*
G01X9408Y3738D01*
G01X9273Y3692D01*
G01X9182Y3692D01*
G01X9044Y3738D01*
G01X8953Y3830D01*
G01X8910Y3919D01*
G01X8910Y4056D01*
G01X8590Y2847D02*
G01X9545Y2847D01*
G01X9044Y2847D02*
G01X8953Y2938D01*
G01X8910Y3030D01*
G01X8910Y3164D01*
G01X8953Y3256D01*
G01X9044Y3347D01*
G01X9182Y3393D01*
G01X9273Y3393D01*
G01X9408Y3347D01*
G01X9499Y3256D01*
G01X9545Y3164D01*
G01X9545Y3030D01*
G01X9499Y2938D01*
G01X9408Y2847D01*
G01X8910Y2547D02*
G01X9362Y2547D01*
G01X9499Y2501D01*
G01X9545Y2410D01*
G01X9545Y2275D01*
G01X9499Y2184D01*
G01X9362Y2047D01*
G01X8910Y2047D02*
G01X9545Y2047D01*
G01X8590Y1747D02*
G01X9545Y1747D01*
G01X9182Y1447D02*
G01X9182Y901D01*
G01X9090Y901D01*
G01X8999Y947D01*
G01X8953Y992D01*
G01X8910Y1084D01*
G01X8910Y1218D01*
G01X8953Y1310D01*
G01X9044Y1401D01*
G01X9182Y1447D01*
G01X9273Y1447D01*
G01X9408Y1401D01*
G01X9499Y1310D01*
G01X9545Y1218D01*
G01X9545Y1084D01*
G01X9499Y992D01*
G01X9408Y901D01*
G01X10241Y11338D02*
G01X11195Y11338D01*
G01X10559Y11038D02*
G01X11195Y11038D01*
G01X10741Y11038D02*
G01X10604Y10901D01*
G01X10559Y10811D01*
G01X10559Y10674D01*
G01X10604Y10583D01*
G01X10741Y10538D01*
G01X11195Y10538D01*
G01X10241Y10101D02*
G01X11013Y10101D01*
G01X11150Y10056D01*
G01X11195Y9965D01*
G01X11195Y9874D01*
G01X10559Y10238D02*
G01X10559Y9920D01*
G01X10832Y9574D02*
G01X10832Y9029D01*
G01X10741Y9029D01*
G01X10650Y9074D01*
G01X10604Y9120D01*
G01X10559Y9211D01*
G01X10559Y9347D01*
G01X10604Y9438D01*
G01X10695Y9529D01*
G01X10832Y9574D01*
G01X10922Y9574D01*
G01X11059Y9529D01*
G01X11150Y9438D01*
G01X11195Y9347D01*
G01X11195Y9211D01*
G01X11150Y9120D01*
G01X11059Y9029D01*
G01X10559Y8183D02*
G01X11286Y8183D01*
G01X11422Y8229D01*
G01X11468Y8274D01*
G01X11513Y8365D01*
G01X11513Y8501D01*
G01X11468Y8592D01*
G01X10695Y8183D02*
G01X10604Y8274D01*
G01X10559Y8365D01*
G01X10559Y8501D01*
G01X10604Y8592D01*
G01X10695Y8683D01*
G01X10832Y8729D01*
G01X10922Y8729D01*
G01X11059Y8683D01*
G01X11150Y8592D01*
G01X11195Y8501D01*
G01X11195Y8365D01*
G01X11150Y8274D01*
G01X11059Y8183D01*
G01X10559Y7883D02*
G01X11195Y7883D01*
G01X10832Y7883D02*
G01X10695Y7838D01*
G01X10604Y7747D01*
G01X10559Y7656D01*
G01X10559Y7520D01*
G01X10559Y6674D02*
G01X11195Y6674D01*
G01X10695Y6674D02*
G01X10604Y6765D01*
G01X10559Y6856D01*
G01X10559Y6992D01*
G01X10604Y7083D01*
G01X10695Y7174D01*
G01X10832Y7220D01*
G01X10922Y7220D01*
G01X11059Y7174D01*
G01X11150Y7083D01*
G01X11195Y6992D01*
G01X11195Y6856D01*
G01X11150Y6765D01*
G01X11059Y6674D01*
G01X10241Y6238D02*
G01X11013Y6238D01*
G01X11150Y6192D01*
G01X11195Y6101D01*
G01X11195Y6011D01*
G01X10559Y6374D02*
G01X10559Y6056D01*
G01X10832Y5711D02*
G01X10832Y5165D01*
G01X10741Y5165D01*
G01X10650Y5211D01*
G01X10604Y5256D01*
G01X10559Y5347D01*
G01X10559Y5483D01*
G01X10604Y5574D01*
G01X10695Y5665D01*
G01X10832Y5711D01*
G01X10922Y5711D01*
G01X11059Y5665D01*
G01X11150Y5574D01*
G01X11195Y5483D01*
G01X11195Y5347D01*
G01X11150Y5256D01*
G01X11059Y5165D01*
G01X10241Y4320D02*
G01X11195Y4320D01*
G01X10695Y4320D02*
G01X10604Y4411D01*
G01X10559Y4501D01*
G01X10559Y4638D01*
G01X10604Y4729D01*
G01X10695Y4820D01*
G01X10832Y4865D01*
G01X10922Y4865D01*
G01X11059Y4820D01*
G01X11150Y4729D01*
G01X11195Y4638D01*
G01X11195Y4501D01*
G01X11150Y4411D01*
G01X11059Y4320D01*
G01X10559Y3320D02*
G01X11195Y3047D01*
G01X10559Y2774D02*
G01X11195Y3047D01*
G01X10422Y2474D02*
G01X10377Y2383D01*
G01X10241Y2247D01*
G01X11195Y2247D01*
G01X10968Y1901D02*
G01X11013Y1947D01*
G01X11059Y1901D01*
G01X11013Y1856D01*
G01X10968Y1901D01*
G01X10422Y1556D02*
G01X10377Y1465D01*
G01X10241Y1329D01*
G01X11195Y1329D01*
G54D39*
G01X19372Y27050D02*
G01X19372Y26324D01*
G01X19372Y26065D02*
G01X19423Y26012D01*
G01X19372Y25961D01*
G01X19319Y26012D01*
G01X19372Y26065D01*
G01X18925Y27050D02*
G01X18925Y26324D01*
G01X18925Y26065D02*
G01X18976Y26012D01*
G01X18925Y25961D01*
G01X18872Y26012D01*
G01X18925Y26065D01*
G01X18478Y27050D02*
G01X18478Y26324D01*
G01X18478Y26065D02*
G01X18529Y26012D01*
G01X18478Y25961D01*
G01X18425Y26012D01*
G01X18478Y26065D01*
G01X18031Y26791D02*
G01X18031Y26845D01*
G01X17978Y26949D01*
G01X17927Y27000D01*
G01X17823Y27050D01*
G01X17614Y27050D01*
G01X17510Y27000D01*
G01X17459Y26949D01*
G01X17406Y26845D01*
G01X17406Y26741D01*
G01X17459Y26636D01*
G01X17564Y26479D01*
G01X18082Y25961D01*
G01X17355Y25961D01*
G01X16959Y26791D02*
G01X16959Y26845D01*
G01X16908Y26949D01*
G01X16857Y27000D01*
G01X16753Y27050D01*
G01X16545Y27050D01*
G01X16441Y27000D01*
G01X16388Y26949D01*
G01X16337Y26845D01*
G01X16337Y26741D01*
G01X16388Y26636D01*
G01X16492Y26479D01*
G01X17012Y25961D01*
G01X16286Y25961D01*
G01X15631Y27050D02*
G01X15786Y27000D01*
G01X15890Y26845D01*
G01X15943Y26583D01*
G01X15943Y26428D01*
G01X15890Y26169D01*
G01X15786Y26012D01*
G01X15631Y25961D01*
G01X15526Y25961D01*
G01X15372Y26012D01*
G01X15267Y26169D01*
G01X15214Y26428D01*
G01X15214Y26583D01*
G01X15267Y26845D01*
G01X15372Y27000D01*
G01X15526Y27050D01*
G01X15631Y27050D01*
G01X14871Y27050D02*
G01X14457Y25961D01*
G01X14041Y27050D02*
G01X14457Y25961D01*
G01X13644Y27050D02*
G01X13644Y26324D01*
G01X13644Y26065D02*
G01X13698Y26012D01*
G01X13644Y25961D01*
G01X13594Y26012D01*
G01X13644Y26065D01*
G01X13200Y27050D02*
G01X13200Y26324D01*
G01X13200Y26065D02*
G01X13251Y26012D01*
G01X13200Y25961D01*
G01X13147Y26012D01*
G01X13200Y26065D01*
G01X12753Y27050D02*
G01X12753Y26324D01*
G01X12753Y26065D02*
G01X12804Y26012D01*
G01X12753Y25961D01*
G01X12699Y26012D01*
G01X12753Y26065D01*
G01X7688Y27050D02*
G01X7688Y26324D01*
G01X7688Y26065D02*
G01X7739Y26012D01*
G01X7688Y25961D01*
G01X7635Y26012D01*
G01X7688Y26065D01*
G01X7241Y27050D02*
G01X7241Y26324D01*
G01X7241Y26065D02*
G01X7292Y26012D01*
G01X7241Y25961D01*
G01X7188Y26012D01*
G01X7241Y26065D01*
G01X6794Y27050D02*
G01X6794Y26324D01*
G01X6794Y26065D02*
G01X6845Y26012D01*
G01X6794Y25961D01*
G01X6741Y26012D01*
G01X6794Y26065D01*
G01X6347Y26791D02*
G01X6347Y26845D01*
G01X6294Y26949D01*
G01X6243Y27000D01*
G01X6139Y27050D01*
G01X5930Y27050D01*
G01X5826Y27000D01*
G01X5775Y26949D01*
G01X5722Y26845D01*
G01X5722Y26741D01*
G01X5775Y26636D01*
G01X5880Y26479D01*
G01X6398Y25961D01*
G01X5671Y25961D01*
G01X5275Y26791D02*
G01X5275Y26845D01*
G01X5224Y26949D01*
G01X5174Y27000D01*
G01X5069Y27050D01*
G01X4861Y27050D01*
G01X4757Y27000D01*
G01X4704Y26949D01*
G01X4653Y26845D01*
G01X4653Y26741D01*
G01X4704Y26636D01*
G01X4808Y26479D01*
G01X5328Y25961D01*
G01X4602Y25961D01*
G01X3947Y27050D02*
G01X4102Y27000D01*
G01X4206Y26845D01*
G01X4259Y26583D01*
G01X4259Y26428D01*
G01X4206Y26169D01*
G01X4102Y26012D01*
G01X3947Y25961D01*
G01X3843Y25961D01*
G01X3688Y26012D01*
G01X3583Y26169D01*
G01X3530Y26428D01*
G01X3530Y26583D01*
G01X3583Y26845D01*
G01X3688Y27000D01*
G01X3843Y27050D01*
G01X3947Y27050D01*
G01X3187Y27050D02*
G01X2773Y25961D01*
G01X2357Y27050D02*
G01X2773Y25961D01*
G01X1960Y27050D02*
G01X1960Y26324D01*
G01X1960Y26065D02*
G01X2014Y26012D01*
G01X1960Y25961D01*
G01X1910Y26012D01*
G01X1960Y26065D01*
G01X1516Y27050D02*
G01X1516Y26324D01*
G01X1516Y26065D02*
G01X1567Y26012D01*
G01X1516Y25961D01*
G01X1463Y26012D01*
G01X1516Y26065D01*
G01X1069Y27050D02*
G01X1069Y26324D01*
G01X1069Y26065D02*
G01X1120Y26012D01*
G01X1069Y25961D01*
G01X1016Y26012D01*
G01X1069Y26065D01*
G01X11252Y43548D02*
G01X11252Y42821D01*
G01X11252Y42562D02*
G01X11302Y42509D01*
G01X11252Y42458D01*
G01X11198Y42509D01*
G01X11252Y42562D01*
G01X10805Y43548D02*
G01X10805Y42821D01*
G01X10805Y42562D02*
G01X10855Y42509D01*
G01X10805Y42458D01*
G01X10751Y42509D01*
G01X10805Y42562D01*
G01X10358Y43548D02*
G01X10358Y42821D01*
G01X10358Y42562D02*
G01X10408Y42509D01*
G01X10358Y42458D01*
G01X10304Y42509D01*
G01X10358Y42562D01*
G01X9910Y43289D02*
G01X9910Y43342D01*
G01X9857Y43446D01*
G01X9806Y43497D01*
G01X9702Y43548D01*
G01X9494Y43548D01*
G01X9390Y43497D01*
G01X9339Y43446D01*
G01X9286Y43342D01*
G01X9286Y43238D01*
G01X9339Y43134D01*
G01X9443Y42976D01*
G01X9961Y42458D01*
G01X9235Y42458D01*
G01X8839Y43289D02*
G01X8839Y43342D01*
G01X8788Y43446D01*
G01X8737Y43497D01*
G01X8633Y43548D01*
G01X8425Y43548D01*
G01X8320Y43497D01*
G01X8267Y43446D01*
G01X8216Y43342D01*
G01X8216Y43238D01*
G01X8267Y43134D01*
G01X8371Y42976D01*
G01X8892Y42458D01*
G01X8165Y42458D01*
G01X7510Y43548D02*
G01X7665Y43497D01*
G01X7769Y43342D01*
G01X7823Y43080D01*
G01X7823Y42926D01*
G01X7769Y42666D01*
G01X7665Y42509D01*
G01X7510Y42458D01*
G01X7406Y42458D01*
G01X7251Y42509D01*
G01X7147Y42666D01*
G01X7094Y42926D01*
G01X7094Y43080D01*
G01X7147Y43342D01*
G01X7251Y43497D01*
G01X7406Y43548D01*
G01X7510Y43548D01*
G01X6751Y43548D02*
G01X6337Y42458D01*
G01X5920Y43548D02*
G01X6337Y42458D01*
G01X5524Y43548D02*
G01X5524Y42821D01*
G01X5524Y42562D02*
G01X5577Y42509D01*
G01X5524Y42458D01*
G01X5473Y42509D01*
G01X5524Y42562D01*
G01X5079Y43548D02*
G01X5079Y42821D01*
G01X5079Y42562D02*
G01X5130Y42509D01*
G01X5079Y42458D01*
G01X5026Y42509D01*
G01X5079Y42562D01*
G01X4632Y43548D02*
G01X4632Y42821D01*
G01X4632Y42562D02*
G01X4683Y42509D01*
G01X4632Y42458D01*
G01X4579Y42509D01*
G01X4632Y42562D01*
G01X27127Y43421D02*
G01X27127Y42694D01*
G01X27127Y42435D02*
G01X27177Y42382D01*
G01X27127Y42331D01*
G01X27073Y42382D01*
G01X27127Y42435D01*
G01X26680Y43421D02*
G01X26680Y42694D01*
G01X26680Y42435D02*
G01X26730Y42382D01*
G01X26680Y42331D01*
G01X26626Y42382D01*
G01X26680Y42435D01*
G01X26233Y43421D02*
G01X26233Y42694D01*
G01X26233Y42435D02*
G01X26283Y42382D01*
G01X26233Y42331D01*
G01X26179Y42382D01*
G01X26233Y42435D01*
G01X25785Y43162D02*
G01X25785Y43215D01*
G01X25732Y43319D01*
G01X25681Y43370D01*
G01X25577Y43421D01*
G01X25369Y43421D01*
G01X25265Y43370D01*
G01X25214Y43319D01*
G01X25161Y43215D01*
G01X25161Y43111D01*
G01X25214Y43007D01*
G01X25318Y42849D01*
G01X25836Y42331D01*
G01X25110Y42331D01*
G01X24714Y43162D02*
G01X24714Y43215D01*
G01X24663Y43319D01*
G01X24612Y43370D01*
G01X24508Y43421D01*
G01X24300Y43421D01*
G01X24195Y43370D01*
G01X24142Y43319D01*
G01X24091Y43215D01*
G01X24091Y43111D01*
G01X24142Y43007D01*
G01X24246Y42849D01*
G01X24767Y42331D01*
G01X24040Y42331D01*
G01X23385Y43421D02*
G01X23540Y43370D01*
G01X23644Y43215D01*
G01X23698Y42953D01*
G01X23698Y42798D01*
G01X23644Y42539D01*
G01X23540Y42382D01*
G01X23385Y42331D01*
G01X23281Y42331D01*
G01X23126Y42382D01*
G01X23022Y42539D01*
G01X22969Y42798D01*
G01X22969Y42953D01*
G01X23022Y43215D01*
G01X23126Y43370D01*
G01X23281Y43421D01*
G01X23385Y43421D01*
G01X22626Y43421D02*
G01X22212Y42331D01*
G01X21795Y43421D02*
G01X22212Y42331D01*
G01X21399Y43421D02*
G01X21399Y42694D01*
G01X21399Y42435D02*
G01X21452Y42382D01*
G01X21399Y42331D01*
G01X21348Y42382D01*
G01X21399Y42435D01*
G01X20954Y43421D02*
G01X20954Y42694D01*
G01X20954Y42435D02*
G01X21005Y42382D01*
G01X20954Y42331D01*
G01X20901Y42382D01*
G01X20954Y42435D01*
G01X20507Y43421D02*
G01X20507Y42694D01*
G01X20507Y42435D02*
G01X20558Y42382D01*
G01X20507Y42331D01*
G01X20454Y42382D01*
G01X20507Y42435D01*
G01X40080Y43802D02*
G01X40080Y43075D01*
G01X40080Y42816D02*
G01X40131Y42763D01*
G01X40080Y42712D01*
G01X40027Y42763D01*
G01X40080Y42816D01*
G01X39633Y43802D02*
G01X39633Y43075D01*
G01X39633Y42816D02*
G01X39684Y42763D01*
G01X39633Y42712D01*
G01X39580Y42763D01*
G01X39633Y42816D01*
G01X39186Y43802D02*
G01X39186Y43075D01*
G01X39186Y42816D02*
G01X39237Y42763D01*
G01X39186Y42712D01*
G01X39133Y42763D01*
G01X39186Y42816D01*
G01X38739Y43543D02*
G01X38739Y43596D01*
G01X38686Y43700D01*
G01X38635Y43751D01*
G01X38531Y43802D01*
G01X38323Y43802D01*
G01X38219Y43751D01*
G01X38168Y43700D01*
G01X38115Y43596D01*
G01X38115Y43492D01*
G01X38168Y43388D01*
G01X38272Y43230D01*
G01X38790Y42712D01*
G01X38064Y42712D01*
G01X37667Y43543D02*
G01X37667Y43596D01*
G01X37617Y43700D01*
G01X37566Y43751D01*
G01X37462Y43802D01*
G01X37253Y43802D01*
G01X37149Y43751D01*
G01X37096Y43700D01*
G01X37045Y43596D01*
G01X37045Y43492D01*
G01X37096Y43388D01*
G01X37200Y43230D01*
G01X37721Y42712D01*
G01X36994Y42712D01*
G01X36339Y43802D02*
G01X36494Y43751D01*
G01X36598Y43596D01*
G01X36651Y43334D01*
G01X36651Y43180D01*
G01X36598Y42920D01*
G01X36494Y42763D01*
G01X36339Y42712D01*
G01X36235Y42712D01*
G01X36080Y42763D01*
G01X35976Y42920D01*
G01X35923Y43180D01*
G01X35923Y43334D01*
G01X35976Y43596D01*
G01X36080Y43751D01*
G01X36235Y43802D01*
G01X36339Y43802D01*
G01X35580Y43802D02*
G01X35166Y42712D01*
G01X34749Y43802D02*
G01X35166Y42712D01*
G01X34353Y43802D02*
G01X34353Y43075D01*
G01X34353Y42816D02*
G01X34406Y42763D01*
G01X34353Y42712D01*
G01X34302Y42763D01*
G01X34353Y42816D01*
G01X33908Y43802D02*
G01X33908Y43075D01*
G01X33908Y42816D02*
G01X33959Y42763D01*
G01X33908Y42712D01*
G01X33855Y42763D01*
G01X33908Y42816D01*
G01X33461Y43802D02*
G01X33461Y43075D01*
G01X33461Y42816D02*
G01X33512Y42763D01*
G01X33461Y42712D01*
G01X33408Y42763D01*
G01X33461Y42816D01*
G01X14223Y48623D02*
G01X14223Y47764D01*
G01X14223Y48623D02*
G01X13651Y47764D01*
G01X13651Y48623D02*
G01X13651Y47764D01*
G01X12767Y48419D02*
G01X12808Y48501D01*
G01X12890Y48582D01*
G01X12972Y48623D01*
G01X13135Y48623D01*
G01X13217Y48582D01*
G01X13299Y48501D01*
G01X13340Y48419D01*
G01X13381Y48296D01*
G01X13381Y48091D01*
G01X13340Y47969D01*
G01X13299Y47887D01*
G01X13217Y47805D01*
G01X13135Y47764D01*
G01X12972Y47764D01*
G01X12890Y47805D01*
G01X12808Y47887D01*
G01X12767Y47969D01*
G01X12456Y48419D02*
G01X12456Y48460D01*
G01X12415Y48541D01*
G01X12374Y48582D01*
G01X12293Y48623D01*
G01X12129Y48623D01*
G01X12047Y48582D01*
G01X12006Y48541D01*
G01X11965Y48460D01*
G01X11965Y48378D01*
G01X12006Y48296D01*
G01X12088Y48173D01*
G01X12497Y47764D01*
G01X11924Y47764D01*
G01X9151Y48419D02*
G01X9192Y48501D01*
G01X9273Y48582D01*
G01X9355Y48623D01*
G01X9519Y48623D01*
G01X9601Y48582D01*
G01X9683Y48501D01*
G01X9723Y48419D01*
G01X9764Y48296D01*
G01X9764Y48091D01*
G01X9723Y47969D01*
G01X9683Y47887D01*
G01X9601Y47805D01*
G01X9519Y47764D01*
G01X9355Y47764D01*
G01X9273Y47805D01*
G01X9192Y47887D01*
G01X9151Y47969D01*
G01X8635Y48623D02*
G01X8717Y48582D01*
G01X8799Y48501D01*
G01X8840Y48419D01*
G01X8881Y48296D01*
G01X8881Y48091D01*
G01X8840Y47969D01*
G01X8799Y47887D01*
G01X8717Y47805D01*
G01X8635Y47764D01*
G01X8472Y47764D01*
G01X8390Y47805D01*
G01X8308Y47887D01*
G01X8267Y47969D01*
G01X8226Y48091D01*
G01X8226Y48296D01*
G01X8267Y48419D01*
G01X8308Y48501D01*
G01X8390Y48582D01*
G01X8472Y48623D01*
G01X8635Y48623D01*
G01X7956Y48623D02*
G01X7956Y47764D01*
G01X7956Y48623D02*
G01X7629Y47764D01*
G01X7302Y48623D02*
G01X7629Y47764D01*
G01X7302Y48623D02*
G01X7302Y47764D01*
G01X6991Y48419D02*
G01X6991Y48460D01*
G01X6950Y48541D01*
G01X6909Y48582D01*
G01X6827Y48623D01*
G01X6663Y48623D01*
G01X6582Y48582D01*
G01X6541Y48541D01*
G01X6500Y48460D01*
G01X6500Y48378D01*
G01X6541Y48296D01*
G01X6623Y48173D01*
G01X7032Y47764D01*
G01X6459Y47764D01*
G01X4299Y48623D02*
G01X4299Y47764D01*
G01X4299Y48623D02*
G01X3726Y47764D01*
G01X3726Y48623D02*
G01X3726Y47764D01*
G01X3211Y48623D02*
G01X3293Y48582D01*
G01X3374Y48501D01*
G01X3415Y48419D01*
G01X3456Y48296D01*
G01X3456Y48091D01*
G01X3415Y47969D01*
G01X3374Y47887D01*
G01X3293Y47805D01*
G01X3211Y47764D01*
G01X3047Y47764D01*
G01X2965Y47805D01*
G01X2883Y47887D01*
G01X2843Y47969D01*
G01X2802Y48091D01*
G01X2802Y48296D01*
G01X2843Y48419D01*
G01X2883Y48501D01*
G01X2965Y48582D01*
G01X3047Y48623D01*
G01X3211Y48623D01*
G01X2491Y48419D02*
G01X2491Y48460D01*
G01X2450Y48541D01*
G01X2409Y48582D01*
G01X2327Y48623D01*
G01X2163Y48623D01*
G01X2082Y48582D01*
G01X2041Y48541D01*
G01X2000Y48460D01*
G01X2000Y48378D01*
G01X2041Y48296D01*
G01X2123Y48173D01*
G01X2532Y47764D01*
G01X1959Y47764D01*
G01X30098Y48623D02*
G01X30098Y47764D01*
G01X30098Y48623D02*
G01X29526Y47764D01*
G01X29526Y48623D02*
G01X29526Y47764D01*
G01X28642Y48419D02*
G01X28683Y48501D01*
G01X28765Y48582D01*
G01X28847Y48623D01*
G01X29010Y48623D01*
G01X29092Y48582D01*
G01X29174Y48501D01*
G01X29215Y48419D01*
G01X29256Y48296D01*
G01X29256Y48091D01*
G01X29215Y47969D01*
G01X29174Y47887D01*
G01X29092Y47805D01*
G01X29010Y47764D01*
G01X28847Y47764D01*
G01X28765Y47805D01*
G01X28683Y47887D01*
G01X28642Y47969D01*
G01X28372Y48460D02*
G01X28290Y48501D01*
G01X28168Y48623D01*
G01X28168Y47764D01*
G01X24764Y48419D02*
G01X24805Y48501D01*
G01X24887Y48582D01*
G01X24968Y48623D01*
G01X25132Y48623D01*
G01X25214Y48582D01*
G01X25296Y48501D01*
G01X25337Y48419D01*
G01X25378Y48296D01*
G01X25378Y48091D01*
G01X25337Y47969D01*
G01X25296Y47887D01*
G01X25214Y47805D01*
G01X25132Y47764D01*
G01X24968Y47764D01*
G01X24887Y47805D01*
G01X24805Y47887D01*
G01X24764Y47969D01*
G01X24248Y48623D02*
G01X24330Y48582D01*
G01X24412Y48501D01*
G01X24453Y48419D01*
G01X24494Y48296D01*
G01X24494Y48091D01*
G01X24453Y47969D01*
G01X24412Y47887D01*
G01X24330Y47805D01*
G01X24248Y47764D01*
G01X24085Y47764D01*
G01X24003Y47805D01*
G01X23921Y47887D01*
G01X23880Y47969D01*
G01X23839Y48091D01*
G01X23839Y48296D01*
G01X23880Y48419D01*
G01X23921Y48501D01*
G01X24003Y48582D01*
G01X24085Y48623D01*
G01X24248Y48623D01*
G01X23569Y48623D02*
G01X23569Y47764D01*
G01X23569Y48623D02*
G01X23242Y47764D01*
G01X22915Y48623D02*
G01X23242Y47764D01*
G01X22915Y48623D02*
G01X22915Y47764D01*
G01X22645Y48460D02*
G01X22563Y48501D01*
G01X22440Y48623D01*
G01X22440Y47764D01*
G01X19650Y48623D02*
G01X19650Y47764D01*
G01X19650Y48623D02*
G01X19078Y47764D01*
G01X19078Y48623D02*
G01X19078Y47764D01*
G01X18562Y48623D02*
G01X18644Y48582D01*
G01X18726Y48501D01*
G01X18767Y48419D01*
G01X18808Y48296D01*
G01X18808Y48091D01*
G01X18767Y47969D01*
G01X18726Y47887D01*
G01X18644Y47805D01*
G01X18562Y47764D01*
G01X18398Y47764D01*
G01X18317Y47805D01*
G01X18235Y47887D01*
G01X18194Y47969D01*
G01X18153Y48091D01*
G01X18153Y48296D01*
G01X18194Y48419D01*
G01X18235Y48501D01*
G01X18317Y48582D01*
G01X18398Y48623D01*
G01X18562Y48623D01*
G01X17883Y48460D02*
G01X17801Y48501D01*
G01X17678Y48623D01*
G01X17678Y47764D01*

%LPD*%
G36*
G01X20753Y20057D02*
G01X20680Y20065D01*
G01X20593Y20052D01*
G01X20526Y20015D01*
G01X20484Y19958D01*
G01X20469Y19885D01*
G01X20480Y19824D01*
G01X20510Y19771D01*
G01X20559Y19730D01*
G01X20627Y19700D01*
G01X20546Y19673D01*
G01X20490Y19631D01*
G01X20457Y19573D01*
G01X20447Y19504D01*
G01X20451Y19460D01*
G01X20464Y19419D01*
G01X20486Y19383D01*
G01X20515Y19352D01*
G01X20551Y19326D01*
G01X20593Y19307D01*
G01X20642Y19295D01*
G01X20695Y19291D01*
G01X20772Y19300D01*
G01X20836Y19328D01*
G01X20882Y19377D01*
G01X20909Y19446D01*
G01X20898Y19462D01*
G01X20886Y19473D01*
G01X20872Y19479D01*
G01X20855Y19481D01*
G01X20833Y19477D01*
G01X20816Y19463D01*
G01X20804Y19441D01*
G01X20794Y19408D01*
G01X20774Y19341D01*
G01X20758Y19338D01*
G01X20726Y19334D01*
G01X20711Y19334D01*
G01X20640Y19347D01*
G01X20587Y19382D01*
G01X20554Y19435D01*
G01X20543Y19504D01*
G01X20554Y19575D01*
G01X20587Y19628D01*
G01X20641Y19663D01*
G01X20716Y19674D01*
G01X20769Y19674D01*
G01X20769Y19722D01*
G01X20726Y19722D01*
G01X20659Y19733D01*
G01X20608Y19763D01*
G01X20575Y19812D01*
G01X20563Y19880D01*
G01X20572Y19941D01*
G01X20599Y19986D01*
G01X20643Y20013D01*
G01X20701Y20022D01*
G01X20725Y20022D01*
G01X20739Y20020D01*
G01X20754Y20017D01*
G01X20774Y19951D01*
G01X20783Y19922D01*
G01X20795Y19901D01*
G01X20812Y19889D01*
G01X20835Y19885D01*
G01X20853Y19887D01*
G01X20868Y19894D01*
G01X20879Y19905D01*
G01X20888Y19923D01*
G01X20862Y19986D01*
G01X20815Y20030D01*
G01X20753Y20057D01*
G37*

%LPD*%
G36*
G01X22053Y20057D02*
G01X21981Y20065D01*
G01X21893Y20052D01*
G01X21827Y20015D01*
G01X21785Y19958D01*
G01X21770Y19885D01*
G01X21780Y19824D01*
G01X21810Y19771D01*
G01X21860Y19730D01*
G01X21927Y19700D01*
G01X21847Y19673D01*
G01X21791Y19631D01*
G01X21758Y19573D01*
G01X21747Y19504D01*
G01X21752Y19460D01*
G01X21765Y19419D01*
G01X21786Y19383D01*
G01X21815Y19352D01*
G01X21851Y19326D01*
G01X21894Y19307D01*
G01X21942Y19295D01*
G01X21996Y19291D01*
G01X22073Y19300D01*
G01X22136Y19328D01*
G01X22183Y19377D01*
G01X22209Y19446D01*
G01X22199Y19462D01*
G01X22186Y19473D01*
G01X22172Y19479D01*
G01X22156Y19481D01*
G01X22133Y19477D01*
G01X22117Y19463D01*
G01X22105Y19441D01*
G01X22095Y19408D01*
G01X22075Y19341D01*
G01X22059Y19338D01*
G01X22027Y19334D01*
G01X22011Y19334D01*
G01X21940Y19347D01*
G01X21887Y19382D01*
G01X21855Y19435D01*
G01X21844Y19504D01*
G01X21854Y19575D01*
G01X21887Y19628D01*
G01X21941Y19663D01*
G01X22016Y19674D01*
G01X22070Y19674D01*
G01X22070Y19722D01*
G01X22026Y19722D01*
G01X21959Y19733D01*
G01X21908Y19763D01*
G01X21876Y19812D01*
G01X21864Y19880D01*
G01X21873Y19941D01*
G01X21900Y19986D01*
G01X21943Y20013D01*
G01X22001Y20022D01*
G01X22026Y20022D01*
G01X22040Y20020D01*
G01X22054Y20017D01*
G01X22075Y19951D01*
G01X22083Y19922D01*
G01X22095Y19901D01*
G01X22112Y19889D01*
G01X22136Y19885D01*
G01X22153Y19887D01*
G01X22168Y19894D01*
G01X22180Y19905D01*
G01X22189Y19923D01*
G01X22162Y19986D01*
G01X22115Y20030D01*
G01X22053Y20057D01*
G37*

%LPD*%
G36*
G01X21236Y20050D02*
G01X20980Y20050D01*
G01X20980Y20012D01*
G01X21087Y19999D01*
G01X21275Y19768D01*
G01X21043Y19354D01*
G01X20957Y19344D01*
G01X20957Y19306D01*
G01X21244Y19306D01*
G01X21244Y19344D01*
G01X21150Y19357D01*
G01X21336Y19697D01*
G01X21445Y19565D01*
G01X21445Y19357D01*
G01X21338Y19344D01*
G01X21338Y19306D01*
G01X21650Y19306D01*
G01X21650Y19344D01*
G01X21546Y19357D01*
G01X21545Y19429D01*
G01X21544Y19502D01*
G01X21544Y19854D01*
G01X21546Y20002D01*
G01X21650Y20012D01*
G01X21650Y20050D01*
G01X21338Y20050D01*
G01X21338Y20012D01*
G01X21445Y20002D01*
G01X21445Y19629D01*
G01X21148Y19997D01*
G01X21236Y20012D01*
G01X21236Y20050D01*
G37*

%LPD*%

%LPD*%
G36*
G01X18684Y18100D02*
G01X18455Y18161D01*
G01X18440Y18148D01*
G01X18445Y17988D01*
G01X18445Y17549D01*
G01X18444Y17505D01*
G01X18442Y17459D01*
G01X18288Y17439D01*
G01X18288Y17404D01*
G01X18696Y17404D01*
G01X18696Y17439D01*
G01X18539Y17459D01*
G01X18537Y17505D01*
G01X18537Y17549D01*
G01X18536Y17593D01*
G01X18536Y18074D01*
G01X18684Y18061D01*
G01X18684Y18100D01*
G37*

%LPD*%

%LPD*%
G36*
G01X18606Y14848D02*
G01X18526Y14858D01*
G01X18434Y14844D01*
G01X18370Y14804D01*
G01X18333Y14742D01*
G01X18321Y14663D01*
G01X18323Y14628D01*
G01X18332Y14593D01*
G01X18347Y14558D01*
G01X18369Y14521D01*
G01X18400Y14480D01*
G01X18438Y14434D01*
G01X18486Y14381D01*
G01X18544Y14320D01*
G01X18569Y14294D01*
G01X18600Y14261D01*
G01X18636Y14225D01*
G01X18674Y14185D01*
G01X18288Y14185D01*
G01X18288Y14099D01*
G01X18745Y14099D01*
G01X18745Y14168D01*
G01X18700Y14218D01*
G01X18656Y14268D01*
G01X18615Y14314D01*
G01X18577Y14358D01*
G01X18506Y14445D01*
G01X18456Y14520D01*
G01X18427Y14590D01*
G01X18417Y14658D01*
G01X18427Y14722D01*
G01X18454Y14772D01*
G01X18497Y14804D01*
G01X18554Y14815D01*
G01X18567Y14815D01*
G01X18581Y14813D01*
G01X18596Y14811D01*
G01X18613Y14808D01*
G01X18635Y14726D01*
G01X18646Y14694D01*
G01X18660Y14673D01*
G01X18677Y14661D01*
G01X18696Y14658D01*
G01X18713Y14660D01*
G01X18728Y14667D01*
G01X18740Y14677D01*
G01X18750Y14691D01*
G01X18724Y14764D01*
G01X18674Y14817D01*
G01X18606Y14848D01*
G37*

%LPD*%

%LPD*%
G36*
G01X24309Y18152D02*
G01X24236Y18160D01*
G01X24149Y18147D01*
G01X24082Y18110D01*
G01X24040Y18053D01*
G01X24025Y17980D01*
G01X24036Y17919D01*
G01X24066Y17866D01*
G01X24115Y17824D01*
G01X24183Y17795D01*
G01X24102Y17768D01*
G01X24046Y17725D01*
G01X24013Y17668D01*
G01X24002Y17599D01*
G01X24007Y17555D01*
G01X24020Y17514D01*
G01X24042Y17478D01*
G01X24071Y17447D01*
G01X24107Y17421D01*
G01X24149Y17402D01*
G01X24198Y17390D01*
G01X24251Y17386D01*
G01X24328Y17395D01*
G01X24391Y17423D01*
G01X24438Y17471D01*
G01X24465Y17541D01*
G01X24454Y17557D01*
G01X24442Y17568D01*
G01X24428Y17574D01*
G01X24411Y17576D01*
G01X24389Y17572D01*
G01X24372Y17558D01*
G01X24360Y17536D01*
G01X24330Y17437D01*
G01X24314Y17433D01*
G01X24282Y17429D01*
G01X24267Y17429D01*
G01X24195Y17442D01*
G01X24143Y17477D01*
G01X24110Y17531D01*
G01X24099Y17599D01*
G01X24110Y17670D01*
G01X24142Y17723D01*
G01X24197Y17757D01*
G01X24272Y17769D01*
G01X24325Y17769D01*
G01X24325Y17818D01*
G01X24282Y17818D01*
G01X24215Y17828D01*
G01X24163Y17858D01*
G01X24131Y17908D01*
G01X24119Y17975D01*
G01X24129Y18036D01*
G01X24156Y18080D01*
G01X24199Y18108D01*
G01X24256Y18117D01*
G01X24281Y18117D01*
G01X24295Y18115D01*
G01X24310Y18112D01*
G01X24330Y18046D01*
G01X24339Y18017D01*
G01X24351Y17996D01*
G01X24368Y17984D01*
G01X24391Y17980D01*
G01X24409Y17982D01*
G01X24423Y17989D01*
G01X24435Y18000D01*
G01X24444Y18018D01*
G01X24418Y18081D01*
G01X24371Y18126D01*
G01X24309Y18152D01*
G37*

%LPD*%

%LPD*%
G36*
G01X24180Y14858D02*
G01X24119Y14858D01*
G01X24119Y14399D01*
G01X24003Y14399D01*
G01X24003Y14333D01*
G01X24119Y14333D01*
G01X24119Y14101D01*
G01X24208Y14101D01*
G01X24208Y14333D01*
G01X24511Y14333D01*
G01X24511Y14386D01*
G01X24180Y14858D01*
G37*

%LPC*%
G36*
G01X24455Y14399D02*
G01X24208Y14752D01*
G01X24208Y14399D01*
G01X24455Y14399D01*
G37*

%LPD*%

%LPD*%
G36*
G01X47437Y26656D02*
G01X47358Y26669D01*
G01X47272Y26655D01*
G01X47208Y26615D01*
G01X47168Y26553D01*
G01X47155Y26474D01*
G01X47164Y26417D01*
G01X47189Y26367D01*
G01X47222Y26324D01*
G01X47256Y26293D01*
G01X47256Y26288D01*
G01X47208Y26256D01*
G01X47168Y26215D01*
G01X47140Y26161D01*
G01X47129Y26093D01*
G01X47146Y26018D01*
G01X47193Y25958D01*
G01X47266Y25917D01*
G01X47360Y25902D01*
G01X47454Y25917D01*
G01X47527Y25959D01*
G01X47576Y26021D01*
G01X47594Y26100D01*
G01X47582Y26170D01*
G01X47551Y26227D01*
G01X47507Y26273D01*
G01X47457Y26306D01*
G01X47457Y26311D01*
G01X47495Y26342D01*
G01X47527Y26380D01*
G01X47550Y26427D01*
G01X47558Y26481D01*
G01X47543Y26558D01*
G01X47501Y26618D01*
G01X47437Y26656D01*
G37*

%LPC*%
G36*
G01X47455Y26247D02*
G01X47411Y26281D01*
G01X47334Y26248D01*
G01X47269Y26211D01*
G01X47225Y26162D01*
G01X47208Y26095D01*
G01X47219Y26043D01*
G01X47250Y26001D01*
G01X47297Y25973D01*
G01X47358Y25963D01*
G01X47423Y25974D01*
G01X47474Y26004D01*
G01X47508Y26049D01*
G01X47520Y26106D01*
G01X47512Y26158D01*
G01X47489Y26206D01*
G01X47455Y26247D01*
G37*
G36*
G01X47408Y26597D02*
G01X47360Y26606D01*
G01X47303Y26595D01*
G01X47262Y26566D01*
G01X47237Y26523D01*
G01X47228Y26469D01*
G01X47233Y26428D01*
G01X47249Y26388D01*
G01X47274Y26350D01*
G01X47310Y26316D01*
G01X47373Y26343D01*
G01X47428Y26377D01*
G01X47468Y26422D01*
G01X47482Y26481D01*
G01X47473Y26532D01*
G01X47447Y26571D01*
G01X47408Y26597D01*
G37*

%LPD*%
G36*
G01X46309Y26659D02*
G01X46228Y26659D01*
G01X46382Y25915D01*
G01X46482Y25915D01*
G01X46601Y26377D01*
G01X46611Y26420D01*
G01X46620Y26463D01*
G01X46629Y26504D01*
G01X46639Y26547D01*
G01X46644Y26547D01*
G01X46652Y26504D01*
G01X46662Y26463D01*
G01X46680Y26377D01*
G01X46796Y25915D01*
G01X46896Y25915D01*
G01X47056Y26659D01*
G01X46969Y26659D01*
G01X46888Y26245D01*
G01X46876Y26186D01*
G01X46865Y26126D01*
G01X46853Y26065D01*
G01X46842Y26004D01*
G01X46837Y26004D01*
G01X46824Y26065D01*
G01X46810Y26126D01*
G01X46797Y26186D01*
G01X46784Y26245D01*
G01X46677Y26659D01*
G01X46598Y26659D01*
G01X46492Y26245D01*
G01X46478Y26186D01*
G01X46465Y26126D01*
G01X46438Y26004D01*
G01X46433Y26004D01*
G01X46411Y26126D01*
G01X46401Y26186D01*
G01X46390Y26245D01*
G01X46309Y26659D01*
G37*

%LPD*%
G36*
G01X47863Y26659D02*
G01X47774Y26659D01*
G01X47774Y26189D01*
G01X47673Y26189D01*
G01X47673Y26123D01*
G01X47774Y26123D01*
G01X47774Y25915D01*
G01X47853Y25915D01*
G01X47853Y26123D01*
G01X48178Y26123D01*
G01X48178Y26177D01*
G01X47863Y26659D01*
G37*

%LPC*%
G36*
G01X47853Y26563D02*
G01X47848Y26563D01*
G01X47850Y26531D01*
G01X47852Y26496D01*
G01X47853Y26461D01*
G01X47853Y26189D01*
G01X48092Y26189D01*
G01X47912Y26453D01*
G01X47896Y26480D01*
G01X47881Y26508D01*
G01X47867Y26536D01*
G01X47853Y26563D01*
G37*

%LPD*%
G36*
G01X48480Y26659D02*
G01X48417Y26659D01*
G01X48417Y25984D01*
G01X48265Y25984D01*
G01X48265Y25915D01*
G01X48666Y25915D01*
G01X48666Y25984D01*
G01X48498Y25984D01*
G01X48498Y26555D01*
G01X48630Y26555D01*
G01X48630Y26608D01*
G01X48586Y26618D01*
G01X48546Y26629D01*
G01X48511Y26643D01*
G01X48480Y26659D01*
G37*

%LPD*%
G36*
G01X48978Y26659D02*
G01X48889Y26659D01*
G01X48889Y26189D01*
G01X48788Y26189D01*
G01X48788Y26123D01*
G01X48889Y26123D01*
G01X48889Y25915D01*
G01X48968Y25915D01*
G01X48968Y26123D01*
G01X49296Y26123D01*
G01X49296Y26177D01*
G01X48978Y26659D01*
G37*

%LPC*%
G36*
G01X48968Y26563D02*
G01X48963Y26563D01*
G01X48965Y26531D01*
G01X48967Y26496D01*
G01X48968Y26461D01*
G01X48968Y26189D01*
G01X49207Y26189D01*
G01X49027Y26453D01*
G01X49011Y26480D01*
G01X48996Y26508D01*
G01X48982Y26536D01*
G01X48968Y26563D01*
G37*

%LPD*%
G36*
G01X49499Y26659D02*
G01X49418Y26659D01*
G01X49418Y25915D01*
G01X49504Y25915D01*
G01X49784Y26398D01*
G01X49865Y26550D01*
G01X49870Y26550D01*
G01X49867Y26493D01*
G01X49864Y26437D01*
G01X49861Y26380D01*
G01X49860Y26321D01*
G01X49860Y25915D01*
G01X49941Y25915D01*
G01X49941Y26659D01*
G01X49855Y26659D01*
G01X49573Y26177D01*
G01X49491Y26024D01*
G01X49486Y26024D01*
G01X49490Y26081D01*
G01X49494Y26139D01*
G01X49497Y26197D01*
G01X49499Y26255D01*
G01X49499Y26659D01*
G37*

%LPD*%
G36*
G01X50325Y26659D02*
G01X50261Y26659D01*
G01X50261Y25984D01*
G01X50111Y25984D01*
G01X50111Y25915D01*
G01X50510Y25915D01*
G01X50510Y25984D01*
G01X50345Y25984D01*
G01X50345Y26555D01*
G01X50474Y26555D01*
G01X50474Y26608D01*
G01X50430Y26618D01*
G01X50390Y26629D01*
G01X50355Y26643D01*
G01X50325Y26659D01*
G37*

%LPD*%

%LPD*%
G36*
G01X50053Y32323D02*
G01X49824Y32384D01*
G01X49809Y32372D01*
G01X49814Y32212D01*
G01X49814Y31773D01*
G01X49813Y31729D01*
G01X49811Y31683D01*
G01X49656Y31663D01*
G01X49656Y31628D01*
G01X50065Y31628D01*
G01X50065Y31663D01*
G01X49908Y31683D01*
G01X49906Y31729D01*
G01X49906Y31773D01*
G01X49905Y31817D01*
G01X49905Y32298D01*
G01X50053Y32285D01*
G01X50053Y32323D01*
G37*

%LPD*%

%LPD*%
G36*
G01X46673Y32374D02*
G01X46593Y32384D01*
G01X46501Y32370D01*
G01X46437Y32329D01*
G01X46400Y32268D01*
G01X46387Y32189D01*
G01X46390Y32154D01*
G01X46399Y32119D01*
G01X46414Y32084D01*
G01X46436Y32047D01*
G01X46467Y32006D01*
G01X46505Y31960D01*
G01X46553Y31907D01*
G01X46611Y31846D01*
G01X46636Y31820D01*
G01X46667Y31787D01*
G01X46703Y31751D01*
G01X46740Y31711D01*
G01X46354Y31711D01*
G01X46354Y31625D01*
G01X46812Y31625D01*
G01X46812Y31694D01*
G01X46766Y31744D01*
G01X46723Y31794D01*
G01X46682Y31840D01*
G01X46644Y31884D01*
G01X46573Y31971D01*
G01X46523Y32046D01*
G01X46494Y32116D01*
G01X46484Y32184D01*
G01X46494Y32248D01*
G01X46521Y32298D01*
G01X46564Y32330D01*
G01X46621Y32341D01*
G01X46633Y32341D01*
G01X46647Y32339D01*
G01X46663Y32337D01*
G01X46680Y32334D01*
G01X46702Y32252D01*
G01X46713Y32220D01*
G01X46727Y32199D01*
G01X46744Y32187D01*
G01X46763Y32184D01*
G01X46780Y32186D01*
G01X46795Y32193D01*
G01X46807Y32203D01*
G01X46817Y32217D01*
G01X46791Y32290D01*
G01X46741Y32343D01*
G01X46673Y32374D01*
G37*

%LPD*%
G01X40080Y48247D02*
G01X40080Y47520D01*
G01X40080Y47261D02*
G01X40131Y47208D01*
G01X40080Y47157D01*
G01X40027Y47208D01*
G01X40080Y47261D01*
G01X39633Y48247D02*
G01X39633Y47520D01*
G01X39633Y47261D02*
G01X39684Y47208D01*
G01X39633Y47157D01*
G01X39580Y47208D01*
G01X39633Y47261D01*
G01X39186Y48247D02*
G01X39186Y47520D01*
G01X39186Y47261D02*
G01X39237Y47208D01*
G01X39186Y47157D01*
G01X39133Y47208D01*
G01X39186Y47261D01*
G01X38739Y47988D02*
G01X38739Y48041D01*
G01X38686Y48145D01*
G01X38635Y48196D01*
G01X38531Y48247D01*
G01X38323Y48247D01*
G01X38219Y48196D01*
G01X38168Y48145D01*
G01X38114Y48041D01*
G01X38114Y47937D01*
G01X38168Y47833D01*
G01X38272Y47675D01*
G01X38790Y47157D01*
G01X38064Y47157D01*
G01X37667Y47988D02*
G01X37667Y48041D01*
G01X37617Y48145D01*
G01X37566Y48196D01*
G01X37462Y48247D01*
G01X37253Y48247D01*
G01X37149Y48196D01*
G01X37096Y48145D01*
G01X37045Y48041D01*
G01X37045Y47937D01*
G01X37096Y47833D01*
G01X37200Y47675D01*
G01X37721Y47157D01*
G01X36994Y47157D01*
G01X36339Y48247D02*
G01X36494Y48196D01*
G01X36598Y48041D01*
G01X36651Y47779D01*
G01X36651Y47625D01*
G01X36598Y47365D01*
G01X36494Y47208D01*
G01X36339Y47157D01*
G01X36235Y47157D01*
G01X36080Y47208D01*
G01X35976Y47365D01*
G01X35922Y47625D01*
G01X35922Y47779D01*
G01X35976Y48041D01*
G01X36080Y48196D01*
G01X36235Y48247D01*
G01X36339Y48247D01*
G01X35580Y48247D02*
G01X35166Y47157D01*
G01X34749Y48247D02*
G01X35166Y47157D01*
G01X34353Y48247D02*
G01X34353Y47520D01*
G01X34353Y47261D02*
G01X34406Y47208D01*
G01X34353Y47157D01*
G01X34302Y47208D01*
G01X34353Y47261D01*
G01X33908Y48247D02*
G01X33908Y47520D01*
G01X33908Y47261D02*
G01X33959Y47208D01*
G01X33908Y47157D01*
G01X33855Y47208D01*
G01X33908Y47261D01*
G01X33461Y48247D02*
G01X33461Y47520D01*
G01X33461Y47261D02*
G01X33512Y47208D01*
G01X33461Y47157D01*
G01X33408Y47208D01*
G01X33461Y47261D01*

%LPD*%
G36*
G01X24386Y11684D02*
G01X24023Y11684D01*
G01X24023Y11597D01*
G01X24345Y11597D01*
G01X24358Y11386D01*
G01X24331Y11393D01*
G01X24304Y11398D01*
G01X24276Y11401D01*
G01X24246Y11402D01*
G01X24194Y11398D01*
G01X24147Y11386D01*
G01X24106Y11367D01*
G01X24070Y11341D01*
G01X24041Y11308D01*
G01X24020Y11268D01*
G01X24007Y11221D01*
G01X24002Y11168D01*
G01X24007Y11116D01*
G01X24021Y11069D01*
G01X24044Y11027D01*
G01X24074Y10992D01*
G01X24112Y10963D01*
G01X24157Y10942D01*
G01X24208Y10929D01*
G01X24264Y10924D01*
G01X24340Y10934D01*
G01X24400Y10963D01*
G01X24444Y11012D01*
G01X24470Y11079D01*
G01X24462Y11094D01*
G01X24450Y11105D01*
G01X24434Y11112D01*
G01X24416Y11115D01*
G01X24396Y11111D01*
G01X24381Y11100D01*
G01X24368Y11079D01*
G01X24358Y11046D01*
G01X24340Y10977D01*
G01X24322Y10973D01*
G01X24305Y10969D01*
G01X24269Y10967D01*
G01X24197Y10981D01*
G01X24144Y11020D01*
G01X24112Y11081D01*
G01X24102Y11160D01*
G01X24113Y11238D01*
G01X24148Y11296D01*
G01X24202Y11331D01*
G01X24274Y11343D01*
G01X24301Y11342D01*
G01X24328Y11339D01*
G01X24354Y11335D01*
G01X24381Y11328D01*
G01X24411Y11336D01*
G01X24386Y11684D01*
G37*

%LPD*%
G54D40*
G01X32263Y40703D02*
G01X32263Y39700D01*
G01X32263Y40178D02*
G01X32120Y40321D01*
G01X32024Y40368D01*
G01X31881Y40368D01*
G01X31786Y40321D01*
G01X31738Y40178D01*
G01X31738Y39700D01*
G01X31280Y40703D02*
G01X31280Y39891D01*
G01X31232Y39748D01*
G01X31136Y39700D01*
G01X31041Y39700D01*
G01X31423Y40368D02*
G01X31089Y40368D01*
G01X30583Y40703D02*
G01X30583Y39891D01*
G01X30535Y39748D01*
G01X30440Y39700D01*
G01X30344Y39700D01*
G01X30726Y40368D02*
G01X30392Y40368D01*
G01X30029Y40368D02*
G01X30029Y39366D01*
G01X30029Y40225D02*
G01X29934Y40321D01*
G01X29838Y40368D01*
G01X29695Y40368D01*
G01X29600Y40321D01*
G01X29504Y40225D01*
G01X29456Y40082D01*
G01X29456Y39987D01*
G01X29504Y39843D01*
G01X29600Y39748D01*
G01X29695Y39700D01*
G01X29838Y39700D01*
G01X29934Y39748D01*
G01X30029Y39843D01*
G01X28616Y40225D02*
G01X28664Y40321D01*
G01X28807Y40368D01*
G01X28951Y40368D01*
G01X29094Y40321D01*
G01X29141Y40225D01*
G01X29094Y40130D01*
G01X28998Y40082D01*
G01X28760Y40034D01*
G01X28664Y39987D01*
G01X28616Y39891D01*
G01X28616Y39843D01*
G01X28664Y39748D01*
G01X28807Y39700D01*
G01X28951Y39700D01*
G01X29094Y39748D01*
G01X29141Y39843D01*
G01X28254Y40273D02*
G01X28302Y40225D01*
G01X28254Y40178D01*
G01X28206Y40225D01*
G01X28254Y40273D01*
G01X28254Y39939D02*
G01X28302Y39891D01*
G01X28254Y39843D01*
G01X28206Y39891D01*
G01X28254Y39939D01*
G01X27032Y40893D02*
G01X27891Y39366D01*
G01X25858Y40893D02*
G01X26717Y39366D01*
G01X24970Y40368D02*
G01X24970Y39605D01*
G01X25018Y39462D01*
G01X25066Y39414D01*
G01X25161Y39366D01*
G01X25304Y39366D01*
G01X25400Y39414D01*
G01X24970Y40225D02*
G01X25066Y40321D01*
G01X25161Y40368D01*
G01X25304Y40368D01*
G01X25400Y40321D01*
G01X25495Y40225D01*
G01X25543Y40082D01*
G01X25543Y39987D01*
G01X25495Y39843D01*
G01X25400Y39748D01*
G01X25304Y39700D01*
G01X25161Y39700D01*
G01X25066Y39748D01*
G01X24970Y39843D01*
G01X24655Y40703D02*
G01X24607Y40655D01*
G01X24560Y40703D01*
G01X24607Y40750D01*
G01X24655Y40703D01*
G01X24607Y40368D02*
G01X24607Y39700D01*
G01X24101Y40703D02*
G01X24101Y39891D01*
G01X24054Y39748D01*
G01X23958Y39700D01*
G01X23863Y39700D01*
G01X24245Y40368D02*
G01X23911Y40368D01*
G01X23548Y40703D02*
G01X23548Y39700D01*
G01X23548Y40178D02*
G01X23405Y40321D01*
G01X23309Y40368D01*
G01X23166Y40368D01*
G01X23071Y40321D01*
G01X23023Y40178D01*
G01X23023Y39700D01*
G01X22708Y40368D02*
G01X22708Y39891D01*
G01X22660Y39748D01*
G01X22565Y39700D01*
G01X22421Y39700D01*
G01X22326Y39748D01*
G01X22183Y39891D01*
G01X22183Y40368D02*
G01X22183Y39700D01*
G01X21868Y40703D02*
G01X21868Y39700D01*
G01X21868Y40225D02*
G01X21772Y40321D01*
G01X21677Y40368D01*
G01X21534Y40368D01*
G01X21438Y40321D01*
G01X21343Y40225D01*
G01X21295Y40082D01*
G01X21295Y39987D01*
G01X21343Y39843D01*
G01X21438Y39748D01*
G01X21534Y39700D01*
G01X21677Y39700D01*
G01X21772Y39748D01*
G01X21868Y39843D01*
G01X20932Y39939D02*
G01X20980Y39891D01*
G01X20932Y39843D01*
G01X20885Y39891D01*
G01X20932Y39939D01*
G01X19997Y40225D02*
G01X20092Y40321D01*
G01X20188Y40368D01*
G01X20331Y40368D01*
G01X20426Y40321D01*
G01X20522Y40225D01*
G01X20570Y40082D01*
G01X20570Y39987D01*
G01X20522Y39843D01*
G01X20426Y39748D01*
G01X20331Y39700D01*
G01X20188Y39700D01*
G01X20092Y39748D01*
G01X19997Y39843D01*
G01X19443Y40368D02*
G01X19539Y40321D01*
G01X19634Y40225D01*
G01X19682Y40082D01*
G01X19682Y39987D01*
G01X19634Y39843D01*
G01X19539Y39748D01*
G01X19443Y39700D01*
G01X19300Y39700D01*
G01X19205Y39748D01*
G01X19109Y39843D01*
G01X19061Y39987D01*
G01X19061Y40082D01*
G01X19109Y40225D01*
G01X19205Y40321D01*
G01X19300Y40368D01*
G01X19443Y40368D01*
G01X18746Y40368D02*
G01X18746Y39700D01*
G01X18746Y40178D02*
G01X18603Y40321D01*
G01X18508Y40368D01*
G01X18365Y40368D01*
G01X18269Y40321D01*
G01X18221Y40178D01*
G01X18221Y39700D01*
G01X18221Y40178D02*
G01X18078Y40321D01*
G01X17983Y40368D01*
G01X17840Y40368D01*
G01X17744Y40321D01*
G01X17696Y40178D01*
G01X17696Y39700D01*
G01X16522Y40893D02*
G01X17381Y39366D01*
G01X16207Y40703D02*
G01X16160Y40655D01*
G01X16112Y40703D01*
G01X16160Y40750D01*
G01X16207Y40703D01*
G01X16160Y40368D02*
G01X16160Y39700D01*
G01X15797Y40368D02*
G01X15511Y39700D01*
G01X15224Y40368D02*
G01X15511Y39700D01*
G01X14336Y40368D02*
G01X14336Y39700D01*
G01X14336Y40225D02*
G01X14432Y40321D01*
G01X14527Y40368D01*
G01X14671Y40368D01*
G01X14766Y40321D01*
G01X14861Y40225D01*
G01X14909Y40082D01*
G01X14909Y39987D01*
G01X14861Y39843D01*
G01X14766Y39748D01*
G01X14671Y39700D01*
G01X14527Y39700D01*
G01X14432Y39748D01*
G01X14336Y39843D01*
G01X14021Y40368D02*
G01X14021Y39700D01*
G01X14021Y40082D02*
G01X13974Y40225D01*
G01X13878Y40321D01*
G01X13783Y40368D01*
G01X13640Y40368D01*
G01X13325Y40368D02*
G01X13325Y39700D01*
G01X13325Y40178D02*
G01X13181Y40321D01*
G01X13086Y40368D01*
G01X12943Y40368D01*
G01X12847Y40321D01*
G01X12800Y40178D01*
G01X12800Y39700D01*
G01X12800Y40178D02*
G01X12656Y40321D01*
G01X12561Y40368D01*
G01X12418Y40368D01*
G01X12322Y40321D01*
G01X12275Y40178D01*
G01X12275Y39700D01*
G01X11960Y40368D02*
G01X11960Y39891D01*
G01X11912Y39748D01*
G01X11816Y39700D01*
G01X11673Y39700D01*
G01X11578Y39748D01*
G01X11435Y39891D01*
G01X11435Y40368D02*
G01X11435Y39700D01*
G01X10261Y40893D02*
G01X11120Y39366D01*
G01X9564Y40703D02*
G01X9946Y39700D01*
G01X9564Y40703D02*
G01X9182Y39700D01*
G01X9802Y40034D02*
G01X9325Y40034D01*
G01X8867Y40368D02*
G01X8867Y39700D01*
G01X8867Y40082D02*
G01X8819Y40225D01*
G01X8724Y40321D01*
G01X8628Y40368D01*
G01X8485Y40368D01*
G01X7597Y40703D02*
G01X7597Y39700D01*
G01X7597Y40225D02*
G01X7693Y40321D01*
G01X7788Y40368D01*
G01X7931Y40368D01*
G01X8027Y40321D01*
G01X8122Y40225D01*
G01X8170Y40082D01*
G01X8170Y39987D01*
G01X8122Y39843D01*
G01X8027Y39748D01*
G01X7931Y39700D01*
G01X7788Y39700D01*
G01X7693Y39748D01*
G01X7597Y39843D01*
G01X7282Y40368D02*
G01X7282Y39891D01*
G01X7235Y39748D01*
G01X7139Y39700D01*
G01X6996Y39700D01*
G01X6901Y39748D01*
G01X6757Y39891D01*
G01X6757Y40368D02*
G01X6757Y39700D01*
G01X6442Y40703D02*
G01X6395Y40655D01*
G01X6347Y40703D01*
G01X6395Y40750D01*
G01X6442Y40703D01*
G01X6395Y40368D02*
G01X6395Y39700D01*
G01X6032Y40368D02*
G01X6032Y39700D01*
G01X6032Y40178D02*
G01X5889Y40321D01*
G01X5793Y40368D01*
G01X5650Y40368D01*
G01X5555Y40321D01*
G01X5507Y40178D01*
G01X5507Y39700D01*
G01X4953Y40368D02*
G01X5049Y40321D01*
G01X5144Y40225D01*
G01X5192Y40082D01*
G01X5192Y39987D01*
G01X5144Y39843D01*
G01X5049Y39748D01*
G01X4953Y39700D01*
G01X4810Y39700D01*
G01X4715Y39748D01*
G01X4619Y39843D01*
G01X4572Y39987D01*
G01X4572Y40082D01*
G01X4619Y40225D01*
G01X4715Y40321D01*
G01X4810Y40368D01*
G01X4953Y40368D01*

%LPD*%
G36*
G01X15059Y31738D02*
G01X14993Y31744D01*
G01X14927Y31738D01*
G01X14866Y31718D01*
G01X14812Y31686D01*
G01X14766Y31642D01*
G01X14729Y31588D01*
G01X14702Y31522D01*
G01X14684Y31448D01*
G01X14678Y31363D01*
G01X14683Y31285D01*
G01X14697Y31214D01*
G01X14720Y31152D01*
G01X14751Y31098D01*
G01X14790Y31053D01*
G01X14836Y31017D01*
G01X14887Y30992D01*
G01X14945Y30977D01*
G01X14912Y30933D01*
G01X14869Y30901D01*
G01X14817Y30882D01*
G01X14757Y30876D01*
G01X14734Y30877D01*
G01X14714Y30879D01*
G01X14696Y30882D01*
G01X14681Y30886D01*
G01X14665Y30820D01*
G01X14684Y30813D01*
G01X14708Y30808D01*
G01X14736Y30806D01*
G01X14767Y30805D01*
G01X14860Y30817D01*
G01X14936Y30853D01*
G01X14994Y30907D01*
G01X15034Y30977D01*
G01X15092Y30990D01*
G01X15145Y31015D01*
G01X15191Y31050D01*
G01X15231Y31095D01*
G01X15262Y31149D01*
G01X15286Y31212D01*
G01X15300Y31284D01*
G01X15306Y31363D01*
G01X15299Y31448D01*
G01X15283Y31522D01*
G01X15255Y31588D01*
G01X15218Y31642D01*
G01X15172Y31686D01*
G01X15119Y31718D01*
G01X15059Y31738D01*
G37*

%LPC*%
G36*
G01X15042Y31665D02*
G01X14993Y31671D01*
G01X14943Y31665D01*
G01X14899Y31649D01*
G01X14860Y31623D01*
G01X14826Y31587D01*
G01X14800Y31543D01*
G01X14781Y31491D01*
G01X14769Y31430D01*
G01X14765Y31363D01*
G01X14769Y31293D01*
G01X14781Y31231D01*
G01X14800Y31176D01*
G01X14826Y31130D01*
G01X14860Y31093D01*
G01X14899Y31066D01*
G01X14943Y31049D01*
G01X14993Y31043D01*
G01X15042Y31049D01*
G01X15087Y31066D01*
G01X15125Y31093D01*
G01X15158Y31130D01*
G01X15184Y31176D01*
G01X15203Y31231D01*
G01X15215Y31293D01*
G01X15219Y31363D01*
G01X15215Y31430D01*
G01X15203Y31491D01*
G01X15184Y31543D01*
G01X15158Y31587D01*
G01X15125Y31623D01*
G01X15087Y31649D01*
G01X15042Y31665D01*
G37*

%LPD*%
G36*
G01X14415Y31738D02*
G01X14356Y31744D01*
G01X14271Y31732D01*
G01X14203Y31697D01*
G01X14158Y31639D01*
G01X14142Y31561D01*
G01X14152Y31497D01*
G01X14180Y31446D01*
G01X14222Y31406D01*
G01X14277Y31379D01*
G01X14277Y31376D01*
G01X14214Y31352D01*
G01X14164Y31311D01*
G01X14130Y31255D01*
G01X14117Y31186D01*
G01X14121Y31138D01*
G01X14135Y31097D01*
G01X14156Y31061D01*
G01X14185Y31031D01*
G01X14219Y31007D01*
G01X14260Y30989D01*
G01X14303Y30978D01*
G01X14351Y30975D01*
G01X14430Y30983D01*
G01X14494Y31006D01*
G01X14546Y31038D01*
G01X14587Y31076D01*
G01X14544Y31130D01*
G01X14508Y31097D01*
G01X14467Y31069D01*
G01X14417Y31050D01*
G01X14356Y31043D01*
G01X14294Y31053D01*
G01X14245Y31082D01*
G01X14212Y31128D01*
G01X14201Y31188D01*
G01X14213Y31251D01*
G01X14254Y31300D01*
G01X14327Y31332D01*
G01X14437Y31343D01*
G01X14437Y31406D01*
G01X14339Y31418D01*
G01X14275Y31449D01*
G01X14239Y31495D01*
G01X14229Y31554D01*
G01X14237Y31604D01*
G01X14263Y31644D01*
G01X14304Y31669D01*
G01X14358Y31678D01*
G01X14402Y31672D01*
G01X14443Y31656D01*
G01X14481Y31632D01*
G01X14513Y31602D01*
G01X14559Y31658D01*
G01X14517Y31692D01*
G01X14469Y31719D01*
G01X14415Y31738D01*
G37*

%LPD*%

%LPD*%
G36*
G01X31315Y31738D02*
G01X31249Y31744D01*
G01X31183Y31738D01*
G01X31122Y31718D01*
G01X31068Y31686D01*
G01X31022Y31642D01*
G01X30985Y31588D01*
G01X30958Y31522D01*
G01X30940Y31448D01*
G01X30934Y31363D01*
G01X30939Y31285D01*
G01X30953Y31214D01*
G01X30976Y31152D01*
G01X31008Y31098D01*
G01X31046Y31053D01*
G01X31092Y31017D01*
G01X31143Y30992D01*
G01X31201Y30977D01*
G01X31168Y30933D01*
G01X31125Y30901D01*
G01X31073Y30882D01*
G01X31013Y30876D01*
G01X30990Y30877D01*
G01X30970Y30879D01*
G01X30952Y30882D01*
G01X30937Y30886D01*
G01X30919Y30820D01*
G01X30939Y30813D01*
G01X30964Y30809D01*
G01X30992Y30806D01*
G01X31023Y30805D01*
G01X31116Y30817D01*
G01X31192Y30853D01*
G01X31250Y30907D01*
G01X31290Y30977D01*
G01X31348Y30990D01*
G01X31401Y31015D01*
G01X31447Y31050D01*
G01X31487Y31095D01*
G01X31518Y31149D01*
G01X31542Y31212D01*
G01X31556Y31284D01*
G01X31562Y31363D01*
G01X31555Y31448D01*
G01X31539Y31522D01*
G01X31511Y31588D01*
G01X31474Y31642D01*
G01X31428Y31686D01*
G01X31375Y31718D01*
G01X31315Y31738D01*
G37*

%LPC*%
G36*
G01X31298Y31665D02*
G01X31249Y31671D01*
G01X31199Y31665D01*
G01X31155Y31649D01*
G01X31116Y31623D01*
G01X31082Y31587D01*
G01X31056Y31543D01*
G01X31037Y31491D01*
G01X31025Y31430D01*
G01X31021Y31363D01*
G01X31025Y31293D01*
G01X31037Y31231D01*
G01X31056Y31176D01*
G01X31082Y31130D01*
G01X31116Y31093D01*
G01X31155Y31066D01*
G01X31199Y31049D01*
G01X31249Y31043D01*
G01X31298Y31049D01*
G01X31343Y31066D01*
G01X31381Y31093D01*
G01X31414Y31130D01*
G01X31440Y31176D01*
G01X31459Y31231D01*
G01X31471Y31293D01*
G01X31475Y31363D01*
G01X31471Y31430D01*
G01X31459Y31491D01*
G01X31440Y31543D01*
G01X31414Y31587D01*
G01X31381Y31623D01*
G01X31343Y31649D01*
G01X31298Y31665D01*
G37*

%LPD*%
G36*
G01X30538Y31732D02*
G01X30449Y31732D01*
G01X30449Y31262D01*
G01X30347Y31262D01*
G01X30347Y31196D01*
G01X30449Y31196D01*
G01X30449Y30987D01*
G01X30528Y30987D01*
G01X30528Y31196D01*
G01X30853Y31196D01*
G01X30853Y31249D01*
G01X30538Y31732D01*
G37*

%LPC*%
G36*
G01X30528Y31635D02*
G01X30523Y31635D01*
G01X30525Y31604D01*
G01X30526Y31568D01*
G01X30527Y31533D01*
G01X30528Y31503D01*
G01X30528Y31262D01*
G01X30767Y31262D01*
G01X30586Y31526D01*
G01X30556Y31580D01*
G01X30541Y31608D01*
G01X30528Y31635D01*
G37*

%LPD*%

%LPD*%
G36*
G01X47720Y11678D02*
G01X47670Y11683D01*
G01X47620Y11678D01*
G01X47576Y11660D01*
G01X47537Y11631D01*
G01X47505Y11589D01*
G01X47479Y11536D01*
G01X47460Y11470D01*
G01X47448Y11392D01*
G01X47444Y11302D01*
G01X47448Y11210D01*
G01X47460Y11131D01*
G01X47479Y11065D01*
G01X47505Y11010D01*
G01X47537Y10968D01*
G01X47576Y10938D01*
G01X47620Y10920D01*
G01X47670Y10914D01*
G01X47720Y10920D01*
G01X47765Y10938D01*
G01X47804Y10968D01*
G01X47837Y11010D01*
G01X47863Y11065D01*
G01X47883Y11131D01*
G01X47895Y11210D01*
G01X47899Y11302D01*
G01X47895Y11392D01*
G01X47883Y11470D01*
G01X47863Y11536D01*
G01X47837Y11589D01*
G01X47804Y11631D01*
G01X47765Y11660D01*
G01X47720Y11678D01*
G37*

%LPC*%
G36*
G01X47702Y11613D02*
G01X47670Y11617D01*
G01X47639Y11613D01*
G01X47611Y11599D01*
G01X47586Y11575D01*
G01X47566Y11541D01*
G01X47548Y11497D01*
G01X47536Y11443D01*
G01X47528Y11378D01*
G01X47525Y11302D01*
G01X47528Y11225D01*
G01X47536Y11158D01*
G01X47548Y11102D01*
G01X47566Y11058D01*
G01X47586Y11023D01*
G01X47611Y10999D01*
G01X47639Y10984D01*
G01X47670Y10980D01*
G01X47702Y10984D01*
G01X47731Y10999D01*
G01X47757Y11023D01*
G01X47778Y11058D01*
G01X47796Y11102D01*
G01X47809Y11158D01*
G01X47817Y11225D01*
G01X47820Y11302D01*
G01X47817Y11378D01*
G01X47809Y11443D01*
G01X47796Y11497D01*
G01X47778Y11541D01*
G01X47757Y11575D01*
G01X47731Y11599D01*
G01X47702Y11613D01*
G37*

%LPD*%
G36*
G01X49303Y11671D02*
G01X48948Y11671D01*
G01X48948Y11600D01*
G01X49230Y11600D01*
G01X49250Y11374D01*
G01X49224Y11387D01*
G01X49196Y11396D01*
G01X49167Y11402D01*
G01X49133Y11404D01*
G01X49089Y11400D01*
G01X49047Y11390D01*
G01X49010Y11373D01*
G01X48977Y11348D01*
G01X48950Y11315D01*
G01X48930Y11274D01*
G01X48917Y11225D01*
G01X48912Y11168D01*
G01X48917Y11110D01*
G01X48932Y11060D01*
G01X48955Y11016D01*
G01X48986Y10980D01*
G01X49022Y10951D01*
G01X49062Y10931D01*
G01X49106Y10918D01*
G01X49151Y10914D01*
G01X49230Y10922D01*
G01X49293Y10944D01*
G01X49344Y10976D01*
G01X49385Y11013D01*
G01X49344Y11066D01*
G01X49309Y11035D01*
G01X49268Y11008D01*
G01X49219Y10989D01*
G01X49159Y10982D01*
G01X49095Y10995D01*
G01X49043Y11032D01*
G01X49007Y11090D01*
G01X48994Y11165D01*
G01X49005Y11239D01*
G01X49037Y11294D01*
G01X49088Y11328D01*
G01X49154Y11340D01*
G01X49189Y11338D01*
G01X49220Y11329D01*
G01X49250Y11316D01*
G01X49281Y11297D01*
G01X49326Y11325D01*
G01X49303Y11671D01*
G37*

%LPD*%
G36*
G01X44894Y11671D02*
G01X44805Y11671D01*
G01X44805Y11201D01*
G01X44704Y11201D01*
G01X44704Y11135D01*
G01X44805Y11135D01*
G01X44805Y10926D01*
G01X44884Y10926D01*
G01X44884Y11135D01*
G01X45209Y11135D01*
G01X45209Y11188D01*
G01X44894Y11671D01*
G37*

%LPC*%
G36*
G01X44884Y11574D02*
G01X44879Y11574D01*
G01X44880Y11543D01*
G01X44882Y11507D01*
G01X44883Y11473D01*
G01X44884Y11442D01*
G01X44884Y11201D01*
G01X45123Y11201D01*
G01X44942Y11465D01*
G01X44927Y11492D01*
G01X44912Y11520D01*
G01X44884Y11574D01*
G37*

%LPD*%
G36*
G01X45511Y11671D02*
G01X45448Y11671D01*
G01X45448Y10995D01*
G01X45295Y10995D01*
G01X45295Y10926D01*
G01X45697Y10926D01*
G01X45697Y10995D01*
G01X45529Y10995D01*
G01X45529Y11567D01*
G01X45661Y11567D01*
G01X45661Y11620D01*
G01X45616Y11629D01*
G01X45577Y11641D01*
G01X45542Y11654D01*
G01X45511Y11671D01*
G37*

%LPD*%
G36*
G01X46321Y11671D02*
G01X46093Y11671D01*
G01X46038Y11668D01*
G01X45988Y11660D01*
G01X45945Y11646D01*
G01X45907Y11625D01*
G01X45877Y11597D01*
G01X45855Y11561D01*
G01X45841Y11518D01*
G01X45836Y11465D01*
G01X45849Y11386D01*
G01X45884Y11326D01*
G01X45938Y11283D01*
G01X46009Y11257D01*
G01X45816Y10926D01*
G01X45910Y10926D01*
G01X46098Y11247D01*
G01X46235Y11247D01*
G01X46235Y10926D01*
G01X46321Y10926D01*
G01X46321Y11671D01*
G37*

%LPC*%
G36*
G01X46235Y11602D02*
G01X46106Y11602D01*
G01X46026Y11595D01*
G01X45968Y11572D01*
G01X45932Y11529D01*
G01X45920Y11465D01*
G01X45932Y11399D01*
G01X45968Y11353D01*
G01X46026Y11326D01*
G01X46106Y11318D01*
G01X46235Y11318D01*
G01X46235Y11602D01*
G37*

%LPD*%
G36*
G01X46880Y11671D02*
G01X46784Y11671D01*
G01X47017Y11389D01*
G01X46748Y10926D01*
G01X46845Y10926D01*
G01X47071Y11323D01*
G01X47205Y11165D01*
G01X47205Y10926D01*
G01X47289Y10926D01*
G01X47289Y11671D01*
G01X47205Y11671D01*
G01X47205Y11287D01*
G01X47203Y11287D01*
G01X46880Y11671D01*
G37*

%LPD*%
G36*
G01X48232Y11671D02*
G01X48168Y11671D01*
G01X48168Y10995D01*
G01X48018Y10995D01*
G01X48018Y10926D01*
G01X48417Y10926D01*
G01X48417Y10995D01*
G01X48252Y10995D01*
G01X48252Y11567D01*
G01X48381Y11567D01*
G01X48381Y11620D01*
G01X48336Y11629D01*
G01X48297Y11641D01*
G01X48262Y11654D01*
G01X48232Y11671D01*
G37*

%LPD*%
G36*
G01X49695Y11671D02*
G01X49634Y11671D01*
G01X49634Y10995D01*
G01X49481Y10995D01*
G01X49481Y10926D01*
G01X49883Y10926D01*
G01X49883Y10995D01*
G01X49715Y10995D01*
G01X49715Y11567D01*
G01X49847Y11567D01*
G01X49847Y11620D01*
G01X49801Y11629D01*
G01X49761Y11641D01*
G01X49726Y11654D01*
G01X49695Y11671D01*
G37*

%LPD*%
G36*
G01X50505Y11671D02*
G01X50279Y11671D01*
G01X50224Y11668D01*
G01X50174Y11660D01*
G01X50130Y11646D01*
G01X50092Y11625D01*
G01X50061Y11597D01*
G01X50039Y11561D01*
G01X50024Y11518D01*
G01X50020Y11465D01*
G01X50032Y11386D01*
G01X50067Y11326D01*
G01X50121Y11283D01*
G01X50192Y11257D01*
G01X50002Y10926D01*
G01X50096Y10926D01*
G01X50281Y11247D01*
G01X50421Y11247D01*
G01X50421Y10926D01*
G01X50505Y10926D01*
G01X50505Y11671D01*
G37*

%LPC*%
G36*
G01X50421Y11602D02*
G01X50292Y11602D01*
G01X50212Y11595D01*
G01X50154Y11572D01*
G01X50118Y11529D01*
G01X50106Y11465D01*
G01X50118Y11399D01*
G01X50154Y11353D01*
G01X50212Y11326D01*
G01X50292Y11318D01*
G01X50421Y11318D01*
G01X50421Y11602D01*
G37*

%LPD*%
G36*
G01X46725Y11241D02*
G01X46469Y11241D01*
G01X46469Y11178D01*
G01X46725Y11178D01*
G01X46725Y11241D01*
G37*

%LPD*%
G36*
G01X48811Y11241D02*
G01X48552Y11241D01*
G01X48552Y11178D01*
G01X48811Y11178D01*
G01X48811Y11241D01*
G37*

%LPD*%

%LPD*%
G36*
G01X38524Y9899D02*
G01X38458Y9905D01*
G01X38391Y9899D01*
G01X38330Y9879D01*
G01X38276Y9847D01*
G01X38231Y9804D01*
G01X38193Y9749D01*
G01X38166Y9684D01*
G01X38149Y9609D01*
G01X38143Y9524D01*
G01X38148Y9446D01*
G01X38162Y9376D01*
G01X38185Y9313D01*
G01X38217Y9259D01*
G01X38256Y9214D01*
G01X38301Y9179D01*
G01X38352Y9154D01*
G01X38409Y9138D01*
G01X38378Y9094D01*
G01X38336Y9062D01*
G01X38283Y9043D01*
G01X38224Y9037D01*
G01X38201Y9038D01*
G01X38180Y9040D01*
G01X38161Y9043D01*
G01X38145Y9047D01*
G01X38130Y8981D01*
G01X38149Y8974D01*
G01X38173Y8970D01*
G01X38202Y8967D01*
G01X38232Y8966D01*
G01X38325Y8978D01*
G01X38401Y9014D01*
G01X38461Y9069D01*
G01X38501Y9138D01*
G01X38558Y9152D01*
G01X38611Y9176D01*
G01X38657Y9211D01*
G01X38697Y9256D01*
G01X38729Y9311D01*
G01X38753Y9374D01*
G01X38768Y9445D01*
G01X38773Y9524D01*
G01X38767Y9609D01*
G01X38749Y9684D01*
G01X38722Y9749D01*
G01X38685Y9804D01*
G01X38638Y9847D01*
G01X38585Y9879D01*
G01X38524Y9899D01*
G37*

%LPC*%
G36*
G01X38507Y9826D02*
G01X38458Y9832D01*
G01X38408Y9826D01*
G01X38364Y9810D01*
G01X38325Y9784D01*
G01X38292Y9748D01*
G01X38265Y9704D01*
G01X38245Y9652D01*
G01X38233Y9591D01*
G01X38229Y9524D01*
G01X38233Y9455D01*
G01X38245Y9392D01*
G01X38265Y9337D01*
G01X38292Y9291D01*
G01X38325Y9254D01*
G01X38364Y9227D01*
G01X38408Y9210D01*
G01X38458Y9204D01*
G01X38507Y9210D01*
G01X38551Y9227D01*
G01X38590Y9254D01*
G01X38623Y9291D01*
G01X38650Y9337D01*
G01X38670Y9392D01*
G01X38682Y9455D01*
G01X38686Y9524D01*
G01X38682Y9591D01*
G01X38670Y9652D01*
G01X38650Y9704D01*
G01X38623Y9748D01*
G01X38590Y9784D01*
G01X38551Y9810D01*
G01X38507Y9826D01*
G37*

%LPD*%
G36*
G01X42097Y9899D02*
G01X42031Y9905D01*
G01X41964Y9899D01*
G01X41904Y9879D01*
G01X41850Y9847D01*
G01X41804Y9804D01*
G01X41767Y9749D01*
G01X41739Y9684D01*
G01X41723Y9609D01*
G01X41716Y9524D01*
G01X41722Y9446D01*
G01X41736Y9376D01*
G01X41759Y9313D01*
G01X41790Y9259D01*
G01X41828Y9214D01*
G01X41873Y9179D01*
G01X41924Y9154D01*
G01X41981Y9138D01*
G01X41950Y9094D01*
G01X41907Y9062D01*
G01X41855Y9043D01*
G01X41795Y9037D01*
G01X41772Y9038D01*
G01X41752Y9040D01*
G01X41734Y9043D01*
G01X41719Y9047D01*
G01X41701Y8981D01*
G01X41721Y8974D01*
G01X41745Y8970D01*
G01X41774Y8967D01*
G01X41805Y8966D01*
G01X41898Y8978D01*
G01X41974Y9014D01*
G01X42032Y9069D01*
G01X42072Y9138D01*
G01X42130Y9152D01*
G01X42183Y9176D01*
G01X42230Y9211D01*
G01X42269Y9256D01*
G01X42301Y9311D01*
G01X42324Y9374D01*
G01X42339Y9445D01*
G01X42344Y9524D01*
G01X42338Y9609D01*
G01X42320Y9684D01*
G01X42293Y9749D01*
G01X42256Y9804D01*
G01X42211Y9847D01*
G01X42157Y9879D01*
G01X42097Y9899D01*
G37*

%LPC*%
G36*
G01X42081Y9826D02*
G01X42031Y9832D01*
G01X41982Y9826D01*
G01X41937Y9810D01*
G01X41898Y9784D01*
G01X41865Y9748D01*
G01X41838Y9704D01*
G01X41819Y9652D01*
G01X41807Y9591D01*
G01X41803Y9524D01*
G01X41807Y9455D01*
G01X41819Y9392D01*
G01X41838Y9337D01*
G01X41865Y9291D01*
G01X41898Y9254D01*
G01X41937Y9227D01*
G01X41982Y9210D01*
G01X42031Y9204D01*
G01X42081Y9210D01*
G01X42124Y9227D01*
G01X42163Y9254D01*
G01X42196Y9291D01*
G01X42222Y9337D01*
G01X42241Y9392D01*
G01X42253Y9455D01*
G01X42257Y9524D01*
G01X42253Y9591D01*
G01X42241Y9652D01*
G01X42222Y9704D01*
G01X42196Y9748D01*
G01X42163Y9784D01*
G01X42124Y9810D01*
G01X42081Y9826D01*
G37*

%LPD*%
G36*
G01X37807Y9893D02*
G01X37744Y9893D01*
G01X37744Y9217D01*
G01X37592Y9217D01*
G01X37592Y9148D01*
G01X37993Y9148D01*
G01X37993Y9217D01*
G01X37825Y9217D01*
G01X37825Y9789D01*
G01X37957Y9789D01*
G01X37957Y9842D01*
G01X37913Y9851D01*
G01X37873Y9863D01*
G01X37838Y9876D01*
G01X37807Y9893D01*
G37*

%LPD*%
G36*
G01X41462Y9898D02*
G01X41399Y9905D01*
G01X41352Y9901D01*
G01X41310Y9890D01*
G01X41273Y9871D01*
G01X41242Y9846D01*
G01X41218Y9814D01*
G01X41200Y9777D01*
G01X41189Y9734D01*
G01X41186Y9687D01*
G01X41191Y9631D01*
G01X41206Y9574D01*
G01X41232Y9517D01*
G01X41267Y9458D01*
G01X41310Y9399D01*
G01X41361Y9339D01*
G01X41420Y9278D01*
G01X41485Y9215D01*
G01X41454Y9217D01*
G01X41423Y9218D01*
G01X41363Y9220D01*
G01X41150Y9220D01*
G01X41150Y9148D01*
G01X41610Y9148D01*
G01X41610Y9199D01*
G01X41526Y9274D01*
G01X41455Y9344D01*
G01X41396Y9409D01*
G01X41349Y9471D01*
G01X41313Y9528D01*
G01X41287Y9583D01*
G01X41272Y9635D01*
G01X41267Y9684D01*
G01X41276Y9746D01*
G01X41301Y9795D01*
G01X41345Y9828D01*
G01X41407Y9839D01*
G01X41452Y9832D01*
G01X41494Y9813D01*
G01X41532Y9785D01*
G01X41567Y9750D01*
G01X41615Y9796D01*
G01X41568Y9841D01*
G01X41518Y9875D01*
G01X41462Y9898D01*
G37*

%LPD*%
G54D39*
G01X33096Y27038D02*
G01X33096Y26311D01*
G01X33096Y26052D02*
G01X33146Y25999D01*
G01X33096Y25948D01*
G01X33042Y25999D01*
G01X33096Y26052D01*
G01X32649Y27038D02*
G01X32649Y26311D01*
G01X32649Y26052D02*
G01X32699Y25999D01*
G01X32649Y25948D01*
G01X32595Y25999D01*
G01X32649Y26052D01*
G01X32201Y27038D02*
G01X32201Y26311D01*
G01X32201Y26052D02*
G01X32252Y25999D01*
G01X32201Y25948D01*
G01X32148Y25999D01*
G01X32201Y26052D01*
G01X31754Y26779D02*
G01X31754Y26832D01*
G01X31701Y26936D01*
G01X31650Y26987D01*
G01X31546Y27038D01*
G01X31338Y27038D01*
G01X31234Y26987D01*
G01X31183Y26936D01*
G01X31130Y26832D01*
G01X31130Y26728D01*
G01X31183Y26624D01*
G01X31287Y26466D01*
G01X31805Y25948D01*
G01X31079Y25948D01*
G01X30683Y26779D02*
G01X30683Y26832D01*
G01X30632Y26936D01*
G01X30581Y26987D01*
G01X30477Y27038D01*
G01X30269Y27038D01*
G01X30164Y26987D01*
G01X30111Y26936D01*
G01X30060Y26832D01*
G01X30060Y26728D01*
G01X30111Y26624D01*
G01X30215Y26466D01*
G01X30736Y25948D01*
G01X30009Y25948D01*
G01X29354Y27038D02*
G01X29509Y26987D01*
G01X29613Y26832D01*
G01X29667Y26571D01*
G01X29667Y26416D01*
G01X29613Y26156D01*
G01X29509Y25999D01*
G01X29354Y25948D01*
G01X29250Y25948D01*
G01X29095Y25999D01*
G01X28991Y26156D01*
G01X28938Y26416D01*
G01X28938Y26571D01*
G01X28991Y26832D01*
G01X29095Y26987D01*
G01X29250Y27038D01*
G01X29354Y27038D01*
G01X28595Y27038D02*
G01X28181Y25948D01*
G01X27764Y27038D02*
G01X28181Y25948D01*
G01X27368Y27038D02*
G01X27368Y26311D01*
G01X27368Y26052D02*
G01X27421Y25999D01*
G01X27368Y25948D01*
G01X27317Y25999D01*
G01X27368Y26052D01*
G01X26923Y27038D02*
G01X26923Y26311D01*
G01X26923Y26052D02*
G01X26974Y25999D01*
G01X26923Y25948D01*
G01X26870Y25999D01*
G01X26923Y26052D01*
G01X26476Y27038D02*
G01X26476Y26311D01*
G01X26476Y26052D02*
G01X26527Y25999D01*
G01X26476Y25948D01*
G01X26423Y25999D01*
G01X26476Y26052D01*
G54D41*
G01X4953Y18378D02*
G01X5716Y18668D01*
G01X4953Y18378D02*
G01X5716Y18087D01*
G01X5462Y18559D02*
G01X5462Y18196D01*
G01X5062Y17338D02*
G01X4989Y17410D01*
G01X4953Y17519D01*
G01X4953Y17665D01*
G01X4989Y17774D01*
G01X5062Y17847D01*
G01X5134Y17847D01*
G01X5207Y17810D01*
G01X5243Y17774D01*
G01X5280Y17701D01*
G01X5352Y17483D01*
G01X5389Y17410D01*
G01X5425Y17374D01*
G01X5498Y17338D01*
G01X5607Y17338D01*
G01X5680Y17410D01*
G01X5716Y17519D01*
G01X5716Y17665D01*
G01X5680Y17774D01*
G01X5607Y17847D01*
G01X4953Y17098D02*
G01X5716Y17098D01*
G01X4953Y17098D02*
G01X5716Y16807D01*
G01X4953Y16516D02*
G01X5716Y16807D01*
G01X4953Y16516D02*
G01X5716Y16516D01*
G01X5098Y16276D02*
G01X5062Y16203D01*
G01X4953Y16094D01*
G01X5716Y16094D01*
G01X5098Y15854D02*
G01X5062Y15781D01*
G01X4953Y15672D01*
G01X5716Y15672D01*
G01X5098Y15432D02*
G01X5062Y15359D01*
G01X4953Y15250D01*
G01X5716Y15250D01*
G01X4953Y14501D02*
G01X5716Y14865D01*
G01X4953Y15010D02*
G01X4953Y14501D01*
G01X5389Y14261D02*
G01X5389Y13607D01*
G01X4953Y13294D02*
G01X4953Y12894D01*
G01X5243Y13112D01*
G01X5243Y13003D01*
G01X5280Y12930D01*
G01X5316Y12894D01*
G01X5425Y12858D01*
G01X5498Y12858D01*
G01X5607Y12894D01*
G01X5680Y12967D01*
G01X5716Y13076D01*
G01X5716Y13185D01*
G01X5680Y13294D01*
G01X5643Y13330D01*
G01X5571Y13367D01*

%LPD*%
G36*
G01X6131Y33136D02*
G01X6040Y33150D01*
G01X5976Y33143D01*
G01X5917Y33125D01*
G01X5866Y33096D01*
G01X5824Y33059D01*
G01X5867Y33006D01*
G01X5903Y33035D01*
G01X5944Y33057D01*
G01X5989Y33072D01*
G01X6040Y33077D01*
G01X6099Y33069D01*
G01X6144Y33046D01*
G01X6174Y33010D01*
G01X6184Y32963D01*
G01X6173Y32913D01*
G01X6143Y32879D01*
G01X6103Y32853D01*
G01X6060Y32833D01*
G01X5951Y32787D01*
G01X5892Y32755D01*
G01X5843Y32715D01*
G01X5811Y32661D01*
G01X5798Y32589D01*
G01X5803Y32546D01*
G01X5816Y32507D01*
G01X5837Y32472D01*
G01X5866Y32441D01*
G01X5901Y32416D01*
G01X5944Y32397D01*
G01X5993Y32385D01*
G01X6047Y32381D01*
G01X6123Y32388D01*
G01X6192Y32410D01*
G01X6253Y32445D01*
G01X6306Y32490D01*
G01X6256Y32548D01*
G01X6210Y32509D01*
G01X6160Y32479D01*
G01X6105Y32461D01*
G01X6047Y32455D01*
G01X5979Y32464D01*
G01X5927Y32489D01*
G01X5894Y32529D01*
G01X5882Y32582D01*
G01X5892Y32633D01*
G01X5919Y32669D01*
G01X5959Y32696D01*
G01X6009Y32719D01*
G01X6118Y32767D01*
G01X6171Y32794D01*
G01X6219Y32832D01*
G01X6255Y32886D01*
G01X6268Y32957D01*
G01X6251Y33035D01*
G01X6204Y33096D01*
G01X6131Y33136D01*
G37*

%LPD*%
G36*
G01X6654Y33143D02*
G01X6586Y33150D01*
G01X6522Y33143D01*
G01X6466Y33123D01*
G01X6420Y33094D01*
G01X6383Y33059D01*
G01X6431Y33006D01*
G01X6462Y33035D01*
G01X6498Y33057D01*
G01X6539Y33072D01*
G01X6586Y33077D01*
G01X6638Y33071D01*
G01X6684Y33055D01*
G01X6725Y33029D01*
G01X6759Y32993D01*
G01X6787Y32948D01*
G01X6808Y32895D01*
G01X6820Y32834D01*
G01X6824Y32767D01*
G01X6820Y32698D01*
G01X6808Y32637D01*
G01X6788Y32584D01*
G01X6760Y32539D01*
G01X6726Y32503D01*
G01X6686Y32476D01*
G01X6640Y32460D01*
G01X6588Y32455D01*
G01X6536Y32460D01*
G01X6491Y32476D01*
G01X6451Y32504D01*
G01X6413Y32541D01*
G01X6365Y32488D01*
G01X6411Y32442D01*
G01X6463Y32408D01*
G01X6523Y32387D01*
G01X6591Y32381D01*
G01X6658Y32387D01*
G01X6719Y32407D01*
G01X6774Y32439D01*
G01X6820Y32483D01*
G01X6859Y32538D01*
G01X6887Y32603D01*
G01X6905Y32679D01*
G01X6911Y32764D01*
G01X6905Y32849D01*
G01X6886Y32925D01*
G01X6858Y32991D01*
G01X6819Y33047D01*
G01X6771Y33091D01*
G01X6716Y33124D01*
G01X6654Y33143D01*
G37*

%LPD*%
G36*
G01X8441Y33134D02*
G01X8361Y33148D01*
G01X8277Y33133D01*
G01X8214Y33093D01*
G01X8174Y33031D01*
G01X8161Y32952D01*
G01X8170Y32895D01*
G01X8194Y32845D01*
G01X8226Y32803D01*
G01X8260Y32772D01*
G01X8260Y32767D01*
G01X8213Y32734D01*
G01X8174Y32693D01*
G01X8146Y32639D01*
G01X8135Y32571D01*
G01X8151Y32496D01*
G01X8198Y32436D01*
G01X8270Y32396D01*
G01X8364Y32381D01*
G01X8414Y32384D01*
G01X8459Y32396D01*
G01X8499Y32413D01*
G01X8533Y32437D01*
G01X8561Y32466D01*
G01X8582Y32500D01*
G01X8595Y32537D01*
G01X8600Y32579D01*
G01X8588Y32648D01*
G01X8556Y32705D01*
G01X8511Y32751D01*
G01X8460Y32785D01*
G01X8460Y32790D01*
G01X8500Y32820D01*
G01X8532Y32858D01*
G01X8554Y32905D01*
G01X8562Y32960D01*
G01X8547Y33036D01*
G01X8504Y33096D01*
G01X8441Y33134D01*
G37*

%LPC*%
G36*
G01X8461Y32725D02*
G01X8417Y32759D01*
G01X8339Y32726D01*
G01X8274Y32689D01*
G01X8230Y32640D01*
G01X8214Y32574D01*
G01X8225Y32521D01*
G01X8255Y32479D01*
G01X8302Y32451D01*
G01X8364Y32442D01*
G01X8427Y32452D01*
G01X8478Y32482D01*
G01X8512Y32527D01*
G01X8524Y32584D01*
G01X8516Y32636D01*
G01X8494Y32684D01*
G01X8461Y32725D01*
G37*
G36*
G01X8413Y33075D02*
G01X8364Y33084D01*
G01X8308Y33073D01*
G01X8266Y33044D01*
G01X8240Y33001D01*
G01X8232Y32947D01*
G01X8237Y32906D01*
G01X8252Y32866D01*
G01X8278Y32829D01*
G01X8313Y32795D01*
G01X8377Y32821D01*
G01X8433Y32855D01*
G01X8471Y32900D01*
G01X8486Y32960D01*
G01X8476Y33010D01*
G01X8452Y33049D01*
G01X8413Y33075D01*
G37*

%LPD*%
G36*
G01X9659Y33136D02*
G01X9568Y33150D01*
G01X9504Y33143D01*
G01X9445Y33125D01*
G01X9394Y33096D01*
G01X9352Y33059D01*
G01X9395Y33006D01*
G01X9431Y33035D01*
G01X9472Y33057D01*
G01X9517Y33072D01*
G01X9568Y33077D01*
G01X9627Y33069D01*
G01X9672Y33046D01*
G01X9702Y33010D01*
G01X9712Y32963D01*
G01X9701Y32913D01*
G01X9671Y32879D01*
G01X9631Y32853D01*
G01X9588Y32833D01*
G01X9481Y32787D01*
G01X9421Y32755D01*
G01X9372Y32715D01*
G01X9339Y32661D01*
G01X9326Y32589D01*
G01X9331Y32546D01*
G01X9344Y32507D01*
G01X9365Y32472D01*
G01X9394Y32441D01*
G01X9430Y32416D01*
G01X9472Y32397D01*
G01X9521Y32385D01*
G01X9575Y32381D01*
G01X9652Y32388D01*
G01X9721Y32410D01*
G01X9782Y32445D01*
G01X9834Y32490D01*
G01X9784Y32548D01*
G01X9739Y32509D01*
G01X9689Y32479D01*
G01X9634Y32461D01*
G01X9575Y32455D01*
G01X9507Y32464D01*
G01X9455Y32489D01*
G01X9422Y32529D01*
G01X9410Y32582D01*
G01X9420Y32633D01*
G01X9447Y32669D01*
G01X9487Y32696D01*
G01X9537Y32719D01*
G01X9646Y32767D01*
G01X9699Y32794D01*
G01X9747Y32832D01*
G01X9783Y32886D01*
G01X9796Y32957D01*
G01X9779Y33035D01*
G01X9732Y33096D01*
G01X9659Y33136D01*
G37*

%LPD*%
G36*
G01X11262Y33138D02*
G01X11181Y33138D01*
G01X11181Y32696D01*
G01X11186Y32614D01*
G01X11201Y32547D01*
G01X11225Y32492D01*
G01X11257Y32449D01*
G01X11296Y32418D01*
G01X11341Y32397D01*
G01X11391Y32384D01*
G01X11445Y32381D01*
G01X11498Y32384D01*
G01X11547Y32397D01*
G01X11591Y32418D01*
G01X11630Y32449D01*
G01X11662Y32492D01*
G01X11686Y32547D01*
G01X11701Y32614D01*
G01X11706Y32696D01*
G01X11706Y33138D01*
G01X11623Y33138D01*
G01X11623Y32693D01*
G01X11609Y32578D01*
G01X11571Y32505D01*
G01X11514Y32466D01*
G01X11445Y32455D01*
G01X11408Y32457D01*
G01X11373Y32466D01*
G01X11342Y32481D01*
G01X11315Y32505D01*
G01X11293Y32537D01*
G01X11276Y32578D01*
G01X11265Y32630D01*
G01X11262Y32693D01*
G01X11262Y33138D01*
G37*

%LPD*%
G36*
G01X4660Y33138D02*
G01X4597Y33138D01*
G01X4597Y32462D01*
G01X4445Y32462D01*
G01X4445Y32394D01*
G01X4846Y32394D01*
G01X4846Y32462D01*
G01X4678Y32462D01*
G01X4678Y33034D01*
G01X4810Y33034D01*
G01X4810Y33087D01*
G01X4766Y33096D01*
G01X4726Y33107D01*
G01X4691Y33122D01*
G01X4660Y33138D01*
G37*

%LPD*%
G36*
G01X5143Y33138D02*
G01X5039Y33138D01*
G01X5039Y32394D01*
G01X5118Y32394D01*
G01X5118Y32823D01*
G01X5117Y32874D01*
G01X5115Y32929D01*
G01X5111Y32986D01*
G01X5107Y33039D01*
G01X5113Y33039D01*
G01X5171Y32871D01*
G01X5316Y32470D01*
G01X5374Y32470D01*
G01X5519Y32871D01*
G01X5580Y33039D01*
G01X5582Y33039D01*
G01X5580Y32986D01*
G01X5576Y32929D01*
G01X5573Y32874D01*
G01X5572Y32823D01*
G01X5572Y32394D01*
G01X5648Y32394D01*
G01X5648Y33138D01*
G01X5544Y33138D01*
G01X5400Y32731D01*
G01X5386Y32691D01*
G01X5373Y32651D01*
G01X5359Y32611D01*
G01X5346Y32571D01*
G01X5341Y32571D01*
G01X5327Y32611D01*
G01X5288Y32731D01*
G01X5143Y33138D01*
G37*

%LPD*%
G36*
G01X7480Y33138D02*
G01X7020Y33138D01*
G01X7020Y33087D01*
G01X7061Y33031D01*
G01X7096Y32977D01*
G01X7127Y32924D01*
G01X7153Y32871D01*
G01X7174Y32818D01*
G01X7192Y32764D01*
G01X7206Y32709D01*
G01X7217Y32652D01*
G01X7226Y32592D01*
G01X7232Y32530D01*
G01X7237Y32464D01*
G01X7241Y32394D01*
G01X7327Y32394D01*
G01X7323Y32463D01*
G01X7317Y32529D01*
G01X7310Y32591D01*
G01X7299Y32650D01*
G01X7286Y32707D01*
G01X7271Y32761D01*
G01X7253Y32814D01*
G01X7232Y32865D01*
G01X7208Y32916D01*
G01X7180Y32966D01*
G01X7149Y33016D01*
G01X7114Y33067D01*
G01X7480Y33067D01*
G01X7480Y33138D01*
G37*

%LPD*%
G36*
G01X7810Y33138D02*
G01X7749Y33138D01*
G01X7749Y32462D01*
G01X7597Y32462D01*
G01X7597Y32394D01*
G01X7998Y32394D01*
G01X7998Y32462D01*
G01X7830Y32462D01*
G01X7830Y33034D01*
G01X7962Y33034D01*
G01X7962Y33087D01*
G01X7917Y33096D01*
G01X7877Y33107D01*
G01X7841Y33122D01*
G01X7810Y33138D01*
G37*

%LPD*%
G36*
G01X9177Y33138D02*
G01X8971Y33138D01*
G01X8911Y33135D01*
G01X8857Y33126D01*
G01X8810Y33111D01*
G01X8770Y33090D01*
G01X8737Y33060D01*
G01X8714Y33023D01*
G01X8699Y32977D01*
G01X8694Y32922D01*
G01X8699Y32868D01*
G01X8714Y32821D01*
G01X8737Y32781D01*
G01X8769Y32749D01*
G01X8809Y32725D01*
G01X8856Y32707D01*
G01X8909Y32696D01*
G01X8968Y32693D01*
G01X9093Y32693D01*
G01X9093Y32394D01*
G01X9177Y32394D01*
G01X9177Y33138D01*
G37*

%LPC*%
G36*
G01X9093Y33069D02*
G01X8983Y33069D01*
G01X8894Y33062D01*
G01X8829Y33037D01*
G01X8790Y32992D01*
G01X8778Y32922D01*
G01X8790Y32850D01*
G01X8828Y32801D01*
G01X8890Y32773D01*
G01X8978Y32764D01*
G01X9093Y32764D01*
G01X9093Y33069D01*
G37*

%LPD*%
G36*
G01X10071Y33138D02*
G01X9987Y33138D01*
G01X9987Y32394D01*
G01X10071Y32394D01*
G01X10071Y33138D01*
G37*

%LPD*%
G36*
G01X10805Y33138D02*
G01X10741Y33138D01*
G01X10741Y32462D01*
G01X10589Y32462D01*
G01X10589Y32394D01*
G01X10990Y32394D01*
G01X10990Y32462D01*
G01X10822Y32462D01*
G01X10822Y33034D01*
G01X10955Y33034D01*
G01X10955Y33087D01*
G01X10910Y33096D01*
G01X10870Y33107D01*
G01X10835Y33122D01*
G01X10805Y33138D01*
G37*

%LPD*%
G36*
G01X10477Y32709D02*
G01X10218Y32709D01*
G01X10218Y32645D01*
G01X10477Y32645D01*
G01X10477Y32709D01*
G37*

%LPD*%

%LPD*%
G36*
G01X22148Y33132D02*
G01X22057Y33146D01*
G01X21991Y33140D01*
G01X21932Y33120D01*
G01X21881Y33092D01*
G01X21838Y33055D01*
G01X21884Y33002D01*
G01X21920Y33031D01*
G01X21961Y33053D01*
G01X22006Y33068D01*
G01X22057Y33073D01*
G01X22115Y33065D01*
G01X22160Y33042D01*
G01X22189Y33006D01*
G01X22199Y32958D01*
G01X22188Y32910D01*
G01X22159Y32875D01*
G01X22120Y32849D01*
G01X22077Y32829D01*
G01X21968Y32783D01*
G01X21909Y32752D01*
G01X21859Y32711D01*
G01X21825Y32657D01*
G01X21813Y32585D01*
G01X21818Y32542D01*
G01X21830Y32503D01*
G01X21852Y32468D01*
G01X21881Y32437D01*
G01X21917Y32412D01*
G01X21960Y32393D01*
G01X22009Y32381D01*
G01X22064Y32377D01*
G01X22140Y32384D01*
G01X22208Y32407D01*
G01X22269Y32441D01*
G01X22321Y32486D01*
G01X22270Y32544D01*
G01X22227Y32505D01*
G01X22176Y32475D01*
G01X22121Y32457D01*
G01X22062Y32450D01*
G01X21993Y32460D01*
G01X21943Y32485D01*
G01X21911Y32526D01*
G01X21899Y32577D01*
G01X21909Y32629D01*
G01X21936Y32665D01*
G01X21977Y32692D01*
G01X22026Y32715D01*
G01X22133Y32763D01*
G01X22187Y32790D01*
G01X22236Y32828D01*
G01X22272Y32882D01*
G01X22285Y32953D01*
G01X22268Y33031D01*
G01X22220Y33092D01*
G01X22148Y33132D01*
G37*

%LPD*%
G36*
G01X22671Y33140D02*
G01X22603Y33146D01*
G01X22538Y33139D01*
G01X22483Y33119D01*
G01X22437Y33090D01*
G01X22400Y33055D01*
G01X22448Y33002D01*
G01X22479Y33031D01*
G01X22515Y33053D01*
G01X22555Y33068D01*
G01X22600Y33073D01*
G01X22653Y33067D01*
G01X22700Y33051D01*
G01X22742Y33025D01*
G01X22776Y32989D01*
G01X22804Y32945D01*
G01X22824Y32892D01*
G01X22837Y32831D01*
G01X22842Y32763D01*
G01X22838Y32695D01*
G01X22825Y32634D01*
G01X22805Y32580D01*
G01X22778Y32535D01*
G01X22744Y32499D01*
G01X22704Y32472D01*
G01X22657Y32456D01*
G01X22606Y32450D01*
G01X22554Y32456D01*
G01X22508Y32473D01*
G01X22466Y32500D01*
G01X22428Y32537D01*
G01X22382Y32483D01*
G01X22428Y32438D01*
G01X22481Y32404D01*
G01X22540Y32384D01*
G01X22608Y32377D01*
G01X22675Y32383D01*
G01X22736Y32403D01*
G01X22791Y32435D01*
G01X22838Y32479D01*
G01X22876Y32534D01*
G01X22904Y32600D01*
G01X22922Y32675D01*
G01X22928Y32760D01*
G01X22922Y32846D01*
G01X22904Y32921D01*
G01X22875Y32987D01*
G01X22836Y33043D01*
G01X22788Y33087D01*
G01X22733Y33119D01*
G01X22671Y33140D01*
G37*

%LPD*%
G36*
G01X24458Y33130D02*
G01X24378Y33144D01*
G01X24293Y33130D01*
G01X24229Y33089D01*
G01X24189Y33027D01*
G01X24175Y32948D01*
G01X24185Y32891D01*
G01X24210Y32841D01*
G01X24243Y32799D01*
G01X24277Y32768D01*
G01X24277Y32763D01*
G01X24229Y32730D01*
G01X24188Y32689D01*
G01X24160Y32635D01*
G01X24150Y32567D01*
G01X24167Y32493D01*
G01X24214Y32432D01*
G01X24287Y32392D01*
G01X24381Y32377D01*
G01X24474Y32392D01*
G01X24550Y32433D01*
G01X24599Y32496D01*
G01X24617Y32575D01*
G01X24605Y32644D01*
G01X24573Y32701D01*
G01X24528Y32748D01*
G01X24477Y32781D01*
G01X24477Y32786D01*
G01X24516Y32816D01*
G01X24548Y32855D01*
G01X24570Y32901D01*
G01X24579Y32956D01*
G01X24564Y33033D01*
G01X24522Y33092D01*
G01X24458Y33130D01*
G37*

%LPC*%
G36*
G01X24476Y32721D02*
G01X24434Y32755D01*
G01X24357Y32723D01*
G01X24292Y32686D01*
G01X24247Y32637D01*
G01X24231Y32570D01*
G01X24242Y32517D01*
G01X24271Y32475D01*
G01X24318Y32448D01*
G01X24378Y32438D01*
G01X24443Y32448D01*
G01X24495Y32478D01*
G01X24529Y32524D01*
G01X24541Y32580D01*
G01X24533Y32633D01*
G01X24511Y32680D01*
G01X24476Y32721D01*
G37*
G36*
G01X24429Y33071D02*
G01X24381Y33080D01*
G01X24325Y33070D01*
G01X24283Y33040D01*
G01X24258Y32997D01*
G01X24249Y32943D01*
G01X24254Y32902D01*
G01X24269Y32862D01*
G01X24295Y32825D01*
G01X24330Y32791D01*
G01X24395Y32818D01*
G01X24450Y32851D01*
G01X24488Y32896D01*
G01X24503Y32956D01*
G01X24493Y33007D01*
G01X24467Y33046D01*
G01X24429Y33071D01*
G37*

%LPD*%
G36*
G01X25676Y33132D02*
G01X25585Y33146D01*
G01X25521Y33140D01*
G01X25462Y33120D01*
G01X25412Y33092D01*
G01X25369Y33055D01*
G01X25412Y33002D01*
G01X25448Y33031D01*
G01X25489Y33053D01*
G01X25534Y33068D01*
G01X25585Y33073D01*
G01X25644Y33065D01*
G01X25690Y33042D01*
G01X25719Y33006D01*
G01X25730Y32958D01*
G01X25718Y32910D01*
G01X25689Y32875D01*
G01X25648Y32849D01*
G01X25605Y32829D01*
G01X25496Y32783D01*
G01X25437Y32752D01*
G01X25388Y32711D01*
G01X25356Y32657D01*
G01X25344Y32585D01*
G01X25348Y32542D01*
G01X25361Y32503D01*
G01X25382Y32468D01*
G01X25411Y32437D01*
G01X25447Y32412D01*
G01X25489Y32393D01*
G01X25538Y32381D01*
G01X25593Y32377D01*
G01X25669Y32384D01*
G01X25737Y32407D01*
G01X25798Y32441D01*
G01X25852Y32486D01*
G01X25801Y32544D01*
G01X25756Y32505D01*
G01X25705Y32475D01*
G01X25650Y32457D01*
G01X25593Y32450D01*
G01X25524Y32460D01*
G01X25472Y32485D01*
G01X25439Y32526D01*
G01X25427Y32577D01*
G01X25437Y32629D01*
G01X25464Y32665D01*
G01X25505Y32692D01*
G01X25554Y32715D01*
G01X25664Y32763D01*
G01X25716Y32790D01*
G01X25764Y32828D01*
G01X25800Y32882D01*
G01X25814Y32953D01*
G01X25796Y33031D01*
G01X25748Y33092D01*
G01X25676Y33132D01*
G37*

%LPD*%
G36*
G01X27279Y33134D02*
G01X27198Y33134D01*
G01X27198Y32692D01*
G01X27203Y32610D01*
G01X27218Y32543D01*
G01X27243Y32489D01*
G01X27275Y32446D01*
G01X27314Y32414D01*
G01X27358Y32393D01*
G01X27408Y32381D01*
G01X27462Y32377D01*
G01X27515Y32381D01*
G01X27564Y32393D01*
G01X27608Y32414D01*
G01X27647Y32446D01*
G01X27679Y32489D01*
G01X27703Y32543D01*
G01X27718Y32610D01*
G01X27724Y32692D01*
G01X27724Y33134D01*
G01X27640Y33134D01*
G01X27640Y32689D01*
G01X27626Y32575D01*
G01X27588Y32501D01*
G01X27532Y32462D01*
G01X27462Y32450D01*
G01X27425Y32453D01*
G01X27390Y32462D01*
G01X27359Y32478D01*
G01X27332Y32501D01*
G01X27310Y32533D01*
G01X27293Y32575D01*
G01X27283Y32626D01*
G01X27279Y32689D01*
G01X27279Y33134D01*
G37*

%LPD*%
G36*
G01X20759Y33139D02*
G01X20695Y33146D01*
G01X20648Y33142D01*
G01X20607Y33131D01*
G01X20570Y33112D01*
G01X20539Y33087D01*
G01X20515Y33055D01*
G01X20497Y33018D01*
G01X20486Y32975D01*
G01X20482Y32928D01*
G01X20487Y32872D01*
G01X20503Y32815D01*
G01X20529Y32757D01*
G01X20563Y32699D01*
G01X20607Y32640D01*
G01X20658Y32580D01*
G01X20716Y32519D01*
G01X20782Y32456D01*
G01X20751Y32458D01*
G01X20689Y32460D01*
G01X20660Y32461D01*
G01X20447Y32461D01*
G01X20447Y32389D01*
G01X20906Y32389D01*
G01X20906Y32440D01*
G01X20823Y32515D01*
G01X20753Y32585D01*
G01X20694Y32650D01*
G01X20646Y32712D01*
G01X20610Y32769D01*
G01X20584Y32824D01*
G01X20568Y32876D01*
G01X20563Y32925D01*
G01X20572Y32987D01*
G01X20598Y33036D01*
G01X20643Y33069D01*
G01X20706Y33080D01*
G01X20750Y33073D01*
G01X20791Y33054D01*
G01X20829Y33025D01*
G01X20863Y32991D01*
G01X20911Y33037D01*
G01X20866Y33082D01*
G01X20816Y33116D01*
G01X20759Y33139D01*
G37*

%LPD*%
G36*
G01X21160Y33134D02*
G01X21056Y33134D01*
G01X21056Y32389D01*
G01X21135Y32389D01*
G01X21135Y32819D01*
G01X21133Y32870D01*
G01X21131Y32926D01*
G01X21127Y32982D01*
G01X21125Y33035D01*
G01X21127Y33035D01*
G01X21188Y32867D01*
G01X21333Y32466D01*
G01X21391Y32466D01*
G01X21536Y32867D01*
G01X21595Y33035D01*
G01X21600Y33035D01*
G01X21596Y32982D01*
G01X21593Y32926D01*
G01X21591Y32870D01*
G01X21590Y32819D01*
G01X21590Y32389D01*
G01X21666Y32389D01*
G01X21666Y33134D01*
G01X21562Y33134D01*
G01X21417Y32727D01*
G01X21402Y32687D01*
G01X21389Y32648D01*
G01X21375Y32607D01*
G01X21361Y32567D01*
G01X21356Y32567D01*
G01X21343Y32607D01*
G01X21330Y32648D01*
G01X21318Y32687D01*
G01X21305Y32727D01*
G01X21160Y33134D01*
G37*

%LPD*%
G36*
G01X23497Y33134D02*
G01X23037Y33134D01*
G01X23037Y33083D01*
G01X23078Y33028D01*
G01X23114Y32973D01*
G01X23144Y32920D01*
G01X23169Y32867D01*
G01X23191Y32814D01*
G01X23208Y32760D01*
G01X23222Y32705D01*
G01X23233Y32648D01*
G01X23242Y32588D01*
G01X23248Y32526D01*
G01X23253Y32460D01*
G01X23256Y32389D01*
G01X23342Y32389D01*
G01X23339Y32459D01*
G01X23333Y32525D01*
G01X23325Y32587D01*
G01X23316Y32647D01*
G01X23303Y32703D01*
G01X23288Y32757D01*
G01X23270Y32810D01*
G01X23249Y32861D01*
G01X23225Y32912D01*
G01X23197Y32962D01*
G01X23166Y33012D01*
G01X23131Y33063D01*
G01X23497Y33063D01*
G01X23497Y33134D01*
G37*

%LPD*%
G36*
G01X23827Y33134D02*
G01X23764Y33134D01*
G01X23764Y32458D01*
G01X23614Y32458D01*
G01X23614Y32389D01*
G01X24013Y32389D01*
G01X24013Y32458D01*
G01X23848Y32458D01*
G01X23848Y33030D01*
G01X23977Y33030D01*
G01X23977Y33083D01*
G01X23932Y33092D01*
G01X23893Y33104D01*
G01X23858Y33117D01*
G01X23827Y33134D01*
G37*

%LPD*%
G36*
G01X25194Y33134D02*
G01X24988Y33134D01*
G01X24928Y33131D01*
G01X24874Y33123D01*
G01X24826Y33108D01*
G01X24787Y33086D01*
G01X24754Y33056D01*
G01X24731Y33019D01*
G01X24716Y32973D01*
G01X24711Y32918D01*
G01X24716Y32863D01*
G01X24730Y32817D01*
G01X24754Y32778D01*
G01X24786Y32746D01*
G01X24825Y32721D01*
G01X24872Y32703D01*
G01X24925Y32693D01*
G01X24983Y32689D01*
G01X25110Y32689D01*
G01X25110Y32389D01*
G01X25194Y32389D01*
G01X25194Y33134D01*
G37*

%LPC*%
G36*
G01X25110Y33065D02*
G01X25001Y33065D01*
G01X24911Y33058D01*
G01X24846Y33034D01*
G01X24808Y32988D01*
G01X24795Y32918D01*
G01X24807Y32846D01*
G01X24845Y32797D01*
G01X24907Y32769D01*
G01X24996Y32760D01*
G01X25110Y32760D01*
G01X25110Y33065D01*
G37*

%LPD*%
G36*
G01X26088Y33134D02*
G01X26004Y33134D01*
G01X26004Y32389D01*
G01X26088Y32389D01*
G01X26088Y33134D01*
G37*

%LPD*%
G36*
G01X26905Y33139D02*
G01X26840Y33146D01*
G01X26792Y33142D01*
G01X26751Y33131D01*
G01X26714Y33112D01*
G01X26683Y33087D01*
G01X26659Y33055D01*
G01X26641Y33018D01*
G01X26630Y32975D01*
G01X26626Y32928D01*
G01X26632Y32872D01*
G01X26648Y32815D01*
G01X26674Y32757D01*
G01X26709Y32699D01*
G01X26752Y32640D01*
G01X26803Y32580D01*
G01X26862Y32519D01*
G01X26926Y32456D01*
G01X26896Y32458D01*
G01X26834Y32460D01*
G01X26804Y32461D01*
G01X26591Y32461D01*
G01X26591Y32389D01*
G01X27051Y32389D01*
G01X27051Y32440D01*
G01X26968Y32515D01*
G01X26897Y32585D01*
G01X26838Y32650D01*
G01X26790Y32712D01*
G01X26754Y32769D01*
G01X26728Y32824D01*
G01X26713Y32876D01*
G01X26708Y32925D01*
G01X26716Y32987D01*
G01X26743Y33036D01*
G01X26787Y33069D01*
G01X26850Y33080D01*
G01X26894Y33073D01*
G01X26935Y33054D01*
G01X26973Y33025D01*
G01X27007Y32991D01*
G01X27056Y33037D01*
G01X27010Y33082D01*
G01X26961Y33116D01*
G01X26905Y33139D01*
G37*

%LPD*%
G36*
G01X26492Y32704D02*
G01X26235Y32704D01*
G01X26235Y32641D01*
G01X26492Y32641D01*
G01X26492Y32704D01*
G37*

%LPD*%

%LPD*%
G36*
G01X6821Y36190D02*
G01X6772Y36196D01*
G01X6722Y36190D01*
G01X6677Y36173D01*
G01X6638Y36143D01*
G01X6605Y36101D01*
G01X6579Y36048D01*
G01X6559Y35983D01*
G01X6547Y35905D01*
G01X6543Y35815D01*
G01X6547Y35723D01*
G01X6559Y35644D01*
G01X6579Y35577D01*
G01X6605Y35522D01*
G01X6638Y35480D01*
G01X6677Y35450D01*
G01X6722Y35432D01*
G01X6772Y35426D01*
G01X6821Y35432D01*
G01X6866Y35450D01*
G01X6905Y35480D01*
G01X6938Y35522D01*
G01X6965Y35577D01*
G01X6984Y35644D01*
G01X6996Y35723D01*
G01X7000Y35815D01*
G01X6996Y35905D01*
G01X6984Y35983D01*
G01X6965Y36048D01*
G01X6938Y36101D01*
G01X6905Y36143D01*
G01X6866Y36173D01*
G01X6821Y36190D01*
G37*

%LPC*%
G36*
G01X6803Y36125D02*
G01X6772Y36130D01*
G01X6740Y36125D01*
G01X6711Y36111D01*
G01X6686Y36087D01*
G01X6664Y36053D01*
G01X6648Y36009D01*
G01X6635Y35955D01*
G01X6627Y35891D01*
G01X6624Y35815D01*
G01X6627Y35737D01*
G01X6635Y35670D01*
G01X6648Y35615D01*
G01X6664Y35570D01*
G01X6686Y35536D01*
G01X6711Y35511D01*
G01X6740Y35497D01*
G01X6772Y35492D01*
G01X6803Y35497D01*
G01X6831Y35511D01*
G01X6856Y35536D01*
G01X6878Y35570D01*
G01X6895Y35615D01*
G01X6908Y35670D01*
G01X6916Y35737D01*
G01X6919Y35815D01*
G01X6916Y35891D01*
G01X6908Y35955D01*
G01X6895Y36009D01*
G01X6878Y36053D01*
G01X6856Y36087D01*
G01X6831Y36111D01*
G01X6803Y36125D01*
G37*

%LPD*%
G36*
G01X7378Y36190D02*
G01X7328Y36196D01*
G01X7278Y36190D01*
G01X7233Y36173D01*
G01X7195Y36143D01*
G01X7162Y36101D01*
G01X7136Y36048D01*
G01X7118Y35983D01*
G01X7106Y35905D01*
G01X7102Y35815D01*
G01X7106Y35723D01*
G01X7118Y35644D01*
G01X7136Y35577D01*
G01X7162Y35522D01*
G01X7195Y35480D01*
G01X7233Y35450D01*
G01X7278Y35432D01*
G01X7328Y35426D01*
G01X7378Y35432D01*
G01X7422Y35450D01*
G01X7462Y35480D01*
G01X7495Y35522D01*
G01X7521Y35577D01*
G01X7540Y35644D01*
G01X7552Y35723D01*
G01X7557Y35815D01*
G01X7552Y35905D01*
G01X7540Y35983D01*
G01X7521Y36048D01*
G01X7495Y36101D01*
G01X7462Y36143D01*
G01X7422Y36173D01*
G01X7378Y36190D01*
G37*

%LPC*%
G36*
G01X7360Y36125D02*
G01X7328Y36130D01*
G01X7297Y36125D01*
G01X7269Y36111D01*
G01X7244Y36087D01*
G01X7223Y36053D01*
G01X7206Y36009D01*
G01X7194Y35955D01*
G01X7186Y35891D01*
G01X7183Y35815D01*
G01X7186Y35737D01*
G01X7194Y35670D01*
G01X7206Y35615D01*
G01X7223Y35570D01*
G01X7244Y35536D01*
G01X7269Y35511D01*
G01X7297Y35497D01*
G01X7328Y35492D01*
G01X7360Y35497D01*
G01X7389Y35511D01*
G01X7414Y35536D01*
G01X7436Y35570D01*
G01X7454Y35615D01*
G01X7467Y35670D01*
G01X7475Y35737D01*
G01X7478Y35815D01*
G01X7475Y35891D01*
G01X7467Y35955D01*
G01X7454Y36009D01*
G01X7436Y36053D01*
G01X7414Y36087D01*
G01X7389Y36111D01*
G01X7360Y36125D01*
G37*

%LPD*%
G36*
G01X10246Y36183D02*
G01X9891Y36183D01*
G01X9891Y36112D01*
G01X10175Y36112D01*
G01X10196Y35886D01*
G01X10169Y35899D01*
G01X10141Y35909D01*
G01X10111Y35914D01*
G01X10079Y35917D01*
G01X10034Y35913D01*
G01X9992Y35903D01*
G01X9954Y35886D01*
G01X9921Y35860D01*
G01X9894Y35828D01*
G01X9873Y35787D01*
G01X9860Y35738D01*
G01X9855Y35680D01*
G01X9860Y35623D01*
G01X9876Y35572D01*
G01X9899Y35528D01*
G01X9929Y35492D01*
G01X9965Y35464D01*
G01X10006Y35443D01*
G01X10050Y35430D01*
G01X10097Y35426D01*
G01X10174Y35434D01*
G01X10238Y35457D01*
G01X10290Y35488D01*
G01X10330Y35525D01*
G01X10290Y35579D01*
G01X10254Y35547D01*
G01X10213Y35521D01*
G01X10164Y35502D01*
G01X10104Y35495D01*
G01X10040Y35508D01*
G01X9987Y35545D01*
G01X9952Y35602D01*
G01X9939Y35678D01*
G01X9950Y35751D01*
G01X9983Y35806D01*
G01X10034Y35841D01*
G01X10099Y35853D01*
G01X10134Y35850D01*
G01X10166Y35842D01*
G01X10195Y35829D01*
G01X10226Y35810D01*
G01X10272Y35838D01*
G01X10246Y36183D01*
G37*

%LPD*%
G36*
G01X5159Y36183D02*
G01X5077Y36183D01*
G01X5235Y35439D01*
G01X5334Y35439D01*
G01X5453Y35901D01*
G01X5463Y35944D01*
G01X5471Y35987D01*
G01X5480Y36028D01*
G01X5489Y36071D01*
G01X5494Y36071D01*
G01X5504Y36028D01*
G01X5513Y35987D01*
G01X5522Y35944D01*
G01X5532Y35901D01*
G01X5649Y35439D01*
G01X5745Y35439D01*
G01X5908Y36183D01*
G01X5822Y36183D01*
G01X5738Y35769D01*
G01X5727Y35710D01*
G01X5715Y35649D01*
G01X5704Y35589D01*
G01X5692Y35528D01*
G01X5690Y35528D01*
G01X5676Y35589D01*
G01X5663Y35649D01*
G01X5648Y35710D01*
G01X5634Y35769D01*
G01X5530Y36183D01*
G01X5451Y36183D01*
G01X5344Y35769D01*
G01X5331Y35710D01*
G01X5317Y35649D01*
G01X5303Y35589D01*
G01X5288Y35528D01*
G01X5283Y35528D01*
G01X5273Y35589D01*
G01X5262Y35649D01*
G01X5251Y35710D01*
G01X5240Y35769D01*
G01X5159Y36183D01*
G37*

%LPD*%
G36*
G01X6441Y36183D02*
G01X5982Y36183D01*
G01X5982Y36132D01*
G01X6023Y36077D01*
G01X6058Y36023D01*
G01X6088Y35969D01*
G01X6114Y35917D01*
G01X6136Y35863D01*
G01X6153Y35809D01*
G01X6168Y35754D01*
G01X6179Y35697D01*
G01X6187Y35638D01*
G01X6194Y35575D01*
G01X6199Y35509D01*
G01X6203Y35439D01*
G01X6289Y35439D01*
G01X6285Y35509D01*
G01X6279Y35575D01*
G01X6271Y35637D01*
G01X6261Y35696D01*
G01X6248Y35752D01*
G01X6233Y35807D01*
G01X6215Y35860D01*
G01X6195Y35911D01*
G01X6171Y35962D01*
G01X6143Y36012D01*
G01X6113Y36062D01*
G01X6078Y36112D01*
G01X6441Y36112D01*
G01X6441Y36183D01*
G37*

%LPD*%
G36*
G01X7831Y36183D02*
G01X7742Y36183D01*
G01X7742Y35713D01*
G01X7640Y35713D01*
G01X7640Y35647D01*
G01X7742Y35647D01*
G01X7742Y35439D01*
G01X7821Y35439D01*
G01X7821Y35647D01*
G01X8146Y35647D01*
G01X8146Y35701D01*
G01X7831Y36183D01*
G37*

%LPC*%
G36*
G01X7818Y36087D02*
G01X7813Y36087D01*
G01X7817Y36055D01*
G01X7819Y36020D01*
G01X7820Y35985D01*
G01X7821Y35955D01*
G01X7821Y35713D01*
G01X8057Y35713D01*
G01X7879Y35977D01*
G01X7864Y36004D01*
G01X7849Y36032D01*
G01X7833Y36060D01*
G01X7818Y36087D01*
G37*

%LPD*%
G36*
G01X8349Y36183D02*
G01X8270Y36183D01*
G01X8270Y35439D01*
G01X8357Y35439D01*
G01X8636Y35922D01*
G01X8717Y36074D01*
G01X8722Y36074D01*
G01X8719Y36017D01*
G01X8715Y35961D01*
G01X8713Y35904D01*
G01X8712Y35845D01*
G01X8712Y35439D01*
G01X8791Y35439D01*
G01X8791Y36183D01*
G01X8705Y36183D01*
G01X8423Y35701D01*
G01X8344Y35548D01*
G01X8339Y35548D01*
G01X8342Y35605D01*
G01X8346Y35663D01*
G01X8348Y35721D01*
G01X8349Y35779D01*
G01X8349Y36183D01*
G37*

%LPD*%
G36*
G01X9177Y36183D02*
G01X9114Y36183D01*
G01X9114Y35508D01*
G01X8961Y35508D01*
G01X8961Y35439D01*
G01X9362Y35439D01*
G01X9362Y35508D01*
G01X9195Y35508D01*
G01X9195Y36079D01*
G01X9327Y36079D01*
G01X9327Y36132D01*
G01X9282Y36142D01*
G01X9243Y36153D01*
G01X9208Y36167D01*
G01X9177Y36183D01*
G37*

%LPD*%
G36*
G01X10950Y36183D02*
G01X10767Y36183D01*
G01X10712Y36181D01*
G01X10662Y36172D01*
G01X10616Y36158D01*
G01X10575Y36140D01*
G01X10539Y36116D01*
G01X10507Y36087D01*
G01X10481Y36053D01*
G01X10459Y36014D01*
G01X10441Y35971D01*
G01X10429Y35923D01*
G01X10422Y35871D01*
G01X10419Y35815D01*
G01X10422Y35759D01*
G01X10429Y35706D01*
G01X10441Y35657D01*
G01X10458Y35614D01*
G01X10481Y35574D01*
G01X10507Y35540D01*
G01X10538Y35510D01*
G01X10575Y35485D01*
G01X10615Y35465D01*
G01X10660Y35451D01*
G01X10710Y35442D01*
G01X10765Y35439D01*
G01X10950Y35439D01*
G01X10950Y36183D01*
G37*

%LPC*%
G36*
G01X10866Y36115D02*
G01X10775Y36115D01*
G01X10711Y36110D01*
G01X10655Y36094D01*
G01X10609Y36069D01*
G01X10571Y36035D01*
G01X10543Y35992D01*
G01X10522Y35941D01*
G01X10510Y35882D01*
G01X10505Y35815D01*
G01X10510Y35747D01*
G01X10522Y35686D01*
G01X10543Y35634D01*
G01X10571Y35590D01*
G01X10609Y35555D01*
G01X10655Y35529D01*
G01X10711Y35513D01*
G01X10775Y35508D01*
G01X10866Y35508D01*
G01X10866Y36115D01*
G37*

%LPD*%
G36*
G01X9754Y35754D02*
G01X9497Y35754D01*
G01X9497Y35690D01*
G01X9754Y35690D01*
G01X9754Y35754D01*
G37*

%LPD*%

%LPD*%
G36*
G01X22821Y36063D02*
G01X22771Y36069D01*
G01X22721Y36063D01*
G01X22677Y36046D01*
G01X22638Y36016D01*
G01X22606Y35974D01*
G01X22580Y35921D01*
G01X22561Y35856D01*
G01X22549Y35778D01*
G01X22545Y35688D01*
G01X22549Y35596D01*
G01X22561Y35517D01*
G01X22580Y35450D01*
G01X22606Y35395D01*
G01X22638Y35353D01*
G01X22677Y35323D01*
G01X22721Y35305D01*
G01X22771Y35299D01*
G01X22821Y35305D01*
G01X22866Y35323D01*
G01X22905Y35353D01*
G01X22938Y35395D01*
G01X22964Y35450D01*
G01X22983Y35517D01*
G01X22996Y35596D01*
G01X23000Y35688D01*
G01X22996Y35778D01*
G01X22983Y35856D01*
G01X22964Y35921D01*
G01X22938Y35974D01*
G01X22905Y36016D01*
G01X22866Y36046D01*
G01X22821Y36063D01*
G37*

%LPC*%
G36*
G01X22803Y35998D02*
G01X22771Y36003D01*
G01X22740Y35998D01*
G01X22712Y35984D01*
G01X22686Y35960D01*
G01X22665Y35926D01*
G01X22648Y35882D01*
G01X22634Y35828D01*
G01X22626Y35764D01*
G01X22624Y35688D01*
G01X22626Y35610D01*
G01X22634Y35543D01*
G01X22648Y35488D01*
G01X22665Y35443D01*
G01X22686Y35409D01*
G01X22712Y35384D01*
G01X22740Y35370D01*
G01X22771Y35365D01*
G01X22803Y35370D01*
G01X22832Y35384D01*
G01X22857Y35409D01*
G01X22878Y35443D01*
G01X22895Y35488D01*
G01X22908Y35543D01*
G01X22916Y35610D01*
G01X22918Y35688D01*
G01X22916Y35764D01*
G01X22908Y35828D01*
G01X22895Y35882D01*
G01X22878Y35926D01*
G01X22857Y35960D01*
G01X22832Y35984D01*
G01X22803Y35998D01*
G37*

%LPD*%
G36*
G01X23380Y36063D02*
G01X23330Y36069D01*
G01X23280Y36063D01*
G01X23235Y36046D01*
G01X23196Y36016D01*
G01X23163Y35974D01*
G01X23137Y35921D01*
G01X23118Y35856D01*
G01X23105Y35778D01*
G01X23101Y35688D01*
G01X23105Y35596D01*
G01X23118Y35517D01*
G01X23137Y35450D01*
G01X23163Y35395D01*
G01X23196Y35353D01*
G01X23235Y35323D01*
G01X23280Y35305D01*
G01X23330Y35299D01*
G01X23380Y35305D01*
G01X23424Y35323D01*
G01X23464Y35353D01*
G01X23497Y35395D01*
G01X23523Y35450D01*
G01X23542Y35517D01*
G01X23554Y35596D01*
G01X23559Y35688D01*
G01X23554Y35778D01*
G01X23542Y35856D01*
G01X23523Y35921D01*
G01X23497Y35974D01*
G01X23464Y36016D01*
G01X23424Y36046D01*
G01X23380Y36063D01*
G37*

%LPC*%
G36*
G01X23361Y35998D02*
G01X23330Y36003D01*
G01X23298Y35998D01*
G01X23269Y35984D01*
G01X23244Y35960D01*
G01X23223Y35926D01*
G01X23206Y35882D01*
G01X23193Y35828D01*
G01X23185Y35764D01*
G01X23183Y35688D01*
G01X23185Y35610D01*
G01X23193Y35543D01*
G01X23206Y35488D01*
G01X23223Y35443D01*
G01X23244Y35409D01*
G01X23269Y35384D01*
G01X23298Y35370D01*
G01X23330Y35365D01*
G01X23361Y35370D01*
G01X23389Y35384D01*
G01X23414Y35409D01*
G01X23436Y35443D01*
G01X23453Y35488D01*
G01X23466Y35543D01*
G01X23474Y35610D01*
G01X23477Y35688D01*
G01X23474Y35764D01*
G01X23466Y35828D01*
G01X23453Y35882D01*
G01X23436Y35926D01*
G01X23414Y35960D01*
G01X23389Y35984D01*
G01X23361Y35998D01*
G37*

%LPD*%
G36*
G01X26082Y36064D02*
G01X26030Y36069D01*
G01X25978Y36063D01*
G01X25932Y36048D01*
G01X25893Y36025D01*
G01X25860Y35995D01*
G01X25905Y35942D01*
G01X25931Y35966D01*
G01X25961Y35985D01*
G01X25993Y35996D01*
G01X26027Y36000D01*
G01X26065Y35996D01*
G01X26102Y35984D01*
G01X26134Y35962D01*
G01X26163Y35930D01*
G01X26187Y35887D01*
G01X26206Y35832D01*
G01X26218Y35764D01*
G01X26223Y35683D01*
G01X26185Y35720D01*
G01X26143Y35748D01*
G01X26097Y35766D01*
G01X26053Y35772D01*
G01X26008Y35768D01*
G01X25967Y35757D01*
G01X25932Y35739D01*
G01X25902Y35713D01*
G01X25879Y35680D01*
G01X25861Y35640D01*
G01X25851Y35592D01*
G01X25847Y35538D01*
G01X25851Y35487D01*
G01X25864Y35441D01*
G01X25884Y35400D01*
G01X25909Y35365D01*
G01X25940Y35337D01*
G01X25976Y35317D01*
G01X26014Y35304D01*
G01X26055Y35299D01*
G01X26108Y35305D01*
G01X26155Y35323D01*
G01X26197Y35352D01*
G01X26233Y35392D01*
G01X26262Y35443D01*
G01X26283Y35506D01*
G01X26297Y35580D01*
G01X26302Y35665D01*
G01X26296Y35767D01*
G01X26279Y35853D01*
G01X26253Y35922D01*
G01X26219Y35977D01*
G01X26178Y36019D01*
G01X26133Y36047D01*
G01X26082Y36064D01*
G37*

%LPC*%
G36*
G01X26103Y35705D02*
G01X26065Y35711D01*
G01X26003Y35699D01*
G01X25959Y35664D01*
G01X25934Y35609D01*
G01X25926Y35538D01*
G01X25935Y35468D01*
G01X25963Y35414D01*
G01X26004Y35378D01*
G01X26055Y35365D01*
G01X26121Y35382D01*
G01X26171Y35429D01*
G01X26204Y35507D01*
G01X26220Y35612D01*
G01X26181Y35657D01*
G01X26142Y35688D01*
G01X26103Y35705D01*
G37*

%LPD*%
G36*
G01X21161Y36056D02*
G01X21079Y36056D01*
G01X21234Y35312D01*
G01X21333Y35312D01*
G01X21453Y35774D01*
G01X21463Y35817D01*
G01X21472Y35860D01*
G01X21481Y35901D01*
G01X21491Y35944D01*
G01X21496Y35944D01*
G01X21504Y35901D01*
G01X21514Y35860D01*
G01X21532Y35774D01*
G01X21648Y35312D01*
G01X21747Y35312D01*
G01X21908Y36056D01*
G01X21821Y36056D01*
G01X21740Y35642D01*
G01X21728Y35583D01*
G01X21717Y35522D01*
G01X21705Y35462D01*
G01X21694Y35401D01*
G01X21689Y35401D01*
G01X21676Y35462D01*
G01X21662Y35522D01*
G01X21649Y35583D01*
G01X21636Y35642D01*
G01X21529Y36056D01*
G01X21450Y36056D01*
G01X21344Y35642D01*
G01X21330Y35583D01*
G01X21317Y35522D01*
G01X21303Y35462D01*
G01X21290Y35401D01*
G01X21285Y35401D01*
G01X21274Y35462D01*
G01X21263Y35522D01*
G01X21253Y35583D01*
G01X21242Y35642D01*
G01X21161Y36056D01*
G37*

%LPD*%
G36*
G01X22443Y36056D02*
G01X21984Y36056D01*
G01X21984Y36005D01*
G01X22024Y35950D01*
G01X22060Y35896D01*
G01X22090Y35842D01*
G01X22116Y35790D01*
G01X22137Y35736D01*
G01X22155Y35682D01*
G01X22169Y35627D01*
G01X22180Y35570D01*
G01X22188Y35511D01*
G01X22195Y35448D01*
G01X22199Y35382D01*
G01X22202Y35312D01*
G01X22289Y35312D01*
G01X22285Y35382D01*
G01X22279Y35448D01*
G01X22272Y35510D01*
G01X22262Y35569D01*
G01X22249Y35625D01*
G01X22235Y35680D01*
G01X22216Y35733D01*
G01X22196Y35784D01*
G01X22171Y35835D01*
G01X22144Y35885D01*
G01X22113Y35935D01*
G01X22078Y35985D01*
G01X22443Y35985D01*
G01X22443Y36056D01*
G37*

%LPD*%
G36*
G01X23830Y36056D02*
G01X23741Y36056D01*
G01X23741Y35586D01*
G01X23640Y35586D01*
G01X23640Y35520D01*
G01X23741Y35520D01*
G01X23741Y35312D01*
G01X23820Y35312D01*
G01X23820Y35520D01*
G01X24148Y35520D01*
G01X24148Y35574D01*
G01X23830Y36056D01*
G37*

%LPC*%
G36*
G01X23820Y35960D02*
G01X23815Y35960D01*
G01X23817Y35928D01*
G01X23819Y35893D01*
G01X23820Y35858D01*
G01X23820Y35586D01*
G01X24059Y35586D01*
G01X23879Y35850D01*
G01X23863Y35877D01*
G01X23849Y35905D01*
G01X23834Y35933D01*
G01X23820Y35960D01*
G37*

%LPD*%
G36*
G01X24351Y36056D02*
G01X24270Y36056D01*
G01X24270Y35312D01*
G01X24356Y35312D01*
G01X24635Y35795D01*
G01X24717Y35947D01*
G01X24722Y35947D01*
G01X24719Y35890D01*
G01X24716Y35834D01*
G01X24713Y35777D01*
G01X24712Y35718D01*
G01X24712Y35312D01*
G01X24793Y35312D01*
G01X24793Y36056D01*
G01X24707Y36056D01*
G01X24425Y35574D01*
G01X24343Y35421D01*
G01X24338Y35421D01*
G01X24342Y35478D01*
G01X24346Y35536D01*
G01X24349Y35594D01*
G01X24351Y35652D01*
G01X24351Y36056D01*
G37*

%LPD*%
G36*
G01X25176Y36056D02*
G01X25113Y36056D01*
G01X25113Y35381D01*
G01X24963Y35381D01*
G01X24963Y35312D01*
G01X25362Y35312D01*
G01X25362Y35381D01*
G01X25197Y35381D01*
G01X25197Y35952D01*
G01X25326Y35952D01*
G01X25326Y36005D01*
G01X25282Y36015D01*
G01X25242Y36026D01*
G01X25207Y36040D01*
G01X25176Y36056D01*
G37*

%LPD*%
G36*
G01X26949Y36056D02*
G01X26767Y36056D01*
G01X26712Y36054D01*
G01X26661Y36045D01*
G01X26616Y36031D01*
G01X26575Y36013D01*
G01X26538Y35989D01*
G01X26507Y35960D01*
G01X26480Y35926D01*
G01X26458Y35887D01*
G01X26441Y35844D01*
G01X26428Y35796D01*
G01X26421Y35744D01*
G01X26419Y35688D01*
G01X26421Y35632D01*
G01X26428Y35579D01*
G01X26441Y35530D01*
G01X26458Y35487D01*
G01X26480Y35447D01*
G01X26506Y35413D01*
G01X26538Y35383D01*
G01X26574Y35358D01*
G01X26615Y35338D01*
G01X26660Y35324D01*
G01X26710Y35315D01*
G01X26764Y35312D01*
G01X26949Y35312D01*
G01X26949Y36056D01*
G37*

%LPC*%
G36*
G01X26866Y35988D02*
G01X26774Y35988D01*
G01X26711Y35983D01*
G01X26656Y35967D01*
G01X26610Y35942D01*
G01X26572Y35908D01*
G01X26543Y35865D01*
G01X26522Y35814D01*
G01X26509Y35755D01*
G01X26505Y35688D01*
G01X26509Y35620D01*
G01X26522Y35559D01*
G01X26543Y35507D01*
G01X26572Y35463D01*
G01X26610Y35428D01*
G01X26656Y35402D01*
G01X26711Y35386D01*
G01X26774Y35381D01*
G01X26866Y35381D01*
G01X26866Y35988D01*
G37*

%LPD*%
G36*
G01X25756Y35627D02*
G01X25499Y35627D01*
G01X25499Y35563D01*
G01X25756Y35563D01*
G01X25756Y35627D01*
G37*

%LPD*%

%LPD*%
G36*
G01X15359Y8599D02*
G01X14615Y8599D01*
G01X14615Y8177D01*
G01X14686Y8177D01*
G01X14686Y8515D01*
G01X14948Y8515D01*
G01X14948Y8228D01*
G01X15019Y8228D01*
G01X15019Y8515D01*
G01X15359Y8515D01*
G01X15359Y8599D01*
G37*

%LPD*%
G36*
G01X15563Y9236D02*
G01X14811Y9236D01*
G01X14811Y9155D01*
G01X15149Y9155D01*
G01X15214Y9149D01*
G01X15262Y9130D01*
G01X15291Y9097D01*
G01X15301Y9048D01*
G01X15297Y9011D01*
G01X15280Y8974D01*
G01X15246Y8936D01*
G01X15189Y8896D01*
G01X14811Y8896D01*
G01X14811Y8815D01*
G01X14983Y8816D01*
G01X15097Y8818D01*
G01X15153Y8819D01*
G01X15207Y8820D01*
G01X15260Y8820D01*
G01X15280Y8817D01*
G01X15293Y8809D01*
G01X15301Y8797D01*
G01X15304Y8782D01*
G01X15302Y8766D01*
G01X15300Y8758D01*
G01X15298Y8749D01*
G01X15359Y8736D01*
G01X15364Y8748D01*
G01X15369Y8762D01*
G01X15371Y8779D01*
G01X15372Y8799D01*
G01X15365Y8838D01*
G01X15346Y8865D01*
G01X15312Y8883D01*
G01X15263Y8891D01*
G01X15263Y8893D01*
G01X15311Y8926D01*
G01X15344Y8965D01*
G01X15363Y9006D01*
G01X15370Y9051D01*
G01X15367Y9084D01*
G01X15359Y9113D01*
G01X15342Y9140D01*
G01X15314Y9163D01*
G01X15387Y9162D01*
G01X15447Y9161D01*
G01X15502Y9159D01*
G01X15563Y9155D01*
G01X15563Y9236D01*
G37*

%LPD*%
G36*
G01X15075Y9837D02*
G01X14983Y9841D01*
G01X14894Y9837D01*
G01X14816Y9825D01*
G01X14750Y9805D01*
G01X14697Y9779D01*
G01X14655Y9746D01*
G01X14626Y9707D01*
G01X14608Y9662D01*
G01X14602Y9612D01*
G01X14608Y9562D01*
G01X14626Y9518D01*
G01X14655Y9479D01*
G01X14697Y9447D01*
G01X14750Y9421D01*
G01X14816Y9402D01*
G01X14894Y9390D01*
G01X14983Y9386D01*
G01X15075Y9390D01*
G01X15155Y9402D01*
G01X15221Y9421D01*
G01X15276Y9447D01*
G01X15318Y9479D01*
G01X15348Y9518D01*
G01X15366Y9562D01*
G01X15372Y9612D01*
G01X15366Y9662D01*
G01X15348Y9707D01*
G01X15318Y9746D01*
G01X15276Y9779D01*
G01X15221Y9805D01*
G01X15155Y9825D01*
G01X15075Y9837D01*
G37*

%LPC*%
G36*
G01X15062Y9757D02*
G01X14983Y9760D01*
G01X14908Y9757D01*
G01X14843Y9749D01*
G01X14789Y9736D01*
G01X14745Y9719D01*
G01X14711Y9698D01*
G01X14687Y9673D01*
G01X14673Y9644D01*
G01X14669Y9612D01*
G01X14673Y9581D01*
G01X14687Y9553D01*
G01X14711Y9528D01*
G01X14745Y9506D01*
G01X14789Y9489D01*
G01X14843Y9476D01*
G01X14908Y9468D01*
G01X14983Y9465D01*
G01X15062Y9468D01*
G01X15128Y9476D01*
G01X15184Y9489D01*
G01X15228Y9506D01*
G01X15263Y9528D01*
G01X15287Y9553D01*
G01X15301Y9581D01*
G01X15306Y9612D01*
G01X15301Y9644D01*
G01X15287Y9673D01*
G01X15263Y9698D01*
G01X15228Y9719D01*
G01X15184Y9736D01*
G01X15128Y9749D01*
G01X15062Y9757D01*
G37*

%LPD*%
G36*
G01X15359Y10359D02*
G01X15291Y10359D01*
G01X15291Y10191D01*
G01X14719Y10191D01*
G01X14719Y10323D01*
G01X14666Y10323D01*
G01X14657Y10279D01*
G01X14645Y10239D01*
G01X14631Y10204D01*
G01X14615Y10174D01*
G01X14615Y10110D01*
G01X15291Y10110D01*
G01X15291Y9958D01*
G01X15359Y9958D01*
G01X15359Y10359D01*
G37*

%LPD*%
G36*
G01X15108Y10750D02*
G01X15044Y10750D01*
G01X15044Y10494D01*
G01X15108Y10494D01*
G01X15108Y10750D01*
G37*

%LPD*%
G36*
G01X15359Y11266D02*
G01X15291Y11266D01*
G01X15291Y11098D01*
G01X14719Y11098D01*
G01X14719Y11230D01*
G01X14666Y11230D01*
G01X14657Y11186D01*
G01X14645Y11146D01*
G01X14631Y11111D01*
G01X14615Y11080D01*
G01X14615Y11017D01*
G01X15291Y11017D01*
G01X15291Y10865D01*
G01X15359Y10865D01*
G01X15359Y11266D01*
G37*

%LPD*%
G36*
G01X15073Y11933D02*
G01X14989Y11939D01*
G01X14903Y11933D01*
G01X14828Y11915D01*
G01X14761Y11886D01*
G01X14706Y11847D01*
G01X14661Y11799D01*
G01X14629Y11744D01*
G01X14609Y11682D01*
G01X14602Y11614D01*
G01X14610Y11550D01*
G01X14630Y11494D01*
G01X14659Y11448D01*
G01X14694Y11411D01*
G01X14747Y11459D01*
G01X14718Y11490D01*
G01X14695Y11526D01*
G01X14681Y11567D01*
G01X14676Y11614D01*
G01X14682Y11666D01*
G01X14698Y11712D01*
G01X14724Y11753D01*
G01X14759Y11788D01*
G01X14804Y11815D01*
G01X14857Y11836D01*
G01X14918Y11848D01*
G01X14986Y11853D01*
G01X15054Y11848D01*
G01X15115Y11836D01*
G01X15168Y11816D01*
G01X15214Y11789D01*
G01X15250Y11755D01*
G01X15277Y11714D01*
G01X15293Y11668D01*
G01X15298Y11616D01*
G01X15293Y11565D01*
G01X15276Y11519D01*
G01X15249Y11479D01*
G01X15212Y11441D01*
G01X15265Y11393D01*
G01X15311Y11439D01*
G01X15345Y11491D01*
G01X15365Y11551D01*
G01X15372Y11619D01*
G01X15365Y11686D01*
G01X15346Y11747D01*
G01X15314Y11802D01*
G01X15270Y11848D01*
G01X15215Y11887D01*
G01X15149Y11915D01*
G01X15073Y11933D01*
G37*

%LPD*%

%LPD*%
G36*
G01X22471Y8424D02*
G01X21727Y8424D01*
G01X21727Y7999D01*
G01X21798Y7999D01*
G01X21798Y8337D01*
G01X22060Y8337D01*
G01X22060Y8053D01*
G01X22131Y8053D01*
G01X22131Y8337D01*
G01X22471Y8337D01*
G01X22471Y8424D01*
G37*

%LPD*%
G36*
G01X22675Y9061D02*
G01X21923Y9061D01*
G01X21923Y8977D01*
G01X22261Y8977D01*
G01X22326Y8972D01*
G01X22374Y8953D01*
G01X22403Y8920D01*
G01X22413Y8873D01*
G01X22408Y8836D01*
G01X22392Y8798D01*
G01X22358Y8760D01*
G01X22301Y8721D01*
G01X21923Y8721D01*
G01X21923Y8637D01*
G01X22095Y8640D01*
G01X22152Y8640D01*
G01X22209Y8641D01*
G01X22265Y8641D01*
G01X22319Y8642D01*
G01X22372Y8642D01*
G01X22392Y8639D01*
G01X22405Y8632D01*
G01X22413Y8620D01*
G01X22416Y8604D01*
G01X22415Y8596D01*
G01X22414Y8589D01*
G01X22410Y8571D01*
G01X22471Y8561D01*
G01X22476Y8573D01*
G01X22481Y8587D01*
G01X22483Y8602D01*
G01X22484Y8622D01*
G01X22477Y8661D01*
G01X22458Y8688D01*
G01X22424Y8706D01*
G01X22375Y8713D01*
G01X22375Y8716D01*
G01X22423Y8750D01*
G01X22456Y8788D01*
G01X22475Y8829D01*
G01X22482Y8873D01*
G01X22479Y8908D01*
G01X22471Y8938D01*
G01X22454Y8964D01*
G01X22426Y8985D01*
G01X22499Y8985D01*
G01X22559Y8984D01*
G01X22614Y8982D01*
G01X22675Y8977D01*
G01X22675Y9061D01*
G37*

%LPD*%
G36*
G01X22187Y9659D02*
G01X22095Y9663D01*
G01X22006Y9659D01*
G01X21928Y9647D01*
G01X21862Y9629D01*
G01X21808Y9602D01*
G01X21767Y9570D01*
G01X21738Y9530D01*
G01X21720Y9485D01*
G01X21714Y9434D01*
G01X21720Y9386D01*
G01X21738Y9342D01*
G01X21767Y9303D01*
G01X21808Y9270D01*
G01X21862Y9244D01*
G01X21928Y9225D01*
G01X22006Y9212D01*
G01X22095Y9208D01*
G01X22187Y9212D01*
G01X22267Y9225D01*
G01X22333Y9244D01*
G01X22388Y9270D01*
G01X22430Y9303D01*
G01X22460Y9342D01*
G01X22478Y9386D01*
G01X22484Y9434D01*
G01X22478Y9485D01*
G01X22460Y9530D01*
G01X22430Y9570D01*
G01X22388Y9602D01*
G01X22333Y9629D01*
G01X22267Y9647D01*
G01X22187Y9659D01*
G37*

%LPC*%
G36*
G01X22173Y9582D02*
G01X22095Y9584D01*
G01X22020Y9582D01*
G01X21955Y9574D01*
G01X21901Y9560D01*
G01X21857Y9543D01*
G01X21823Y9521D01*
G01X21799Y9495D01*
G01X21785Y9466D01*
G01X21781Y9434D01*
G01X21785Y9403D01*
G01X21799Y9376D01*
G01X21823Y9351D01*
G01X21857Y9330D01*
G01X21901Y9313D01*
G01X21955Y9300D01*
G01X22020Y9292D01*
G01X22095Y9290D01*
G01X22173Y9292D01*
G01X22240Y9300D01*
G01X22296Y9313D01*
G01X22340Y9330D01*
G01X22375Y9351D01*
G01X22399Y9376D01*
G01X22413Y9403D01*
G01X22418Y9434D01*
G01X22413Y9466D01*
G01X22399Y9495D01*
G01X22375Y9521D01*
G01X22340Y9543D01*
G01X22296Y9560D01*
G01X22240Y9574D01*
G01X22173Y9582D01*
G37*

%LPD*%
G36*
G01X22187Y10218D02*
G01X22095Y10222D01*
G01X22006Y10218D01*
G01X21928Y10206D01*
G01X21862Y10186D01*
G01X21808Y10160D01*
G01X21767Y10127D01*
G01X21738Y10088D01*
G01X21720Y10043D01*
G01X21714Y9993D01*
G01X21720Y9943D01*
G01X21738Y9899D01*
G01X21767Y9860D01*
G01X21808Y9828D01*
G01X21862Y9802D01*
G01X21928Y9783D01*
G01X22006Y9771D01*
G01X22095Y9767D01*
G01X22187Y9771D01*
G01X22267Y9783D01*
G01X22333Y9802D01*
G01X22388Y9828D01*
G01X22430Y9860D01*
G01X22460Y9899D01*
G01X22478Y9943D01*
G01X22484Y9993D01*
G01X22478Y10043D01*
G01X22460Y10088D01*
G01X22430Y10127D01*
G01X22388Y10160D01*
G01X22333Y10186D01*
G01X22267Y10206D01*
G01X22187Y10218D01*
G37*

%LPC*%
G36*
G01X22173Y10138D02*
G01X22095Y10141D01*
G01X22020Y10138D01*
G01X21955Y10130D01*
G01X21901Y10118D01*
G01X21857Y10100D01*
G01X21823Y10079D01*
G01X21799Y10054D01*
G01X21785Y10025D01*
G01X21781Y9993D01*
G01X21785Y9962D01*
G01X21799Y9934D01*
G01X21823Y9909D01*
G01X21857Y9887D01*
G01X21901Y9870D01*
G01X21955Y9857D01*
G01X22020Y9849D01*
G01X22095Y9846D01*
G01X22173Y9849D01*
G01X22240Y9857D01*
G01X22296Y9870D01*
G01X22340Y9887D01*
G01X22375Y9909D01*
G01X22399Y9934D01*
G01X22413Y9962D01*
G01X22418Y9993D01*
G01X22413Y10025D01*
G01X22399Y10054D01*
G01X22375Y10079D01*
G01X22340Y10100D01*
G01X22296Y10118D01*
G01X22240Y10130D01*
G01X22173Y10138D01*
G37*

%LPD*%
G36*
G01X22471Y10740D02*
G01X22403Y10740D01*
G01X22403Y10572D01*
G01X21831Y10572D01*
G01X21831Y10704D01*
G01X21778Y10704D01*
G01X21769Y10660D01*
G01X21757Y10620D01*
G01X21743Y10585D01*
G01X21727Y10555D01*
G01X21727Y10491D01*
G01X22403Y10491D01*
G01X22403Y10339D01*
G01X22471Y10339D01*
G01X22471Y10740D01*
G37*

%LPD*%
G36*
G01X22220Y11131D02*
G01X22156Y11131D01*
G01X22156Y10875D01*
G01X22220Y10875D01*
G01X22220Y11131D01*
G37*

%LPD*%
G36*
G01X21869Y11647D02*
G01X21824Y11695D01*
G01X21778Y11650D01*
G01X21744Y11601D01*
G01X21722Y11544D01*
G01X21714Y11479D01*
G01X21719Y11432D01*
G01X21730Y11390D01*
G01X21749Y11354D01*
G01X21774Y11323D01*
G01X21806Y11298D01*
G01X21843Y11281D01*
G01X21886Y11270D01*
G01X21933Y11266D01*
G01X21989Y11271D01*
G01X22046Y11287D01*
G01X22103Y11313D01*
G01X22162Y11348D01*
G01X22220Y11391D01*
G01X22281Y11443D01*
G01X22342Y11501D01*
G01X22405Y11566D01*
G01X22403Y11536D01*
G01X22401Y11474D01*
G01X22400Y11444D01*
G01X22400Y11230D01*
G01X22471Y11230D01*
G01X22471Y11690D01*
G01X22421Y11690D01*
G01X22346Y11608D01*
G01X22276Y11537D01*
G01X22211Y11478D01*
G01X22149Y11430D01*
G01X22091Y11393D01*
G01X22037Y11367D01*
G01X21985Y11352D01*
G01X21935Y11347D01*
G01X21873Y11356D01*
G01X21825Y11382D01*
G01X21792Y11426D01*
G01X21781Y11489D01*
G01X21788Y11534D01*
G01X21807Y11575D01*
G01X21835Y11613D01*
G01X21869Y11647D01*
G37*

%LPD*%
G36*
G01X22185Y12314D02*
G01X22101Y12320D01*
G01X22015Y12314D01*
G01X21940Y12296D01*
G01X21873Y12267D01*
G01X21818Y12228D01*
G01X21773Y12180D01*
G01X21741Y12125D01*
G01X21721Y12063D01*
G01X21714Y11995D01*
G01X21722Y11931D01*
G01X21742Y11875D01*
G01X21771Y11829D01*
G01X21806Y11792D01*
G01X21859Y11840D01*
G01X21830Y11871D01*
G01X21807Y11907D01*
G01X21793Y11948D01*
G01X21788Y11995D01*
G01X21794Y12047D01*
G01X21809Y12093D01*
G01X21836Y12134D01*
G01X21871Y12169D01*
G01X21916Y12196D01*
G01X21969Y12217D01*
G01X22030Y12229D01*
G01X22098Y12234D01*
G01X22166Y12229D01*
G01X22227Y12217D01*
G01X22280Y12197D01*
G01X22326Y12170D01*
G01X22362Y12136D01*
G01X22388Y12095D01*
G01X22405Y12049D01*
G01X22410Y11997D01*
G01X22405Y11946D01*
G01X22388Y11900D01*
G01X22361Y11860D01*
G01X22324Y11822D01*
G01X22377Y11774D01*
G01X22423Y11820D01*
G01X22456Y11873D01*
G01X22477Y11932D01*
G01X22484Y12000D01*
G01X22477Y12067D01*
G01X22458Y12128D01*
G01X22426Y12183D01*
G01X22382Y12229D01*
G01X22327Y12268D01*
G01X22261Y12296D01*
G01X22185Y12314D01*
G37*

%LPD*%

%LPD*%
G36*
G01X41637Y15614D02*
G01X41577Y15620D01*
G01X41492Y15608D01*
G01X41425Y15573D01*
G01X41382Y15515D01*
G01X41366Y15438D01*
G01X41376Y15374D01*
G01X41403Y15322D01*
G01X41444Y15283D01*
G01X41498Y15255D01*
G01X41498Y15252D01*
G01X41437Y15228D01*
G01X41387Y15188D01*
G01X41353Y15131D01*
G01X41341Y15062D01*
G01X41345Y15015D01*
G01X41359Y14973D01*
G01X41380Y14937D01*
G01X41409Y14907D01*
G01X41443Y14883D01*
G01X41483Y14865D01*
G01X41527Y14854D01*
G01X41574Y14851D01*
G01X41653Y14859D01*
G01X41718Y14882D01*
G01X41770Y14914D01*
G01X41810Y14952D01*
G01X41767Y15006D01*
G01X41732Y14973D01*
G01X41691Y14945D01*
G01X41640Y14926D01*
G01X41579Y14919D01*
G01X41516Y14930D01*
G01X41468Y14958D01*
G01X41436Y15004D01*
G01X41424Y15064D01*
G01X41437Y15127D01*
G01X41477Y15176D01*
G01X41550Y15208D01*
G01X41658Y15219D01*
G01X41658Y15283D01*
G01X41560Y15294D01*
G01X41496Y15325D01*
G01X41460Y15371D01*
G01X41450Y15430D01*
G01X41459Y15481D01*
G01X41485Y15520D01*
G01X41526Y15545D01*
G01X41579Y15554D01*
G01X41623Y15549D01*
G01X41665Y15533D01*
G01X41702Y15508D01*
G01X41737Y15478D01*
G01X41783Y15534D01*
G01X41739Y15568D01*
G01X41691Y15596D01*
G01X41637Y15614D01*
G37*

%LPD*%
G36*
G01X42001Y14978D02*
G01X41978Y14983D01*
G01X41954Y14978D01*
G01X41934Y14964D01*
G01X41920Y14942D01*
G01X41915Y14914D01*
G01X41920Y14888D01*
G01X41934Y14869D01*
G01X41954Y14855D01*
G01X41978Y14851D01*
G01X42001Y14855D01*
G01X42021Y14869D01*
G01X42034Y14888D01*
G01X42039Y14914D01*
G01X42034Y14942D01*
G01X42021Y14964D01*
G01X42001Y14978D01*
G37*

%LPD*%
G36*
G01X42469Y15614D02*
G01X42410Y15620D01*
G01X42325Y15608D01*
G01X42257Y15573D01*
G01X42213Y15515D01*
G01X42197Y15438D01*
G01X42207Y15374D01*
G01X42234Y15322D01*
G01X42277Y15283D01*
G01X42331Y15255D01*
G01X42331Y15252D01*
G01X42269Y15228D01*
G01X42218Y15188D01*
G01X42184Y15131D01*
G01X42171Y15062D01*
G01X42176Y15015D01*
G01X42189Y14973D01*
G01X42211Y14937D01*
G01X42240Y14907D01*
G01X42275Y14883D01*
G01X42315Y14865D01*
G01X42359Y14854D01*
G01X42407Y14851D01*
G01X42485Y14859D01*
G01X42549Y14882D01*
G01X42600Y14914D01*
G01X42641Y14952D01*
G01X42600Y15006D01*
G01X42564Y14973D01*
G01X42521Y14945D01*
G01X42471Y14926D01*
G01X42410Y14919D01*
G01X42348Y14930D01*
G01X42299Y14958D01*
G01X42267Y15004D01*
G01X42255Y15064D01*
G01X42268Y15127D01*
G01X42308Y15176D01*
G01X42381Y15208D01*
G01X42491Y15219D01*
G01X42491Y15283D01*
G01X42393Y15294D01*
G01X42329Y15325D01*
G01X42294Y15371D01*
G01X42283Y15430D01*
G01X42292Y15481D01*
G01X42317Y15520D01*
G01X42358Y15545D01*
G01X42412Y15554D01*
G01X42457Y15549D01*
G01X42497Y15533D01*
G01X42534Y15508D01*
G01X42567Y15478D01*
G01X42613Y15534D01*
G01X42570Y15568D01*
G01X42523Y15596D01*
G01X42469Y15614D01*
G37*

%LPD*%
G36*
G01X43467Y15608D02*
G01X43111Y15608D01*
G01X43111Y15537D01*
G01X43393Y15537D01*
G01X43413Y15311D01*
G01X43388Y15324D01*
G01X43361Y15333D01*
G01X43331Y15339D01*
G01X43299Y15341D01*
G01X43254Y15337D01*
G01X43212Y15327D01*
G01X43173Y15310D01*
G01X43140Y15285D01*
G01X43113Y15252D01*
G01X43093Y15211D01*
G01X43080Y15162D01*
G01X43075Y15105D01*
G01X43080Y15047D01*
G01X43096Y14997D01*
G01X43119Y14953D01*
G01X43149Y14917D01*
G01X43185Y14888D01*
G01X43225Y14868D01*
G01X43269Y14855D01*
G01X43314Y14851D01*
G01X43393Y14859D01*
G01X43457Y14881D01*
G01X43508Y14913D01*
G01X43550Y14950D01*
G01X43510Y15003D01*
G01X43475Y14972D01*
G01X43433Y14945D01*
G01X43383Y14926D01*
G01X43322Y14919D01*
G01X43259Y14932D01*
G01X43207Y14969D01*
G01X43172Y15027D01*
G01X43159Y15102D01*
G01X43170Y15176D01*
G01X43203Y15231D01*
G01X43254Y15265D01*
G01X43319Y15277D01*
G01X43354Y15275D01*
G01X43385Y15266D01*
G01X43414Y15253D01*
G01X43444Y15234D01*
G01X43489Y15262D01*
G01X43467Y15608D01*
G37*

%LPD*%
G36*
G01X40772Y15608D02*
G01X40675Y15608D01*
G01X40909Y15326D01*
G01X40640Y14863D01*
G01X40733Y14863D01*
G01X40962Y15260D01*
G01X41094Y15102D01*
G01X41094Y14863D01*
G01X41178Y14863D01*
G01X41178Y15608D01*
G01X41094Y15608D01*
G01X41094Y15224D01*
G01X41092Y15224D01*
G01X40772Y15608D01*
G37*

%LPD*%
G36*
G01X44112Y15608D02*
G01X43883Y15608D01*
G01X43829Y15605D01*
G01X43780Y15597D01*
G01X43736Y15583D01*
G01X43699Y15562D01*
G01X43668Y15534D01*
G01X43645Y15498D01*
G01X43631Y15455D01*
G01X43627Y15402D01*
G01X43639Y15323D01*
G01X43674Y15263D01*
G01X43728Y15220D01*
G01X43799Y15194D01*
G01X43609Y14863D01*
G01X43703Y14863D01*
G01X43888Y15184D01*
G01X44028Y15184D01*
G01X44028Y14863D01*
G01X44112Y14863D01*
G01X44112Y15608D01*
G37*

%LPC*%
G36*
G01X44028Y15539D02*
G01X43898Y15539D01*
G01X43818Y15532D01*
G01X43759Y15509D01*
G01X43723Y15466D01*
G01X43710Y15402D01*
G01X43723Y15336D01*
G01X43759Y15290D01*
G01X43818Y15263D01*
G01X43898Y15255D01*
G01X44028Y15255D01*
G01X44028Y15539D01*
G37*

%LPD*%
G36*
G01X42974Y15178D02*
G01X42717Y15178D01*
G01X42717Y15115D01*
G01X42974Y15115D01*
G01X42974Y15178D01*
G37*

%LPD*%
G01X4953Y11429D02*
G01X6042Y11429D01*
G01X4953Y11429D02*
G01X4953Y10962D01*
G01X5003Y10807D01*
G01X5057Y10756D01*
G01X5161Y10703D01*
G01X5265Y10703D01*
G01X5367Y10756D01*
G01X5420Y10807D01*
G01X5471Y10962D01*
G01X5471Y11429D01*
G01X5471Y11066D02*
G01X6042Y10703D01*
G01X5628Y10360D02*
G01X5628Y9738D01*
G01X5524Y9738D01*
G01X5420Y9789D01*
G01X5367Y9842D01*
G01X5316Y9944D01*
G01X5316Y10101D01*
G01X5367Y10205D01*
G01X5471Y10309D01*
G01X5628Y10360D01*
G01X5732Y10360D01*
G01X5887Y10309D01*
G01X5991Y10205D01*
G01X6042Y10101D01*
G01X6042Y9944D01*
G01X5991Y9842D01*
G01X5887Y9738D01*
G01X5471Y8823D02*
G01X5367Y8874D01*
G01X5316Y9029D01*
G01X5316Y9187D01*
G01X5367Y9342D01*
G01X5471Y9395D01*
G01X5575Y9342D01*
G01X5628Y9237D01*
G01X5679Y8978D01*
G01X5732Y8874D01*
G01X5836Y8823D01*
G01X5887Y8823D01*
G01X5991Y8874D01*
G01X6042Y9029D01*
G01X6042Y9187D01*
G01X5991Y9342D01*
G01X5887Y9395D01*
G01X5628Y8481D02*
G01X5628Y7856D01*
G01X5524Y7856D01*
G01X5420Y7909D01*
G01X5367Y7960D01*
G01X5316Y8064D01*
G01X5316Y8219D01*
G01X5367Y8323D01*
G01X5471Y8427D01*
G01X5628Y8481D01*
G01X5732Y8481D01*
G01X5887Y8427D01*
G01X5991Y8323D01*
G01X6042Y8219D01*
G01X6042Y8064D01*
G01X5991Y7960D01*
G01X5887Y7856D01*
G01X4953Y7358D02*
G01X5836Y7358D01*
G01X5991Y7304D01*
G01X6042Y7200D01*
G01X6042Y7099D01*
G01X5316Y7513D02*
G01X5316Y7150D01*

%LPD*%
G36*
G01X11424Y21747D02*
G01X10680Y21747D01*
G01X10680Y21663D01*
G01X11064Y21663D01*
G01X11064Y21661D01*
G01X10680Y21338D01*
G01X10680Y21241D01*
G01X10962Y21475D01*
G01X11424Y21208D01*
G01X11424Y21302D01*
G01X11028Y21531D01*
G01X11186Y21663D01*
G01X11424Y21663D01*
G01X11424Y21747D01*
G37*

%LPD*%
G36*
G01X11424Y22318D02*
G01X11356Y22318D01*
G01X11356Y22151D01*
G01X10784Y22151D01*
G01X10784Y22283D01*
G01X10731Y22283D01*
G01X10722Y22238D01*
G01X10710Y22198D01*
G01X10696Y22163D01*
G01X10680Y22133D01*
G01X10680Y22069D01*
G01X11356Y22069D01*
G01X11356Y21917D01*
G01X11424Y21917D01*
G01X11424Y22318D01*
G37*

%LPD*%
G36*
G01X10961Y22917D02*
G01X10906Y22920D01*
G01X10855Y22916D01*
G01X10809Y22904D01*
G01X10768Y22885D01*
G01X10734Y22859D01*
G01X10706Y22828D01*
G01X10685Y22793D01*
G01X10672Y22754D01*
G01X10668Y22712D01*
G01X10673Y22660D01*
G01X10689Y22613D01*
G01X10717Y22570D01*
G01X10755Y22535D01*
G01X10804Y22505D01*
G01X10865Y22484D01*
G01X10936Y22470D01*
G01X11018Y22466D01*
G01X11124Y22471D01*
G01X11212Y22488D01*
G01X11285Y22513D01*
G01X11342Y22547D01*
G01X11385Y22587D01*
G01X11414Y22632D01*
G01X11432Y22681D01*
G01X11437Y22732D01*
G01X11432Y22787D01*
G01X11416Y22835D01*
G01X11393Y22874D01*
G01X11363Y22908D01*
G01X11313Y22862D01*
G01X11337Y22835D01*
G01X11354Y22804D01*
G01X11365Y22770D01*
G01X11369Y22735D01*
G01X11364Y22698D01*
G01X11352Y22664D01*
G01X11330Y22632D01*
G01X11298Y22604D01*
G01X11254Y22581D01*
G01X11198Y22561D01*
G01X11129Y22549D01*
G01X11046Y22542D01*
G01X11085Y22581D01*
G01X11115Y22624D01*
G01X11133Y22670D01*
G01X11140Y22717D01*
G01X11136Y22762D01*
G01X11125Y22801D01*
G01X11107Y22836D01*
G01X11081Y22865D01*
G01X11049Y22889D01*
G01X11008Y22906D01*
G01X10961Y22917D01*
G37*

%LPC*%
G36*
G01X10977Y22833D02*
G01X10906Y22842D01*
G01X10836Y22832D01*
G01X10782Y22805D01*
G01X10746Y22763D01*
G01X10734Y22712D01*
G01X10749Y22644D01*
G01X10797Y22593D01*
G01X10873Y22560D01*
G01X10977Y22544D01*
G01X11023Y22584D01*
G01X11055Y22625D01*
G01X11073Y22665D01*
G01X11079Y22704D01*
G01X11067Y22764D01*
G01X11032Y22808D01*
G01X10977Y22833D01*
G37*

%LPD*%
G36*
G01X11400Y23162D02*
G01X11374Y23167D01*
G01X11346Y23162D01*
G01X11324Y23149D01*
G01X11310Y23129D01*
G01X11305Y23106D01*
G01X11310Y23081D01*
G01X11324Y23061D01*
G01X11346Y23047D01*
G01X11374Y23042D01*
G01X11400Y23047D01*
G01X11420Y23061D01*
G01X11433Y23081D01*
G01X11437Y23106D01*
G01X11433Y23129D01*
G01X11420Y23149D01*
G01X11400Y23162D01*
G37*

%LPD*%
G36*
G01X11424Y23708D02*
G01X11356Y23708D01*
G01X11356Y23543D01*
G01X10784Y23543D01*
G01X10784Y23672D01*
G01X10731Y23672D01*
G01X10722Y23627D01*
G01X10710Y23588D01*
G01X10696Y23553D01*
G01X10680Y23522D01*
G01X10680Y23459D01*
G01X11356Y23459D01*
G01X11356Y23309D01*
G01X11424Y23309D01*
G01X11424Y23708D01*
G37*

%LPD*%
G36*
G01X11173Y24101D02*
G01X11109Y24101D01*
G01X11109Y23842D01*
G01X11173Y23842D01*
G01X11173Y24101D01*
G37*

%LPD*%
G36*
G01X11156Y24643D02*
G01X11071Y24648D01*
G01X10969Y24642D01*
G01X10884Y24625D01*
G01X10814Y24599D01*
G01X10759Y24565D01*
G01X10718Y24524D01*
G01X10689Y24478D01*
G01X10673Y24429D01*
G01X10668Y24376D01*
G01X10673Y24323D01*
G01X10688Y24277D01*
G01X10711Y24239D01*
G01X10741Y24206D01*
G01X10795Y24251D01*
G01X10770Y24277D01*
G01X10752Y24306D01*
G01X10740Y24338D01*
G01X10736Y24371D01*
G01X10740Y24410D01*
G01X10752Y24446D01*
G01X10774Y24479D01*
G01X10806Y24508D01*
G01X10849Y24532D01*
G01X10904Y24551D01*
G01X10972Y24563D01*
G01X11054Y24569D01*
G01X11016Y24531D01*
G01X10988Y24488D01*
G01X10971Y24442D01*
G01X10965Y24396D01*
G01X10968Y24352D01*
G01X10979Y24312D01*
G01X10998Y24277D01*
G01X11024Y24248D01*
G01X11056Y24224D01*
G01X11096Y24207D01*
G01X11144Y24196D01*
G01X11198Y24193D01*
G01X11250Y24197D01*
G01X11296Y24210D01*
G01X11337Y24229D01*
G01X11371Y24255D01*
G01X11399Y24286D01*
G01X11420Y24321D01*
G01X11433Y24360D01*
G01X11437Y24401D01*
G01X11431Y24452D01*
G01X11414Y24500D01*
G01X11385Y24542D01*
G01X11345Y24578D01*
G01X11293Y24607D01*
G01X11230Y24629D01*
G01X11156Y24643D01*
G37*

%LPC*%
G36*
G01X11230Y24550D02*
G01X11125Y24566D01*
G01X11079Y24527D01*
G01X11049Y24487D01*
G01X11031Y24448D01*
G01X11026Y24411D01*
G01X11038Y24349D01*
G01X11073Y24305D01*
G01X11127Y24280D01*
G01X11198Y24272D01*
G01X11268Y24282D01*
G01X11323Y24309D01*
G01X11358Y24350D01*
G01X11371Y24401D01*
G01X11355Y24467D01*
G01X11307Y24517D01*
G01X11230Y24550D01*
G37*

%LPD*%
G36*
G01X11424Y25173D02*
G01X11356Y25173D01*
G01X11356Y25006D01*
G01X10784Y25006D01*
G01X10784Y25138D01*
G01X10731Y25138D01*
G01X10722Y25092D01*
G01X10710Y25052D01*
G01X10696Y25017D01*
G01X10680Y24985D01*
G01X10680Y24924D01*
G01X11356Y24924D01*
G01X11356Y24772D01*
G01X11424Y24772D01*
G01X11424Y25173D01*
G37*

%LPD*%
G36*
G01X11424Y25796D02*
G01X10680Y25796D01*
G01X10680Y25570D01*
G01X10683Y25515D01*
G01X10691Y25465D01*
G01X10705Y25421D01*
G01X10726Y25383D01*
G01X10754Y25352D01*
G01X10789Y25330D01*
G01X10833Y25316D01*
G01X10886Y25310D01*
G01X10965Y25323D01*
G01X11025Y25358D01*
G01X11068Y25413D01*
G01X11094Y25483D01*
G01X11424Y25293D01*
G01X11424Y25387D01*
G01X11104Y25572D01*
G01X11104Y25712D01*
G01X11424Y25712D01*
G01X11424Y25796D01*
G37*

%LPC*%
G36*
G01X11033Y25712D02*
G01X10749Y25712D01*
G01X10749Y25582D01*
G01X10756Y25503D01*
G01X10779Y25445D01*
G01X10821Y25409D01*
G01X10886Y25397D01*
G01X10952Y25409D01*
G01X10998Y25445D01*
G01X11025Y25503D01*
G01X11033Y25582D01*
G01X11033Y25712D01*
G37*

%LPD*%

%LPD*%
G36*
G01X27682Y21745D02*
G01X26938Y21745D01*
G01X26938Y21662D01*
G01X27322Y21662D01*
G01X27322Y21659D01*
G01X26938Y21336D01*
G01X26938Y21240D01*
G01X27220Y21474D01*
G01X27682Y21207D01*
G01X27682Y21301D01*
G01X27286Y21529D01*
G01X27444Y21662D01*
G01X27682Y21662D01*
G01X27682Y21745D01*
G37*

%LPD*%
G36*
G01X27682Y22317D02*
G01X27614Y22317D01*
G01X27614Y22149D01*
G01X27042Y22149D01*
G01X27042Y22281D01*
G01X26989Y22281D01*
G01X26980Y22237D01*
G01X26968Y22197D01*
G01X26954Y22162D01*
G01X26938Y22131D01*
G01X26938Y22068D01*
G01X27614Y22068D01*
G01X27614Y21916D01*
G01X27682Y21916D01*
G01X27682Y22317D01*
G37*

%LPD*%
G36*
G01X27219Y22915D02*
G01X27164Y22919D01*
G01X27113Y22915D01*
G01X27067Y22903D01*
G01X27026Y22883D01*
G01X26992Y22857D01*
G01X26964Y22827D01*
G01X26943Y22791D01*
G01X26930Y22752D01*
G01X26926Y22711D01*
G01X26931Y22658D01*
G01X26947Y22611D01*
G01X26975Y22569D01*
G01X27013Y22533D01*
G01X27062Y22504D01*
G01X27123Y22482D01*
G01X27194Y22469D01*
G01X27276Y22464D01*
G01X27382Y22470D01*
G01X27470Y22486D01*
G01X27543Y22512D01*
G01X27600Y22545D01*
G01X27643Y22585D01*
G01X27672Y22630D01*
G01X27690Y22680D01*
G01X27695Y22731D01*
G01X27690Y22786D01*
G01X27674Y22833D01*
G01X27651Y22873D01*
G01X27621Y22906D01*
G01X27571Y22860D01*
G01X27595Y22833D01*
G01X27612Y22803D01*
G01X27623Y22769D01*
G01X27627Y22733D01*
G01X27623Y22697D01*
G01X27610Y22663D01*
G01X27588Y22631D01*
G01X27556Y22603D01*
G01X27512Y22579D01*
G01X27456Y22560D01*
G01X27387Y22547D01*
G01X27304Y22540D01*
G01X27343Y22579D01*
G01X27373Y22622D01*
G01X27391Y22668D01*
G01X27398Y22716D01*
G01X27394Y22760D01*
G01X27383Y22800D01*
G01X27365Y22835D01*
G01X27339Y22864D01*
G01X27306Y22887D01*
G01X27266Y22905D01*
G01X27219Y22915D01*
G37*

%LPC*%
G36*
G01X27235Y22831D02*
G01X27164Y22840D01*
G01X27094Y22830D01*
G01X27040Y22803D01*
G01X27004Y22762D01*
G01X26992Y22711D01*
G01X27007Y22642D01*
G01X27055Y22592D01*
G01X27131Y22558D01*
G01X27235Y22543D01*
G01X27281Y22582D01*
G01X27313Y22623D01*
G01X27331Y22664D01*
G01X27337Y22703D01*
G01X27325Y22763D01*
G01X27290Y22806D01*
G01X27235Y22831D01*
G37*

%LPD*%
G36*
G01X27658Y23160D02*
G01X27632Y23165D01*
G01X27604Y23160D01*
G01X27582Y23147D01*
G01X27568Y23128D01*
G01X27563Y23104D01*
G01X27568Y23079D01*
G01X27582Y23059D01*
G01X27604Y23046D01*
G01X27632Y23041D01*
G01X27658Y23046D01*
G01X27678Y23059D01*
G01X27691Y23079D01*
G01X27695Y23104D01*
G01X27691Y23128D01*
G01X27678Y23147D01*
G01X27658Y23160D01*
G37*

%LPD*%
G36*
G01X27682Y23706D02*
G01X27614Y23706D01*
G01X27614Y23541D01*
G01X27042Y23541D01*
G01X27042Y23671D01*
G01X26989Y23671D01*
G01X26980Y23626D01*
G01X26968Y23586D01*
G01X26954Y23551D01*
G01X26938Y23521D01*
G01X26938Y23457D01*
G01X27614Y23457D01*
G01X27614Y23307D01*
G01X27682Y23307D01*
G01X27682Y23706D01*
G37*

%LPD*%
G36*
G01X27431Y24100D02*
G01X27367Y24100D01*
G01X27367Y23841D01*
G01X27431Y23841D01*
G01X27431Y24100D01*
G37*

%LPD*%
G36*
G01X27009Y24654D02*
G01X26938Y24654D01*
G01X26938Y24194D01*
G01X26989Y24194D01*
G01X27044Y24235D01*
G01X27099Y24270D01*
G01X27152Y24301D01*
G01X27205Y24327D01*
G01X27258Y24348D01*
G01X27312Y24366D01*
G01X27367Y24380D01*
G01X27424Y24391D01*
G01X27484Y24400D01*
G01X27546Y24406D01*
G01X27612Y24411D01*
G01X27682Y24415D01*
G01X27682Y24501D01*
G01X27613Y24497D01*
G01X27547Y24491D01*
G01X27485Y24483D01*
G01X27425Y24473D01*
G01X27369Y24461D01*
G01X27315Y24445D01*
G01X27262Y24427D01*
G01X27211Y24406D01*
G01X27160Y24382D01*
G01X27110Y24354D01*
G01X27060Y24323D01*
G01X27009Y24288D01*
G01X27009Y24654D01*
G37*

%LPD*%
G36*
G01X27682Y25172D02*
G01X27614Y25172D01*
G01X27614Y25004D01*
G01X27042Y25004D01*
G01X27042Y25136D01*
G01X26989Y25136D01*
G01X26980Y25091D01*
G01X26968Y25050D01*
G01X26954Y25015D01*
G01X26938Y24984D01*
G01X26938Y24923D01*
G01X27614Y24923D01*
G01X27614Y24770D01*
G01X27682Y24770D01*
G01X27682Y25172D01*
G37*

%LPD*%
G36*
G01X27682Y25794D02*
G01X26938Y25794D01*
G01X26938Y25568D01*
G01X26941Y25513D01*
G01X26949Y25463D01*
G01X26963Y25419D01*
G01X26984Y25382D01*
G01X27012Y25351D01*
G01X27047Y25328D01*
G01X27091Y25314D01*
G01X27144Y25309D01*
G01X27223Y25321D01*
G01X27283Y25356D01*
G01X27326Y25411D01*
G01X27352Y25482D01*
G01X27682Y25291D01*
G01X27682Y25385D01*
G01X27362Y25571D01*
G01X27362Y25710D01*
G01X27682Y25710D01*
G01X27682Y25794D01*
G37*

%LPC*%
G36*
G01X27291Y25710D02*
G01X27007Y25710D01*
G01X27007Y25581D01*
G01X27014Y25502D01*
G01X27037Y25443D01*
G01X27079Y25408D01*
G01X27144Y25395D01*
G01X27210Y25408D01*
G01X27256Y25443D01*
G01X27283Y25502D01*
G01X27291Y25581D01*
G01X27291Y25710D01*
G37*

%LPD*%

%LPD*%
G36*
G01X5296Y22232D02*
G01X5204Y22236D01*
G01X5115Y22232D01*
G01X5037Y22220D01*
G01X4971Y22202D01*
G01X4918Y22175D01*
G01X4876Y22143D01*
G01X4847Y22103D01*
G01X4829Y22058D01*
G01X4823Y22007D01*
G01X4829Y21959D01*
G01X4847Y21915D01*
G01X4876Y21876D01*
G01X4918Y21843D01*
G01X4971Y21817D01*
G01X5037Y21798D01*
G01X5115Y21785D01*
G01X5204Y21781D01*
G01X5296Y21785D01*
G01X5376Y21798D01*
G01X5442Y21817D01*
G01X5497Y21843D01*
G01X5539Y21876D01*
G01X5569Y21915D01*
G01X5587Y21959D01*
G01X5593Y22007D01*
G01X5587Y22058D01*
G01X5569Y22103D01*
G01X5539Y22143D01*
G01X5497Y22175D01*
G01X5442Y22202D01*
G01X5376Y22220D01*
G01X5296Y22232D01*
G37*

%LPC*%
G36*
G01X5282Y22155D02*
G01X5204Y22157D01*
G01X5129Y22155D01*
G01X5064Y22147D01*
G01X5010Y22133D01*
G01X4966Y22116D01*
G01X4932Y22094D01*
G01X4908Y22068D01*
G01X4894Y22039D01*
G01X4890Y22007D01*
G01X4894Y21976D01*
G01X4908Y21949D01*
G01X4932Y21924D01*
G01X4966Y21903D01*
G01X5010Y21886D01*
G01X5064Y21873D01*
G01X5129Y21865D01*
G01X5204Y21863D01*
G01X5282Y21865D01*
G01X5348Y21873D01*
G01X5404Y21886D01*
G01X5449Y21903D01*
G01X5483Y21924D01*
G01X5508Y21949D01*
G01X5522Y21976D01*
G01X5527Y22007D01*
G01X5522Y22039D01*
G01X5508Y22068D01*
G01X5483Y22094D01*
G01X5449Y22116D01*
G01X5404Y22133D01*
G01X5348Y22147D01*
G01X5282Y22155D01*
G37*

%LPD*%
G36*
G01X5580Y22754D02*
G01X5512Y22754D01*
G01X5512Y22589D01*
G01X4940Y22589D01*
G01X4940Y22719D01*
G01X4887Y22719D01*
G01X4878Y22674D01*
G01X4866Y22634D01*
G01X4852Y22599D01*
G01X4836Y22569D01*
G01X4836Y22505D01*
G01X5512Y22505D01*
G01X5512Y22355D01*
G01X5580Y22355D01*
G01X5580Y22754D01*
G37*

%LPD*%
G36*
G01X5531Y23334D02*
G01X5494Y23374D01*
G01X5441Y23333D01*
G01X5472Y23299D01*
G01X5499Y23258D01*
G01X5517Y23208D01*
G01X5525Y23148D01*
G01X5512Y23085D01*
G01X5475Y23032D01*
G01X5417Y22996D01*
G01X5342Y22983D01*
G01X5268Y22995D01*
G01X5213Y23027D01*
G01X5179Y23077D01*
G01X5166Y23143D01*
G01X5169Y23178D01*
G01X5178Y23209D01*
G01X5191Y23239D01*
G01X5210Y23270D01*
G01X5182Y23316D01*
G01X4836Y23293D01*
G01X4836Y22937D01*
G01X4907Y22937D01*
G01X4907Y23219D01*
G01X5133Y23239D01*
G01X5120Y23213D01*
G01X5109Y23186D01*
G01X5102Y23156D01*
G01X5100Y23123D01*
G01X5104Y23078D01*
G01X5115Y23037D01*
G01X5132Y22999D01*
G01X5158Y22967D01*
G01X5191Y22940D01*
G01X5232Y22919D01*
G01X5281Y22906D01*
G01X5339Y22902D01*
G01X5396Y22907D01*
G01X5447Y22922D01*
G01X5491Y22945D01*
G01X5527Y22975D01*
G01X5555Y23011D01*
G01X5576Y23051D01*
G01X5589Y23095D01*
G01X5593Y23140D01*
G01X5585Y23220D01*
G01X5563Y23283D01*
G01X5531Y23334D01*
G37*

%LPD*%
G36*
G01X5329Y23704D02*
G01X5263Y23704D01*
G01X5263Y23448D01*
G01X5329Y23448D01*
G01X5329Y23704D01*
G37*

%LPD*%
G36*
G01X5474Y24246D02*
G01X5395Y24263D01*
G01X5325Y24251D01*
G01X5267Y24220D01*
G01X5221Y24176D01*
G01X5187Y24126D01*
G01X5184Y24126D01*
G01X5152Y24164D01*
G01X5114Y24197D01*
G01X5067Y24219D01*
G01X5014Y24227D01*
G01X4937Y24212D01*
G01X4878Y24170D01*
G01X4840Y24107D01*
G01X4826Y24027D01*
G01X4840Y23941D01*
G01X4881Y23877D01*
G01X4943Y23837D01*
G01X5022Y23824D01*
G01X5078Y23833D01*
G01X5128Y23858D01*
G01X5170Y23891D01*
G01X5202Y23925D01*
G01X5207Y23925D01*
G01X5240Y23877D01*
G01X5281Y23837D01*
G01X5335Y23809D01*
G01X5403Y23798D01*
G01X5477Y23815D01*
G01X5538Y23862D01*
G01X5578Y23935D01*
G01X5593Y24029D01*
G01X5578Y24123D01*
G01X5537Y24197D01*
G01X5474Y24246D01*
G37*

%LPC*%
G36*
G01X5446Y24177D02*
G01X5390Y24189D01*
G01X5336Y24181D01*
G01X5288Y24159D01*
G01X5247Y24124D01*
G01X5215Y24080D01*
G01X5247Y24003D01*
G01X5284Y23938D01*
G01X5333Y23894D01*
G01X5400Y23877D01*
G01X5453Y23888D01*
G01X5495Y23919D01*
G01X5522Y23966D01*
G01X5532Y24027D01*
G01X5521Y24092D01*
G01X5491Y24144D01*
G01X5446Y24177D01*
G37*
G36*
G01X5074Y24137D02*
G01X5014Y24151D01*
G01X4962Y24142D01*
G01X4922Y24116D01*
G01X4896Y24078D01*
G01X4887Y24029D01*
G01X4898Y23972D01*
G01X4928Y23931D01*
G01X4972Y23906D01*
G01X5024Y23897D01*
G01X5067Y23902D01*
G01X5107Y23918D01*
G01X5145Y23943D01*
G01X5179Y23979D01*
G01X5152Y24042D01*
G01X5119Y24097D01*
G01X5074Y24137D01*
G37*

%LPD*%
G36*
G01X5580Y24776D02*
G01X5512Y24776D01*
G01X5512Y24611D01*
G01X4940Y24611D01*
G01X4940Y24741D01*
G01X4887Y24741D01*
G01X4878Y24696D01*
G01X4866Y24656D01*
G01X4852Y24621D01*
G01X4836Y24591D01*
G01X4836Y24527D01*
G01X5512Y24527D01*
G01X5512Y24377D01*
G01X5580Y24377D01*
G01X5580Y24776D01*
G37*

%LPD*%
G36*
G01X5580Y25401D02*
G01X4836Y25401D01*
G01X4836Y25172D01*
G01X4839Y25118D01*
G01X4847Y25069D01*
G01X4861Y25026D01*
G01X4882Y24988D01*
G01X4910Y24957D01*
G01X4945Y24935D01*
G01X4989Y24921D01*
G01X5042Y24916D01*
G01X5121Y24928D01*
G01X5181Y24963D01*
G01X5224Y25018D01*
G01X5250Y25089D01*
G01X5580Y24898D01*
G01X5580Y24992D01*
G01X5258Y25177D01*
G01X5258Y25317D01*
G01X5580Y25317D01*
G01X5580Y25401D01*
G37*

%LPC*%
G36*
G01X5189Y25317D02*
G01X4905Y25317D01*
G01X4905Y25188D01*
G01X4912Y25107D01*
G01X4935Y25048D01*
G01X4977Y25012D01*
G01X5042Y25000D01*
G01X5107Y25012D01*
G01X5153Y25048D01*
G01X5180Y25107D01*
G01X5189Y25188D01*
G01X5189Y25317D01*
G37*

%LPD*%

%LPD*%
G36*
G01X21424Y22232D02*
G01X21333Y22236D01*
G01X21243Y22232D01*
G01X21165Y22220D01*
G01X21099Y22202D01*
G01X21046Y22175D01*
G01X21005Y22143D01*
G01X20975Y22103D01*
G01X20958Y22058D01*
G01X20952Y22007D01*
G01X20958Y21959D01*
G01X20976Y21915D01*
G01X21005Y21876D01*
G01X21046Y21843D01*
G01X21100Y21817D01*
G01X21166Y21798D01*
G01X21244Y21785D01*
G01X21333Y21781D01*
G01X21424Y21785D01*
G01X21504Y21798D01*
G01X21570Y21817D01*
G01X21625Y21843D01*
G01X21667Y21876D01*
G01X21698Y21915D01*
G01X21716Y21959D01*
G01X21722Y22007D01*
G01X21716Y22058D01*
G01X21698Y22103D01*
G01X21667Y22143D01*
G01X21625Y22175D01*
G01X21570Y22202D01*
G01X21504Y22220D01*
G01X21424Y22232D01*
G37*

%LPC*%
G36*
G01X21411Y22155D02*
G01X21333Y22157D01*
G01X21258Y22155D01*
G01X21193Y22147D01*
G01X21139Y22133D01*
G01X21095Y22116D01*
G01X21061Y22094D01*
G01X21037Y22068D01*
G01X21023Y22039D01*
G01X21019Y22007D01*
G01X21023Y21976D01*
G01X21037Y21949D01*
G01X21061Y21924D01*
G01X21095Y21903D01*
G01X21139Y21886D01*
G01X21193Y21873D01*
G01X21258Y21865D01*
G01X21333Y21863D01*
G01X21411Y21865D01*
G01X21477Y21873D01*
G01X21533Y21886D01*
G01X21577Y21903D01*
G01X21612Y21924D01*
G01X21637Y21949D01*
G01X21651Y21976D01*
G01X21656Y22007D01*
G01X21651Y22039D01*
G01X21637Y22068D01*
G01X21612Y22094D01*
G01X21577Y22116D01*
G01X21533Y22133D01*
G01X21477Y22147D01*
G01X21411Y22155D01*
G37*

%LPD*%
G36*
G01X21709Y22754D02*
G01X21641Y22754D01*
G01X21641Y22589D01*
G01X21069Y22589D01*
G01X21069Y22719D01*
G01X21016Y22719D01*
G01X21007Y22674D01*
G01X20995Y22634D01*
G01X20981Y22599D01*
G01X20965Y22569D01*
G01X20965Y22505D01*
G01X21641Y22505D01*
G01X21641Y22355D01*
G01X21709Y22355D01*
G01X21709Y22754D01*
G37*

%LPD*%
G36*
G01X21660Y23334D02*
G01X21623Y23374D01*
G01X21567Y23333D01*
G01X21600Y23299D01*
G01X21628Y23258D01*
G01X21646Y23208D01*
G01X21654Y23148D01*
G01X21641Y23085D01*
G01X21604Y23032D01*
G01X21546Y22996D01*
G01X21471Y22983D01*
G01X21396Y22995D01*
G01X21341Y23027D01*
G01X21305Y23077D01*
G01X21293Y23143D01*
G01X21296Y23178D01*
G01X21305Y23209D01*
G01X21320Y23239D01*
G01X21339Y23270D01*
G01X21311Y23316D01*
G01X20965Y23293D01*
G01X20965Y22937D01*
G01X21036Y22937D01*
G01X21036Y23219D01*
G01X21262Y23239D01*
G01X21249Y23213D01*
G01X21238Y23186D01*
G01X21231Y23156D01*
G01X21229Y23123D01*
G01X21233Y23078D01*
G01X21244Y23037D01*
G01X21261Y22999D01*
G01X21287Y22967D01*
G01X21320Y22940D01*
G01X21361Y22919D01*
G01X21410Y22906D01*
G01X21468Y22902D01*
G01X21525Y22907D01*
G01X21576Y22922D01*
G01X21620Y22945D01*
G01X21656Y22975D01*
G01X21684Y23011D01*
G01X21705Y23051D01*
G01X21718Y23095D01*
G01X21722Y23140D01*
G01X21713Y23220D01*
G01X21692Y23283D01*
G01X21660Y23334D01*
G37*

%LPD*%
G36*
G01X21458Y23704D02*
G01X21392Y23704D01*
G01X21392Y23448D01*
G01X21458Y23448D01*
G01X21458Y23704D01*
G37*

%LPD*%
G36*
G01X21246Y24259D02*
G01X21191Y24263D01*
G01X21140Y24259D01*
G01X21094Y24247D01*
G01X21053Y24227D01*
G01X21019Y24202D01*
G01X20991Y24171D01*
G01X20970Y24135D01*
G01X20957Y24096D01*
G01X20952Y24055D01*
G01X20958Y24003D01*
G01X20974Y23956D01*
G01X21002Y23915D01*
G01X21040Y23878D01*
G01X21089Y23849D01*
G01X21150Y23827D01*
G01X21221Y23813D01*
G01X21303Y23808D01*
G01X21409Y23814D01*
G01X21497Y23831D01*
G01X21570Y23857D01*
G01X21627Y23890D01*
G01X21670Y23930D01*
G01X21699Y23975D01*
G01X21717Y24024D01*
G01X21722Y24075D01*
G01X21716Y24130D01*
G01X21700Y24177D01*
G01X21677Y24217D01*
G01X21648Y24250D01*
G01X21595Y24205D01*
G01X21619Y24178D01*
G01X21638Y24147D01*
G01X21649Y24113D01*
G01X21654Y24078D01*
G01X21649Y24041D01*
G01X21637Y24007D01*
G01X21614Y23975D01*
G01X21582Y23947D01*
G01X21538Y23924D01*
G01X21482Y23905D01*
G01X21413Y23893D01*
G01X21331Y23887D01*
G01X21369Y23925D01*
G01X21399Y23967D01*
G01X21418Y24013D01*
G01X21425Y24060D01*
G01X21421Y24105D01*
G01X21410Y24144D01*
G01X21392Y24179D01*
G01X21366Y24208D01*
G01X21333Y24232D01*
G01X21293Y24249D01*
G01X21246Y24259D01*
G37*

%LPC*%
G36*
G01X21261Y24176D02*
G01X21191Y24184D01*
G01X21120Y24175D01*
G01X21064Y24147D01*
G01X21029Y24106D01*
G01X21016Y24055D01*
G01X21032Y23987D01*
G01X21079Y23936D01*
G01X21156Y23902D01*
G01X21260Y23887D01*
G01X21307Y23926D01*
G01X21340Y23967D01*
G01X21358Y24008D01*
G01X21364Y24047D01*
G01X21351Y24108D01*
G01X21316Y24151D01*
G01X21261Y24176D01*
G37*

%LPD*%
G36*
G01X21709Y24776D02*
G01X21641Y24776D01*
G01X21641Y24611D01*
G01X21069Y24611D01*
G01X21069Y24741D01*
G01X21016Y24741D01*
G01X21007Y24696D01*
G01X20995Y24656D01*
G01X20981Y24621D01*
G01X20965Y24591D01*
G01X20965Y24527D01*
G01X21641Y24527D01*
G01X21641Y24377D01*
G01X21709Y24377D01*
G01X21709Y24776D01*
G37*

%LPD*%
G36*
G01X21709Y25401D02*
G01X20965Y25401D01*
G01X20965Y25172D01*
G01X20968Y25118D01*
G01X20976Y25069D01*
G01X20990Y25026D01*
G01X21011Y24988D01*
G01X21039Y24957D01*
G01X21074Y24935D01*
G01X21118Y24921D01*
G01X21171Y24916D01*
G01X21250Y24928D01*
G01X21310Y24963D01*
G01X21353Y25018D01*
G01X21379Y25089D01*
G01X21709Y24898D01*
G01X21709Y24992D01*
G01X21387Y25177D01*
G01X21387Y25317D01*
G01X21709Y25317D01*
G01X21709Y25401D01*
G37*

%LPC*%
G36*
G01X21318Y25317D02*
G01X21034Y25317D01*
G01X21034Y25188D01*
G01X21041Y25107D01*
G01X21064Y25048D01*
G01X21106Y25012D01*
G01X21171Y25000D01*
G01X21235Y25012D01*
G01X21282Y25048D01*
G01X21309Y25107D01*
G01X21318Y25188D01*
G01X21318Y25317D01*
G37*

%LPD*%

%LPD*%
G36*
G01X38348Y26502D02*
G01X37604Y26502D01*
G01X37604Y26418D01*
G01X37988Y26418D01*
G01X37988Y26415D01*
G01X37604Y26093D01*
G01X37604Y25996D01*
G01X37886Y26230D01*
G01X38348Y25963D01*
G01X38348Y26057D01*
G01X37952Y26283D01*
G01X38110Y26418D01*
G01X38348Y26418D01*
G01X38348Y26502D01*
G37*

%LPD*%
G36*
G01X38298Y27092D02*
G01X38260Y27132D01*
G01X38206Y27091D01*
G01X38239Y27054D01*
G01X38267Y27012D01*
G01X38285Y26963D01*
G01X38293Y26903D01*
G01X38282Y26840D01*
G01X38253Y26790D01*
G01X38208Y26757D01*
G01X38148Y26746D01*
G01X38085Y26758D01*
G01X38037Y26799D01*
G01X38006Y26872D01*
G01X37995Y26982D01*
G01X37929Y26982D01*
G01X37918Y26884D01*
G01X37887Y26820D01*
G01X37840Y26784D01*
G01X37782Y26774D01*
G01X37732Y26782D01*
G01X37693Y26808D01*
G01X37668Y26849D01*
G01X37658Y26903D01*
G01X37664Y26947D01*
G01X37680Y26988D01*
G01X37704Y27027D01*
G01X37734Y27061D01*
G01X37680Y27106D01*
G01X37645Y27063D01*
G01X37617Y27014D01*
G01X37598Y26960D01*
G01X37592Y26901D01*
G01X37604Y26816D01*
G01X37639Y26750D01*
G01X37698Y26705D01*
G01X37777Y26690D01*
G01X37839Y26699D01*
G01X37891Y26726D01*
G01X37930Y26768D01*
G01X37957Y26822D01*
G01X37960Y26822D01*
G01X37984Y26761D01*
G01X38024Y26711D01*
G01X38080Y26677D01*
G01X38150Y26664D01*
G01X38197Y26669D01*
G01X38239Y26682D01*
G01X38275Y26703D01*
G01X38305Y26732D01*
G01X38329Y26766D01*
G01X38346Y26806D01*
G01X38358Y26850D01*
G01X38361Y26898D01*
G01X38352Y26976D01*
G01X38330Y27041D01*
G01X38298Y27092D01*
G37*

%LPD*%
G36*
G01X38298Y27650D02*
G01X38260Y27690D01*
G01X38206Y27647D01*
G01X38239Y27612D01*
G01X38267Y27571D01*
G01X38285Y27520D01*
G01X38293Y27459D01*
G01X38282Y27398D01*
G01X38253Y27349D01*
G01X38208Y27316D01*
G01X38148Y27304D01*
G01X38085Y27317D01*
G01X38037Y27358D01*
G01X38006Y27431D01*
G01X37995Y27541D01*
G01X37929Y27541D01*
G01X37918Y27443D01*
G01X37887Y27377D01*
G01X37840Y27341D01*
G01X37782Y27330D01*
G01X37732Y27339D01*
G01X37693Y27365D01*
G01X37668Y27407D01*
G01X37658Y27462D01*
G01X37664Y27506D01*
G01X37680Y27547D01*
G01X37704Y27584D01*
G01X37734Y27617D01*
G01X37680Y27663D01*
G01X37645Y27620D01*
G01X37617Y27572D01*
G01X37598Y27518D01*
G01X37592Y27457D01*
G01X37604Y27372D01*
G01X37639Y27306D01*
G01X37698Y27262D01*
G01X37777Y27246D01*
G01X37839Y27256D01*
G01X37891Y27283D01*
G01X37930Y27325D01*
G01X37957Y27381D01*
G01X37960Y27381D01*
G01X37984Y27318D01*
G01X38024Y27267D01*
G01X38080Y27233D01*
G01X38150Y27221D01*
G01X38197Y27225D01*
G01X38239Y27239D01*
G01X38275Y27260D01*
G01X38305Y27289D01*
G01X38329Y27323D01*
G01X38346Y27363D01*
G01X38358Y27407D01*
G01X38361Y27454D01*
G01X38352Y27534D01*
G01X38330Y27598D01*
G01X38298Y27650D01*
G37*

%LPD*%
G36*
G01X38097Y28023D02*
G01X38033Y28023D01*
G01X38033Y27767D01*
G01X38097Y27767D01*
G01X38097Y28023D01*
G37*

%LPD*%
G36*
G01X38066Y28573D02*
G01X37975Y28577D01*
G01X37884Y28573D01*
G01X37806Y28561D01*
G01X37740Y28541D01*
G01X37686Y28515D01*
G01X37644Y28482D01*
G01X37615Y28443D01*
G01X37597Y28398D01*
G01X37592Y28348D01*
G01X37597Y28299D01*
G01X37615Y28254D01*
G01X37644Y28215D01*
G01X37686Y28183D01*
G01X37740Y28157D01*
G01X37806Y28138D01*
G01X37884Y28126D01*
G01X37975Y28122D01*
G01X38066Y28126D01*
G01X38145Y28138D01*
G01X38211Y28157D01*
G01X38265Y28183D01*
G01X38307Y28215D01*
G01X38337Y28254D01*
G01X38355Y28299D01*
G01X38361Y28348D01*
G01X38355Y28398D01*
G01X38337Y28443D01*
G01X38307Y28482D01*
G01X38265Y28515D01*
G01X38211Y28541D01*
G01X38145Y28561D01*
G01X38066Y28573D01*
G37*

%LPC*%
G36*
G01X38052Y28493D02*
G01X37975Y28496D01*
G01X37899Y28493D01*
G01X37833Y28485D01*
G01X37779Y28472D01*
G01X37736Y28456D01*
G01X37702Y28434D01*
G01X37678Y28409D01*
G01X37665Y28380D01*
G01X37660Y28348D01*
G01X37665Y28316D01*
G01X37678Y28288D01*
G01X37702Y28262D01*
G01X37736Y28241D01*
G01X37779Y28224D01*
G01X37833Y28212D01*
G01X37899Y28204D01*
G01X37975Y28201D01*
G01X38052Y28204D01*
G01X38118Y28212D01*
G01X38173Y28224D01*
G01X38218Y28241D01*
G01X38252Y28262D01*
G01X38276Y28288D01*
G01X38291Y28316D01*
G01X38295Y28348D01*
G01X38291Y28380D01*
G01X38276Y28409D01*
G01X38252Y28434D01*
G01X38218Y28456D01*
G01X38173Y28472D01*
G01X38118Y28485D01*
G01X38052Y28493D01*
G37*

%LPD*%
G36*
G01X37746Y29095D02*
G01X37701Y29143D01*
G01X37656Y29098D01*
G01X37621Y29049D01*
G01X37599Y28992D01*
G01X37592Y28927D01*
G01X37596Y28880D01*
G01X37607Y28839D01*
G01X37626Y28802D01*
G01X37651Y28772D01*
G01X37682Y28747D01*
G01X37720Y28729D01*
G01X37763Y28718D01*
G01X37810Y28714D01*
G01X37866Y28720D01*
G01X37923Y28735D01*
G01X37981Y28761D01*
G01X38039Y28796D01*
G01X38098Y28840D01*
G01X38159Y28891D01*
G01X38221Y28949D01*
G01X38285Y29014D01*
G01X38281Y28984D01*
G01X38279Y28953D01*
G01X38278Y28922D01*
G01X38277Y28892D01*
G01X38277Y28679D01*
G01X38348Y28679D01*
G01X38348Y29138D01*
G01X38300Y29138D01*
G01X38224Y29056D01*
G01X38154Y28985D01*
G01X38088Y28926D01*
G01X38027Y28878D01*
G01X37968Y28842D01*
G01X37914Y28816D01*
G01X37862Y28800D01*
G01X37812Y28795D01*
G01X37752Y28804D01*
G01X37704Y28830D01*
G01X37672Y28875D01*
G01X37660Y28938D01*
G01X37667Y28982D01*
G01X37685Y29023D01*
G01X37712Y29061D01*
G01X37746Y29095D01*
G37*

%LPD*%
G36*
G01X38348Y29717D02*
G01X37604Y29717D01*
G01X37604Y29491D01*
G01X37607Y29436D01*
G01X37615Y29387D01*
G01X37630Y29343D01*
G01X37651Y29306D01*
G01X37679Y29276D01*
G01X37715Y29254D01*
G01X37760Y29239D01*
G01X37812Y29235D01*
G01X37891Y29247D01*
G01X37951Y29281D01*
G01X37994Y29335D01*
G01X38021Y29408D01*
G01X38348Y29214D01*
G01X38348Y29308D01*
G01X38028Y29494D01*
G01X38028Y29634D01*
G01X38348Y29634D01*
G01X38348Y29717D01*
G37*

%LPC*%
G36*
G01X37960Y29634D02*
G01X37673Y29634D01*
G01X37673Y29504D01*
G01X37680Y29425D01*
G01X37704Y29366D01*
G01X37747Y29331D01*
G01X37812Y29319D01*
G01X37877Y29331D01*
G01X37923Y29366D01*
G01X37951Y29425D01*
G01X37960Y29504D01*
G01X37960Y29634D01*
G37*

%LPD*%

%LPD*%
G36*
G01X45079Y26629D02*
G01X44335Y26629D01*
G01X44335Y26545D01*
G01X44719Y26545D01*
G01X44719Y26542D01*
G01X44335Y26220D01*
G01X44335Y26123D01*
G01X44617Y26357D01*
G01X45079Y26088D01*
G01X45079Y26184D01*
G01X44683Y26410D01*
G01X44841Y26545D01*
G01X45079Y26545D01*
G01X45079Y26629D01*
G37*

%LPD*%
G36*
G01X45029Y27218D02*
G01X44991Y27259D01*
G01X44937Y27215D01*
G01X44970Y27180D01*
G01X44998Y27139D01*
G01X45016Y27088D01*
G01X45024Y27028D01*
G01X45013Y26966D01*
G01X44984Y26917D01*
G01X44939Y26884D01*
G01X44879Y26873D01*
G01X44816Y26885D01*
G01X44767Y26926D01*
G01X44735Y26999D01*
G01X44724Y27109D01*
G01X44660Y27109D01*
G01X44649Y27011D01*
G01X44618Y26947D01*
G01X44571Y26911D01*
G01X44513Y26901D01*
G01X44462Y26909D01*
G01X44423Y26935D01*
G01X44398Y26976D01*
G01X44389Y27030D01*
G01X44394Y27074D01*
G01X44410Y27115D01*
G01X44435Y27153D01*
G01X44465Y27185D01*
G01X44409Y27231D01*
G01X44375Y27189D01*
G01X44347Y27141D01*
G01X44329Y27087D01*
G01X44323Y27028D01*
G01X44335Y26943D01*
G01X44370Y26875D01*
G01X44428Y26830D01*
G01X44505Y26814D01*
G01X44569Y26824D01*
G01X44621Y26852D01*
G01X44660Y26894D01*
G01X44688Y26949D01*
G01X44691Y26949D01*
G01X44715Y26886D01*
G01X44755Y26836D01*
G01X44812Y26801D01*
G01X44881Y26789D01*
G01X44928Y26793D01*
G01X44970Y26807D01*
G01X45006Y26828D01*
G01X45036Y26857D01*
G01X45060Y26892D01*
G01X45078Y26932D01*
G01X45089Y26975D01*
G01X45092Y27022D01*
G01X45083Y27102D01*
G01X45061Y27166D01*
G01X45029Y27218D01*
G37*

%LPD*%
G36*
G01X45029Y27777D02*
G01X44991Y27817D01*
G01X44937Y27774D01*
G01X44970Y27739D01*
G01X44998Y27698D01*
G01X45016Y27647D01*
G01X45024Y27586D01*
G01X45013Y27524D01*
G01X44984Y27475D01*
G01X44939Y27443D01*
G01X44879Y27431D01*
G01X44816Y27444D01*
G01X44767Y27485D01*
G01X44735Y27558D01*
G01X44724Y27668D01*
G01X44660Y27668D01*
G01X44649Y27569D01*
G01X44618Y27503D01*
G01X44571Y27467D01*
G01X44513Y27457D01*
G01X44462Y27466D01*
G01X44423Y27492D01*
G01X44398Y27533D01*
G01X44389Y27586D01*
G01X44394Y27631D01*
G01X44410Y27673D01*
G01X44435Y27711D01*
G01X44465Y27744D01*
G01X44409Y27790D01*
G01X44375Y27746D01*
G01X44347Y27698D01*
G01X44329Y27645D01*
G01X44323Y27584D01*
G01X44335Y27499D01*
G01X44370Y27433D01*
G01X44428Y27389D01*
G01X44505Y27373D01*
G01X44569Y27383D01*
G01X44621Y27410D01*
G01X44660Y27451D01*
G01X44688Y27505D01*
G01X44691Y27505D01*
G01X44715Y27444D01*
G01X44755Y27394D01*
G01X44812Y27360D01*
G01X44881Y27348D01*
G01X44928Y27352D01*
G01X44970Y27366D01*
G01X45006Y27387D01*
G01X45036Y27416D01*
G01X45060Y27451D01*
G01X45078Y27490D01*
G01X45089Y27534D01*
G01X45092Y27581D01*
G01X45083Y27661D01*
G01X45061Y27725D01*
G01X45029Y27777D01*
G37*

%LPD*%
G36*
G01X44828Y28150D02*
G01X44764Y28150D01*
G01X44764Y27891D01*
G01X44828Y27891D01*
G01X44828Y28150D01*
G37*

%LPD*%
G36*
G01X45079Y28663D02*
G01X45011Y28663D01*
G01X45011Y28496D01*
G01X44439Y28496D01*
G01X44439Y28628D01*
G01X44386Y28628D01*
G01X44377Y28583D01*
G01X44365Y28543D01*
G01X44351Y28508D01*
G01X44335Y28478D01*
G01X44335Y28414D01*
G01X45011Y28414D01*
G01X45011Y28262D01*
G01X45079Y28262D01*
G01X45079Y28663D01*
G37*

%LPD*%
G36*
G01X44477Y29222D02*
G01X44432Y29270D01*
G01X44387Y29225D01*
G01X44352Y29175D01*
G01X44330Y29118D01*
G01X44323Y29054D01*
G01X44327Y29007D01*
G01X44338Y28966D01*
G01X44357Y28929D01*
G01X44382Y28899D01*
G01X44414Y28874D01*
G01X44451Y28856D01*
G01X44494Y28845D01*
G01X44541Y28841D01*
G01X44597Y28847D01*
G01X44654Y28862D01*
G01X44711Y28888D01*
G01X44770Y28922D01*
G01X44828Y28966D01*
G01X44889Y29017D01*
G01X44950Y29075D01*
G01X45013Y29141D01*
G01X45011Y29110D01*
G01X45009Y29048D01*
G01X45008Y29019D01*
G01X45008Y28806D01*
G01X45079Y28806D01*
G01X45079Y29265D01*
G01X45029Y29265D01*
G01X44954Y29183D01*
G01X44884Y29112D01*
G01X44819Y29053D01*
G01X44757Y29005D01*
G01X44699Y28969D01*
G01X44645Y28943D01*
G01X44593Y28927D01*
G01X44543Y28922D01*
G01X44482Y28931D01*
G01X44433Y28957D01*
G01X44400Y29002D01*
G01X44389Y29065D01*
G01X44396Y29109D01*
G01X44415Y29150D01*
G01X44443Y29188D01*
G01X44477Y29222D01*
G37*

%LPD*%
G36*
G01X45079Y29844D02*
G01X44335Y29844D01*
G01X44335Y29618D01*
G01X44338Y29563D01*
G01X44346Y29514D01*
G01X44360Y29469D01*
G01X44381Y29432D01*
G01X44409Y29401D01*
G01X44444Y29379D01*
G01X44488Y29364D01*
G01X44541Y29359D01*
G01X44620Y29371D01*
G01X44680Y29407D01*
G01X44723Y29461D01*
G01X44749Y29532D01*
G01X45079Y29341D01*
G01X45079Y29435D01*
G01X44759Y29621D01*
G01X44759Y29761D01*
G01X45079Y29761D01*
G01X45079Y29844D01*
G37*

%LPC*%
G36*
G01X44688Y29761D02*
G01X44404Y29761D01*
G01X44404Y29631D01*
G01X44411Y29552D01*
G01X44434Y29494D01*
G01X44476Y29458D01*
G01X44541Y29446D01*
G01X44607Y29458D01*
G01X44653Y29494D01*
G01X44680Y29552D01*
G01X44688Y29631D01*
G01X44688Y29761D01*
G37*

%LPD*%
G54D45*
G01X29537Y8399D02*
G01X29971Y7256D01*
G01X29537Y8399D02*
G01X29100Y7256D01*
G01X29809Y7637D02*
G01X29263Y7637D01*
G01X27924Y8127D02*
G01X27978Y8237D01*
G01X28087Y8346D01*
G01X28196Y8399D01*
G01X28414Y8399D01*
G01X28524Y8346D01*
G01X28633Y8237D01*
G01X28686Y8127D01*
G01X28740Y7965D01*
G01X28740Y7691D01*
G01X28686Y7528D01*
G01X28633Y7419D01*
G01X28524Y7310D01*
G01X28414Y7256D01*
G01X28196Y7256D01*
G01X28087Y7310D01*
G01X27978Y7419D01*
G01X27924Y7528D01*
G01X29537Y13479D02*
G01X29971Y12336D01*
G01X29537Y13479D02*
G01X29100Y12336D01*
G01X29809Y12717D02*
G01X29263Y12717D01*
G01X27924Y13207D02*
G01X27978Y13317D01*
G01X28087Y13426D01*
G01X28196Y13479D01*
G01X28414Y13479D01*
G01X28524Y13426D01*
G01X28633Y13317D01*
G01X28686Y13207D01*
G01X28740Y13045D01*
G01X28740Y12771D01*
G01X28686Y12608D01*
G01X28633Y12499D01*
G01X28524Y12390D01*
G01X28414Y12336D01*
G01X28196Y12336D01*
G01X28087Y12390D01*
G01X27978Y12499D01*
G01X27924Y12608D01*
G01X998Y16037D02*
G01X998Y17017D01*
G01X508Y16527D02*
G01X1488Y16527D01*
G01X507Y4191D02*
G01X1488Y4191D01*
G01X27104Y3048D02*
G01X27104Y1107D01*
G01X25811Y3048D02*
G01X25811Y1107D01*
G01X27104Y2123D02*
G01X25811Y2123D01*
G01X25201Y3048D02*
G01X25201Y1107D01*
G01X25201Y1107D02*
G01X24091Y1107D01*
G01X23482Y3048D02*
G01X23482Y1107D01*
G01X22189Y3048D02*
G01X23482Y1752D01*
G01X23019Y2214D02*
G01X22189Y1107D01*
G01X21579Y1938D02*
G01X19918Y1938D01*
G01X19309Y3048D02*
G01X19309Y1107D01*
G01X19309Y3048D02*
G01X18475Y3048D01*
G01X18199Y2954D01*
G01X18107Y2862D01*
G01X18013Y2677D01*
G01X18013Y2400D01*
G01X18107Y2214D01*
G01X18199Y2123D01*
G01X18475Y2032D01*
G01X19309Y2032D01*
G01X17404Y3048D02*
G01X17404Y1107D01*
G01X17404Y3048D02*
G01X16667Y1107D01*
G01X15928Y3048D02*
G01X16667Y1107D01*
G01X15928Y3048D02*
G01X15928Y1107D01*
G01X14762Y3048D02*
G01X15041Y2954D01*
G01X15224Y2677D01*
G01X15318Y2214D01*
G01X15318Y1938D01*
G01X15224Y1475D01*
G01X15041Y1198D01*
G01X14762Y1107D01*
G01X14579Y1107D01*
G01X14302Y1198D01*
G01X14117Y1475D01*
G01X14025Y1938D01*
G01X14025Y2214D01*
G01X14117Y2677D01*
G01X14302Y2954D01*
G01X14579Y3048D01*
G01X14762Y3048D01*
G01X13416Y2677D02*
G01X13230Y2768D01*
G01X12953Y3048D01*
G01X12953Y1107D01*
G54D40*
G01X26817Y6985D02*
G01X26817Y6029D01*
G01X26517Y6985D02*
G01X26517Y6029D01*
G01X26517Y6985D02*
G01X25882Y6029D01*
G01X25882Y6985D02*
G01X25882Y6029D01*
G01X25582Y6985D02*
G01X25582Y6029D01*
G01X25582Y6985D02*
G01X25173Y6985D01*
G01X25036Y6939D01*
G01X24991Y6893D01*
G01X24945Y6802D01*
G01X24945Y6664D01*
G01X24991Y6576D01*
G01X25036Y6530D01*
G01X25173Y6484D01*
G01X25582Y6484D01*
G01X24645Y6985D02*
G01X24645Y6301D01*
G01X24599Y6167D01*
G01X24508Y6075D01*
G01X24373Y6029D01*
G01X24282Y6029D01*
G01X24145Y6075D01*
G01X24053Y6167D01*
G01X24008Y6301D01*
G01X24008Y6985D01*
G01X23390Y6985D02*
G01X23390Y6029D01*
G01X23708Y6985D02*
G01X23073Y6985D01*
G01X22727Y6576D02*
G01X22773Y6530D01*
G01X22727Y6484D01*
G01X22682Y6530D01*
G01X22727Y6576D01*
G01X22727Y6256D02*
G01X22773Y6212D01*
G01X22727Y6167D01*
G01X22682Y6212D01*
G01X22727Y6256D01*
G01X21681Y6802D02*
G01X21589Y6847D01*
G01X21455Y6985D01*
G01X21455Y6029D01*
G01X20881Y6985D02*
G01X21018Y6939D01*
G01X21109Y6802D01*
G01X21155Y6576D01*
G01X21155Y6438D01*
G01X21109Y6212D01*
G01X21018Y6075D01*
G01X20881Y6029D01*
G01X20789Y6029D01*
G01X20655Y6075D01*
G01X20563Y6212D01*
G01X20518Y6438D01*
G01X20518Y6576D01*
G01X20563Y6802D01*
G01X20655Y6939D01*
G01X20789Y6985D01*
G01X20881Y6985D01*
G01X19946Y6985D02*
G01X20081Y6939D01*
G01X20172Y6802D01*
G01X20218Y6576D01*
G01X20218Y6438D01*
G01X20172Y6212D01*
G01X20081Y6075D01*
G01X19946Y6029D01*
G01X19855Y6029D01*
G01X19717Y6075D01*
G01X19626Y6212D01*
G01X19580Y6438D01*
G01X19580Y6576D01*
G01X19626Y6802D01*
G01X19717Y6939D01*
G01X19855Y6985D01*
G01X19946Y6985D01*
G01X19281Y6438D02*
G01X18463Y6438D01*
G01X18117Y6756D02*
G01X18117Y6802D01*
G01X18072Y6893D01*
G01X18026Y6939D01*
G01X17937Y6985D01*
G01X17754Y6985D01*
G01X17663Y6939D01*
G01X17617Y6893D01*
G01X17571Y6802D01*
G01X17571Y6710D01*
G01X17617Y6621D01*
G01X17708Y6484D01*
G01X18163Y6029D01*
G01X17528Y6029D01*
G01X16774Y6985D02*
G01X17226Y6347D01*
G01X16545Y6347D01*
G01X16774Y6985D02*
G01X16774Y6029D01*
G01X15974Y6985D02*
G01X16108Y6939D01*
G01X16200Y6802D01*
G01X16245Y6576D01*
G01X16245Y6438D01*
G01X16200Y6212D01*
G01X16108Y6075D01*
G01X15974Y6029D01*
G01X15882Y6029D01*
G01X15745Y6075D01*
G01X15653Y6212D01*
G01X15608Y6438D01*
G01X15608Y6576D01*
G01X15653Y6802D01*
G01X15745Y6939D01*
G01X15882Y6985D01*
G01X15974Y6985D01*
G01X15308Y6985D02*
G01X14945Y6029D01*
G01X14582Y6985D02*
G01X14945Y6029D01*
G01X13919Y6985D02*
G01X14282Y6029D01*
G01X13919Y6985D02*
G01X13555Y6029D01*
G01X14145Y6347D02*
G01X13690Y6347D01*
G01X12572Y6756D02*
G01X12618Y6847D01*
G01X12710Y6939D01*
G01X12799Y6985D01*
G01X12981Y6985D01*
G01X13073Y6939D01*
G01X13164Y6847D01*
G01X13210Y6756D01*
G01X13253Y6621D01*
G01X13253Y6393D01*
G01X13210Y6256D01*
G01X13164Y6167D01*
G01X13073Y6075D01*
G01X12981Y6029D01*
G01X12799Y6029D01*
G01X12710Y6075D01*
G01X12618Y6167D01*
G01X12572Y6256D01*
G01X26545Y4968D02*
G01X26636Y4922D01*
G01X26728Y4831D01*
G01X26774Y4742D01*
G01X26817Y4605D01*
G01X26817Y4376D01*
G01X26774Y4241D01*
G01X26728Y4150D01*
G01X26636Y4058D01*
G01X26545Y4013D01*
G01X26362Y4013D01*
G01X26273Y4058D01*
G01X26182Y4150D01*
G01X26136Y4241D01*
G01X26090Y4376D01*
G01X26090Y4605D01*
G01X26136Y4742D01*
G01X26182Y4831D01*
G01X26273Y4922D01*
G01X26362Y4968D01*
G01X26545Y4968D01*
G01X25791Y4968D02*
G01X25791Y4287D01*
G01X25745Y4150D01*
G01X25653Y4058D01*
G01X25519Y4013D01*
G01X25427Y4013D01*
G01X25290Y4058D01*
G01X25199Y4150D01*
G01X25153Y4287D01*
G01X25153Y4968D01*
G01X24536Y4968D02*
G01X24536Y4013D01*
G01X24853Y4968D02*
G01X24218Y4968D01*
G01X23919Y4968D02*
G01X23919Y4013D01*
G01X23919Y4968D02*
G01X23510Y4968D01*
G01X23373Y4922D01*
G01X23327Y4876D01*
G01X23281Y4785D01*
G01X23281Y4650D01*
G01X23327Y4559D01*
G01X23373Y4513D01*
G01X23510Y4467D01*
G01X23919Y4467D01*
G01X22981Y4968D02*
G01X22981Y4287D01*
G01X22936Y4150D01*
G01X22844Y4058D01*
G01X22710Y4013D01*
G01X22618Y4013D01*
G01X22481Y4058D01*
G01X22390Y4150D01*
G01X22344Y4287D01*
G01X22344Y4968D01*
G01X21727Y4968D02*
G01X21727Y4013D01*
G01X22044Y4968D02*
G01X21409Y4968D01*
G01X21064Y4559D02*
G01X21109Y4513D01*
G01X21064Y4467D01*
G01X21018Y4513D01*
G01X21064Y4559D01*
G01X21064Y4241D02*
G01X21109Y4196D01*
G01X21064Y4150D01*
G01X21018Y4196D01*
G01X21064Y4241D01*
G01X19471Y4968D02*
G01X19926Y4968D01*
G01X19971Y4559D01*
G01X19926Y4605D01*
G01X19791Y4650D01*
G01X19654Y4650D01*
G01X19517Y4605D01*
G01X19428Y4513D01*
G01X19382Y4376D01*
G01X19382Y4287D01*
G01X19428Y4150D01*
G01X19517Y4058D01*
G01X19654Y4013D01*
G01X19791Y4013D01*
G01X19926Y4058D01*
G01X19971Y4104D01*
G01X20017Y4196D01*
G01X19082Y4968D02*
G01X18717Y4013D01*
G01X18354Y4968D02*
G01X18717Y4013D01*
G01X18054Y4968D02*
G01X18054Y4013D01*
G01X18054Y4968D02*
G01X17736Y4968D01*
G01X17599Y4922D01*
G01X17508Y4831D01*
G01X17465Y4742D01*
G01X17419Y4605D01*
G01X17419Y4376D01*
G01X17465Y4241D01*
G01X17508Y4150D01*
G01X17599Y4058D01*
G01X17736Y4013D01*
G01X18054Y4013D01*
G01X16436Y4742D02*
G01X16482Y4831D01*
G01X16573Y4922D01*
G01X16664Y4968D01*
G01X16845Y4968D01*
G01X16936Y4922D01*
G01X17028Y4831D01*
G01X17073Y4742D01*
G01X17119Y4605D01*
G01X17119Y4376D01*
G01X17073Y4241D01*
G01X17028Y4150D01*
G01X16936Y4058D01*
G01X16845Y4013D01*
G01X16664Y4013D01*
G01X16573Y4058D01*
G01X16482Y4150D01*
G01X16436Y4241D01*
G01X15318Y5151D02*
G01X16136Y3695D01*
G01X14927Y4968D02*
G01X14427Y4968D01*
G01X14698Y4605D01*
G01X14564Y4605D01*
G01X14472Y4559D01*
G01X14427Y4513D01*
G01X14381Y4376D01*
G01X14381Y4287D01*
G01X14427Y4150D01*
G01X14518Y4058D01*
G01X14655Y4013D01*
G01X14790Y4013D01*
G01X14927Y4058D01*
G01X14973Y4104D01*
G01X15018Y4196D01*
G01X14081Y4968D02*
G01X13855Y4013D01*
G01X13627Y4968D02*
G01X13855Y4013D01*
G01X13627Y4968D02*
G01X13401Y4013D01*
G01X13172Y4968D02*
G01X13401Y4013D01*

%LPD*%
G36*
G01X673Y19537D02*
G01X635Y19537D01*
G01X635Y19235D01*
G01X675Y19235D01*
G01X685Y19344D01*
G01X1244Y19148D01*
G01X685Y18968D01*
G01X675Y19070D01*
G01X635Y19070D01*
G01X635Y18816D01*
G01X670Y18816D01*
G01X685Y18912D01*
G01X1386Y19146D01*
G01X1386Y19192D01*
G01X680Y19451D01*
G01X673Y19537D01*
G37*

%LPD*%
G36*
G01X1306Y20039D02*
G01X1239Y20065D01*
G01X1223Y20056D01*
G01X1212Y20045D01*
G01X1205Y20030D01*
G01X1203Y20012D01*
G01X1207Y19991D01*
G01X1218Y19975D01*
G01X1239Y19963D01*
G01X1272Y19954D01*
G01X1341Y19933D01*
G01X1344Y19916D01*
G01X1348Y19899D01*
G01X1350Y19882D01*
G01X1351Y19865D01*
G01X1337Y19792D01*
G01X1298Y19739D01*
G01X1237Y19706D01*
G01X1158Y19695D01*
G01X1080Y19707D01*
G01X1023Y19742D01*
G01X987Y19798D01*
G01X975Y19870D01*
G01X976Y19897D01*
G01X979Y19923D01*
G01X983Y19950D01*
G01X990Y19976D01*
G01X980Y20004D01*
G01X635Y19982D01*
G01X635Y19618D01*
G01X721Y19618D01*
G01X721Y19938D01*
G01X932Y19954D01*
G01X924Y19927D01*
G01X918Y19900D01*
G01X915Y19871D01*
G01X914Y19842D01*
G01X918Y19790D01*
G01X930Y19743D01*
G01X949Y19701D01*
G01X975Y19666D01*
G01X1009Y19637D01*
G01X1049Y19616D01*
G01X1095Y19603D01*
G01X1148Y19598D01*
G01X1200Y19603D01*
G01X1248Y19616D01*
G01X1289Y19639D01*
G01X1325Y19669D01*
G01X1353Y19706D01*
G01X1374Y19750D01*
G01X1387Y19801D01*
G01X1391Y19857D01*
G01X1382Y19935D01*
G01X1353Y19996D01*
G01X1306Y20039D01*
G37*

%LPD*%
G54D43*
G75*
G01X13203Y32842D02*
G02X13201Y32842I-1J-200D01*
G01*
G54D44*
G75*
G01X10003Y31442D02*
G02X9998Y31442I-3J-350D01*
G01*
G54D43*
G75*
G01X29329Y32845D02*
G02X29327Y32845I-1J-200D01*
G01*
G54D44*
G75*
G01X26129Y31445D02*
G02X26124Y31445I-3J-350D01*
G01*
M00*
M02*
