G04 Layer: TopLayer*
G04 EasyEDA v5.9.42, Tue, 02 Apr 2019 20:51:07 GMT*
G04 166f39b61798459ea13d042530858995*
G04 Gerber Generator version 0.2*
G04 Scale: 100 percent, Rotated: No, Reflected: No *
G04 Dimensions in millimeters *
G04 leading zeros omitted , absolute positions ,3 integer and 3 decimal *
%FSLAX33Y33*%
%MOMM*%
G90*
G71D02*

%ADD11C,1.250010*%
%ADD12C,0.151994*%
%ADD13C,0.699999*%
%ADD14C,0.619760*%
%ADD15R,1.600200X1.800860*%
%ADD16R,1.499997X2.999994*%
%ADD17R,1.219200X0.909320*%
%ADD18R,1.600200X1.999996*%
%ADD19R,1.800860X1.600200*%
%ADD20R,1.160018X1.450010*%
%ADD21R,1.699997X1.699997*%
%ADD22C,1.699997*%
%ADD23C,3.048000*%
%ADD24C,3.050007*%
%ADD25C,2.794000*%
%ADD26C,1.999996*%

%LPD*%
G54D11*
G01X32354Y12913D02*
G01X32298Y12913D01*
G01X27305Y17906D01*
G01X27305Y36829D01*
G01X28829Y38353D01*
G01X32004Y38353D01*
G01X39207Y45557D01*
G01X39207Y45592D01*
G01X23495Y45973D02*
G01X23495Y42417D01*
G01X24002Y41909D01*
G01X24002Y37707D01*
G01X24003Y37707D01*
G01X7874Y45973D02*
G01X7874Y37834D01*
G01X8001Y37707D01*
G01X18003Y23505D02*
G01X18044Y23505D01*
G01X20701Y26161D01*
G01X20701Y43687D01*
G01X18415Y45973D01*
G01X14000Y23505D02*
G01X13959Y23505D01*
G01X11303Y26161D01*
G01X11303Y44322D01*
G01X12954Y45973D01*
G01X2001Y23505D02*
G01X2042Y23505D01*
G01X4699Y26161D01*
G01X4699Y44068D01*
G01X2794Y45973D01*
G54D12*
G01X41148Y8002D02*
G01X41148Y6476D01*
G01X38862Y4190D01*
G01X38409Y16572D02*
G01X39688Y16572D01*
G01X41147Y15112D01*
G01X41148Y15112D01*
G01X41148Y8002D01*
G01X49403Y8002D02*
G01X49403Y6731D01*
G01X49148Y6476D01*
G01X42798Y6476D01*
G01X42417Y6857D01*
G01X42417Y7746D01*
G01X42163Y8000D01*
G01X42162Y8002D01*
G01X41148Y8002D01*
G01X38409Y16572D02*
G01X38409Y25716D01*
G01X38409Y25717D02*
G01X38409Y30916D01*
G01X39550Y32057D01*
G01X39550Y33779D01*
G01X39550Y33780D02*
G01X39547Y33782D01*
G01X39547Y36702D01*
G01X39547Y36702D02*
G01X39547Y40439D01*
G01X42293Y43177D01*
G01X43690Y43177D01*
G01X49416Y49995D02*
G01X47328Y49995D01*
G01X46482Y49148D01*
G01X43689Y43178D02*
G01X45340Y43178D01*
G01X46608Y41909D01*
G01X46608Y41274D01*
G01X47497Y40385D01*
G01X49021Y40385D01*
G01X33843Y25709D02*
G01X33843Y25715D01*
G01X33909Y25780D01*
G01X25526Y26034D02*
G01X22859Y26034D01*
G01X19939Y9397D02*
G01X19939Y5333D01*
G01X21082Y4190D01*
G01X38862Y4190D01*
G01X16637Y14272D02*
G01X16637Y7619D01*
G01X21518Y2738D01*
G01X42489Y2738D01*
G01X43942Y4190D01*
G01X17272Y14096D02*
G01X17272Y7492D01*
G01X21673Y3091D01*
G01X40302Y3091D01*
G01X41402Y4190D01*
G01X48387Y9524D02*
G01X50165Y9524D01*
G01X50439Y9250D01*
G01X50439Y5608D01*
G01X49022Y4190D01*
G01X46482Y4190D01*
G01X40512Y1016D02*
G01X39750Y254D01*
G01X35433Y254D01*
G01X34800Y887D01*
G01X25146Y17144D02*
G01X18796Y17144D01*
G01X18288Y17652D01*
G01X8890Y17652D01*
G01X5082Y13845D01*
G01X5082Y9395D01*
G01X35308Y4824D02*
G01X34037Y4824D01*
G01X34036Y4825D01*
G01X23494Y30860D02*
G01X24764Y30860D01*
G01X26797Y38607D02*
G01X26797Y45338D01*
G01X24257Y47878D01*
G01X17399Y47878D01*
G01X14000Y35708D02*
G01X14000Y44480D01*
G01X17399Y47878D01*
G01X49657Y29336D02*
G01X48768Y28447D01*
G01X48768Y26542D01*
G01X48387Y26161D01*
G01X47625Y26161D01*
G01X46228Y27558D01*
G01X42418Y27558D01*
G01X42037Y27177D01*
G01X42037Y26669D01*
G01X41783Y26415D01*
G01X40513Y26415D01*
G01X43308Y29462D02*
G01X46226Y29462D01*
G01X46736Y29971D01*
G01X38409Y25716D02*
G01X33850Y25716D01*
G01X33843Y25709D01*
G01X39245Y5712D02*
G01X38356Y5712D01*
G01X37211Y6857D01*
G01X37211Y11683D01*
G01X33020Y15874D01*
G01X33020Y32384D01*
G01X34165Y33530D01*
G01X34165Y34922D01*
G01X34165Y37335D02*
G01X33144Y37335D01*
G01X32639Y36829D01*
G01X32639Y15747D01*
G01X35179Y13207D01*
G01X35179Y11302D01*
G01X36577Y9904D01*
G01X42036Y9524D02*
G01X42036Y10918D01*
G01X42038Y10920D01*
G01X40514Y10793D02*
G01X38356Y10793D01*
G01X38356Y10793D01*
G01X10035Y21207D02*
G01X6860Y21207D01*
G01X25400Y29209D02*
G01X24638Y29209D01*
G01X22225Y26796D01*
G01X22225Y23748D01*
G01X21717Y23240D01*
G01X21717Y22605D01*
G01X45410Y16572D02*
G01X45410Y14406D01*
G01X46608Y13207D01*
G01X46609Y13207D01*
G01X46609Y8002D01*
G01X45410Y16572D02*
G01X45410Y19994D01*
G01X43306Y22097D01*
G01X43306Y26415D01*
G01X39481Y27447D02*
G01X39481Y24904D01*
G01X39878Y24510D01*
G01X42544Y24129D02*
G01X40258Y24129D01*
G01X39878Y24510D01*
G01X45410Y25716D02*
G01X45410Y23693D01*
G01X45084Y23367D01*
G01X44830Y23367D01*
G01X44068Y24129D01*
G01X38354Y8002D02*
G01X38354Y9905D01*
G01X38353Y9905D01*
G01X49352Y33781D02*
G01X50292Y33781D01*
G01X50546Y33527D01*
G01X50546Y29463D01*
G01X49657Y28574D01*
G01X49657Y27838D01*
G01X47370Y31089D02*
G01X47370Y31749D01*
G01X47879Y32257D01*
G01X47119Y43178D02*
G01X47120Y43179D01*
G01X49021Y43179D01*
G01X49415Y47454D02*
G01X47835Y47454D01*
G01X47244Y46862D01*
G01X47118Y43178D02*
G01X47118Y46737D01*
G01X47244Y46862D01*
G01X46151Y33781D02*
G01X44958Y33781D01*
G01X43688Y35051D01*
G01X42037Y35051D01*
G01X41529Y35559D01*
G01X41529Y39877D01*
G01X42039Y40383D01*
G01X43690Y40383D01*
G01X45084Y40385D02*
G01X45083Y40384D01*
G01X43689Y40384D01*
G01X41656Y28701D02*
G01X41656Y32638D01*
G01X41148Y33146D01*
G01X41148Y40893D01*
G01X42164Y41909D01*
G01X40259Y42290D02*
G01X39497Y42290D01*
G01X37846Y40639D01*
G01X37846Y35559D01*
G01X37211Y34924D01*
G01X36195Y34924D01*
G01X40769Y32383D02*
G01X40769Y32636D01*
G01X40766Y32638D01*
G01X40766Y37973D01*
G01X40386Y38353D01*
G01X39624Y42925D02*
G01X36195Y39496D01*
G01X36195Y37337D01*
G01X49657Y31089D02*
G01X48869Y31089D01*
G01X48513Y30733D01*
G01X45644Y27864D01*
G01X42493Y27864D01*
G01X41655Y28701D01*
G01X49352Y36702D02*
G01X48133Y36702D01*
G01X47244Y35813D01*
G01X47244Y32638D01*
G01X45590Y30985D01*
G01X42293Y30985D01*
G01X47754Y26795D02*
G01X47371Y27178D01*
G01X47371Y27838D01*
G01X40513Y29463D02*
G01X39369Y29463D01*
G01X38988Y29082D01*
G01X38988Y27939D01*
G01X39481Y27447D01*
G01X39625Y28065D02*
G01X41276Y28065D01*
G01X49658Y26668D02*
G01X49657Y26670D01*
G01X49657Y27838D01*
G01X17272Y17017D02*
G01X17272Y14907D01*
G01X16637Y14272D01*
G01X43561Y43306D02*
G01X43561Y44449D01*
G01X43942Y44830D01*
G01X45593Y44830D01*
G01X46482Y45719D01*
G01X46482Y49148D01*
G54D13*
G01X50165Y46184D02*
G01X48665Y46184D01*
G01X50165Y47454D02*
G01X48665Y47454D01*
G01X50165Y48724D02*
G01X48665Y48724D01*
G01X50165Y49994D02*
G01X48665Y49994D01*
G01X44120Y46184D02*
G01X42620Y46184D01*
G01X44120Y47454D02*
G01X42620Y47454D01*
G01X44120Y48724D02*
G01X42620Y48724D01*
G01X44120Y49994D02*
G01X42620Y49994D01*
G54D15*
G01X46609Y8002D03*
G01X49403Y8002D03*
G01X38354Y8002D03*
G01X41148Y8002D03*
G54D16*
G01X45410Y16572D03*
G01X43409Y8573D03*
G01X38409Y16572D03*
G01X45410Y25716D03*
G01X43409Y17717D03*
G01X38409Y25716D03*
G54D17*
G01X49657Y31089D03*
G01X49657Y27838D03*
G01X47371Y31089D03*
G01X47371Y27838D03*
G54D18*
G01X46151Y33781D03*
G01X49352Y33781D03*
G01X46151Y36702D03*
G01X49352Y36702D03*
G54D15*
G01X43307Y26415D03*
G01X40513Y26415D03*
G01X40513Y29463D03*
G01X43307Y29463D03*
G54D19*
G01X43561Y40512D03*
G01X43561Y43306D03*
G01X49149Y40512D03*
G01X49149Y43306D03*
G54D18*
G01X39548Y33781D03*
G01X42747Y33781D03*
G01X39548Y36702D03*
G01X42747Y36702D03*
G54D20*
G01X36195Y34924D03*
G01X34163Y34924D03*
G01X36195Y37337D03*
G01X34163Y37337D03*
G54D21*
G01X38862Y1650D03*
G54D22*
G01X38862Y4190D03*
G01X41402Y1650D03*
G01X41402Y4190D03*
G01X43942Y1650D03*
G01X43942Y4190D03*
G01X46482Y1650D03*
G01X46482Y4190D03*
G54D23*
G01X2952Y2713D03*
G01X2952Y18113D03*
G01X32353Y7915D03*
G54D24*
G01X32353Y12914D03*
G54D25*
G01X18003Y23506D03*
G01X24003Y37707D03*
G01X30002Y35708D03*
G01X18003Y35708D03*
G01X30002Y23506D03*
G01X2001Y23506D03*
G01X8001Y37707D03*
G01X14000Y35708D03*
G01X2001Y35708D03*
G01X14000Y23506D03*
G54D26*
G01X18415Y45973D03*
G01X23495Y45973D03*
G01X28575Y45973D03*
G01X2794Y45973D03*
G01X7874Y45973D03*
G01X12954Y45973D03*
G54D14*
G01X44082Y46197D03*
G01X40132Y33781D03*
G01X33843Y25709D03*
G01X25527Y26034D03*
G01X22860Y26034D03*
G01X19939Y9397D03*
G01X17272Y17017D03*
G01X17272Y14096D03*
G01X48387Y9524D03*
G01X40513Y1015D03*
G01X34800Y887D03*
G01X25146Y17144D03*
G01X5082Y9396D03*
G01X34036Y4825D03*
G01X35308Y4824D03*
G01X23495Y30860D03*
G01X24765Y30860D03*
G01X26797Y38607D03*
G01X44095Y49981D03*
G01X49657Y29336D03*
G01X48659Y48719D03*
G01X46736Y29971D03*
G01X39245Y5713D03*
G01X42037Y9524D03*
G01X36578Y9904D03*
G01X40515Y10793D03*
G01X42039Y10920D03*
G01X38356Y10793D03*
G01X10035Y21207D03*
G01X6860Y21207D03*
G01X25400Y29209D03*
G01X21717Y22605D03*
G01X44069Y24129D03*
G01X42545Y24129D03*
G01X38354Y9905D03*
G01X47879Y32257D03*
G01X48679Y46193D03*
G01X46736Y37464D03*
G01X47119Y43178D03*
G01X44108Y48732D03*
G01X45085Y40385D03*
G01X42164Y41909D03*
G01X44119Y47446D03*
G01X42164Y33781D03*
G01X40259Y42290D03*
G01X42164Y36702D03*
G01X40769Y32383D03*
G01X40386Y38353D03*
G01X39624Y42925D03*
G01X42293Y30986D03*
G01X47754Y26795D03*
G01X39626Y28065D03*
G01X41277Y28065D03*
G01X49659Y26668D03*
G54D26*
G01X34098Y45592D02*
G01X34298Y45592D01*
G01X39107Y45592D02*
G01X39307Y45592D01*
M00*
M02*
